<svg width="30" height="30" viewBox="0 0 30 30" fill="none" xmlns="http://www.w3.org/2000/svg">
<path fill-rule="evenodd" clip-rule="evenodd" d="M17.2783 7.9766C17.1097 7.67586 16.7905 7.5 16.4458 7.5H13.5884C13.2252 7.5 12.892 7.69479 12.7266 8.01812C12.6562 8.15574 12.5749 8.31765 12.4858 8.5H17.5618C17.4561 8.29821 17.36 8.12228 17.2783 7.9766ZM10.5 15C10.5 13.2831 11.3188 11.0748 12.0193 9.5H18.0539C18.7369 10.9801 19.5 13.0663 19.5 15V23C19.5 24.1046 18.6046 25 17.5 25H12.5C11.3954 25 10.5 24.1046 10.5 23V15ZM12 15C11.7239 15 11.5 15.2239 11.5 15.5V21.5C11.5 21.7761 11.7239 22 12 22C12.2761 22 12.5 21.7761 12.5 21.5V15.5C12.5 15.2239 12.2761 15 12 15Z" fill="black"/>
<rect x="11.5" y="5.5" width="7" height="3" rx="1" fill="black"/>
</svg>
