<svg width="30" height="30" viewBox="0 0 30 30" fill="none" xmlns="http://www.w3.org/2000/svg">
<mask id="path-1-inside-1" fill="white">
<path fill-rule="evenodd" clip-rule="evenodd" d="M5.84444 5C5.37807 5 5 5.37807 5 5.84444V24.1556C5 24.6219 5.37807 25 5.84444 25H24.1556C24.6219 25 25 24.6219 25 24.1556V5.84444C25 5.37807 24.6219 5 24.1556 5H5.84444ZM8.84444 8C8.37807 8 8 8.37807 8 8.84444V21.1556C8 21.6219 8.37807 22 8.84444 22H21.1556C21.6219 22 22 21.6219 22 21.1556V8.84444C22 8.37807 21.6219 8 21.1556 8H8.84444Z"/>
</mask>
<path fill-rule="evenodd" clip-rule="evenodd" d="M5.84444 5C5.37807 5 5 5.37807 5 5.84444V24.1556C5 24.6219 5.37807 25 5.84444 25H24.1556C24.6219 25 25 24.6219 25 24.1556V5.84444C25 5.37807 24.6219 5 24.1556 5H5.84444ZM8.84444 8C8.37807 8 8 8.37807 8 8.84444V21.1556C8 21.6219 8.37807 22 8.84444 22H21.1556C21.6219 22 22 21.6219 22 21.1556V8.84444C22 8.37807 21.6219 8 21.1556 8H8.84444Z" fill="black"/>
<path d="M6 5.84444C6 5.93036 5.93035 6 5.84444 6V4C4.82579 4 4 4.82578 4 5.84444H6ZM6 24.1556V5.84444H4V24.1556H6ZM5.84444 24C5.93036 24 6 24.0696 6 24.1556H4C4 25.1742 4.82578 26 5.84444 26V24ZM24.1556 24H5.84444V26H24.1556V24ZM24 24.1556C24 24.0696 24.0696 24 24.1556 24V26C25.1742 26 26 25.1742 26 24.1556H24ZM24 5.84444V24.1556H26V5.84444H24ZM24.1556 6C24.0696 6 24 5.93036 24 5.84444H26C26 4.82579 25.1742 4 24.1556 4V6ZM5.84444 6H24.1556V4H5.84444V6ZM9 8.84444C9 8.93036 8.93036 9 8.84444 9V7C7.82579 7 7 7.82579 7 8.84444H9ZM9 21.1556V8.84444H7V21.1556H9ZM8.84444 21C8.93036 21 9 21.0696 9 21.1556H7C7 22.1742 7.82579 23 8.84444 23V21ZM21.1556 21H8.84444V23H21.1556V21ZM21 21.1556C21 21.0696 21.0696 21 21.1556 21V23C22.1742 23 23 22.1742 23 21.1556H21ZM21 8.84444V21.1556H23V8.84444H21ZM21.1556 9C21.0696 9 21 8.93036 21 8.84444H23C23 7.82579 22.1742 7 21.1556 7V9ZM8.84444 9H21.1556V7H8.84444V9Z" fill="black" mask="url(#path-1-inside-1)"/>
<mask id="path-3-inside-2" fill="white">
<path d="M8 24H11V25.5778C11 25.811 10.811 26 10.5778 26H8.42222C8.18904 26 8 25.811 8 25.5778V24Z"/>
</mask>
<path d="M8 24H11V25.5778C11 25.811 10.811 26 10.5778 26H8.42222C8.18904 26 8 25.811 8 25.5778V24Z" stroke="black" stroke-width="2" mask="url(#path-3-inside-2)"/>
<mask id="path-4-inside-3" fill="white">
<path d="M19 24H22V25.5778C22 25.811 21.811 26 21.5778 26H19.4222C19.189 26 19 25.811 19 25.5778V24Z"/>
</mask>
<path d="M19 24H22V25.5778C22 25.811 21.811 26 21.5778 26H19.4222C19.189 26 19 25.811 19 25.5778V24Z" stroke="black" stroke-width="2" mask="url(#path-4-inside-3)"/>
<circle cx="15" cy="15" r="3" fill="black"/>
<rect x="10.4" y="18.8853" width="4" height="1" rx="0.5" transform="rotate(-45 10.4 18.8853)" fill="black"/>
<rect x="16.0569" y="13.2284" width="4" height="1" rx="0.5" transform="rotate(-45 16.0569 13.2284)" fill="black"/>
<rect x="11.1072" y="10.4" width="4" height="1" rx="0.5" transform="rotate(45 11.1072 10.4)" fill="black"/>
<rect x="16.764" y="16.0569" width="4" height="1" rx="0.5" transform="rotate(45 16.764 16.0569)" fill="black"/>
</svg>
