<svg width="30" height="30" viewBox="0 0 30 30" fill="none" xmlns="http://www.w3.org/2000/svg">
<path fill-rule="evenodd" clip-rule="evenodd" d="M10 4C8.89543 4 8 4.89543 8 6V24C8 25.1046 8.89543 26 10 26H20.6667C21.7712 26 22.6667 25.1046 22.6667 24V6C22.6667 4.89543 21.7712 4 20.6667 4H10ZM11.4444 6.44444C10.8922 6.44444 10.4444 6.89216 10.4444 7.44445V14C10.4444 14.5523 10.8922 15 11.4444 15H19.2222C19.7745 15 20.2222 14.5523 20.2222 14V7.44444C20.2222 6.89216 19.7745 6.44444 19.2222 6.44444H11.4444ZM10.4444 17.6667C10.4444 18.219 10.8922 18.6667 11.4444 18.6667H13.1111C13.6634 18.6667 14.1111 18.219 14.1111 17.6667V17.2222C14.1111 16.6699 13.6634 16.2222 13.1111 16.2222H11.4444C10.8922 16.2222 10.4444 16.6699 10.4444 17.2222V17.6667ZM17.5556 18.6667C17.0033 18.6667 16.5556 18.219 16.5556 17.6667V17.2222C16.5556 16.6699 17.0033 16.2222 17.5556 16.2222H19.2222C19.7745 16.2222 20.2222 16.6699 20.2222 17.2222V17.6667C20.2222 18.219 19.7745 18.6667 19.2222 18.6667H17.5556Z" fill="black"/>
</svg>
