<svg width="30" height="30" viewBox="0 0 30 30" fill="none" xmlns="http://www.w3.org/2000/svg">
<path fill-rule="evenodd" clip-rule="evenodd" d="M15.1408 5.19375C14.8133 4.92577 14.3392 4.93694 14.0246 5.22003L6.28374 12.1868C6.10313 12.3494 6 12.5809 6 12.8239V23.585C6 24.0584 6.38376 24.4422 6.85714 24.4422H11.5714C12.0448 24.4422 12.4286 24.0584 12.4286 23.585V18.4422C12.4286 17.9688 12.8123 17.585 13.2857 17.585H16.7143C17.1877 17.585 17.5714 17.9688 17.5714 18.4422V23.5851C17.5714 24.0584 17.9552 24.4422 18.4286 24.4422H23.1429C23.6162 24.4422 24 24.0584 24 23.5851V12.8484C24 12.5913 23.8846 12.3478 23.6856 12.185L15.1408 5.19375Z" fill="black"/>
</svg>
