<svg width="30" height="30" viewBox="0 0 30 30" fill="none" xmlns="http://www.w3.org/2000/svg">
<path fill-rule="evenodd" clip-rule="evenodd" d="M23 23.5333C23 19.115 19.4183 15.5333 15 15.5333C12.5987 15.5333 10.4444 16.5913 8.97805 18.2667H13.53C13.8062 18.2667 14.03 18.4905 14.03 18.7667C14.03 19.0428 13.8062 19.2667 13.53 19.2667H8.23153C8.00447 19.6261 7.80525 20.0049 7.63691 20.4H12.3633C12.6395 20.4 12.8633 20.6238 12.8633 20.9C12.8633 21.1761 12.6395 21.4 12.3633 21.4H7.28759C7.10014 22.0792 7 22.7945 7 23.5333H23Z" fill="black"/>
<mask id="path-2-inside-1" fill="white">
<path fill-rule="evenodd" clip-rule="evenodd" d="M11.8285 10.2333C11.8097 10.3969 11.8 10.5638 11.8 10.7333C11.8 12.7952 13.2327 14.4667 15 14.4667C16.7673 14.4667 18.2 12.7952 18.2 10.7333C18.2 10.5638 18.1903 10.3969 18.1716 10.2333H11.8285Z"/>
</mask>
<path d="M11.8285 10.2333V9.23334H10.9366L10.835 10.1194L11.8285 10.2333ZM18.1716 10.2333L19.165 10.1194L19.0634 9.23334H18.1716V10.2333ZM12.8 10.7333C12.8 10.6019 12.8075 10.473 12.8219 10.3473L10.835 10.1194C10.8119 10.3207 10.8 10.5257 10.8 10.7333H12.8ZM15 13.4667C13.924 13.4667 12.8 12.3931 12.8 10.7333H10.8C10.8 13.1973 12.5413 15.4667 15 15.4667V13.4667ZM17.2 10.7333C17.2 12.3931 16.076 13.4667 15 13.4667V15.4667C17.4587 15.4667 19.2 13.1973 19.2 10.7333H17.2ZM17.1781 10.3473C17.1925 10.473 17.2 10.6019 17.2 10.7333H19.2C19.2 10.5257 19.1881 10.3207 19.165 10.1194L17.1781 10.3473ZM18.1716 9.23334H11.8285V11.2333H18.1716V9.23334Z" fill="black" mask="url(#path-2-inside-1)"/>
<path fill-rule="evenodd" clip-rule="evenodd" d="M18.7333 10.7333C18.7333 10.9144 18.7204 11.0925 18.6955 11.2667H11.3045C11.2796 11.0925 11.2667 10.9144 11.2667 10.7333C11.2667 8.67147 12.9381 7 15 7C17.0619 7 18.7333 8.67147 18.7333 10.7333ZM15 10C15.5523 10 16 9.55229 16 9.00001C16 8.44772 15.5523 8.00001 15 8.00001C14.4477 8.00001 14 8.44772 14 9.00001C14 9.55229 14.4477 10 15 10Z" fill="black"/>
<line x1="11.2333" y1="10.7667" x2="18.7667" y2="10.7667" stroke="black" stroke-linecap="round" stroke-linejoin="round"/>
</svg>
