<svg xmlns="http://www.w3.org/2000/svg" fill="none" viewBox="0 0 24 24" stroke="currentColor">
  <path stroke-linecap="round" d="M8 20.5h9.5a1 1 0 0 0 1-1V6"/>
  <path d="M5 4.075A1.07 1.07 0 0 1 6.066 3h9.444a1.07 1.07 0 0 1 1.066 1.075v13.41a1.07 1.07 0 0 1-1.066 1.075H6.066A1.07 1.07 0 0 1 5 17.485V4.075Zm3.222 10.213a.79.79 0 0 1 0-1.256 4.185 4.185 0 0 1 2.566-.875c.965 0 1.855.326 2.566.875a.79.79 0 0 1 0 1.256 4.185 4.185 0 0 1-2.566.876 4.185 4.185 0 0 1-2.566-.876Zm2.564-2.884c1.096 0 1.985-1.12 1.985-2.504 0-1.382-.889-2.503-1.985-2.503C9.689 6.397 8.8 7.517 8.8 8.9s.888 2.504 1.985 2.504Z" clip-rule="evenodd"/>
</svg>
