<svg xmlns="http://www.w3.org/2000/svg" fill="none" viewBox="0 0 24 24" stroke="currentColor">
  <path fill="#000" d="M17.135 8.96l.374-.034v-.003l-.374.037zm-3.71-2.528h-.375v.341l.34.032.035-.373zm2.355 4.991l-.159-.34-.97.453 1.04.252.089-.365zm2.196 3.072l-.373-.038v.001l.373.037zm-4.62 3.08l-.018-.374-.357.017v.358h.375zm.004 2.42v.375h.376v-.376h-.376zm-1.522.002h-.375v.375h.376v-.375zm-.004-2.42h.375v-.37l-.37-.005-.005.375zm-.519.003l-.005-.375.005.375zm-.731-.001l.011-.375-.387-.012v.387h.376zm.004 2.42v.374h.375v-.376l-.375.001zM9.068 20h-.375v.375h.376V20zm-.004-2.42h.375v-.367l-.368-.007-.007.375zm-3.044-.058l-.371-.054-.061.421.425.008.007-.375zm.256-1.768l.008-.375-.331-.007-.048.328.371.054zm1.129.012l-.002-.375-1.34.007 1.149.69.193-.322zm.58-.485l.37.061.005-.03v-.031h-.375zm-.008-3.878l-.375-.002v.003l.375-.001zm.012-2.76l.375.001v-.031l-.004-.03-.37.06zm-.87-.644l-.247-.283-.737.641.977.017.006-.375zM6.003 8l-.375.001v.384l.385-.01L6.004 8zM6 6.38v-.376h-.376l.001.376H6zm3.12-.005v.375h.375v-.375H9.12zm-.004-2.37V3.63H8.74v.376h.376zm1.571-.002h.375v-.375h-.375v.375zm.004 2.37l-.375.001.001.385.384-.01-.01-.376zm.906-.003l-.003.375.003-.375zm0 0l.003-.375h-.001l-.002.375zm.3.002l-.002.375.377.001v-.377h-.376zm-.005-2.37v-.375h-.375v.376l.375-.001zM13.422 4h.374v-.375h-.375V4zm-2.84 6.894l.015-.374-.015.374zm-.078-.003h-.375v.36l.36.015.015-.375zm3.75-1.454h.375v-.001h-.375zm-3.423-1.46l-.008-.374.008.375zm-.327.005l.003-.375-.378-.003v.378h.375zm-.004 7.655h-.375v.361l.361.014.014-.375zm.134.005l.015-.375-.015.375zm-.134-2.914l.003-.375-.378-.004v.379h.375zm.359-.003l.004.375-.004-.375zm4.132 1.494l-.375-.003v.006l.375-.003zm2.517-5.296c-.098-1.003-.605-1.69-1.358-2.135-.73-.432-1.68-.633-2.689-.73l-.071.747c.974.094 1.792.282 2.378.629.563.333.92.816.994 1.563l.746-.074zm-1.57 2.84c.51-.238.944-.58 1.23-1.062.287-.484.405-1.075.34-1.775l-.746.068c.052.576-.048 1.003-.24 1.325-.19.323-.493.574-.9.765l.316.68zm2.41 2.769c.1-1-.086-1.785-.55-2.372-.46-.581-1.147-.912-1.93-1.101l-.176.729c.698.169 1.202.439 1.517.837.31.391.48.963.394 1.832l.746.075zm-4.973 3.418c1.304-.065 2.478-.252 3.362-.76.917-.525 1.488-1.376 1.612-2.66l-.747-.072c-.102 1.06-.548 1.686-1.238 2.082-.723.415-1.745.597-3.026.66l.037.75zm.36 2.044l-.004-2.42-.75.002.004 2.42.75-.002zm-1.896.378l1.522-.002-.001-.75-1.522.002v.75zm-.38-2.794l.004 2.42.75-.002-.004-2.42-.75.002zm-.138.377c.179-.003.348-.005.508-.003l.01-.75c-.172-.002-.351 0-.529.003l.01.75zm-.749-.002c.257.009.512.005.749.002l-.01-.75c-.24.003-.479.006-.716-.001l-.023.75zm.39 2.044l-.003-2.419-.75.001.004 2.42.75-.002zm-1.893.378l1.52-.002-.002-.75-1.52.002.002.75zm-.38-2.794l.004 2.42.75-.002-.004-2.42-.75.002zm-2.676.316l3.044.059.014-.75-3.044-.059-.014.75zM5.905 15.7l-.256 1.768.742.108.256-1.768-.742-.108zm1.307.387c-.014-.008-.13-.074-.17-.227a.375.375 0 01.13-.388c.05-.04.099-.056.11-.06a.367.367 0 01.087-.018h-.014a36.947 36.947 0 01-.892-.011l-.13-.003h-.046-.002l-.009.374-.008.375H6.319a38.159 38.159 0 00.525.01 37.34 37.34 0 00.527.005 1.038 1.038 0 00.111-.01.392.392 0 00.045-.013.375.375 0 00.242-.45c-.04-.152-.156-.218-.17-.227l-.386.643zm.403-.866a.243.243 0 01-.05.121.115.115 0 01-.042.029.309.309 0 01-.12.02l.004.75c.307-.002.548-.113.712-.294a.987.987 0 00.236-.505l-.74-.121zm-.013-3.817l.008 3.878.75-.001-.008-3.879-.75.002zm.012-2.763l-.011 2.76.75.004.011-2.761-.75-.003zm-.502-.267c.24.004.351.07.404.118.056.052.09.125.103.21l.74-.12a1.103 1.103 0 00-.335-.641c-.216-.199-.517-.31-.9-.317l-.012.75zM6.004 8l.01.375H6.028a27.988 27.988 0 01.552-.011 15.667 15.667 0 01.475 0l-.02-.003a.335.335 0 01-.127-.055.373.373 0 01-.035-.59l.493.566a.377.377 0 00-.035-.595c-.069-.047-.139-.06-.14-.06a.61.61 0 00-.083-.01 2.656 2.656 0 00-.144-.005 48.068 48.068 0 00-.956.013h-.01-.003l.01.375zm-.379-1.62l.004 1.621.75-.002-.004-1.62-.75.001zM9.119 6L6 6.004l.002.75 3.12-.004L9.118 6zm-.378-1.994l.004 2.37.75-.001-.004-2.37-.75.001zm1.946-.378l-1.572.002.001.75 1.572-.002-.001-.75zm.38 2.745l-.005-2.37-.75.001.004 2.37.75-.001zm.533-.378c-.302-.002-.608-.005-.919.004l.02.75c.296-.009.59-.006.893-.004l.006-.75zm-.001 0l-.004.75.004-.75zm.299.002l-.298-.002-.006.75.3.002.004-.75zm-.38-1.994l.003 2.37.75-.002-.004-2.37-.75.002zm1.903-.378l-1.53.002.002.75 1.529-.002-.001-.75zm.38 2.807l-.005-2.433-.75.002.004 2.432.75-.001zm-3.204 4.088l-.077-.003-.031.749.077.003.031-.75zm3.282-1.084a.742.742 0 01-.303.62c-.207.164-.514.284-.89.362-.749.157-1.62.122-2.089.102l-.031.749c.457.02 1.42.062 2.274-.117.427-.09.864-.24 1.201-.508a1.49 1.49 0 00.588-1.206l-.75-.002zm-3.04-1.084c.55-.011 1.356-.026 2.02.136.33.081.59.198.762.351a.75.75 0 01.258.599l.75-.002a1.499 1.499 0 00-.51-1.157c-.3-.267-.693-.424-1.082-.519-.776-.19-1.681-.169-2.214-.157l.015.75zm-.338.005c.094 0 .211-.002.337-.005l-.015-.75c-.13.003-.235.006-.316.005l-.006.75zm.378 2.534V7.982h-.75v2.91h.75zm-.393 5.12l.133.006.03-.75-.135-.005-.028.75zm-.361-3.283v2.909h.75v-2.91h-.75zm.73-.378a18.68 18.68 0 01-.352.003l-.006.75.366-.003-.009-.75zm4.51 1.872c.005-.524-.244-.918-.61-1.19-.35-.261-.808-.416-1.268-.512-.921-.192-2-.177-2.633-.17l.01.75c.648-.008 1.643-.018 2.47.155.415.086.75.212.973.378.207.154.311.336.309.583l.75.006zm-4.746 1.795c.564.022 1.696.068 2.689-.101.494-.084.993-.228 1.376-.482.399-.265.687-.665.682-1.218l-.75.006c.002.245-.109.428-.347.587-.255.17-.633.29-1.087.368-.904.154-1.958.113-2.533.09l-.03.75z"/>
</svg>
