<svg xmlns="http://www.w3.org/2000/svg" fill="none" viewBox="0 0 24 24" stroke="currentColor">
  <path d="M20.247 14.052a8.502 8.502 0 01-10.302 6.194C5.394 19.11 2.62 14.5 3.754 9.95c1.134-4.551 5.74-7.33 10.288-6.195 4.562 1.12 7.337 5.744 6.205 10.298z"/>
  <path fill="#000" d="M15.873 10.616l.296.049v-.002l-.296-.047zm-1.94-2.438l-.292-.072-.065.261.253.093.103-.282zm.617 4.012l-.071-.291-.742.18.666.373.147-.262zm.863 2.59l-.284-.099.284.098zm-3.547 1.496l.056-.295-.28-.053-.067.276.29.072zm-.437 1.761l-.072.292.292.072.072-.291-.292-.073zm-.985-.244l-.29-.072-.073.291.291.072.072-.29zm.437-1.761l.29.072.072-.286-.285-.076-.077.29zm-.336-.082l-.073.291.005.001.068-.292zm0 0l.072-.291-.072.291zm0 0l.072-.291-.004-.001-.068.292zm-.473-.119l.082-.288-.299-.086-.075.302.292.072zm-.437 1.762l-.072.29.291.073.072-.291-.29-.072zm-.983-.244l-.291-.072-.072.291.29.072.073-.291zm.436-1.761l.292.072.07-.285-.283-.077-.079.29zm-1.958-.534l-.28-.109-.121.31.322.089.079-.29zm.486-1.245l.08-.29-.26-.071-.099.252.28.109zm.728.19l.071-.291-.943-.23.65.722.222-.2zm.463-.259l.278.114.008-.02.006-.021-.292-.073zm.7-2.823l-.291-.074v.002l.29.072zm.508-2.007l.29.073.006-.021.002-.022-.298-.03zM9.568 8.3l-.151-.259-.618.362.691.187.078-.29zm-.721-.179l-.291-.072-.074.3.301.065.064-.293zm.292-1.18l.072-.291-.292-.072-.072.291.292.072zm2.018.5l-.072.292.291.072.073-.292-.292-.072zm.428-1.725l.072-.291-.291-.072-.072.29.29.073zm1.017.252l.291.072.072-.29-.291-.073-.072.291zm-.428 1.725l-.29-.072-.075.3.302.066.063-.294zm.587.144l-.075.29.075-.29zm0 0l.075-.29-.075.29zm.193.05l-.074.29.293.075.072-.293-.291-.072zm.427-1.726l.073-.29-.292-.073-.072.291.291.072zm.99.246l.291.072.072-.291-.29-.073-.073.292zm-3.088 4.559l.086-.288-.086.288zm-.05-.015l-.29-.073-.07.278.275.082.086-.287zm2.69-.454l.291.073v-.001l-.29-.072zm-1.95-1.614l-.072.291.007.002.065-.293zm0 0l.073-.291-.007-.002-.066.293zm-.212-.05l.076-.29-.293-.075-.074.293.291.073zm-1.391 5.57l-.291-.072-.07.28.276.08.085-.287zm.086.026l.085-.287-.085.287zm.442-2.142l.075-.29-.293-.077-.073.294.29.073zm.232.056l-.069.292.07-.292zm2.402 1.753l-.29-.075-.002.005.292.07zm2.638-3.434c.117-.739-.083-1.326-.5-1.784-.404-.443-.995-.748-1.634-.983l-.207.564c.608.223 1.091.487 1.397.823.293.32.44.723.351 1.286l.593.094zm-1.55 1.819a1.932 1.932 0 001.008-.585c.274-.306.456-.716.541-1.232l-.592-.098c-.07.431-.215.727-.396.93-.18.202-.415.332-.702.402l.142.583zm1.076 2.395c.245-.707.268-1.307.072-1.812-.195-.505-.588-.866-1.072-1.137l-.293.524c.41.23.678.498.806.83.128.33.136.776-.08 1.4l.567.195zm-3.886 1.694c.859.164 1.667.22 2.348-.012.706-.242 1.228-.776 1.539-1.683l-.568-.194c-.261.762-.665 1.138-1.165 1.309-.527.18-1.206.15-2.042-.01l-.112.59zm-.09 1.538l.437-1.76-.582-.145-.437 1.761.583.145zm-1.348-.025l.985.245.145-.583-.986-.244-.144.582zm.217-2.124l-.436 1.761.583.144.436-1.761-.583-.144zm-.112.282c.117.027.225.053.326.08l.155-.58c-.113-.03-.23-.057-.345-.084l-.136.584zm-.005 0l.145-.583-.145.582zm0 0l.145-.583-.145.582zm-.483-.122c.167.048.334.086.488.122l.136-.584c-.156-.037-.309-.072-.459-.115l-.165.577zm-.063 1.545l.437-1.761-.583-.145-.436 1.762.582.144zM8.58 17.64l.983.244.144-.582-.983-.244-.144.582zm.217-2.125l-.436 1.762.582.144.437-1.761-.583-.145zm-1.746-.171l1.959.533.157-.579-1.958-.533-.158.579zm.286-1.644l-.487 1.245.56.218.486-1.245-.559-.218zm.784.5a.3.3 0 01.225-.5l.03.002.01.001h-.003a21.742 21.742 0 01-.572-.151l-.084-.024-.023-.006-.006-.002h-.001-.001l-.08.289-.08.29h.003l.006.001.024.007.084.023a79.815 79.815 0 00.508.136l.089.021.04.008a.332.332 0 00.09.003.3.3 0 00.187-.5l-.446.402zm.409-.573a.196.196 0 01-.053.079.03.03 0 01-.013.006.113.113 0 01-.049-.004l-.142.583a.655.655 0 00.566-.106.788.788 0 00.246-.33l-.555-.228zm.685-2.782l-.699 2.823.583.145.699-2.824-.583-.144zm.51-2.009l-.51 2.007.582.147.509-2.007-.582-.147zm-.235-.245c.136.036.182.091.2.123.023.04.033.097.026.166l.597.06a.873.873 0 00-.103-.525c-.11-.191-.299-.332-.564-.404l-.156.58zm-.643-.469l-.064.293h.002l.006.002.024.005a29.103 29.103 0 01.576.134l.059.017c.008.003-.005 0-.024-.01a.275.275 0 01-.092-.077.299.299 0 01.083-.444l.303.518a.301.301 0 00.084-.447c-.045-.056-.099-.082-.101-.083a.439.439 0 00-.063-.026 9.712 9.712 0 00-.355-.09 28.452 28.452 0 00-.342-.078l-.024-.005-.006-.001h-.002l-.064.292zm0-1.252l-.291 1.18.582.144.292-1.18-.583-.144zm2.383.281l-2.02-.5-.144.582 2.02.5.143-.582zm.064-1.506l-.428 1.725.583.144.427-1.725-.582-.144zm1.38.033l-1.017-.252-.144.582 1.017.252.144-.582zm-.208 2.089l.427-1.726-.582-.144-.428 1.725.583.145zm.37-.22c-.195-.05-.393-.101-.598-.146l-.127.587c.19.041.378.09.574.14l.15-.58zm0 0l-.15.581.15-.58zm.192.05a46.01 46.01 0 01-.192-.05l-.15.581.194.05.148-.581zm.062-1.507l-.427 1.725.582.145.428-1.726-.583-.144zm1.353.026l-.99-.245-.144.582.99.246.144-.583zm-.22 2.134l.44-1.77-.583-.145-.439 1.77.582.145zm-2.854 2.43l-.05-.015-.171.574.049.015.172-.575zm2.263-.255a.578.578 0 01-.302.4c-.153.08-.362.117-.612.114-.5-.007-1.048-.17-1.349-.26l-.172.575c.29.087.916.277 1.513.285.3.004.622-.037.899-.182.29-.152.51-.408.605-.786l-.582-.146zm-1.724-1.248c.36.08.872.198 1.26.417.193.108.33.228.409.358.072.12.106.27.055.474l.583.144a1.192 1.192 0 00-.124-.927c-.151-.252-.386-.436-.628-.572-.478-.27-1.079-.402-1.424-.48l-.131.586zm-.007-.002l.145-.582-.145.582zm-.215-.05c.063.016.14.034.222.052l.13-.586a7.086 7.086 0 01-.201-.047l-.15.581zm-.161 1.9l.528-2.118-.583-.145-.527 2.117.582.146zm-1.24 3.668l.085.025.171-.575-.087-.026-.169.575zm.322-2.478l-.528 2.117.582.145.528-2.117-.582-.145zm.592-.163a10.21 10.21 0 01-.226-.055l-.15.58c.066.018.149.038.239.059l.137-.584zm2.623 2.12a1.12 1.12 0 00-.184-.97c-.186-.257-.464-.449-.75-.595-.57-.294-1.28-.459-1.69-.555l-.136.584c.422.1 1.058.25 1.552.504.247.127.432.267.539.414a.521.521 0 01.088.468l.582.15zm-3.452.546c.36.107 1.092.326 1.775.363.341.019.701-.005 1.007-.133.32-.135.576-.385.672-.78l-.584-.141a.5.5 0 01-.32.367c-.185.078-.44.104-.742.088-.602-.033-1.268-.23-1.637-.34l-.171.576z"/>
</svg>
