<svg xmlns="http://www.w3.org/2000/svg" fill="none" viewBox="0 0 24 24" stroke="currentColor">
  <path d="M20.54 8.676v6.876a.694.694 0 01-.355.644l-7.132 4.024a2.096 2.096 0 01-2.056.002L3.82 16.197a.694.694 0 01-.355-.66V8.694a.694.694 0 01.345-.654l7.156-4.172a2.097 2.097 0 012.117.002l7.112 4.17a.693.693 0 01.344.636z"/>
  <path d="M3.82 9.253a.699.699 0 01-.01-1.213l7.156-4.172a2.097 2.097 0 012.117.002l7.112 4.17a.699.699 0 01-.01 1.212l-7.132 4.024a2.096 2.096 0 01-2.056.003L3.82 9.253z"/>
</svg>
