<svg xmlns="http://www.w3.org/2000/svg" fill="none" viewBox="0 0 24 24" stroke="currentColor">
  <path fill="#000" d="M20.54 15.552h-.5v.025l.5-.025zm0-6.876l-.5-.023v.023h.5zm-.355 7.52l-.246-.436.245.436zm-7.132 4.024l-.246-.436.246.436zm-2.056.002l-.245.436.245-.436zM3.82 16.197l.245-.436-.245.436zm-.355-.66l.499.035v-.035h-.5zm0-6.843h.5v-.017l-.001-.018-.5.035zm.345-.654l-.252-.432.252.432zm7.156-4.172l-.251-.432.251.432zm2.117.002l-.253.432.253-.432zm7.112 4.17l-.253.432.253-.431zm.844 7.512V8.676h-1v6.876h1zm-.609 1.08c.426-.24.63-.681.608-1.104l-.998.049a.194.194 0 01-.101.184l.491.87zM13.3 20.654l7.131-4.024-.491-.87-7.132 4.023.492.871zm-2.547.003a2.597 2.597 0 002.547-.003l-.492-.87a1.597 1.597 0 01-1.566.001l-.489.872zm-7.176-4.025l7.176 4.025.49-.872-7.177-4.025-.49.872zm-.61-1.13c-.03.43.173.885.61 1.13l.489-.872a.194.194 0 01-.101-.189l-.998-.07zm-.001-6.809v6.843h1V8.694h-1zm.999-.035a.194.194 0 01.098-.187l-.504-.864a1.194 1.194 0 00-.592 1.122l.998-.071zm.098-.187l7.156-4.173-.503-.863-7.157 4.172.504.864zm7.156-4.173a1.597 1.597 0 011.612.003l.506-.863a2.597 2.597 0 00-2.621-.003l.503.863zm1.612.003l7.112 4.17.505-.863-7.11-4.17-.507.863zm7.112 4.17c.068.04.101.107.098.181l.999.046a1.193 1.193 0 00-.592-1.09l-.505.863z"/>
  <path d="M3.82 9.253a.699.699 0 01-.01-1.213l7.156-4.172a2.097 2.097 0 012.117.002l7.112 4.17a.699.699 0 01-.01 1.212l-7.132 4.024a2.096 2.096 0 01-2.056.003L3.82 9.253z"/>
</svg>
