<svg xmlns="http://www.w3.org/2000/svg" fill="none" viewBox="0 0 24 24" stroke="currentColor">
  <path fill="#000" d="M13.493 10.27l-.499.028.06 1.04.774-.697-.335-.371zM18.5 12.5H18v.5h.5v-.5zM5.504 10.67l.166.471.349-.123-.016-.37-.5.021zm8.489-.429A4.5 4.5 0 009.5 6v1a3.5 3.5 0 013.494 3.298l.999-.057zM15.5 9c-.9 0-1.721.34-2.341.898l.669.743A2.49 2.49 0 0115.5 10V9zm3.5 3.5A3.5 3.5 0 0015.5 9v1a2.5 2.5 0 012.5 2.5h1zm-.5.5a1.5 1.5 0 011.5 1.5h1a2.5 2.5 0 00-2.5-2.5v1zm1.5 1.5a1.5 1.5 0 01-1.5 1.5v1a2.5 2.5 0 002.5-2.5h-1zM6.5 17h12v-1h-12v1zM3 13.5A3.5 3.5 0 006.5 17v-1A2.5 2.5 0 014 13.5H3zm2.337-3.302A3.501 3.501 0 003 13.5h1c0-1.089.696-2.016 1.67-2.359l-.333-.943zM5 10.5c0 .064.001.127.004.19l1-.041A3.572 3.572 0 016 10.5H5zM9.5 6A4.5 4.5 0 005 10.5h1A3.5 3.5 0 019.5 7V6z"/>
</svg>
