<svg xmlns="http://www.w3.org/2000/svg" fill="none" viewBox="0 0 24 24" stroke="currentColor">
  <path stroke-linejoin="round" d="M10.5 3.632a8.492 8.492 0 0 0-4.996 2.886L7.72 7.796A5.994 5.994 0 0 1 10.5 6.19V3.632ZM3.5 12c0-1.013.177-1.985.502-2.885l2.215 1.278A6.006 6.006 0 0 0 6 12c0 .556.076 1.095.217 1.607l-2.215 1.278A8.484 8.484 0 0 1 3.5 12ZM5.504 17.482a8.492 8.492 0 0 0 4.996 2.886v-2.557a5.994 5.994 0 0 1-2.781-1.607l-2.215 1.278ZM17.782 10.393a6.004 6.004 0 0 1 0 3.213l2.216 1.28c.325-.901.502-1.873.502-2.886a8.484 8.484 0 0 0-.502-2.885l-2.216 1.278ZM18.496 6.518A8.491 8.491 0 0 0 13.5 3.632v2.557a5.993 5.993 0 0 1 2.781 1.607l2.215-1.278ZM13.5 17.811a5.993 5.993 0 0 0 2.781-1.607l2.215 1.278a8.491 8.491 0 0 1-4.996 2.886v-2.557Z"/>
</svg>
