<svg xmlns="http://www.w3.org/2000/svg" fill="none" viewBox="0 0 24 24" stroke="currentColor">
  <path stroke-linejoin="round" d="M7.719 16.204l-2.215 1.278a8.5 8.5 0 004.996 2.885V17.81a5.994 5.994 0 01-2.781-1.607zM17.782 10.393l2.214-1.277a8.499 8.499 0 010 5.768l-2.213-1.277c.141-.512.217-1.05.217-1.607 0-.556-.076-1.095-.218-1.607zM18.496 6.518L16.28 7.796A5.993 5.993 0 0013.5 6.19V3.633a8.5 8.5 0 014.996 2.885zM13.5 20.367a8.502 8.502 0 004.996-2.885l-2.215-1.278A5.994 5.994 0 0113.5 17.81v2.556z"/>
  <path stroke-linecap="round" d="M5.105 14.24a7.25 7.25 0 010-4.48M6.612 7.149a7.25 7.25 0 013.88-2.24"/>
</svg>
