<svg xmlns="http://www.w3.org/2000/svg" fill="none" viewBox="0 0 24 24" stroke="currentColor">
  <path stroke-linejoin="round" d="M13.5 20.367a8.5 8.5 0 0 0 4.996-2.885l-2.215-1.278A5.993 5.993 0 0 1 13.5 17.81v2.556ZM20.5 12c0 .993-.174 1.968-.504 2.884l-2.213-1.277c.141-.512.217-1.05.217-1.607 0-.556-.076-1.095-.218-1.607l2.214-1.277c.33.916.504 1.891.504 2.884ZM18.496 6.518A8.498 8.498 0 0 0 13.5 3.633V6.19a5.994 5.994 0 0 1 2.781 1.607l2.215-1.278Z"/>
  <path stroke-linecap="round" d="M10.493 19.091a7.25 7.25 0 0 1-3.88-2.24M5.105 14.24a7.25 7.25 0 0 1 0-4.48M6.612 7.149a7.25 7.25 0 0 1 3.88-2.24"/>
</svg>
