<svg xmlns="http://www.w3.org/2000/svg" fill="none" viewBox="0 0 24 24" stroke="currentColor">
  <path fill="#000" d="M13.5 12.099l-.25-.433a.5.5 0 00-.25.433h.5zm.629 2.152l-.186.465.186-.465zm2.05.82l.186-.464-.186.465zM18.5 18.5v.5a.5.5 0 00.5-.5h-.5zm-13 0H5a.5.5 0 00.5.5v-.5zm2.321-3.428l-.185-.465.185.465zm2.05-.82l-.185-.465.185.464zm.629-2.153h.5a.5.5 0 00-.25-.433l-.25.433zM8.5 7.5v2h1v-2h-1zM12 4a3.5 3.5 0 00-3.5 3.5h1A2.5 2.5 0 0112 5V4zm3.5 3.5A3.5 3.5 0 0012 4v1a2.5 2.5 0 012.5 2.5h1zm0 2v-2h-1v2h1zm-1.75 3.031A3.5 3.5 0 0015.5 9.5h-1c0 .925-.502 1.733-1.25 2.166l.5.865zM14 12.5v-.401h-1v.401h1zm0 .823V12.5h-1v.823h1zm.314.464a.5.5 0 01-.314-.464h-1a1.5 1.5 0 00.943 1.393l.371-.929zm2.05.82l-2.05-.82-.371.929 2.05.82.371-.929zM19 18.5a4.192 4.192 0 00-2.636-3.893l-.37.929A3.192 3.192 0 0118 18.5h1zM5.5 19h13v-1h-13v1zm2.136-4.393A4.193 4.193 0 005 18.5h1c0-1.305.795-2.48 2.007-2.964l-.371-.929zm2.05-.82l-2.05.82.37.929 2.051-.82-.371-.929zm.314-.464a.5.5 0 01-.314.464l.371.929A1.5 1.5 0 0011 13.323h-1zm0-.823v.823h1V12.5h-1zm0-.401v.401h1v-.401h-1zM8.5 9.5a3.5 3.5 0 001.75 3.031l.5-.865A2.499 2.499 0 019.5 9.5h-1z"/>
</svg>
