<svg xmlns="http://www.w3.org/2000/svg" fill="none" viewBox="0 0 24 24" stroke="currentColor">
  <path fill="#000" fill-rule="evenodd" d="M19.013 10.15a.546.546 0 00-.145.493 7 7 0 01-12.036 6.079.528.528 0 00-.76-.032.475.475 0 00-.026.654 8 8 0 0013.788-6.971c-.079-.383-.545-.498-.821-.222zm-1.224-2.989a.475.475 0 00.018-.664A8 8 0 004.192 13.75c.084.378.546.488.82.215.13-.13.18-.32.142-.5A7 7 0 0117.038 7.14a.528.528 0 00.75.021z" clip-rule="evenodd"/>
  <path stroke-linecap="round" stroke-linejoin="round" d="M18.125 5.5v2h-2M7.875 16.5h-2v2"/>
  <path fill="#000" d="M11.744 16h.512v-.697c1.313-.09 2.05-.866 2.05-1.84 0-1.2-1.137-1.588-1.8-1.763l-.25-.069V9.41c.663.066 1.144.422 1.213.991h.75c-.032-.912-.832-1.606-1.963-1.681V8h-.512v.728c-1.072.11-1.875.79-1.875 1.772 0 .863.625 1.375 1.625 1.662l.25.072V14.6c-.657-.069-1.194-.406-1.25-1.05h-.8c.072.984.822 1.672 2.05 1.753V16zm.512-1.4v-2.219l.025.006c.675.188 1.275.425 1.275 1.063 0 .628-.544 1.066-1.3 1.15zm-.512-3.106c-.475-.135-1.125-.397-1.125-1.031 0-.541.437-.954 1.125-1.044v2.075z"/>
</svg>
