<svg xmlns="http://www.w3.org/2000/svg" fill="none" viewBox="0 0 24 24" stroke="currentColor">
  <path stroke-linecap="round" stroke-linejoin="round" d="M15.889 15.89a5.498 5.498 0 00-3.89-9.39 5.5 5.5 0 00-3.888 1.61S4.104 11.439 4 15"/>
  <path stroke-linecap="round" stroke-linejoin="round" d="M12 12l-2 2c-1.5 1.5-1.5 4.5 0 6"/>
  <path stroke-linecap="round" stroke-linejoin="round" d="M6 6c3.34-3.34 8.741-3.259 12 0 3.259 3.259 3.3 8.7 0 12-2.784 2.784-7.083-1.417-4.25-4.25 1.358-1.358 1.166-2.902.148-3.922-.98-.981-2.917-.81-3.898.172l-2 2c-.718.718-2.228 3.795-1.5 6.5"/>
</svg>
