<svg xmlns="http://www.w3.org/2000/svg" fill="none" viewBox="0 0 24 24" stroke="currentColor">
  <path fill="#000" d="M19.227 10.768l-.08.493.08-.493zm-1.928-.315l-.48.14.089.302.31.051.081-.493zm2.201.637l-.5-.002v.002h.5zm-.27 2.114l-.086-.492.086.492zm-1.93.339l-.086-.492-.307.053-.087.3.48.139zm-.459 1.111l-.438-.24-.152.276.185.257.405-.293zm1.141 1.584l-.405.292.405-.292zm-.034.422l.354.353-.354-.354zm-1.268 1.268l.353.354h.001l-.354-.354zm-.418.037l.289-.409h-.002l-.287.409zm-1.6-1.123l.288-.409-.257-.18-.273.152.243.437zm-1.118.468l-.141-.48-.297.088-.054.305.492.087zm-.34 1.921l-.493-.087.492.087zm-2.436-.003l.493-.081v-.001l-.493.082zm-.319-1.911l.494-.082-.052-.311-.303-.087-.139.48zm-1.123-.465l.24-.438-.272-.15-.255.179.287.41zm-1.588 1.113l-.287-.41.287.41zm-.418-.037l-.354.354.354-.354zM6.052 16.66l-.355.352h.001l.354-.352zm-.035-.42l.407.29-.407-.29zm1.123-1.57l.406.29.184-.256-.153-.276-.437.242zm-.47-1.129l.48-.139-.086-.299-.306-.054-.087.492zm-1.901-.337l-.088.492.088-.492zm.004-2.436l.081.493-.081-.493zm1.901-.317l.082.494.31-.052.088-.302-.48-.14zm.47-1.128l.437.242.15-.273-.178-.255-.41.286zm-1.11-1.586l.41-.286V7.45l-.41.287zm.037-.417l.354.354-.354-.354zM7.34 6.052l-.353-.354.353.354zm.42-.034l.29-.407-.29.407zm1.575 1.125l-.29.407.255.182.275-.15-.24-.44zm1.121-.46l.138.48.305-.087.05-.313-.493-.08zm.312-1.91l.493.081-.493-.08zm2.437-.003l.492-.086-.492.086zm.336 1.92l-.493.086.054.306.3.087.139-.48zm1.12.465l-.243.437.277.153.257-.184-.292-.406zm1.578-1.135l.292.406h.001l-.293-.406zm.422.033l.353-.353-.354.353zm1.268 1.268l.354-.353-.354.353zm.036.418l-.409-.287.41.287zM16.84 9.342l-.41-.287-.178.255.15.273.438-.24zm2.468.932L17.38 9.96l-.161.987 1.927.315.161-.987zm.693.817a.826.826 0 00-.693-.817l-.16.987A.174.174 0 0119 11.09l1 .002zm0 1.792V11.09h-1v1.793h1zm-.683.814a.826.826 0 00.683-.814h-1c0-.084.06-.157.144-.171l.173.985zm-1.93.339l1.93-.34-.173-.984-1.93.339.173.985zm-.107.859c.211-.385.379-.791.5-1.213l-.96-.278c-.102.352-.241.69-.417 1.01l.877.481zm1.108 1.05l-1.14-1.583-.812.585 1.14 1.583.812-.584zm-.086 1.067a.826.826 0 00.086-1.066l-.811.585a.174.174 0 01.017-.225l.708.706zm-1.268 1.27l1.268-1.27-.707-.706-1.268 1.269.707.707zm-1.06.09a.825.825 0 001.06-.09l-.707-.708a.174.174 0 01.224-.018l-.577.817zm-1.598-1.12l1.6 1.122.573-.819-1.6-1.122-.573.819zm-.69.538a5.986 5.986 0 001.22-.51l-.486-.875c-.32.178-.66.32-1.017.426l.282.959zm.01 1.528l.34-1.92-.984-.175-.34 1.92.984.175zm-.813.682c.4 0 .743-.287.813-.682l-.985-.174a.174.174 0 01.171-.144v1zm-1.794 0h1.793v-1H11.09v1zm-.815-.69c.066.399.412.69.815.69v-1c.084 0 .158.06.172.147l-.987.162zm-.318-1.911l.318 1.911.987-.164-.318-1.911-.987.164zm-.871-.108c.389.213.8.383 1.225.506l.278-.96a5.004 5.004 0 01-1.021-.423l-.482.877zm-1.06 1.083l1.588-1.112-.574-.819-1.588 1.112.574.82zm-1.059-.092a.826.826 0 001.06.092l-.576-.818c.07-.05.164-.04.223.019l-.707.707zm-1.268-1.27l1.268 1.27.708-.707-1.268-1.269-.708.707zm-.087-1.064a.827.827 0 00.086 1.064l.71-.705a.173.173 0 01.017.223l-.813-.582zm1.122-1.57l-1.122 1.57.813.582 1.122-1.57-.813-.581zm-.543-.697c.125.428.296.84.512 1.23l.875-.483a4.997 4.997 0 01-.426-1.026l-.96.279zm-1.508.016l1.901.337.175-.985-1.902-.337-.174.985zM4 12.883c0 .4.287.743.681.814l.176-.985a.174.174 0 01.143.171H4zm0-1.793v1.793h1V11.09H4zm.69-.815a.826.826 0 00-.69.815h1a.174.174 0 01-.146.171l-.163-.986zm1.902-.317l-1.901.317.164.986 1.901-.316-.164-.987zm.114-.877c-.216.39-.387.802-.512 1.23l.96.28c.104-.358.247-.701.427-1.026l-.875-.484zM5.625 8.024L6.733 9.61l.82-.573L6.444 7.45l-.82.573zm.093-1.058a.826.826 0 00-.092 1.059l.818-.575c.05.07.04.164-.02.224l-.706-.708zM6.985 5.7L5.718 6.966l.707.708 1.267-1.268-.707-.707zM8.05 5.61a.826.826 0 00-1.064.087l.705.71a.174.174 0 01-.222.017l.58-.814zm1.575 1.125L8.05 5.611l-.581.814L9.044 7.55l.58-.814zm.692-.534c-.426.123-.836.29-1.223.502l.48.878a4.995 4.995 0 011.02-.419l-.277-.961zm-.043-1.509l-.312 1.909.987.161.311-1.909-.986-.161zM11.088 4a.826.826 0 00-.816.693l.987.161A.174.174 0 0111.09 5V4zm1.793 0H11.09v1h1.793V4zm.814.683A.826.826 0 0012.883 4v1a.174.174 0 01-.172-.143l.985-.174zm.336 1.92l-.336-1.92-.985.173.336 1.92.985-.173zm.869.114a5.967 5.967 0 00-1.221-.508l-.28.96c.354.103.694.245 1.017.423l.484-.875zm1.046-1.103l-1.58 1.135.584.812 1.58-1.135-.584-.812zm1.066.085a.826.826 0 00-1.067-.085l.585.811a.174.174 0 01-.224-.017l.706-.709zm1.268 1.268L17.013 5.7l-.707.707 1.268 1.268.707-.708zm.092 1.06a.826.826 0 00-.091-1.06l-.708.707a.173.173 0 01-.019-.222l.818.575zM17.248 9.63l1.126-1.604-.819-.574-1.125 1.603.819.575zm.531.683a6.025 6.025 0 00-.501-1.211l-.877.48c.175.321.316.659.418 1.01l.96-.28zM12 13.783A1.783 1.783 0 0110.217 12h-1A2.783 2.783 0 0012 14.783v-1zM13.783 12c0 .985-.798 1.783-1.783 1.783v1A2.783 2.783 0 0014.783 12h-1zM12 10.217c.985 0 1.783.799 1.783 1.783h1A2.783 2.783 0 0012 9.217v1zM10.217 12c0-.984.798-1.783 1.783-1.783v-1A2.783 2.783 0 009.217 12h1z"/>
</svg>
