<svg xmlns="http://www.w3.org/2000/svg" fill="none" viewBox="0 0 24 24" stroke="currentColor">
  <path d="M14.75 12.746l-7 7.004a2.475 2.475 0 11-3.5-3.5l7.002-7.002a2.474 2.474 0 013.498 3.498zM10.033 10.515l3.451 3.451"/>
  <path fill="#000" d="M6.759 4.897c.066-.247.416-.247.482 0L7.6 6.225a.25.25 0 00.176.176l1.328.358c.247.066.247.416 0 .482L7.775 7.6a.25.25 0 00-.176.176l-.358 1.328c-.066.247-.416.247-.482 0L6.4 7.775a.25.25 0 00-.176-.176l-1.328-.358c-.247-.066-.247-.416 0-.482L6.225 6.4a.25.25 0 00.176-.176l.358-1.328zM16.759 3.897c.066-.247.416-.247.482 0l.358 1.328a.25.25 0 00.176.176l1.328.358c.247.066.247.416 0 .482l-1.328.358a.25.25 0 00-.176.176l-.358 1.328c-.066.247-.416.247-.482 0L16.4 6.775a.25.25 0 00-.176-.176l-1.328-.358c-.247-.066-.247-.416 0-.482l1.328-.358a.25.25 0 00.176-.176l.358-1.328zM17.759 12.897c.066-.247.416-.247.482 0l.358 1.328a.25.25 0 00.176.176l1.328.358c.247.066.247.416 0 .482l-1.328.358a.25.25 0 00-.176.176l-.358 1.328c-.066.247-.416.247-.482 0l-.358-1.328a.25.25 0 00-.176-.176l-1.328-.358c-.247-.066-.247-.416 0-.482l1.328-.358a.25.25 0 00.176-.176l.358-1.328z"/>
</svg>
