<svg xmlns="http://www.w3.org/2000/svg" fill="none" viewBox="0 0 24 24" stroke="currentColor">
  <path fill="#000" d="M17.587 18.406l-.329-.377.329.377zM6.413 16.594l-.329-.377.33.377zm.329.377A7.967 7.967 0 0112 15v-1a8.967 8.967 0 00-5.916 2.217l.658.754zM12 15c2.013 0 3.852.743 5.258 1.97l.658-.753A8.967 8.967 0 0012 14v1zm5.258 3.03A7.967 7.967 0 0112 20v1a8.967 8.967 0 005.916-2.217l-.658-.754zM12 20a7.967 7.967 0 01-5.258-1.97l-.658.753A8.967 8.967 0 0012 21v-1zm5.258-3.03a.697.697 0 010 1.06l.658.753a1.696 1.696 0 000-2.566l-.658.754zm-11.174-.753a1.697 1.697 0 000 2.566l.658-.754a.697.697 0 010-1.058l-.658-.754zM8.521 8.5V8h-.545l.047.543.498-.043zm6.958 0l.498.043.046-.543h-.544v.5zM12 12c-1.444 0-2.8-1.44-2.98-3.543l-.997.086C8.23 10.94 9.841 13 12 13v-1zm2.98-3.543C14.8 10.56 13.444 12 12 12v1c2.16 0 3.77-2.06 3.977-4.457l-.997-.086zM15.48 8H8.52v1h6.958V8z"/>
  <path fill="#000" d="M15.976 8.5V9h.453l.044-.451-.497-.049zm-7.952 0l-.497.049L7.57 9h.453v-.5zm8.45.049c.017-.18.026-.364.026-.549h-1c0 .153-.008.303-.022.451l.995.098zM8.023 9h7.952V8H8.024v1zM7.5 8c0 .185.009.368.027.549l.995-.098A4.614 4.614 0 018.5 8h-1zM12 3C9.46 3 7.5 5.296 7.5 8h1c0-2.266 1.62-4 3.5-4V3zm4.5 5c0-2.704-1.961-5-4.5-5v1c1.88 0 3.5 1.734 3.5 4h1zm-4-2a.5.5 0 01-.5.5v1A1.5 1.5 0 0013.5 6h-1zm-.5-.5a.5.5 0 01.5.5h1A1.5 1.5 0 0012 4.5v1zm-.5.5a.5.5 0 01.5-.5v-1A1.5 1.5 0 0010.5 6h1zm.5.5a.5.5 0 01-.5-.5h-1A1.5 1.5 0 0012 7.5v-1z"/>
  <path stroke-linecap="round" stroke-linejoin="round" d="M7 8.5h10"/>
</svg>
