<svg xmlns="http://www.w3.org/2000/svg" fill="none" viewBox="0 0 24 24" stroke="currentColor">
  <path fill="#000" d="M5.842 5.492l-.327-.378.327.378zm6.423-1.789l.485.121a.5.5 0 00-.44-.619l-.045.498zM6.068 5.878l.116.486-.116-.486zm5.704-.197l-.072.494a.5.5 0 00.557-.373l-.485-.121zm8.34 3.699l-.33.375.33-.375zm-4.944-2.853l-.485-.12a.5.5 0 00.317.591l.168-.47zm5.325 2.618l.466-.18-.466.18zM15.66 4.55l.195-.46a.5.5 0 00-.68.339l.485.12zM6.17 5.87c1.42-1.225 3.623-1.884 6.052-1.669l.088-.996c-2.643-.234-5.13.473-6.794 1.909l.654.757zm-.217-.478a.253.253 0 01.269.12.288.288 0 01.036.189.278.278 0 01-.088.17l-.654-.757a.71.71 0 00-.153.91.747.747 0 00.822.34l-.232-.972zm5.892-.206c-2.09-.306-4.109-.22-5.892.206l.232.972c1.65-.393 3.54-.477 5.516-.189l.144-.99zm.413.616l.493-1.978-.97-.242-.493 1.978.97.242zm8.186 3.203c-1.375-1.213-3.117-2.237-5.107-2.948L15 6.998c1.88.673 3.509 1.634 4.782 2.757l.661-.75zm-.417.321a.278.278 0 01.002-.192.288.288 0 01.12-.149.253.253 0 01.295.02l-.662.75a.747.747 0 00.885.085.71.71 0 00.293-.876l-.933.362zm-4.56-4.316c2.246.95 3.882 2.567 4.56 4.316l.933-.362c-.796-2.049-2.66-3.84-5.103-4.875l-.39.921zm-.29-.581l-.493 1.977.97.242.493-1.977-.97-.242z"/>
  <path stroke-linecap="round" stroke-linejoin="round" d="M12.481 5.936l1.94.484-1.209 4.851-1.94-.484zM10.787 10.667l2.91.726L11.4 20.61l-2.911-.726z"/>
  <path stroke-linecap="round" stroke-linejoin="round" d="M12.358 3.329l3.396.847-.665 2.668-3.396-.847z"/>
</svg>
