<svg xmlns="http://www.w3.org/2000/svg" fill="none" viewBox="0 0 24 24" stroke="currentColor">
  <path stroke-linejoin="round" d="M13.833 17.583a1.834 1.834 0 003.667 0c0-.028-.003-.055-.004-.083h.004V6A1.5 1.5 0 0016 4.5H8A1.5 1.5 0 006.5 6v11.5h.004c-.001.027-.004.055-.004.083a1.834 1.834 0 103.667 0m3.666 0c0-.028.003-.055.004-.083h-.008c.001.028.004.055.004.083zm0 0a1.834 1.834 0 11-3.666 0m0 0c0-.028.003-.055.004-.083h-.008c.001.027.004.055.004.083z"/>
  <path stroke-linecap="round" d="M9 7.5h6M9 9.5h6M9 11.5h6"/>
</svg>
