<svg xmlns="http://www.w3.org/2000/svg" fill="none" viewBox="0 0 24 24" stroke="currentColor">
  <path d="m5.927 13.177 4.896 4.896a.25.25 0 0 0 .354 0l6.25-6.25a.25.25 0 0 0 .073-.177V8.104c0-.01 0-.02-.002-.03L17.5 8a1.5 1.5 0 0 0-1.574-1.498.25.25 0 0 0-.03-.002h-3.543a.25.25 0 0 0-.176.073l-6.25 6.25a.25.25 0 0 0 0 .354Z"/>
  <path stroke-linecap="round" d="M11.5 15v-4.5"/>
  <path d="M9.854 12.396a.5.5 0 1 1-.708.708.5.5 0 0 1 .708-.708ZM13.854 12.396a.5.5 0 1 1-.708.708.5.5 0 0 1 .708-.708Z"/>
</svg>
