<svg xmlns="http://www.w3.org/2000/svg" fill="none" viewBox="0 0 24 24" stroke="currentColor">
  <path fill="#000" d="M12.962 14.605l.35.358.262-.256-.165-.328-.447.226zM9.277 18.19l.35.359-.35-.359zm2.417 2.385l-.349-.358.349.358zm3.925-3.819l.131-.482-.275-.076-.205.2.349.358zm4.881-3.969c0 1.988-1.66 3.622-3.735 3.622v1c2.602 0 4.735-2.056 4.735-4.621h-1zm-3.735-3.62c2.076 0 3.735 1.633 3.735 3.62h1c0-2.564-2.133-4.62-4.735-4.62v1zm-3.736 3.62c0-1.987 1.66-3.62 3.736-3.62v-1c-2.603 0-4.736 2.056-4.736 4.62h1zm.38 1.592a3.514 3.514 0 01-.38-1.591h-1c0 .732.176 1.426.487 2.042l.893-.45zm-3.783 4.17l3.685-3.586-.697-.717-3.685 3.586.697.717zm-.302.716a1 1 0 01.302-.716l-.697-.717a2 2 0 00-.605 1.433h1zm0 1.485v-1.485h-1v1.485h1zm-.25-.25a.25.25 0 01.25.25h-1c0 .414.335.75.75.75v-1zm1.574 0H9.074v1h1.574v-1zm.697-.283a1 1 0 01-.697.283v1a2 2 0 001.395-.567l-.698-.716zm3.925-3.82l-3.925 3.82.697.716 3.925-3.819-.697-.716zm1.495.012a3.85 3.85 0 01-1.015-.135l-.263.964c.407.111.836.17 1.278.17v-1z"/>
  <ellipse cx="17.294" cy="12.272" rx="1.059" ry="1.03"/>
  <path fill="#000" fill-rule="evenodd" d="M7.745 10.08l.486-.472-.259-.626a3.515 3.515 0 01-.266-1.346C7.706 5.654 9.366 4 11.47 4c1.804 0 3.281 1.215 3.666 2.81.32-.082.65-.14.987-.173C15.654 4.557 13.75 3 11.471 3 8.839 3 6.706 5.076 6.706 7.636c0 .61.121 1.194.342 1.728l-3.443 3.35A2 2 0 003 14.147v1.246a1 1 0 001 1h1.364a2 2 0 001.395-.566l3.676-3.578c.033-.366.098-.722.193-1.067l-.44-.088-.377.367-3.75 3.65a1 1 0 01-.697.282H4v-1.246a1 1 0 01.303-.717l3.442-3.35z" clip-rule="evenodd"/>
  <ellipse cx="12" cy="7.121" rx="1.059" ry="1.03"/>
</svg>
