<svg xmlns="http://www.w3.org/2000/svg" fill="none" viewBox="0 0 24 24" stroke="currentColor">
  <mask id="a" fill="#fff">
    <path fill-rule="evenodd" d="M4.5 12.99a2.5 2.5 0 012.5-2.5h10a2.5 2.5 0 012.5 2.5v6a2.5 2.5 0 01-2.5 2.5H7a2.5 2.5 0 01-2.5-2.5v-6zm2.5-1.5a1.5 1.5 0 00-1.5 1.5v6a1.5 1.5 0 001.5 1.5h10a1.5 1.5 0 001.5-1.5v-6a1.5 1.5 0 00-1.5-1.5H7z" clip-rule="evenodd"/>
  </mask>
  <path fill="#000" fill-rule="evenodd" d="M4.5 12.99a2.5 2.5 0 012.5-2.5h10a2.5 2.5 0 012.5 2.5v6a2.5 2.5 0 01-2.5 2.5H7a2.5 2.5 0 01-2.5-2.5v-6zm2.5-1.5a1.5 1.5 0 00-1.5 1.5v6a1.5 1.5 0 001.5 1.5h10a1.5 1.5 0 001.5-1.5v-6a1.5 1.5 0 00-1.5-1.5H7z" clip-rule="evenodd"/>
  <path fill="#000" d="M7 9.17a3.82 3.82 0 00-3.82 3.82h2.64c0-.653.528-1.181 1.18-1.181v-2.64zm10 0H7v2.639h10v-2.64zm3.82 3.82A3.82 3.82 0 0017 9.17v2.639c.652 0 1.18.528 1.18 1.18h2.64zm0 6v-6h-2.64v6h2.64zM17 22.808a3.82 3.82 0 003.82-3.82h-2.64A1.18 1.18 0 0117 20.17v2.64zm-10 0h10v-2.64H7v2.64zm-3.82-3.82A3.82 3.82 0 007 22.81v-2.64a1.18 1.18 0 01-1.18-1.18H3.18zm0-6v6h2.64v-6H3.18zm3.64 0c0-.1.08-.18.18-.18v-2.64a2.82 2.82 0 00-2.82 2.82h2.64zm0 6v-6H4.18v6h2.64zm.18.18a.18.18 0 01-.18-.18H4.18A2.82 2.82 0 007 21.81v-2.64zm10 0H7v2.64h10v-2.64zm.18-.18c0 .1-.08.18-.18.18v2.64a2.82 2.82 0 002.82-2.82h-2.64zm0-6v6h2.64v-6h-2.64zm-.18-.18c.1 0 .18.08.18.18h2.64A2.82 2.82 0 0017 10.17v2.64zm-10 0h10v-2.64H7v2.64z" mask="url(#a)"/>
  <path d="M15.5 8l-.008-1.742a1.5 1.5 0 00-1.5-1.494H10.014a1.5 1.5 0 00-1.5 1.5v4.73"/>
</svg>
