<svg xmlns="http://www.w3.org/2000/svg" viewBox="0 0 24 24" fill="currentColor">
  <path d="M12.604 12c1.016 0 1.472.6 1.504 1.037a.72.72 0 01-.265.616c-.211.181-.598.347-1.24.347H10v-2h2.604zM12.604 9c.752 0 1.112.508 1.123 1.012a.94.94 0 01-.248.674c-.142.148-.369.277-.718.307l-.157.007H10V9h2.604z"/>
  <path fill-rule="evenodd" d="M11.788 3.1a.5.5 0 01.424 0l7.5 3.515a.5.5 0 01.288.453V9a.5.5 0 01-.5.5H18V16h1.5a.5.5 0 01.5.5v2a.5.5 0 01-.5.5h-15a.5.5 0 01-.5-.5v-2a.5.5 0 01.5-.5H6V9.5H4.5A.5.5 0 014 9V7.068a.5.5 0 01.288-.453l7.5-3.515zM11.5 6.5a.5.5 0 00-.5.5v1H9v7h2v1a.5.5 0 001 0v-1h.604c.805 0 1.449-.209 1.891-.59.45-.386.65-.917.61-1.447-.045-.613-.396-1.17-.959-1.534.019-.018.039-.034.056-.052a1.94 1.94 0 00.525-1.389C14.704 8.992 13.947 8 12.604 8H12V7a.5.5 0 00-.5-.5z" clip-rule="evenodd"/>
</svg>
