<svg xmlns="http://www.w3.org/2000/svg" viewBox="0 0 24 24" fill="currentColor">
  <path fill-rule="evenodd" d="M17.5 8A1.5 1.5 0 0119 9.5v5a1.5 1.5 0 01-1.5 1.5h-12A1.5 1.5 0 014 14.5v-5A1.5 1.5 0 015.5 8h12zM6.75 10a.75.75 0 00-.75.75v2.5c0 .414.336.75.75.75h.5a.75.75 0 00.75-.75v-2.5a.75.75 0 00-.75-.75h-.5zm3 0a.75.75 0 00-.75.75v2.5c0 .414.336.75.75.75h.5a.75.75 0 00.75-.75v-2.5a.75.75 0 00-.75-.75h-.5zm3 0a.75.75 0 00-.75.75v2.5c0 .414.336.75.75.75h.5a.75.75 0 00.75-.75v-2.5a.75.75 0 00-.75-.75h-.5zm3 0a.75.75 0 00-.75.75v2.5c0 .414.336.75.75.75h.5a.75.75 0 00.75-.75v-2.5a.75.75 0 00-.75-.75h-.5z" clip-rule="evenodd"/>
  <path d="M20.5 10a.5.5 0 01.5.5v3.003a.5.5 0 01-1 0V10.5a.5.5 0 01.5-.5z"/>
</svg>
