<svg xmlns="http://www.w3.org/2000/svg" viewBox="0 0 24 24" fill="currentColor">
  <path d="M10.864 14.36c.806.213 2.567.678 2.847-.447.287-1.151-1.422-1.534-2.255-1.721-.093-.02-.175-.04-.243-.056l-.542 2.174c.055.013.12.03.193.05zM11.623 11.183c.672.18 2.138.57 2.393-.452.26-1.046-1.164-1.36-1.86-1.515a8.488 8.488 0 01-.203-.047l-.492 1.972c.047.011.101.026.162.042z"/>
  <path fill-rule="evenodd" d="M9.822 20.73a9 9 0 004.354-17.46A8.998 8.998 0 003.27 9.823 8.997 8.997 0 009.822 20.73zm4.165-12.252c1.247.43 2.16 1.073 1.98 2.27-.13.877-.616 1.302-1.261 1.45.886.462 1.337 1.17.907 2.396-.532 1.522-1.799 1.65-3.483 1.332l-.409 1.638-.987-.246.403-1.616a39.13 39.13 0 01-.787-.204l-.405 1.623-.986-.246.408-1.64-.256-.067-.448-.115-1.285-.32.49-1.13s.728.193.718.178c.28.07.404-.113.453-.234l.646-2.589a9.9 9.9 0 01.084.021l.02.005a.816.816 0 00-.103-.033l.46-1.848c.013-.21-.06-.475-.46-.574.016-.01-.716-.179-.716-.179l.262-1.054 1.362.34v.005c.204.05.415.099.63.148l.405-1.622.986.246-.396 1.59c.265.06.532.121.791.186l.394-1.58.988.247-.405 1.622z" clip-rule="evenodd"/>
</svg>
