<svg xmlns="http://www.w3.org/2000/svg" viewBox="0 0 24 24" fill="currentColor">
  <path fill-rule="evenodd" d="M12 3a9 9 0 110 18 9 9 0 010-18zm-3 9a.5.5 0 00-.277.084l-.077.063-1.5 1.5a.5.5 0 10.708.707L9.207 13h5.586l1.354 1.354a.5.5 0 10.707-.707l-1.5-1.5A.5.5 0 0015 12H9zm1-3a1 1 0 100 2 1 1 0 000-2zm4 0a1 1 0 100 2 1 1 0 000-2zM9.25 6.567a.5.5 0 10-.5.866l2 1.155a.5.5 0 00.5-.866l-2-1.155zm6.183.183a.5.5 0 00-.683-.183l-2 1.155a.5.5 0 00.5.866l2-1.155a.5.5 0 00.183-.683z" clip-rule="evenodd"/>
</svg>
