<svg xmlns="http://www.w3.org/2000/svg" viewBox="0 0 24 24" fill="currentColor">
  <path fill-rule="evenodd" d="M13.5 4a.5.5 0 01.5.5V6h2.5a.5.5 0 01.5.5v3.928l1.543.441c.256.073.41.335.35.594l-1.295 5.61c.408.008.819-.148 1.122-.471l.415-.444a.5.5 0 01.73.684l-.416.443a2.5 2.5 0 01-3.648 0l-.051-.055-.05.055a2.5 2.5 0 01-3.65 0L12 17.23l-.05.055a2.5 2.5 0 01-3.65 0l-.05-.055-.05.055a2.5 2.5 0 01-3.65 0l-.415-.443a.5.5 0 01.73-.684l.415.444c.303.323.713.478 1.121.471l-1.295-5.61a.501.501 0 01.351-.594L7 10.428V6.5a.5.5 0 01.5-.5H10V4.5a.5.5 0 01.5-.5h3zm-1.58 7.007l-.078.018-3 1a.5.5 0 00.316.95L12 12.027l2.842.948a.5.5 0 00.316-.95l-3-1a.5.5 0 00-.238-.018zM8 10.143l3.726-1.065a1 1 0 01.548 0L16 10.143V7H8v3.143z" clip-rule="evenodd"/>
</svg>
