<svg xmlns="http://www.w3.org/2000/svg" viewBox="0 0 24 24" fill="currentColor">
  <path d="M6.315 5.022c-.473.386-.907.82-1.293 1.293L7.877 9.17A5.028 5.028 0 019.17 7.877L6.315 5.022zM16.123 14.83a5.026 5.026 0 01-1.293 1.293l2.855 2.855a9.06 9.06 0 001.293-1.293l-2.855-2.855zM19.573 16.866l-2.952-2.952c.244-.59.379-1.236.379-1.914 0-.678-.135-1.324-.38-1.914l2.953-2.952A8.958 8.958 0 0121 12a8.958 8.958 0 01-1.427 4.866zM10.086 7.38L7.134 4.426A8.958 8.958 0 0112 3c1.793 0 3.463.524 4.866 1.427L13.914 7.38A4.985 4.985 0 0012 7c-.678 0-1.324.135-1.914.38zM5.022 17.685c.386.473.82.907 1.293 1.293l2.855-2.855a5.027 5.027 0 01-1.293-1.293l-2.855 2.855zM7 12c0-.678.135-1.324.38-1.914L4.426 7.134A8.958 8.958 0 003 12c0 1.793.524 3.463 1.427 4.866l2.952-2.952A4.985 4.985 0 017 12zM16.866 19.573l-2.952-2.952c-.59.244-1.236.379-1.914.379a4.985 4.985 0 01-1.914-.38l-2.952 2.953A8.958 8.958 0 0012 21a8.958 8.958 0 004.866-1.427zM14.83 7.877c.506.348.945.787 1.293 1.293l2.855-2.855a9.057 9.057 0 00-1.293-1.293L14.83 7.877z"/>
</svg>
