<svg xmlns="http://www.w3.org/2000/svg" viewBox="0 0 24 24" fill="currentColor">
  <path d="M5 7.5A1.5 1.5 0 0 1 6.5 6h11A1.5 1.5 0 0 1 19 7.5V9H5V7.5Z"/>
  <path fill-rule="evenodd" d="M16 4.5a.5.5 0 0 1 .5.5v2a.5.5 0 0 1-1 0V5a.5.5 0 0 1 .5-.5ZM8 4.5a.5.5 0 0 1 .5.5v2a.5.5 0 0 1-1 0V5a.5.5 0 0 1 .5-.5ZM5 10h14v6.5a1.5 1.5 0 0 1-1.5 1.5h-11A1.5 1.5 0 0 1 5 16.5V10Zm10.5 2a.5.5 0 0 1 .5-.5h1a.5.5 0 0 1 0 1h-1a.5.5 0 0 1-.5-.5Zm-2.5-.5a.5.5 0 0 0 0 1h1a.5.5 0 0 0 0-1h-1Zm-3.5.5a.5.5 0 0 1 .5-.5h1a.5.5 0 0 1 0 1h-1a.5.5 0 0 1-.5-.5ZM7 13.5a.5.5 0 0 0 0 1h1a.5.5 0 0 0 0-1H7Zm8.5.5a.5.5 0 0 1 .5-.5h1a.5.5 0 0 1 0 1h-1a.5.5 0 0 1-.5-.5Zm-2.5-.5a.5.5 0 0 0 0 1h1a.5.5 0 0 0 0-1h-1Zm-3.5.5a.5.5 0 0 1 .5-.5h1a.5.5 0 0 1 0 1h-1a.5.5 0 0 1-.5-.5ZM7 15.5a.5.5 0 0 0 0 1h1a.5.5 0 0 0 0-1H7Zm5.5.5a.5.5 0 0 1 .5-.5h1a.5.5 0 0 1 0 1h-1a.5.5 0 0 1-.5-.5Zm-2.5-.5a.5.5 0 0 0 0 1h1a.5.5 0 0 0 0-1h-1Z" clip-rule="evenodd"/>
</svg>
