<svg xmlns="http://www.w3.org/2000/svg" viewBox="0 0 24 24" fill="currentColor">
  <path d="M5 7.5A1.5 1.5 0 016.5 6h11A1.5 1.5 0 0119 7.5V9H5V7.5z"/>
  <path fill-rule="evenodd" d="M16 4.5a.5.5 0 01.5.5v2a.5.5 0 01-1 0V5a.5.5 0 01.5-.5zM8 4.5a.5.5 0 01.5.5v2a.5.5 0 01-1 0V5a.5.5 0 01.5-.5zM5 10h14v6.5a1.5 1.5 0 01-1.5 1.5h-11A1.5 1.5 0 015 16.5V10zm10.5 2a.5.5 0 01.5-.5h1a.5.5 0 010 1h-1a.5.5 0 01-.5-.5zm-2.5-.5a.5.5 0 000 1h1a.5.5 0 000-1h-1zm-3.5.5a.5.5 0 01.5-.5h1a.5.5 0 010 1h-1a.5.5 0 01-.5-.5zM7 13.5a.5.5 0 000 1h1a.5.5 0 000-1H7zm8.5.5a.5.5 0 01.5-.5h1a.5.5 0 010 1h-1a.5.5 0 01-.5-.5zm-2.5-.5a.5.5 0 000 1h1a.5.5 0 000-1h-1zm-3.5.5a.5.5 0 01.5-.5h1a.5.5 0 010 1h-1a.5.5 0 01-.5-.5zM7 15.5a.5.5 0 000 1h1a.5.5 0 000-1H7zm5.5.5a.5.5 0 01.5-.5h1a.5.5 0 010 1h-1a.5.5 0 01-.5-.5zm-2.5-.5a.5.5 0 000 1h1a.5.5 0 000-1h-1z" clip-rule="evenodd"/>
</svg>
