<svg xmlns="http://www.w3.org/2000/svg" viewBox="0 0 24 24" fill="currentColor">
  <path fill-rule="evenodd" d="M9.5 19.5a1 1 0 1 0 0-2 1 1 0 0 0 0 2Zm0 1a2 2 0 1 0 0-4 2 2 0 0 0 0 4ZM16.5 19.5a1 1 0 1 0 0-2 1 1 0 0 0 0 2Zm0 1a2 2 0 1 0 0-4 2 2 0 0 0 0 4ZM3 4a.5.5 0 0 1 .5-.5h2a.5.5 0 0 1 .476.348L9.37 14.5H17a.5.5 0 0 1 0 1H9.004a.5.5 0 0 1-.476-.348L5.135 4.5H3.5A.5.5 0 0 1 3 4Z" clip-rule="evenodd"/>
  <path d="M8.5 13 6 6h13.337a.5.5 0 0 1 .48.637l-1.713 6a.5.5 0 0 1-.481.363H8.5Z"/>
</svg>
