<svg xmlns="http://www.w3.org/2000/svg" viewBox="0 0 24 24" fill="currentColor">
  <path fill-rule="evenodd" d="M16 4a1 1 0 011 1v4h1.5a.5.5 0 010 1H17v9.5l-.001.004c0 .013-.003.026-.004.04-.002.02-.002.041-.007.061a.5.5 0 01-.045.12c-.01.02-.02.04-.033.06v.002l-.014.014a.506.506 0 01-.051.058l-.022.019a.474.474 0 01-.053.04c-.011.008-.023.014-.036.02-.016.01-.033.019-.05.026l-.03.01a.482.482 0 01-.065.017c-.013.003-.027.003-.04.004-.016.002-.032.005-.049.005l-.005-.001c-.013 0-.027-.003-.04-.004a.495.495 0 01-.151-.036c-.01-.004-.02-.01-.03-.016-.02-.01-.04-.02-.06-.033h-.001l-4.714-3.3-4.712 3.3h-.003c-.019.013-.039.023-.06.033-.01.005-.019.012-.029.016a.495.495 0 01-.151.036c-.013.001-.027.004-.04.004L6.5 20c-.017 0-.033-.003-.05-.005-.013-.001-.027-.001-.04-.004a.481.481 0 01-.064-.017l-.03-.01c-.018-.007-.035-.017-.051-.025l-.036-.02a.49.49 0 01-.053-.041l-.022-.019a.503.503 0 01-.051-.058l-.012-.014-.002-.003c-.013-.018-.023-.039-.033-.06a.495.495 0 01-.044-.119c-.005-.02-.006-.04-.008-.061-.001-.012-.004-.023-.004-.035V10H4.5a.5.5 0 010-1H6V5a1 1 0 011-1h9zm-3.629 11.999L16 18.539V13.46l-3.629 2.539zM7 18.539L10.628 16 7 13.46v5.08zm4.499-3.15L14.914 13H8.086l3.413 2.39z" clip-rule="evenodd"/>
  <path d="M17 9v1h-2.5a.5.5 0 010-1H17zM8.5 9a.5.5 0 010 1H6V9h2.5z"/>
</svg>
