<svg xmlns="http://www.w3.org/2000/svg" viewBox="0 0 24 24" fill="currentColor">
  <path fill-rule="evenodd" d="M13.737 6.789a.75.75 0 0 1 .475.948l-3 9a.75.75 0 0 1-1.423-.474l3-9a.75.75 0 0 1 .948-.474ZM16.012 7.93a.75.75 0 0 1 1.058.082l3 3.5a.75.75 0 0 1 0 .976l-3 3.5a.75.75 0 0 1-1.14-.976L18.513 12l-2.581-3.012a.75.75 0 0 1 .08-1.057ZM7.988 7.93a.75.75 0 0 1 .081 1.058L5.488 12l2.581 3.012a.75.75 0 0 1-1.138.976l-3-3.5a.75.75 0 0 1 0-.976l3-3.5a.75.75 0 0 1 1.057-.081Z" clip-rule="evenodd"/>
</svg>
