<svg xmlns="http://www.w3.org/2000/svg" viewBox="0 0 24 24" fill="currentColor">
  <path d="M11 18.34a.53.53 0 00-.415-.508 5.994 5.994 0 01-2.928-1.692.53.53 0 00-.646-.105L5.238 17.06a.477.477 0 00-.139.719 8.998 8.998 0 005.8 3.155.09.09 0 00.101-.09V18.34zM18 12c0-.588-.084-1.155-.242-1.692a.53.53 0 01.233-.612l1.77-1.023c.259-.149.59-.04.693.24a8.996 8.996 0 01-.151 6.56.128.128 0 01-.182.06l-2.13-1.229a.53.53 0 01-.233-.612A6.002 6.002 0 0018 12zM6.01 9.696a.53.53 0 01.232.612A6.001 6.001 0 006 12c0 .588.084 1.155.242 1.692a.53.53 0 01-.233.612l-1.77 1.023a.477.477 0 01-.693-.24 8.999 8.999 0 010-6.174.477.477 0 01.692-.24L6.01 9.696zM16.99 16.035a.53.53 0 00-.647.105 5.994 5.994 0 01-2.928 1.692.53.53 0 00-.415.508v2.045c0 .298.26.531.553.48a8.997 8.997 0 005.348-3.087.477.477 0 00-.14-.72l-1.772-1.023zM16.343 7.86a.53.53 0 00.646.105l1.773-1.024c.258-.149.33-.49.139-.719a8.997 8.997 0 00-5.348-3.087.477.477 0 00-.553.48V5.66c0 .244.177.45.415.508a5.994 5.994 0 012.928 1.692z"/>
  <path fill-rule="evenodd" d="M10.982 4.806a.5.5 0 01-.385.593 6.75 6.75 0 00-3.613 2.086.5.5 0 11-.743-.67 7.75 7.75 0 014.148-2.394.5.5 0 01.593.385z" clip-rule="evenodd"/>
</svg>
