<svg xmlns="http://www.w3.org/2000/svg" viewBox="0 0 24 24" fill="currentColor">
  <path d="M13 5.66c0 .244.177.45.415.508a5.994 5.994 0 0 1 2.928 1.692.53.53 0 0 0 .646.105l1.773-1.024c.258-.149.33-.49.139-.719a8.999 8.999 0 0 0-5.348-3.087.477.477 0 0 0-.553.48V5.66Z"/>
  <path fill-rule="evenodd" d="M18.74 9.286a.5.5 0 0 1 .63.32 7.75 7.75 0 0 1 0 4.79.5.5 0 0 1-.95-.308 6.75 6.75 0 0 0 0-4.172.5.5 0 0 1 .32-.63ZM17.723 16.481a.5.5 0 0 1 .037.706 7.75 7.75 0 0 1-4.149 2.395.5.5 0 1 1-.208-.978 6.75 6.75 0 0 0 3.613-2.086.5.5 0 0 1 .707-.037ZM6.278 16.481a.5.5 0 0 1 .706.037 6.75 6.75 0 0 0 3.613 2.086.5.5 0 1 1-.208.978 7.75 7.75 0 0 1-4.148-2.395.5.5 0 0 1 .037-.706ZM5.26 9.286a.5.5 0 0 1 .32.63 6.75 6.75 0 0 0 0 4.172.5.5 0 1 1-.95.309 7.75 7.75 0 0 1 0-4.79.5.5 0 0 1 .63-.321ZM10.982 4.806a.5.5 0 0 1-.385.593 6.75 6.75 0 0 0-3.613 2.086.5.5 0 1 1-.743-.67 7.75 7.75 0 0 1 4.148-2.394.5.5 0 0 1 .593.385Z" clip-rule="evenodd"/>
</svg>
