<svg xmlns="http://www.w3.org/2000/svg" viewBox="0 0 24 24" fill="currentColor">
  <path fill-rule="evenodd" d="M13.018 4.806a.5.5 0 0 1 .593-.385 7.75 7.75 0 0 1 4.148 2.395.5.5 0 0 1-.743.669 6.75 6.75 0 0 0-3.612-2.086.5.5 0 0 1-.386-.593ZM18.74 9.286a.5.5 0 0 1 .63.32 7.75 7.75 0 0 1 0 4.79.5.5 0 0 1-.95-.308 6.75 6.75 0 0 0 0-4.172.5.5 0 0 1 .32-.63ZM17.723 16.481a.5.5 0 0 1 .037.706 7.75 7.75 0 0 1-4.149 2.395.5.5 0 1 1-.208-.978 6.75 6.75 0 0 0 3.613-2.086.5.5 0 0 1 .707-.037ZM6.278 16.481a.5.5 0 0 1 .706.037 6.75 6.75 0 0 0 3.613 2.086.5.5 0 1 1-.208.978 7.75 7.75 0 0 1-4.148-2.395.5.5 0 0 1 .037-.706ZM5.26 9.286a.5.5 0 0 1 .32.63 6.75 6.75 0 0 0 0 4.172.5.5 0 1 1-.95.309 7.75 7.75 0 0 1 0-4.79.5.5 0 0 1 .63-.321ZM10.982 4.806a.5.5 0 0 1-.385.593 6.75 6.75 0 0 0-3.613 2.086.5.5 0 1 1-.743-.67 7.75 7.75 0 0 1 4.148-2.394.5.5 0 0 1 .593.385Z" clip-rule="evenodd"/>
</svg>
