<svg xmlns="http://www.w3.org/2000/svg" viewBox="0 0 24 24" fill="currentColor">
  <path d="M13 20.385c0 .298.26.531.553.48a9.001 9.001 0 005.348-3.087.477.477 0 00-.14-.72l-1.772-1.023a.53.53 0 00-.646.105 5.994 5.994 0 01-2.928 1.692.53.53 0 00-.415.508v2.045zM17.758 13.692a.53.53 0 00.233.612l2.102 1.214a.155.155 0 00.222-.074 9 9 0 000-6.888.155.155 0 00-.222-.074l-2.102 1.214a.53.53 0 00-.233.612c.158.537.242 1.104.242 1.692 0 .588-.084 1.155-.242 1.692zM18.364 5.636c.188.188.367.383.537.586.191.229.119.57-.14.72L16.99 7.964a.53.53 0 01-.646-.105 5.994 5.994 0 00-2.928-1.692A.53.53 0 0113 5.66V3.615c0-.298.26-.531.553-.48a9 9 0 014.811 2.501z"/>
  <path fill-rule="evenodd" d="M6.278 16.481a.5.5 0 01.706.037 6.75 6.75 0 003.613 2.086.5.5 0 11-.208.978 7.75 7.75 0 01-4.148-2.395.5.5 0 01.037-.706zM5.26 9.286a.5.5 0 01.32.63 6.75 6.75 0 000 4.172.5.5 0 11-.95.309 7.75 7.75 0 010-4.79.5.5 0 01.63-.321zM10.982 4.806a.5.5 0 01-.385.593 6.75 6.75 0 00-3.613 2.086.5.5 0 11-.743-.67 7.75 7.75 0 014.148-2.394.5.5 0 01.593.385z" clip-rule="evenodd"/>
</svg>
