<svg xmlns="http://www.w3.org/2000/svg" viewBox="0 0 24 24" fill="currentColor">
  <path d="M11 18.34a.53.53 0 00-.415-.508 5.994 5.994 0 01-2.928-1.692.53.53 0 00-.646-.105L5.238 17.06a.477.477 0 00-.139.719 9.001 9.001 0 005.348 3.087.477.477 0 00.553-.48V18.34zM13 20.385c0 .298.26.531.553.48a9 9 0 005.348-3.087.477.477 0 00-.14-.72l-1.772-1.023a.53.53 0 00-.646.105 5.994 5.994 0 01-2.928 1.692.53.53 0 00-.415.508v2.045zM17.758 13.692a.53.53 0 00.233.612l1.77 1.023c.259.149.59.04.693-.24a9.002 9.002 0 000-6.174.477.477 0 00-.692-.24L17.99 9.696a.53.53 0 00-.233.612c.158.537.242 1.104.242 1.692 0 .588-.084 1.155-.242 1.692zM16.541 4.23a9 9 0 012.36 1.992c.191.229.119.57-.14.72L16.99 7.964a.53.53 0 01-.646-.105 5.994 5.994 0 00-2.928-1.692A.53.53 0 0113 5.66V3.615c0-.298.26-.531.553-.48a9 9 0 012.988 1.095z"/>
  <path fill-rule="evenodd" d="M17.723 16.481a.5.5 0 01.037.706 7.75 7.75 0 01-4.149 2.395.5.5 0 11-.208-.978 6.75 6.75 0 003.613-2.086.5.5 0 01.707-.037zM6.278 16.481a.5.5 0 01.706.037 6.75 6.75 0 003.613 2.086.5.5 0 11-.208.978 7.75 7.75 0 01-4.148-2.395.5.5 0 01.037-.706zM5.26 9.286a.5.5 0 01.32.63 6.75 6.75 0 000 4.172.5.5 0 11-.95.309 7.75 7.75 0 010-4.79.5.5 0 01.63-.321zM10.982 4.806a.5.5 0 01-.385.593 6.75 6.75 0 00-3.613 2.086.5.5 0 11-.743-.67 7.75 7.75 0 014.148-2.394.5.5 0 01.593.385z" clip-rule="evenodd"/>
</svg>
