<svg xmlns="http://www.w3.org/2000/svg" viewBox="0 0 24 24" fill="currentColor">
  <path d="M11 18.34a.53.53 0 0 0-.415-.508 5.994 5.994 0 0 1-2.928-1.692.53.53 0 0 0-.646-.105L5.238 17.06a.477.477 0 0 0-.139.719 9.001 9.001 0 0 0 5.348 3.087.477.477 0 0 0 .553-.48V18.34ZM13 20.385c0 .298.26.531.553.48a9 9 0 0 0 5.348-3.087.477.477 0 0 0-.14-.72l-1.772-1.023a.53.53 0 0 0-.646.105 5.994 5.994 0 0 1-2.928 1.692.53.53 0 0 0-.415.508v2.045ZM17.758 13.692a.53.53 0 0 0 .233.612l1.77 1.023c.259.149.59.04.693-.24a9.002 9.002 0 0 0 0-6.174.477.477 0 0 0-.692-.24L17.99 9.696a.53.53 0 0 0-.233.612c.158.537.242 1.104.242 1.692 0 .588-.084 1.155-.242 1.692ZM16.541 4.23a9 9 0 0 1 2.36 1.992c.191.229.119.57-.14.72L16.99 7.964a.53.53 0 0 1-.646-.105 5.994 5.994 0 0 0-2.928-1.692A.53.53 0 0 1 13 5.66V3.615c0-.298.26-.531.553-.48a9 9 0 0 1 2.988 1.095Z"/>
  <path fill-rule="evenodd" d="M17.723 16.481a.5.5 0 0 1 .037.706 7.75 7.75 0 0 1-4.149 2.395.5.5 0 1 1-.208-.978 6.75 6.75 0 0 0 3.613-2.086.5.5 0 0 1 .707-.037ZM6.278 16.481a.5.5 0 0 1 .706.037 6.75 6.75 0 0 0 3.613 2.086.5.5 0 1 1-.208.978 7.75 7.75 0 0 1-4.148-2.395.5.5 0 0 1 .037-.706ZM5.26 9.286a.5.5 0 0 1 .32.63 6.75 6.75 0 0 0 0 4.172.5.5 0 1 1-.95.309 7.75 7.75 0 0 1 0-4.79.5.5 0 0 1 .63-.321ZM10.982 4.806a.5.5 0 0 1-.385.593 6.75 6.75 0 0 0-3.613 2.086.5.5 0 1 1-.743-.67 7.75 7.75 0 0 1 4.148-2.394.5.5 0 0 1 .593.385Z" clip-rule="evenodd"/>
</svg>
