<svg xmlns="http://www.w3.org/2000/svg" viewBox="0 0 24 24" fill="currentColor">
  <path d="M4.236 8.672a.477.477 0 0 0-.692.24A8.983 8.983 0 0 0 3 12c0 1.085.192 2.126.544 3.089.102.28.434.388.692.239l1.773-1.024a.53.53 0 0 0 .233-.612A6.002 6.002 0 0 1 6 12c0-.588.084-1.155.242-1.692a.53.53 0 0 0-.233-.612L4.236 8.672ZM5.1 6.222a.477.477 0 0 0 .138.72l1.773 1.023a.53.53 0 0 0 .646-.105 5.994 5.994 0 0 1 2.928-1.692A.53.53 0 0 0 11 5.66V3.613c0-.298-.26-.53-.553-.48A8.991 8.991 0 0 0 5.1 6.222ZM16.99 16.035a.53.53 0 0 0-.647.105 5.994 5.994 0 0 1-2.928 1.692.53.53 0 0 0-.415.508v2.047c0 .298.26.53.553.48a8.99 8.99 0 0 0 5.348-3.089.477.477 0 0 0-.139-.72l-1.773-1.023ZM20.456 15.089a.477.477 0 0 1-.692.239l-1.773-1.024a.53.53 0 0 1-.233-.612A6.002 6.002 0 0 0 18 12c0-.588-.084-1.155-.242-1.692a.53.53 0 0 1 .233-.612l1.773-1.024a.477.477 0 0 1 .692.24c.352.962.544 2.003.544 3.088a8.984 8.984 0 0 1-.544 3.089ZM11 20.387c0 .298-.26.53-.553.48A8.99 8.99 0 0 1 5.1 17.777a.477.477 0 0 1 .139-.72l1.773-1.023a.53.53 0 0 1 .646.105 5.994 5.994 0 0 0 2.928 1.692.53.53 0 0 1 .415.508v2.047ZM13 3.613c0-.298.26-.53.553-.48A8.99 8.99 0 0 1 18.9 6.222c.191.229.12.57-.139.72l-1.773 1.023a.53.53 0 0 1-.646-.105 5.994 5.994 0 0 0-2.928-1.692A.53.53 0 0 1 13 5.66V3.613Z"/>
</svg>
