<svg xmlns="http://www.w3.org/2000/svg" viewBox="0 0 24 24" fill="currentColor">
  <path d="M4.236 8.672a.477.477 0 00-.692.24A8.983 8.983 0 003 12c0 1.085.192 2.126.544 3.089.102.28.434.388.692.239l1.773-1.024a.53.53 0 00.233-.612A6.002 6.002 0 016 12c0-.588.084-1.155.242-1.692a.53.53 0 00-.233-.612L4.236 8.672zM5.1 6.222a.477.477 0 00.138.72l1.773 1.023a.53.53 0 00.646-.105 5.994 5.994 0 012.928-1.692A.53.53 0 0011 5.66V3.613c0-.298-.26-.53-.553-.48A8.991 8.991 0 005.1 6.222zM16.99 16.035a.53.53 0 00-.647.105 5.994 5.994 0 01-2.928 1.692.53.53 0 00-.415.508v2.047c0 .298.26.53.553.48a8.99 8.99 0 005.348-3.089.477.477 0 00-.139-.72l-1.773-1.023zM20.456 15.089a.477.477 0 01-.692.239l-1.773-1.024a.53.53 0 01-.233-.612A6.001 6.001 0 0018 12c0-.588-.084-1.155-.242-1.692a.53.53 0 01.233-.612l1.773-1.024a.477.477 0 01.692.24c.352.962.544 2.003.544 3.088a8.984 8.984 0 01-.544 3.089zM11 20.387c0 .298-.26.53-.553.48A8.99 8.99 0 015.1 17.777a.477.477 0 01.139-.72l1.773-1.023a.53.53 0 01.646.105 5.993 5.993 0 002.928 1.692.53.53 0 01.415.508v2.047zM13 3.613c0-.298.26-.53.553-.48A8.99 8.99 0 0118.9 6.222c.191.229.12.57-.139.72l-1.773 1.023a.53.53 0 01-.646-.105 5.994 5.994 0 00-2.928-1.692A.53.53 0 0113 5.66V3.613z"/>
</svg>
