<svg xmlns="http://www.w3.org/2000/svg" viewBox="0 0 24 24" fill="currentColor">
  <path d="M13 5.66c0 .244.177.45.415.508a5.994 5.994 0 012.928 1.692.53.53 0 00.646.105l1.773-1.024c.258-.149.33-.49.139-.719a9 9 0 00-5.348-3.087.477.477 0 00-.553.48V5.66z"/>
  <path fill-rule="evenodd" d="M17.723 16.481a.5.5 0 01.037.706 7.75 7.75 0 01-4.149 2.395.5.5 0 11-.208-.978 6.75 6.75 0 003.613-2.086.5.5 0 01.707-.037zM6.278 16.481a.5.5 0 01.706.037 6.75 6.75 0 003.613 2.086.5.5 0 11-.208.978 7.75 7.75 0 01-4.148-2.395.5.5 0 01.037-.706zM5.26 9.286a.5.5 0 01.32.63 6.75 6.75 0 000 4.172.5.5 0 11-.95.309 7.75 7.75 0 010-4.79.5.5 0 01.63-.321zM10.982 4.806a.5.5 0 01-.385.593 6.75 6.75 0 00-3.613 2.086.5.5 0 11-.743-.67 7.75 7.75 0 014.148-2.394.5.5 0 01.593.385z" clip-rule="evenodd"/>
</svg>
