<svg xmlns="http://www.w3.org/2000/svg" viewBox="0 0 24 24" fill="currentColor">
  <path fill-rule="evenodd" d="M9 9a.5.5 0 01.364.157l.001.001.002.003.008.008.028.03.104.115a21.732 21.732 0 011.507 1.896c.83 1.178 1.761 2.772 1.95 4.26.008.06.014.118.018.173l.008.1a4 4 0 11-7.974-.1l.02-.173c.188-1.484 1.115-3.075 1.943-4.251a20.702 20.702 0 011.657-2.062l.077-.066A.5.5 0 019 9zm-1.5 6.5a.5.5 0 00-.5.5 2.001 2.001 0 002 2 .5.5 0 000-1 1 1 0 01-1-1 .5.5 0 00-.5-.5z" clip-rule="evenodd"/>
  <path d="M15.5 6a.5.5 0 01.385.18v.002l.002.002.005.005.016.021.062.076a15.334 15.334 0 01.883 1.241c.478.75 1.034 1.78 1.13 2.698l.004.037a2.5 2.5 0 11-4.972-.037c.097-.915.65-1.942 1.128-2.69.49-.772.96-1.34.972-1.354l.08-.077A.5.5 0 0115.5 6z"/>
</svg>
