<svg xmlns="http://www.w3.org/2000/svg" viewBox="0 0 24 24" fill="currentColor">
  <path d="M16.75 12a4.75 4.75 0 00-8.108-3.358.752.752 0 01-.052.046h.001l-.008.005-.028.025a13.764 13.764 0 00-.548.506c-.36.351-.842.855-1.325 1.463-.987 1.242-1.887 2.803-1.932 4.335a.75.75 0 01-1.5-.043c.06-2.03 1.215-3.914 2.257-5.226a17.258 17.258 0 012.07-2.173l.039-.032a6.25 6.25 0 016.776-1.322 6.251 6.251 0 012.027 10.193.75.75 0 11-1.06-1.06A4.751 4.751 0 0016.75 12z"/>
  <path d="M11.47 11.47a.75.75 0 011.112 1.004l-.052.056v.002l-.006.004-1.994 1.994c-.577.578-.905 1.494-.905 2.47 0 .976.328 1.892.905 2.47a.75.75 0 11-1.06 1.06c-.923-.922-1.345-2.256-1.345-3.53s.422-2.608 1.345-3.53l1.994-1.995.004-.004.002-.001z"/>
  <path d="M5.47 5.47c3.637-3.638 9.513-3.547 13.06 0 3.55 3.549 3.596 9.464 0 13.06-.843.843-1.841 1.188-2.813 1.127-.954-.059-1.83-.503-2.476-1.142-.646-.64-1.1-1.51-1.162-2.466-.063-.976.288-1.977 1.14-2.83.562-.56.75-1.101.746-1.551-.004-.457-.206-.917-.598-1.31-.298-.298-.794-.465-1.374-.431-.578.034-1.123.264-1.463.603l-2 2c-.239.24-.749 1.06-1.107 2.2-.352 1.118-.512 2.409-.198 3.575a.751.751 0 01-1.45.39c-.414-1.539-.184-3.139.217-4.415.394-1.254.999-2.331 1.478-2.81l2-2c.641-.642 1.555-.988 2.435-1.04.88-.052 1.842.186 2.524.869.625.626 1.028 1.448 1.036 2.357.007.917-.389 1.828-1.185 2.624-.564.564-.737 1.15-.704 1.672.035.541.298 1.08.72 1.496.422.417.966.678 1.514.712.528.033 1.11-.141 1.66-.69 3.005-3.006 2.968-7.971 0-10.94-2.97-2.97-7.897-3.042-10.94 0a.75.75 0 11-1.06-1.06z"/>
</svg>
