<svg xmlns="http://www.w3.org/2000/svg" viewBox="0 0 24 24" fill="currentColor">
  <path d="M10 19H7.5A1.5 1.5 0 016 17.5V14h4v5zM18 17.5a1.5 1.5 0 01-1.5 1.5H11v-5h7v3.5z"/>
  <path fill-rule="evenodd" d="M13.356 6.46c.968-.522 2.252-.63 3.07.146.41.39.557.85.484 1.313-.066.423-.307.789-.542 1.064L16.353 9h.147a1.5 1.5 0 011.5 1.5V13h-7V9h.375c-.16-.751-.666-1.329-1.278-1.66-.775-.418-1.534-.362-1.908-.008-.185.176-.202.314-.183.432.025.158.13.354.314.57A3.85 3.85 0 009.08 9H10v4H6v-2.5A1.5 1.5 0 017.5 9h.075l-.015-.017c-.235-.275-.476-.641-.542-1.064-.073-.462.073-.924.484-1.313.818-.775 2.102-.668 3.07-.145a3.623 3.623 0 011.392 1.33 3.622 3.622 0 011.392-1.33zm2.382.872c-.374-.355-1.132-.41-1.907.009-.612.33-1.12.908-1.278 1.659h2.295a3.85 3.85 0 00.76-.666c.184-.216.29-.412.314-.57.018-.118.002-.256-.184-.432z" clip-rule="evenodd"/>
</svg>
