<svg xmlns="http://www.w3.org/2000/svg" viewBox="0 0 24 24" fill="currentColor">
  <path fill-rule="evenodd" d="M10.51 6.617c-.518 1.341-.855 3.245-.855 5.385 0 2.14.337 4.044.856 5.385.26.673.552 1.166.838 1.478.285.312.506.385.651.385.145 0 .366-.073.652-.385.285-.312.577-.805.837-1.478.52-1.341.856-3.245.856-5.385 0-2.14-.337-4.044-.856-5.385-.26-.673-.552-1.166-.838-1.478-.285-.312-.506-.385-.651-.385-.145 0-.366.073-.651.385-.286.312-.578.805-.838 1.478zm-.268-2.49c.455-.499 1.048-.873 1.758-.873s1.303.374 1.758.872c.455.497.83 1.175 1.13 1.95.601 1.553.957 3.649.957 5.926s-.356 4.373-.957 5.926c-.3.774-.675 1.453-1.13 1.95-.455.497-1.048.872-1.758.872s-1.303-.375-1.758-.872c-.455-.497-.83-1.175-1.13-1.95-.601-1.553-.957-3.649-.957-5.926s.356-4.373.957-5.926c.3-.775.675-1.453 1.13-1.95z" clip-rule="evenodd"/>
  <path fill-rule="evenodd" d="M12 4.746a7.25 7.25 0 100 14.5 7.25 7.25 0 000-14.5zm-8.75 7.25a8.75 8.75 0 1117.5 0 8.75 8.75 0 01-17.5 0z" clip-rule="evenodd"/>
  <path fill-rule="evenodd" d="M3.25 11.99a.75.75 0 01.75-.75l16 .012a.75.75 0 010 1.5L4 12.74a.75.75 0 01-.75-.75z" clip-rule="evenodd"/>
</svg>
