<svg xmlns="http://www.w3.org/2000/svg" viewBox="0 0 24 24" fill="currentColor">
  <path d="M11.5 8.75a.75.75 0 010 1.5h-7a.75.75 0 010-1.5h7zM11.5 5.75a.75.75 0 010 1.5h-7a.75.75 0 010-1.5h7z"/>
  <path d="M8.75 11.5v-7a.75.75 0 011.5 0v7a.75.75 0 01-1.5 0zM5.75 11.5v-7a.75.75 0 011.5 0v7a.75.75 0 01-1.5 0zM20.5 11.75a.75.75 0 010 1.5h-7a.75.75 0 010-1.5h7zM20.5 8.75a.75.75 0 010 1.5h-7a.75.75 0 010-1.5h7z"/>
  <path d="M17.75 14.5v-7a.75.75 0 011.5 0v7a.75.75 0 01-1.5 0zM14.75 14.5v-7a.75.75 0 011.5 0v7a.75.75 0 01-1.5 0zM13.5 17.75a.75.75 0 010 1.5h-7a.75.75 0 010-1.5h7zM13.5 14.75a.75.75 0 010 1.5h-7a.75.75 0 010-1.5h7z"/>
  <path d="M10.75 20.5v-7a.75.75 0 011.5 0v7a.75.75 0 01-1.5 0zM7.75 20.5v-7a.75.75 0 011.5 0v7a.75.75 0 01-1.5 0z"/>
</svg>
