<svg xmlns="http://www.w3.org/2000/svg" viewBox="0 0 24 24" fill="currentColor">
  <path d="M12.604 10.321c1.067 0 1.478.563 1.504.881.013.155-.043.328-.244.483-.212.163-.607.315-1.26.315H10.5v-1.687h2.023a.504.504 0 00.08.008zM12.604 8c.872 0 1.117.451 1.123.676.004.126-.048.27-.202.394-.136.11-.369.216-.733.243H10.5V8h2.104z"/>
  <path fill-rule="evenodd" d="M17 4a1 1 0 011 1v14a1 1 0 01-1 1H7a1 1 0 01-1-1V5a1 1 0 011-1h10zm-7 11a.783.783 0 00-.519.213 1.541 1.541 0 00-.272.335 4.51 4.51 0 00-.364.776 10.419 10.419 0 00-.305.96l-.019.069-.004.018-.001.005v.002h-.001a.5.5 0 00.935.339l.035-.096.001-.004.02-.073a10.304 10.304 0 01.275-.868c.075-.2.154-.38.23-.52.098.15.204.348.321.574.124.239.264.517.402.73.07.107.154.223.254.317A.75.75 0 0011.5 18c.326 0 .54-.196.657-.337.114-.138.207-.31.268-.42.028-.052.053-.096.074-.132l.073.13c.06.11.154.284.269.422.119.143.334.337.659.337.255 0 .507-.129.67-.224.189-.11.382-.25.55-.381a9.712 9.712 0 00.608-.517l.013-.013a.5.5 0 10-.684-.73l-.009.01-.032.029c-.028.025-.068.063-.119.107-.102.09-.24.207-.39.325a4.147 4.147 0 01-.44.305c-.04.023-.075.037-.1.05a3.695 3.695 0 01-.118-.202c-.063-.115-.157-.29-.28-.43A.882.882 0 0012.5 16c-.32 0-.539.18-.668.327-.123.141-.219.316-.282.43l-.034.06c-.089-.15-.187-.335-.296-.547a7.01 7.01 0 00-.425-.743 1.686 1.686 0 00-.28-.322A.797.797 0 0010 15zm2-9.5a.5.5 0 00-.5.5v1h-2v6h2v1a.5.5 0 001 0v-1h.104c.793 0 1.428-.183 1.87-.523.452-.347.675-.843.631-1.358-.045-.548-.367-1.024-.867-1.348.328-.304.5-.706.489-1.125C14.699 7.71 13.827 7 12.604 7H12.5V6a.5.5 0 00-.5-.5z" clip-rule="evenodd"/>
</svg>
