<svg xmlns="http://www.w3.org/2000/svg" viewBox="0 0 24 24" fill="currentColor">
  <path fill-rule="evenodd" d="M20 7a1 1 0 011 1v9a1 1 0 01-1 1H4a1 1 0 01-1-1V8a1 1 0 011-1h16zM5.5 15a.5.5 0 000 1h1a.5.5 0 000-1h-1zm3 0a.5.5 0 000 1h7a.5.5 0 000-1h-7zm9 0a.5.5 0 000 1h1a.5.5 0 000-1h-1zm-11-3a.5.5 0 000 1h1a.5.5 0 000-1h-1zm3 0a.5.5 0 000 1h1a.5.5 0 000-1h-1zm3 0a.5.5 0 000 1h1a.5.5 0 000-1h-1zm3 0a.5.5 0 000 1h1a.5.5 0 000-1h-1zm-10-3a.5.5 0 000 1h1a.5.5 0 000-1h-1zm3 0a.5.5 0 000 1h1a.5.5 0 000-1h-1zm3 0a.5.5 0 000 1h1a.5.5 0 000-1h-1zm3 0a.5.5 0 000 1h1a.5.5 0 000-1h-1zm3 0a.5.5 0 000 1h1a.5.5 0 000-1h-1z" clip-rule="evenodd"/>
</svg>
