<svg xmlns="http://www.w3.org/2000/svg" viewBox="0 0 24 24" fill="currentColor">
  <path d="M12 13v1h-1v-1h1z"/>
  <path fill-rule="evenodd" d="M19.498 6a.5.5 0 01.5.5v.975L20 7.5V17l-.002.027v.473a1.5 1.5 0 01-1.5 1.5h-13a1.5 1.5 0 01-1.5-1.5v-11a.5.5 0 111 0v.8l.282.302a1.501 1.501 0 002.19 0l.415-.444a.501.501 0 01.73 0l.415.444a1.5 1.5 0 002.19 0l.415-.444a.501.501 0 01.73 0l.415.444a1.5 1.5 0 002.19 0l.415-.444a.501.501 0 01.73 0l.415.444a1.5 1.5 0 002.19 0l.278-.298V6.5a.5.5 0 01.5-.5zM12.5 10a.5.5 0 00-.5.5V12h-1v-1.5a.5.5 0 00-1 0V12H8.5a.5.5 0 000 1H10v1H8.5a.5.5 0 000 1H10v1.5a.5.5 0 001 0V15h1v1.5a.5.5 0 001 0V15h1.5a.5.5 0 000-1H13v-1h1.5a.5.5 0 000-1H13v-1.5a.5.5 0 00-.5-.5z" clip-rule="evenodd"/>
</svg>
