<svg xmlns="http://www.w3.org/2000/svg" viewBox="0 0 24 24" fill="currentColor">
  <path fill-rule="evenodd" d="M5 6.5A1.5 1.5 0 0 1 6.5 5h11A1.5 1.5 0 0 1 19 6.5v11a1.5 1.5 0 0 1-1.5 1.5h-11A1.5 1.5 0 0 1 5 17.5v-11Zm1.5 0H9V8H6.5V6.5ZM9 9.667H6.5v1.5H9v-1.5Zm-2.5 3.166H9v1.5H6.5v-1.5ZM9 16H6.5v1.5H9V16Zm1.75-9.5h2.5V8h-2.5V6.5Zm2.5 3.167h-2.5v1.5h2.5v-1.5Zm-2.5 3.166h2.5v1.5h-2.5v-1.5ZM13.25 16h-2.5v1.5h2.5V16ZM15 6.5h2.5V8H15V6.5Zm2.5 3.167H15v1.5h2.5v-1.5ZM15 12.833h2.5v1.5H15v-1.5ZM17.5 16H15v1.5h2.5V16Z" clip-rule="evenodd"/>
</svg>
