<svg xmlns="http://www.w3.org/2000/svg" viewBox="0 0 24 24" fill="currentColor">
  <path d="M20.993 13.313a6 6 0 01-7.306-7.306 7 7 0 107.306 7.306z"/>
  <path fill-rule="evenodd" d="M4.5 8.25a.5.5 0 01.5.5v1.5a.5.5 0 01-1 0v-1.5a.5.5 0 01.5-.5z" clip-rule="evenodd"/>
  <path fill-rule="evenodd" d="M3.25 9.5a.5.5 0 01.5-.5h1.5a.5.5 0 010 1h-1.5a.5.5 0 01-.5-.5zM7.5 3a.5.5 0 01.5.5v2a.5.5 0 01-1 0v-2a.5.5 0 01.5-.5z" clip-rule="evenodd"/>
  <path fill-rule="evenodd" d="M6 4.5a.5.5 0 01.5-.5h2a.5.5 0 010 1h-2a.5.5 0 01-.5-.5z" clip-rule="evenodd"/>
</svg>
