<svg xmlns="http://www.w3.org/2000/svg" viewBox="0 0 24 24" fill="currentColor">
  <path d="M13.707 3.32a.75.75 0 011.054.12 13.75 13.75 0 01.074 17.025.75.75 0 11-1.182-.923 12.25 12.25 0 00-.066-15.168.75.75 0 01.12-1.054z"/>
  <path d="M11.36 5.188a.75.75 0 011.053.12 10.751 10.751 0 01.059 13.31.751.751 0 01-1.183-.923 9.25 9.25 0 00-.05-11.453.75.75 0 01.12-1.054z"/>
  <path d="M9.011 7.055a.75.75 0 011.054.12 7.75 7.75 0 01.042 9.596.75.75 0 11-1.182-.924 6.25 6.25 0 00-.034-7.738.75.75 0 01.12-1.054z"/>
  <path d="M6.664 8.923a.75.75 0 011.053.12 4.75 4.75 0 01.026 5.881.75.75 0 11-1.182-.923 3.25 3.25 0 00-.018-4.024.75.75 0 01.12-1.054z"/>
</svg>
