<svg xmlns="http://www.w3.org/2000/svg" viewBox="0 0 24 24" fill="currentColor">
  <path fill-rule="evenodd" d="M12.54 7.165c.5-.162.901-.543 1.091-1.03l4.233 4.234c-.486.19-.867.591-1.03 1.092L12.54 7.165zm4.295 5.374l-4.296 4.296c.5.162.902.543 1.092 1.03l4.233-4.234a1.755 1.755 0 01-1.03-1.092zm-5.374 4.296l-4.296-4.296c-.162.5-.542.902-1.03 1.092l4.234 4.233c.19-.487.591-.867 1.092-1.03zm0-9.67l-4.296 4.296a1.755 1.755 0 00-1.03-1.092l4.234-4.233c.19.487.591.867 1.092 1.03z" clip-rule="evenodd"/>
  <circle cx="12" cy="5.5" r="1.75" stroke="#000" stroke-width="1.5"/>
  <circle cx="12" cy="18.5" r="1.75" stroke="#000" stroke-width="1.5"/>
  <circle cx="5.5" cy="12" r="1.75" stroke="#000" stroke-width="1.5"/>
  <circle cx="18.5" cy="12" r="1.75" stroke="#000" stroke-width="1.5"/>
</svg>
