<svg xmlns="http://www.w3.org/2000/svg" viewBox="0 0 24 24" fill="currentColor">
  <path d="M12.604 13.321c1.067 0 1.478.563 1.504.881.013.155-.043.328-.244.483-.212.163-.607.315-1.26.315H10.5v-1.687h2.023a.504.504 0 00.08.008zM12.604 11c.872 0 1.117.451 1.123.676.004.126-.048.27-.202.394-.136.11-.369.216-.733.243H10.5V11h2.104z"/>
  <path fill-rule="evenodd" d="M13.977 4a.5.5 0 01.35.143l3.523 3.443a.5.5 0 01.15.357V19.5a.5.5 0 01-.5.5h-11a.5.5 0 01-.5-.5v-15a.5.5 0 01.5-.5h7.477zM12 8.5a.5.5 0 00-.5.5v1h-2v6h2v1a.5.5 0 001 0v-1h.104c.793 0 1.428-.183 1.87-.523.452-.347.675-.843.631-1.358-.045-.548-.367-1.024-.867-1.348.328-.304.5-.706.489-1.125-.028-.936-.9-1.646-2.123-1.646H12.5V9a.5.5 0 00-.5-.5zm1.927-3.073a.25.25 0 00-.427.177V8.25c0 .138.112.25.25.25h2.646a.25.25 0 00.177-.427l-2.646-2.646z" clip-rule="evenodd"/>
</svg>
