<svg xmlns="http://www.w3.org/2000/svg" viewBox="0 0 24 24" fill="currentColor">
  <path d="M12 3a4 4 0 00-4 4h2a.5.5 0 010 1H8v1h2a.5.5 0 010 1H8v1h2a.5.5 0 010 1H8a4 4 0 008 0h-2a.5.5 0 010-1h2v-1h-2a.5.5 0 010-1h2V8h-2a.5.5 0 010-1h2a4 4 0 00-4-4z"/>
  <path fill-rule="evenodd" d="M11.5 20v-2.5h1V20h-1zM8 20.5a.5.5 0 01.5-.5h7a.5.5 0 010 1h-7a.5.5 0 01-.5-.5z" clip-rule="evenodd"/>
  <path fill-rule="evenodd" d="M6.227 13.709a.5.5 0 01.647.284 5.5 5.5 0 0010.16.222.5.5 0 01.916.403 6.5 6.5 0 01-12.008-.262.5.5 0 01.285-.647z" clip-rule="evenodd"/>
</svg>
