<svg xmlns="http://www.w3.org/2000/svg" viewBox="0 0 24 24" fill="currentColor">
  <path fill-rule="evenodd" d="M6 5.5A1.5 1.5 0 0 1 7.5 4h9A1.5 1.5 0 0 1 18 5.5v13a1.5 1.5 0 0 1-1.5 1.5h-9A1.5 1.5 0 0 1 6 18.5v-13Zm2 1a.5.5 0 0 1 .5-.5h7a.5.5 0 0 1 .5.5V11a.5.5 0 0 1-.5.5h-7A.5.5 0 0 1 8 11V6.5ZM8.5 17a.5.5 0 0 0 0 1h1a.5.5 0 0 0 0-1h-1Zm5.5.5a.5.5 0 0 1 .5-.5h1a.5.5 0 0 1 0 1h-1a.5.5 0 0 1-.5-.5Zm-2.5-.5a.5.5 0 0 0 0 1h1a.5.5 0 0 0 0-1h-1ZM8 15.5a.5.5 0 0 1 .5-.5h1a.5.5 0 0 1 0 1h-1a.5.5 0 0 1-.5-.5Zm6.5-.5a.5.5 0 0 0 0 1h1a.5.5 0 0 0 0-1h-1Zm-3.5.5a.5.5 0 0 1 .5-.5h1a.5.5 0 0 1 0 1h-1a.5.5 0 0 1-.5-.5ZM8.5 13a.5.5 0 0 0 0 1h1a.5.5 0 0 0 0-1h-1Zm5.5.5a.5.5 0 0 1 .5-.5h1a.5.5 0 0 1 0 1h-1a.5.5 0 0 1-.5-.5Zm-2.5-.5a.5.5 0 0 0 0 1h1a.5.5 0 0 0 0-1h-1Z" clip-rule="evenodd"/>
</svg>
