<svg xmlns="http://www.w3.org/2000/svg" viewBox="0 0 24 24" fill="currentColor">
  <path stroke="#000" stroke-width="1.5" d="M5.75 5.75h3v3h-3zM15.25 5.75h3v3h-3zM5.75 15.25h3v3h-3z"/>
  <path stroke="#000" stroke-width=".75" d="M5.375 11.625h.75v.75h-.75zM8.375 11.625h.75v.75h-.75zM11.542 11.625h.75v.75h-.75zM11.542 14.75h.75v.75h-.75zM11.542 17.875h.75v.75h-.75zM11.542 8.5h.75v.75h-.75zM11.542 5.375h.75v.75h-.75zM14.708 11.625h.75v.75h-.75zM17.875 11.625h.75v.75h-.75zM14.708 14.75h.75v.75h-.75zM17.875 14.75h.75v.75h-.75zM14.708 17.875h.75v.75h-.75zM17.875 17.875h.75v.75h-.75z"/>
</svg>
