<svg xmlns="http://www.w3.org/2000/svg" viewBox="0 0 24 24" fill="currentColor">
  <path fill-rule="evenodd" d="M6.64 9.788a.75.75 0 0 1 .53.918 5 5 0 0 0 7.33 5.624.75.75 0 1 1 .75 1.3 6.501 6.501 0 0 1-9.529-7.312.75.75 0 0 1 .919-.53ZM8.75 6.37a6.5 6.5 0 0 1 9.529 7.312.75.75 0 1 1-1.45-.388A5.001 5.001 0 0 0 9.5 7.67a.75.75 0 1 1-.75-1.3Z" clip-rule="evenodd"/>
  <path fill-rule="evenodd" d="M5.72 9.47a.75.75 0 0 1 1.06 0l2.5 2.5a.75.75 0 1 1-1.06 1.06l-1.97-1.97-1.97 1.97a.75.75 0 0 1-1.06-1.06l2.5-2.5ZM14.72 10.97a.75.75 0 0 1 1.06 0l1.97 1.97 1.97-1.97a.75.75 0 1 1 1.06 1.06l-2.5 2.5a.75.75 0 0 1-1.06 0l-2.5-2.5a.75.75 0 0 1 0-1.06Z" clip-rule="evenodd"/>
</svg>
