<svg xmlns="http://www.w3.org/2000/svg" viewBox="0 0 24 24" fill="currentColor">
  <path fill-rule="evenodd" d="M13.383 4.844a.75.75 0 0 1 .935-.5 8 8 0 0 1-3.765 15.524.75.75 0 0 1 .271-1.475 6.5 6.5 0 0 0 3.06-12.614.75.75 0 0 1-.501-.935ZM10.723 4.824a.75.75 0 0 1-.514.928 6.5 6.5 0 0 0-2.544 11.091.75.75 0 0 1-1 1.118A8 8 0 0 1 9.794 4.31a.75.75 0 0 1 .928.514Z" clip-rule="evenodd"/>
  <path fill-rule="evenodd" d="M10.842 6.88a5.25 5.25 0 0 1 6.276 6.292.75.75 0 1 1-1.463-.335 3.75 3.75 0 1 0-2.041 2.548.75.75 0 0 1 .645 1.354 5.25 5.25 0 1 1-3.417-9.86Z" clip-rule="evenodd"/>
  <path fill-rule="evenodd" d="M12.297 11.045a1 1 0 0 0-.986.23.75.75 0 0 1-1.033-1.087 2.5 2.5 0 1 1 .875 4.164.75.75 0 1 1 .508-1.411 1 1 0 1 0 .636-1.896Z" clip-rule="evenodd"/>
</svg>
