<svg xmlns="http://www.w3.org/2000/svg" viewBox="0 0 24 24" fill="currentColor">
  <path fill-rule="evenodd" d="M8 16a.5.5 0 010 .707l-1 1A.5.5 0 116.293 17l1-1a.5.5 0 01.708 0zM9.5 17.5a.5.5 0 010 .707l-1 1a.5.5 0 11-.707-.707l1-1a.5.5 0 01.708 0zM6.5 14.5a.5.5 0 010 .707l-1 1a.5.5 0 11-.707-.708l1-1a.5.5 0 01.707 0zM12.602 6.016a11.537 11.537 0 00-5.797 6.495l4.684 4.684a11.537 11.537 0 006.495-5.797l-5.382-5.382zm1.045 5.337a1.5 1.5 0 11-3 0 1.5 1.5 0 013 0z" clip-rule="evenodd"/>
  <path d="M18.411 10.41c.476-1.262.736-2.629.736-4.057 0-.479-.03-.95-.086-1.414a11.614 11.614 0 00-1.414-.086c-1.428 0-2.795.26-4.057.736l4.821 4.82zM12.266 17.972l1.027 1.027a.5.5 0 00.854-.353v-1.614c-.596.364-1.225.679-1.881.94zM6.028 11.734c.261-.656.576-1.285.94-1.881H5.354a.5.5 0 00-.353.854l1.027 1.027z"/>
</svg>
