<svg xmlns="http://www.w3.org/2000/svg" viewBox="0 0 24 24" fill="currentColor">
  <path d="M16.75 17.5v-11a.25.25 0 00-.25-.25h-2a.75.75 0 010-1.5h2c.966 0 1.75.784 1.75 1.75v11a1.75 1.75 0 01-1.75 1.75h-2a.75.75 0 010-1.5h2a.25.25 0 00.25-.25z"/>
  <path d="M17.5 13.25a.75.75 0 010 1.5h-3a.75.75 0 010-1.5h3zM17.5 9.25a.75.75 0 010 1.5h-3a.75.75 0 010-1.5h3zM10.5 4.75a.75.75 0 010 1.5h-4a.75.75 0 010-1.5h4zM10.25 16a1.75 1.75 0 10-3.5 0 1.75 1.75 0 003.5 0zm1.5 0a3.25 3.25 0 11-6.5 0 3.25 3.25 0 016.5 0z"/>
  <path d="M7.75 13v-3a.75.75 0 011.5 0v3a.75.75 0 01-1.5 0z"/>
  <path d="M8.026 8.418a.75.75 0 011.004.052l2 2a.75.75 0 11-1.06 1.06L8.5 10.06l-1.47 1.47a.75.75 0 11-1.06-1.06l2-2 .056-.052z"/>
</svg>
