<svg xmlns="http://www.w3.org/2000/svg" viewBox="0 0 24 24" fill="currentColor">
  <path fill-rule="evenodd" d="M5 4.5A1.5 1.5 0 016.5 3h8A1.5 1.5 0 0116 4.5v4.504h-1V4.5a.5.5 0 00-.5-.5h-8a.5.5 0 00-.5.5v12a.5.5 0 00.5.5H11v1H6.5A1.5 1.5 0 015 16.5v-12z" clip-rule="evenodd"/>
  <path d="M6 15h5v2H6z"/>
  <path fill-rule="evenodd" d="M12 11.5a1.5 1.5 0 011.5-1.5h4a1.5 1.5 0 011.5 1.5v8a1.5 1.5 0 01-1.5 1.5h-4a1.5 1.5 0 01-1.5-1.5v-8zm1.5-.5a.5.5 0 00-.5.5v8a.5.5 0 00.5.5h4a.5.5 0 00.5-.5v-8a.5.5 0 00-.5-.5h-4z" clip-rule="evenodd"/>
  <path d="M12.5 18.5h6v1a1 1 0 01-1 1h-4a1 1 0 01-1-1v-1z"/>
</svg>
