<svg xmlns="http://www.w3.org/2000/svg" viewBox="0 0 24 24" fill="currentColor">
  <rect width="10" height="2" x="7" y="18" rx="1"/>
  <path fill-rule="evenodd" d="M12 8a4 4 0 014 4v4.182a.819.819 0 01-.818.818H8.818A.819.819 0 018 16.182V12a4 4 0 014-4zm.5 1.5a.5.5 0 000 1A1.5 1.5 0 0114 12a.5.5 0 001 0 2.5 2.5 0 00-2.5-2.5z" clip-rule="evenodd"/>
  <path d="M5.5 11.5a.5.5 0 010 1h-2a.5.5 0 010-1h2zM20.5 11.5a.5.5 0 010 1h-2a.5.5 0 010-1h2zM11.5 5.5v-2a.5.5 0 011 0v2a.5.5 0 01-1 0zM17.646 5.646a.5.5 0 11.707.708l-1.5 1.5a.5.5 0 11-.707-.708l1.5-1.5zM5.646 5.646a.5.5 0 01.708 0l1.5 1.5a.5.5 0 11-.708.708l-1.5-1.5a.5.5 0 010-.708z"/>
</svg>
