<svg xmlns="http://www.w3.org/2000/svg" viewBox="0 0 24 24" fill="currentColor">
  <path d="M12 16.5A4.505 4.505 0 0 1 7.5 12c0-2.481 2.019-4.5 4.5-4.5s4.5 2.019 4.5 4.5-2.019 4.5-4.5 4.5Z"/>
  <path fill-rule="evenodd" d="M12 3a.5.5 0 0 1 .5.5v2a.5.5 0 0 1-1 0v-2A.5.5 0 0 1 12 3ZM18 12a.5.5 0 0 1 .5-.5h2a.5.5 0 0 1 0 1h-2a.5.5 0 0 1-.5-.5ZM3 12a.5.5 0 0 1 .5-.5h2a.5.5 0 0 1 0 1h-2A.5.5 0 0 1 3 12ZM12 18a.5.5 0 0 1 .5.5v2a.5.5 0 0 1-1 0v-2a.5.5 0 0 1 .5-.5ZM18.354 5.646a.5.5 0 0 1 0 .708l-1.5 1.5a.5.5 0 0 1-.708-.708l1.5-1.5a.5.5 0 0 1 .708 0ZM7.854 16.146a.5.5 0 0 1 0 .708l-1.5 1.5a.5.5 0 0 1-.708-.708l1.5-1.5a.5.5 0 0 1 .708 0ZM5.646 5.646a.5.5 0 0 1 .708 0l1.5 1.5a.5.5 0 1 1-.708.708l-1.5-1.5a.5.5 0 0 1 0-.708ZM16.146 16.146a.5.5 0 0 1 .708 0l1.5 1.5a.5.5 0 0 1-.708.708l-1.5-1.5a.5.5 0 0 1 0-.708Z" clip-rule="evenodd"/>
</svg>
