<svg xmlns="http://www.w3.org/2000/svg" viewBox="0 0 24 24" fill="currentColor">
  <path fill-rule="evenodd" d="m10.646 18.646-5.292-5.292a.5.5 0 0 1 0-.708l6.5-6.5A.5.5 0 0 1 12.207 6h3.586a.5.5 0 0 1 .069.005 2 2 0 0 1 2.134 2.134.5.5 0 0 1 .004.068v3.586a.5.5 0 0 1-.146.353l-6.5 6.5a.5.5 0 0 1-.707 0ZM12 9.672a.5.5 0 0 0-1 0v5.656a.5.5 0 1 0 1 0V9.672Zm-1.914 2.12a1 1 0 1 1-1.415 1.415 1 1 0 0 1 1.415-1.414Zm4.242 1.415a1 1 0 1 0-1.414-1.414 1 1 0 0 0 1.415 1.414Z" clip-rule="evenodd"/>
</svg>
