<svg xmlns="http://www.w3.org/2000/svg" viewBox="0 0 24 24" fill="currentColor">
  <circle cx="5.5" cy="7.5" r="1.5"/>
  <path fill-rule="evenodd" d="M8 6.5a.5.5 0 0 1 .5-.5h11a.5.5 0 0 1 0 1h-11a.5.5 0 0 1-.5-.5ZM8 8.5a.5.5 0 0 1 .5-.5h6a.5.5 0 0 1 0 1h-6a.5.5 0 0 1-.5-.5Z" clip-rule="evenodd"/>
  <circle cx="5.5" cy="12" r="1.5"/>
  <path fill-rule="evenodd" d="M8 11a.5.5 0 0 1 .5-.5h8a.5.5 0 0 1 0 1h-8A.5.5 0 0 1 8 11ZM8 13a.5.5 0 0 1 .5-.5h7a.5.5 0 0 1 0 1h-7A.5.5 0 0 1 8 13Z" clip-rule="evenodd"/>
  <circle cx="5.5" cy="16.5" r="1.5"/>
  <path fill-rule="evenodd" d="M8 15.5a.5.5 0 0 1 .5-.5H18a.5.5 0 0 1 0 1H8.5a.5.5 0 0 1-.5-.5ZM8 17.5a.5.5 0 0 1 .5-.5h4a.5.5 0 0 1 0 1h-4a.5.5 0 0 1-.5-.5Z" clip-rule="evenodd"/>
</svg>
