<svg xmlns="http://www.w3.org/2000/svg" viewBox="0 0 24 24" fill="currentColor">
  <path fill-rule="evenodd" d="M12 6a4 4 0 014 4h.448a.5.5 0 01.497.55l-.9 9a.5.5 0 01-.498.45H8.452a.5.5 0 01-.497-.45l-.9-9a.5.5 0 01.498-.55h.446a4 4 0 014-4zm.308 6.531a.44.44 0 00-.615 0c-.496.48-1.438 1.505-1.649 2.564-.007.031-.011.063-.016.095-.006.036-.012.071-.016.107a2 2 0 103.976 0c-.004-.036-.01-.071-.016-.107-.005-.032-.01-.064-.017-.095-.211-1.059-1.151-2.085-1.647-2.564zM11.999 7a3.003 3.003 0 00-2.771 1.852c-.151.364-.229.754-.229 1.148h6a3.002 3.002 0 00-3-3z" clip-rule="evenodd"/>
</svg>
