<svg width="32" height="32" viewBox="0 0 32 32" fill="none" xmlns="http://www.w3.org/2000/svg">
<path d="M14.7719 0.9561L12.2644 0L11.8231 0.318689C14.0497 4.06818 12.9063 5.9429 11.8231 6.67408C9.3385 8.07549 6.98337 9.6683 4.78225 11.4359C3.40684 12.6347 2.35518 14.1212 1.71361 15.7735C1.072 17.4257 0.858736 19.1966 1.0913 20.9408C1.32605 23.2889 2.30167 25.5188 3.89447 27.3479C5.48728 29.1771 7.62546 30.5227 10.0378 31.2142C12.1077 31.8123 14.2724 32.0721 16.4368 31.9829C20.0526 32.1105 23.6017 31.0491 26.4665 28.9835C27.8826 27.8824 29.0226 26.504 29.8062 24.9458C30.5895 23.3876 30.9971 21.6876 31 19.9659C30.9775 18.2593 30.5771 16.5755 29.8245 15.0204C29.0722 13.4654 27.9834 12.0726 26.627 10.9297C25.0277 9.68282 23.2931 8.59581 21.4517 7.68643C20.4847 7.22217 19.7087 6.47247 19.2444 5.55378C18.7802 4.63506 18.6535 3.5988 18.8841 2.6059L17.2592 1.96849L14.7719 0.9561ZM11.462 30.652C10.6024 30.4916 9.76711 30.2334 8.97468 29.8833C7.10855 29.0977 5.49722 27.866 4.30326 26.3123C3.10932 24.7587 2.37504 22.9381 2.1745 21.0346C1.83351 14.5854 5.12327 12.692 8.19237 10.3298C9.89741 9.01748 12.2042 8.45508 13.6686 6.01791C13.9877 5.09145 13.9877 4.09477 13.6686 3.1683C13.4019 2.42081 13.0593 1.69889 12.6456 1.01236L16.4569 2.56839C16.3029 4.00101 16.3704 5.4469 16.6575 6.86153C17.0586 8.21133 18.9242 10.1798 19.7065 12.4857C21.1675 17.1752 21.1675 22.1568 19.7065 26.8462C19.4649 27.7448 18.9815 28.571 18.3023 29.2459C17.337 29.9236 16.2227 30.3931 15.0399 30.62C13.8571 30.8468 12.6351 30.8257 11.462 30.5582V30.652Z" fill="#010101"/>
</svg>
