<svg width="30" height="30" viewBox="0 0 30 30" fill="none" xmlns="http://www.w3.org/2000/svg">
<mask id="path-1-inside-1" fill="white">
<path fill-rule="evenodd" clip-rule="evenodd" d="M12.8239 23.7313C17.6512 24.933 22.5315 21.9906 23.7325 17.1721C24.9305 12.3507 21.9929 7.45565 17.1626 6.26871C12.347 5.06703 7.46966 8.00937 6.26871 12.8279C5.06777 17.6463 8.00538 22.5267 12.8239 23.7313ZM17.2618 11.5759C18.5118 12 19.4235 12.6274 19.2618 13.8292C19.1382 14.704 18.6618 15.1311 18.0029 15.2813C18.9029 15.7437 19.3529 16.4448 18.9412 17.6731C18.4294 19.2136 17.1676 19.352 15.4794 19.0515L15.0912 20.6922L14.1029 20.4536L14.4912 18.8395C14.2412 18.7776 13.9794 18.7128 13.7029 18.6392L13.3147 20.2651L12.3265 20.0265L12.7147 18.3859C12.5788 18.3465 12.4375 18.3125 12.2941 18.2781C12.2016 18.2558 12.1081 18.2334 12.0147 18.2091L10.7265 17.9087L11.1941 16.7688C11.1941 16.7688 11.9323 16.9573 11.9206 16.9455C12.1941 17.0074 12.3206 16.8306 12.3706 16.7069L12.9706 14.1149C12.9897 14.1208 13.0051 14.1237 13.0206 14.1267C13.036 14.1296 13.0515 14.1326 13.0706 14.1384C13.0458 14.1213 13.0223 14.1152 13.0017 14.1099C12.9904 14.107 12.9799 14.1043 12.9706 14.1002L13.4088 12.2474C13.4235 12.0471 13.3471 11.785 12.9471 11.6848C12.9735 11.6701 12.2353 11.5081 12.2353 11.5081L12.4853 10.4566L13.8471 10.7835C13.9529 10.8085 14.0596 10.8306 14.1662 10.8527C14.2728 10.8748 14.3794 10.8969 14.4853 10.9219L14.8735 9.29603L15.8735 9.53462L15.4971 11.1252C15.7588 11.1782 16.0235 11.2401 16.2853 11.3019L16.6618 9.71135L17.65 9.94993L17.2618 11.5759ZM14.1854 17.4902C14.98 17.6943 16.7718 18.1545 17.0382 17.0191C17.3064 15.8687 15.6266 15.5065 14.7838 15.3247C14.6837 15.3031 14.5954 15.2841 14.5235 15.2666L14.0118 17.4462C14.062 17.4585 14.1204 17.4735 14.1854 17.4902ZM14.8972 14.3026C15.5599 14.4739 17.0685 14.864 17.3118 13.8292C17.5586 12.7906 16.1507 12.489 15.4544 12.3398C15.3707 12.3219 15.2973 12.3062 15.2382 12.2916L14.7618 14.268C14.8014 14.2778 14.8469 14.2896 14.8972 14.3026Z"/>
</mask>
<path d="M23.7325 17.1721L24.7028 17.414L24.703 17.4133L23.7325 17.1721ZM12.8239 23.7313L12.5813 24.7014L12.5823 24.7017L12.8239 23.7313ZM17.1626 6.26871L16.9205 7.23896L16.924 7.23982L17.1626 6.26871ZM6.26871 12.8279L5.2984 12.586L5.2984 12.586L6.26871 12.8279ZM19.2618 13.8292L20.252 13.969L20.2528 13.9626L19.2618 13.8292ZM17.2618 11.5759L16.2891 11.3436C16.1692 11.8459 16.4514 12.3569 16.9404 12.5228L17.2618 11.5759ZM18.0029 15.2813L17.7806 14.3063C17.3709 14.3998 17.0633 14.7394 17.0108 15.1564C16.9583 15.5734 17.1721 15.9787 17.5459 16.1708L18.0029 15.2813ZM18.9412 17.6731L17.993 17.3552L17.9922 17.3578L18.9412 17.6731ZM15.4794 19.0515L15.6546 18.067C15.1324 17.9741 14.6284 18.3051 14.5063 18.8213L15.4794 19.0515ZM15.0912 20.6922L14.8565 21.6643C15.1151 21.7267 15.3878 21.6835 15.6145 21.5443C15.8412 21.4051 16.003 21.1813 16.0643 20.9225L15.0912 20.6922ZM14.1029 20.4536L13.1307 20.2198C13.0016 20.7564 13.3317 21.2962 13.8682 21.4257L14.1029 20.4536ZM14.4912 18.8395L15.4634 19.0733C15.592 18.5388 15.265 18.0008 14.7313 17.8687L14.4912 18.8395ZM13.7029 18.6392L13.9603 17.6729C13.6997 17.6035 13.4221 17.6423 13.1905 17.7805C12.9589 17.9187 12.7929 18.1446 12.7303 18.4069L13.7029 18.6392ZM13.3147 20.2651L13.08 21.2372C13.3382 21.2995 13.6107 21.2565 13.8372 21.1178C14.0637 20.979 14.2257 20.7557 14.2874 20.4973L13.3147 20.2651ZM12.3265 20.0265L11.3533 19.7962C11.2266 20.332 11.5566 20.8694 12.0918 20.9986L12.3265 20.0265ZM12.7147 18.3859L13.6878 18.6161C13.8105 18.0975 13.505 17.5738 12.9931 17.4254L12.7147 18.3859ZM12.2941 18.2781L12.0605 19.2504L12.0605 19.2504L12.2941 18.2781ZM12.0147 18.2091L12.266 17.2412C12.258 17.2391 12.2499 17.2372 12.2418 17.2353L12.0147 18.2091ZM10.7265 17.9087L9.80129 17.5291C9.69005 17.8003 9.70336 18.1066 9.83771 18.3671C9.97206 18.6276 10.2139 18.816 10.4993 18.8826L10.7265 17.9087ZM11.1941 16.7688L11.4415 15.7999C10.9584 15.6765 10.4582 15.9279 10.2689 16.3892L11.1941 16.7688ZM11.9206 16.9455L12.1412 15.9701C11.707 15.872 11.2601 16.0726 11.0451 16.4623C10.83 16.8521 10.8984 17.3371 11.2129 17.6521L11.9206 16.9455ZM12.3706 16.7069L13.2977 17.0816C13.3173 17.0332 13.333 16.9833 13.3448 16.9324L12.3706 16.7069ZM12.9706 14.1149L13.2651 13.1592C12.9997 13.0775 12.7124 13.1097 12.4718 13.2482C12.2312 13.3866 12.0589 13.6189 11.9963 13.8894L12.9706 14.1149ZM13.0206 14.1267L12.8332 15.1089L12.8332 15.1089L13.0206 14.1267ZM13.0706 14.1384L12.7761 15.0941C13.2474 15.2393 13.7542 15.0193 13.9699 14.5757C14.1856 14.1322 14.0457 13.5976 13.6403 13.3166L13.0706 14.1384ZM13.0017 14.1099L12.7522 15.0783L12.7522 15.0783L13.0017 14.1099ZM12.9706 14.1002L11.9974 13.87C11.8868 14.3378 12.1247 14.8182 12.5639 15.0137L12.9706 14.1002ZM13.4088 12.2474L14.382 12.4776C14.3942 12.426 14.4022 12.3735 14.4061 12.3207L13.4088 12.2474ZM12.9471 11.6848L12.4609 10.811C12.1023 11.0105 11.902 11.4088 11.9556 11.8157C12.0093 12.2225 12.3061 12.5552 12.7042 12.6549L12.9471 11.6848ZM12.2353 11.5081L11.2624 11.2768C11.2004 11.5378 11.2458 11.8127 11.3884 12.0399C11.531 12.267 11.7589 12.4274 12.0209 12.4849L12.2353 11.5081ZM12.4853 10.4566L12.7187 9.48419C12.4605 9.42219 12.1882 9.46547 11.9619 9.60449C11.7355 9.74352 11.5738 9.96686 11.5124 10.2253L12.4853 10.4566ZM13.8471 10.7835L13.6136 11.7559L13.6169 11.7567L13.8471 10.7835ZM14.1662 10.8527L14.3691 9.87353L14.3691 9.87353L14.1662 10.8527ZM14.4853 10.9219L14.2552 11.8951C14.7918 12.022 15.3299 11.6905 15.4579 11.1542L14.4853 10.9219ZM14.8735 9.29603L15.1056 8.32333C14.5685 8.19518 14.0291 8.52667 13.9009 9.06378L14.8735 9.29603ZM15.8735 9.53462L16.8466 9.76494C16.9737 9.22819 16.6421 8.68992 16.1056 8.56192L15.8735 9.53462ZM15.4971 11.1252L14.5239 10.8949C14.4615 11.1584 14.5088 11.4361 14.6548 11.6642C14.8008 11.8924 15.0331 12.0515 15.2985 12.1053L15.4971 11.1252ZM16.2853 11.3019L16.0553 12.2751C16.5927 12.4021 17.1312 12.0695 17.2584 11.5322L16.2853 11.3019ZM16.6618 9.71135L16.8964 8.73927C16.6379 8.67685 16.3651 8.72001 16.1384 8.85921C15.9118 8.99841 15.7499 9.22218 15.6886 9.48102L16.6618 9.71135ZM17.65 9.94993L18.6226 10.1822C18.7507 9.64595 18.4206 9.10724 17.8847 8.97786L17.65 9.94993ZM17.0382 17.0191L18.0118 17.2476L18.0121 17.2461L17.0382 17.0191ZM14.1854 17.4902L13.9367 18.4588L13.9367 18.4588L14.1854 17.4902ZM14.7838 15.3247L14.573 16.3023L14.573 16.3023L14.7838 15.3247ZM14.5235 15.2666L14.7604 14.295C14.5013 14.2319 14.2277 14.2748 14.0004 14.4143C13.7731 14.5538 13.611 14.7784 13.55 15.038L14.5235 15.2666ZM14.0118 17.4462L13.0382 17.2177C12.9127 17.7521 13.2416 18.2878 13.775 18.4178L14.0118 17.4462ZM17.3118 13.8292L16.3388 13.598L16.3383 13.6003L17.3118 13.8292ZM14.8972 14.3026L14.6468 15.2707L14.6469 15.2707L14.8972 14.3026ZM15.4544 12.3398L15.2449 13.3176L15.2449 13.3176L15.4544 12.3398ZM15.2382 12.2916L15.4774 11.3206C15.2191 11.257 14.946 11.2989 14.7187 11.4372C14.4913 11.5754 14.3284 11.7986 14.2661 12.0572L15.2382 12.2916ZM14.7618 14.268L13.7896 14.0337C13.6606 14.5687 13.9882 15.1073 14.5225 15.239L14.7618 14.268ZM22.7622 16.9303C21.6945 21.2138 17.3561 23.829 13.0654 22.7609L12.5823 24.7017C17.9463 26.0369 23.3685 22.7674 24.7028 17.414L22.7622 16.9303ZM16.924 7.23982C21.2143 8.2941 23.8272 12.644 22.762 16.931L24.703 17.4133C26.0337 12.0575 22.7714 6.61721 17.4012 5.29759L16.924 7.23982ZM7.23903 13.0697C8.30695 8.78496 12.6431 6.17158 16.9205 7.23895L17.4047 5.29846C12.0509 3.96248 6.63237 7.23378 5.2984 12.586L7.23903 13.0697ZM13.0664 22.7611C8.78217 21.6901 6.17189 17.3513 7.23903 13.0697L5.2984 12.586C3.96364 17.9414 7.22858 23.3632 12.5813 24.7014L13.0664 22.7611ZM20.2528 13.9626C20.3773 13.0376 20.0719 12.2713 19.4945 11.7C18.9678 11.179 18.2542 10.8566 17.5831 10.6289L16.9404 12.5228C17.5194 12.7193 17.8866 12.9226 18.0879 13.1218C18.2384 13.2707 18.3079 13.419 18.2707 13.6958L20.2528 13.9626ZM18.2252 16.2563C18.7063 16.1466 19.1856 15.9193 19.5678 15.5054C19.9503 15.0911 20.168 14.5632 20.2519 13.969L18.2716 13.6893C18.232 13.9699 18.1497 14.093 18.0984 14.1485C18.0468 14.2044 17.9584 14.2658 17.7806 14.3063L18.2252 16.2563ZM19.8893 17.9909C20.1478 17.2198 20.1832 16.4642 19.8763 15.7805C19.5753 15.1099 19.0211 14.6802 18.46 14.3918L17.5459 16.1708C17.8847 16.3449 18.0056 16.4969 18.0517 16.5995C18.0918 16.6889 18.1463 16.8981 17.993 17.3552L19.8893 17.9909ZM15.3042 20.0361C16.1805 20.192 17.1224 20.2729 17.9572 20.0048C18.8844 19.707 19.5452 19.0268 19.8902 17.9883L17.9922 17.3578C17.8254 17.8598 17.5994 18.0191 17.3457 18.1005C16.9996 18.2117 16.4665 18.2115 15.6546 18.067L15.3042 20.0361ZM16.0643 20.9225L16.4525 19.2818L14.5063 18.8213L14.118 20.4619L16.0643 20.9225ZM13.8682 21.4257L14.8565 21.6643L15.3259 19.7201L14.3376 19.4815L13.8682 21.4257ZM13.5189 18.6056L13.1307 20.2198L15.0752 20.6875L15.4634 19.0733L13.5189 18.6056ZM13.4456 19.6055C13.7318 19.6817 14.0018 19.7486 14.251 19.8102L14.7313 17.8687C14.4805 17.8067 14.227 17.7439 13.9603 17.6729L13.4456 19.6055ZM14.2874 20.4973L14.6756 18.8714L12.7303 18.4069L12.342 20.0328L14.2874 20.4973ZM12.0918 20.9986L13.08 21.2372L13.5494 19.293L12.5611 19.0544L12.0918 20.9986ZM11.7416 18.1556L11.3533 19.7962L13.2996 20.2568L13.6878 18.6161L11.7416 18.1556ZM12.0605 19.2504C12.2082 19.2859 12.3266 19.3145 12.4363 19.3463L12.9931 17.4254C12.8311 17.3784 12.6668 17.3392 12.5277 17.3057L12.0605 19.2504ZM11.7634 19.177C11.8671 19.204 11.9694 19.2285 12.0605 19.2504L12.5277 17.3057C12.4337 17.2832 12.3491 17.2628 12.266 17.2412L11.7634 19.177ZM10.4993 18.8826L11.7876 19.183L12.2418 17.2353L10.9536 16.9348L10.4993 18.8826ZM10.2689 16.3892L9.80129 17.5291L11.6516 18.2882L12.1193 17.1483L10.2689 16.3892ZM11.2129 17.6521C11.1744 17.6135 11.1125 17.5453 11.0556 17.4472C10.9992 17.35 10.9243 17.1824 10.9208 16.9615C10.917 16.7199 11.0003 16.4987 11.1343 16.3282C11.2549 16.1746 11.3921 16.0919 11.4757 16.0503C11.6315 15.9729 11.7684 15.9569 11.8055 15.9526C11.8617 15.9461 11.9068 15.9459 11.9301 15.9461C11.9777 15.9466 12.0145 15.9505 12.0279 15.952C12.0453 15.9539 12.059 15.956 12.0666 15.9571C12.0911 15.9609 12.1067 15.9644 12.0995 15.9629C12.093 15.9615 12.0751 15.9575 12.0427 15.9498C11.9811 15.9352 11.8945 15.9139 11.8037 15.8913C11.7138 15.8689 11.6232 15.846 11.5549 15.8287C11.5208 15.82 11.4923 15.8128 11.4725 15.8078C11.4625 15.8052 11.4547 15.8032 11.4495 15.8019C11.4468 15.8012 11.4448 15.8007 11.4435 15.8004C11.4428 15.8002 11.4423 15.8001 11.442 15.8C11.4418 15.7999 11.4417 15.7999 11.4416 15.7999C11.4416 15.7999 11.4416 15.7999 11.4415 15.7999C11.4415 15.7999 11.4415 15.7999 11.4415 15.7999C11.4415 15.7999 11.4415 15.7999 11.1941 16.7688C10.9467 17.7377 10.9467 17.7377 10.9467 17.7377C10.9467 17.7377 10.9467 17.7377 10.9467 17.7377C10.9468 17.7377 10.9468 17.7377 10.9469 17.7377C10.947 17.7378 10.9471 17.7378 10.9473 17.7378C10.9477 17.7379 10.9483 17.7381 10.949 17.7383C10.9504 17.7386 10.9526 17.7392 10.9553 17.7399C10.9609 17.7413 10.9689 17.7434 10.9792 17.746C10.9996 17.7512 11.0288 17.7586 11.0637 17.7674C11.1334 17.7851 11.2266 17.8086 11.3198 17.8319C11.4121 17.8549 11.5079 17.8785 11.5813 17.8959C11.6165 17.9042 11.6543 17.913 11.686 17.9197C11.6978 17.9222 11.7281 17.9286 11.7621 17.9338C11.7654 17.9343 11.8297 17.9451 11.909 17.946C11.9328 17.9462 11.9783 17.946 12.0349 17.9394C12.0723 17.9351 12.2095 17.919 12.3655 17.8415C12.5276 17.761 12.9293 17.4846 12.9206 16.93C12.9141 16.5187 12.665 16.2758 12.6282 16.2389L11.2129 17.6521ZM11.4434 16.3322C11.4589 16.294 11.5094 16.1821 11.6449 16.0844C11.719 16.031 11.8098 15.989 11.9109 15.9696C12.0107 15.9505 12.0915 15.9589 12.1412 15.9701L11.7 17.9209C12.0997 18.0113 12.496 17.9362 12.8139 17.7072C13.0936 17.5057 13.2323 17.2436 13.2977 17.0816L11.4434 16.3322ZM11.9963 13.8894L11.3963 16.4814L13.3448 16.9324L13.9448 14.3404L11.9963 13.8894ZM13.208 13.1444C13.1983 13.1425 13.2063 13.144 13.2165 13.1463C13.2293 13.1492 13.2461 13.1534 13.2651 13.1592L12.6761 15.0705C12.7532 15.0943 12.8168 15.1058 12.8332 15.1089L13.208 13.1444ZM13.3651 13.1828C13.288 13.159 13.2243 13.1475 13.208 13.1444L12.8332 15.1089C12.8428 15.1108 12.8349 15.1094 12.8247 15.1071C12.8118 15.1042 12.7951 15.0999 12.7761 15.0941L13.3651 13.1828ZM12.7522 15.0783C12.7699 15.0829 12.6367 15.0544 12.5008 14.9603L13.6403 13.3166C13.455 13.1881 13.2747 13.1476 13.2511 13.1415L12.7522 15.0783ZM12.5639 15.0137C12.6205 15.0389 12.6688 15.0546 12.6982 15.0634C12.7255 15.0716 12.7504 15.0778 12.7522 15.0783L13.2511 13.1415C13.2417 13.1391 13.2557 13.1426 13.2726 13.1476C13.2916 13.1533 13.33 13.1655 13.3772 13.1866L12.5639 15.0137ZM12.4357 12.0172L11.9974 13.87L13.9437 14.3303L14.382 12.4776L12.4357 12.0172ZM12.7042 12.6549C12.71 12.6563 12.5924 12.6228 12.496 12.4751C12.4103 12.3438 12.4079 12.223 12.4115 12.1742L14.4061 12.3207C14.4244 12.0716 14.3911 11.7196 14.1709 11.3821C13.94 11.0282 13.5841 10.8135 13.1899 10.7148L12.7042 12.6549ZM12.2353 11.5081C12.0209 12.4849 12.0209 12.4849 12.0209 12.4849C12.0209 12.4849 12.0209 12.4849 12.0209 12.4849C12.0209 12.4849 12.0209 12.4849 12.021 12.4849C12.021 12.4849 12.0211 12.4849 12.0213 12.4849C12.0216 12.485 12.022 12.4851 12.0226 12.4852C12.0239 12.4855 12.0258 12.4859 12.0284 12.4865C12.0335 12.4876 12.041 12.4893 12.0508 12.4914C12.0702 12.4957 12.0981 12.5019 12.1315 12.5094C12.1987 12.5245 12.287 12.5445 12.3736 12.5647C12.4625 12.5855 12.541 12.6045 12.5922 12.618C12.6219 12.6258 12.6235 12.6269 12.61 12.6224C12.6051 12.6208 12.5938 12.617 12.5787 12.6112C12.5669 12.6067 12.5341 12.594 12.4928 12.5731C12.472 12.5627 12.4355 12.5434 12.3924 12.5147C12.3585 12.4922 12.2697 12.4311 12.1817 12.3264C12.1076 12.2381 11.8952 11.9518 11.9592 11.5331C12.0264 11.0933 12.3377 10.8795 12.4609 10.811L13.4332 12.5587C13.5572 12.4897 13.869 12.2754 13.9363 11.835C14.0003 11.4156 13.7877 11.1287 13.7129 11.0397C13.5673 10.8664 13.3953 10.7883 13.3941 10.7877C13.3186 10.7496 13.2507 10.7278 13.2381 10.7236C13.1894 10.7075 13.1376 10.6934 13.1018 10.684C13.0221 10.663 12.9209 10.6387 12.8286 10.6172C12.7339 10.5951 12.6393 10.5736 12.5689 10.5579C12.5336 10.5499 12.504 10.5434 12.4832 10.5387C12.4727 10.5364 12.4645 10.5346 12.4588 10.5334C12.4559 10.5327 12.4537 10.5322 12.4522 10.5319C12.4514 10.5317 12.4508 10.5316 12.4504 10.5315C12.4502 10.5315 12.45 10.5314 12.4499 10.5314C12.4498 10.5314 12.4498 10.5314 12.4497 10.5314C12.4497 10.5314 12.4497 10.5314 12.4497 10.5314C12.4496 10.5314 12.4496 10.5313 12.2353 11.5081ZM11.5124 10.2253L11.2624 11.2768L13.2082 11.7394L13.4582 10.6879L11.5124 10.2253ZM14.0805 9.81114L12.7187 9.48419L12.2518 11.4289L13.6136 11.7559L14.0805 9.81114ZM14.3691 9.87353C14.2602 9.85096 14.1672 9.83164 14.0772 9.81035L13.6169 11.7567C13.7387 11.7855 13.8589 11.8103 13.9633 11.8319L14.3691 9.87353ZM14.7154 9.94879C14.5937 9.92 14.4734 9.89515 14.3691 9.87353L13.9633 11.8319C14.0722 11.8545 14.1651 11.8738 14.2552 11.8951L14.7154 9.94879ZM13.9009 9.06378L13.5126 10.6897L15.4579 11.1542L15.8462 9.52828L13.9009 9.06378ZM16.1056 8.56192L15.1056 8.32333L14.6414 10.2687L15.6414 10.5073L16.1056 8.56192ZM16.4702 11.3555L16.8466 9.76494L14.9004 9.30429L14.5239 10.8949L16.4702 11.3555ZM16.5153 10.3287C16.2539 10.267 15.9749 10.2017 15.6956 10.1451L15.2985 12.1053C15.5427 12.1547 15.7932 12.2132 16.0553 12.2751L16.5153 10.3287ZM15.6886 9.48102L15.3122 11.0716L17.2584 11.5322L17.6349 9.94167L15.6886 9.48102ZM17.8847 8.97786L16.8964 8.73927L16.4271 10.6834L17.4153 10.922L17.8847 8.97786ZM18.2344 11.8081L18.6226 10.1822L16.6773 9.71768L16.2891 11.3436L18.2344 11.8081ZM16.0647 16.7907C16.0625 16.8 16.0662 16.78 16.0889 16.7515C16.1107 16.724 16.1307 16.7131 16.1303 16.7133C16.1133 16.7221 16.0213 16.7565 15.8076 16.757C15.3759 16.758 14.8532 16.6293 14.4342 16.5216L13.9367 18.4588C14.3122 18.5552 15.0827 18.7587 15.8122 18.757C16.179 18.7561 16.6346 18.7054 17.0533 18.4876C17.5155 18.2472 17.875 17.8303 18.0118 17.2476L16.0647 16.7907ZM14.573 16.3023C15.021 16.3988 15.5137 16.5116 15.8644 16.6949C15.9433 16.7361 15.9998 16.7736 16.038 16.8044C16.0762 16.8351 16.0874 16.852 16.0866 16.8509C16.0653 16.819 16.0686 16.7736 16.0643 16.7922L18.0121 17.2461C18.1419 16.6894 18.0358 16.1674 17.7486 15.7383C17.4859 15.3459 17.1128 15.0907 16.7909 14.9224C16.158 14.5916 15.3895 14.4323 14.9946 14.3472L14.573 16.3023ZM14.2866 16.2381C14.3743 16.2595 14.4774 16.2816 14.573 16.3023L14.9946 14.3472C14.89 14.3246 14.8164 14.3087 14.7604 14.295L14.2866 16.2381ZM14.9853 17.6748L15.497 15.4951L13.55 15.038L13.0382 17.2177L14.9853 17.6748ZM14.4342 16.5216C14.371 16.5054 14.3061 16.4887 14.2485 16.4747L13.775 18.4178C13.818 18.4283 13.8698 18.4416 13.9367 18.4588L14.4342 16.5216ZM16.3383 13.6003C16.3365 13.608 16.3407 13.5865 16.3645 13.5548C16.3882 13.5231 16.4143 13.5039 16.4289 13.4955C16.4447 13.4865 16.3999 13.515 16.2405 13.5184C15.911 13.5254 15.5018 13.426 15.1475 13.3344L14.6469 15.2707C14.9553 15.3505 15.6318 15.5318 16.283 15.518C16.614 15.5109 17.0334 15.4536 17.4212 15.2321C17.8471 14.9887 18.1606 14.5879 18.2852 14.058L16.3383 13.6003ZM15.2449 13.3176C15.621 13.3982 15.9983 13.4865 16.2558 13.6277C16.3761 13.6937 16.3873 13.7285 16.3707 13.7014C16.3344 13.6421 16.3424 13.5831 16.3388 13.598L18.2847 14.0604C18.4045 13.556 18.3291 13.0698 18.0764 12.6571C17.8435 12.2767 17.5055 12.0321 17.2176 11.8742C16.6589 11.5677 15.984 11.4306 15.6639 11.362L15.2449 13.3176ZM14.999 13.2626C15.0762 13.2816 15.1665 13.3008 15.2449 13.3176L15.6639 11.362C15.5749 11.3429 15.5184 11.3307 15.4774 11.3206L14.999 13.2626ZM15.7339 14.5024L16.2104 12.526L14.2661 12.0572L13.7896 14.0337L15.7339 14.5024ZM15.1475 13.3344C15.0988 13.3218 15.0473 13.3085 15.001 13.2971L14.5225 15.239C14.5555 15.2471 14.5949 15.2573 14.6468 15.2707L15.1475 13.3344Z" fill="black" mask="url(#path-1-inside-1)"/>
</svg>
