<svg width="30" height="30" viewBox="0 0 30 30" fill="none" xmlns="http://www.w3.org/2000/svg">
<mask id="path-1-inside-1" fill="white">
<path fill-rule="evenodd" clip-rule="evenodd" d="M23 23.5333C23 19.115 19.4183 15.5333 15 15.5333C10.5817 15.5333 7 19.115 7 23.5333H23Z"/>
</mask>
<path d="M23 23.5333V24.5333H24V23.5333H23ZM7 23.5333H6V24.5333H7V23.5333ZM15 16.5333C18.866 16.5333 22 19.6673 22 23.5333H24C24 18.5628 19.9706 14.5333 15 14.5333V16.5333ZM8 23.5333C8 19.6673 11.134 16.5333 15 16.5333V14.5333C10.0294 14.5333 6 18.5628 6 23.5333H8ZM7 24.5333H23V22.5333H7V24.5333Z" fill="black" mask="url(#path-1-inside-1)"/>
<mask id="path-3-inside-2" fill="white">
<path fill-rule="evenodd" clip-rule="evenodd" d="M11.8285 10.2333C11.8097 10.3969 11.8 10.5638 11.8 10.7333C11.8 12.7952 13.2327 14.4667 15 14.4667C16.7673 14.4667 18.2 12.7952 18.2 10.7333C18.2 10.5638 18.1903 10.3969 18.1716 10.2333H11.8285Z"/>
</mask>
<path d="M11.8285 10.2333V9.23334H10.9366L10.835 10.1194L11.8285 10.2333ZM18.1716 10.2333L19.165 10.1194L19.0634 9.23334H18.1716V10.2333ZM12.8 10.7333C12.8 10.6019 12.8075 10.473 12.8219 10.3473L10.835 10.1194C10.8119 10.3207 10.8 10.5257 10.8 10.7333H12.8ZM15 13.4667C13.924 13.4667 12.8 12.3931 12.8 10.7333H10.8C10.8 13.1973 12.5413 15.4667 15 15.4667V13.4667ZM17.2 10.7333C17.2 12.3931 16.076 13.4667 15 13.4667V15.4667C17.4587 15.4667 19.2 13.1973 19.2 10.7333H17.2ZM17.1781 10.3473C17.1925 10.473 17.2 10.6019 17.2 10.7333H19.2C19.2 10.5257 19.1881 10.3207 19.165 10.1194L17.1781 10.3473ZM18.1716 9.23334H11.8285V11.2333H18.1716V9.23334Z" fill="black" mask="url(#path-3-inside-2)"/>
<mask id="path-5-inside-3" fill="white">
<path fill-rule="evenodd" clip-rule="evenodd" d="M18.6955 11.2667C18.7204 11.0925 18.7333 10.9144 18.7333 10.7333C18.7333 8.67147 17.0619 7 15 7C12.9381 7 11.2667 8.67147 11.2667 10.7333C11.2667 10.9144 11.2796 11.0925 11.3045 11.2667H18.6955Z"/>
</mask>
<path d="M18.6955 11.2667V12.2667H19.5627L19.6854 11.4083L18.6955 11.2667ZM11.3045 11.2667L10.3145 11.4083L10.4373 12.2667H11.3045V11.2667ZM17.7333 10.7333C17.7333 10.8669 17.7238 10.9976 17.7056 11.1251L19.6854 11.4083C19.717 11.1873 19.7333 10.9619 19.7333 10.7333H17.7333ZM15 8C16.5096 8 17.7333 9.22376 17.7333 10.7333H19.7333C19.7333 8.11919 17.6141 6 15 6V8ZM12.2667 10.7333C12.2667 9.22376 13.4904 8 15 8V6C12.3858 6 10.2667 8.11919 10.2667 10.7333H12.2667ZM12.2944 11.1251C12.2762 10.9976 12.2667 10.8669 12.2667 10.7333H10.2667C10.2667 10.9619 10.2829 11.1873 10.3145 11.4083L12.2944 11.1251ZM11.3045 12.2667H18.6955V10.2667H11.3045V12.2667Z" fill="black" mask="url(#path-5-inside-3)"/>
<line x1="11.2333" y1="10.7667" x2="18.7667" y2="10.7667" stroke="black" stroke-linecap="round" stroke-linejoin="round"/>
<circle cx="15" cy="8.6" r="1.1" stroke="black"/>
<line x1="15" y1="10.7333" x2="15" y2="9.66666" stroke="black"/>
<line x1="8.03334" y1="20.9" x2="12.3667" y2="20.9" stroke="black" stroke-linecap="round" stroke-linejoin="round"/>
<line x1="9.2" y1="18.7667" x2="13.5333" y2="18.7667" stroke="black" stroke-linecap="round" stroke-linejoin="round"/>
</svg>
