<svg width="30" height="30" viewBox="0 0 30 30" fill="none" xmlns="http://www.w3.org/2000/svg">
<path fill-rule="evenodd" clip-rule="evenodd" d="M14.254 18.078H16.452V20.234H14.254V18.078ZM12 13.458C12.0093 12.954 12.0957 12.492 12.259 12.072C12.4223 11.652 12.651 11.288 12.945 10.98C13.239 10.672 13.5937 10.4317 14.009 10.259C14.4243 10.0863 14.8887 10 15.402 10C16.0647 10 16.6177 10.091 17.061 10.273C17.5043 10.455 17.8613 10.6813 18.132 10.952C18.4027 11.2227 18.5963 11.5143 18.713 11.827C18.8297 12.1397 18.888 12.4313 18.888 12.702C18.888 13.15 18.8297 13.5187 18.713 13.808C18.5963 14.0973 18.4517 14.3447 18.279 14.55C18.1063 14.7553 17.915 14.9303 17.705 15.075C17.495 15.2197 17.2967 15.3643 17.11 15.509C16.9233 15.6537 16.7577 15.8193 16.613 16.006C16.4683 16.1927 16.3773 16.426 16.34 16.706V17.238H14.45V16.608C14.478 16.2067 14.555 15.8707 14.681 15.6C14.807 15.3293 14.954 15.0983 15.122 14.907C15.29 14.7157 15.4673 14.55 15.654 14.41C15.8407 14.27 16.0133 14.13 16.172 13.99C16.3307 13.85 16.459 13.696 16.557 13.528C16.655 13.36 16.6993 13.15 16.69 12.898C16.69 12.4687 16.585 12.1513 16.375 11.946C16.165 11.7407 15.8733 11.638 15.5 11.638C15.248 11.638 15.031 11.687 14.849 11.785C14.667 11.883 14.5177 12.0137 14.401 12.177C14.2843 12.3403 14.198 12.5317 14.142 12.751C14.086 12.9703 14.058 13.206 14.058 13.458H12Z" fill="black"/>
</svg>
