<svg width="30" height="30" viewBox="0 0 30 30" fill="none" xmlns="http://www.w3.org/2000/svg">
<path fill-rule="evenodd" clip-rule="evenodd" d="M12.8239 23.7313C17.6512 24.933 22.5315 21.9906 23.7325 17.1721C24.9305 12.3507 21.9929 7.45565 17.1626 6.2687C12.347 5.06703 7.46966 8.00937 6.26871 12.8279C5.06777 17.6463 8.00538 22.5267 12.8239 23.7313ZM17.2617 11.5759C18.5117 12 19.4235 12.6274 19.2617 13.8292C19.1382 14.704 18.6617 15.1311 18.0029 15.2813C18.9029 15.7438 19.3529 16.4448 18.9411 17.6731C18.4294 19.2136 17.1676 19.352 15.4794 19.0516L15.0911 20.6922L14.1029 20.4536L14.4911 18.8395C14.2411 18.7776 13.9794 18.7128 13.7029 18.6392L13.3147 20.2651L12.3264 20.0265L12.7147 18.3859C12.5788 18.3465 12.4375 18.3125 12.2941 18.2781C12.2015 18.2558 12.1081 18.2334 12.0147 18.2091L10.7264 17.9087L11.1941 16.7688C11.1941 16.7688 11.9323 16.9573 11.9206 16.9455C12.1941 17.0074 12.3206 16.8306 12.3706 16.7069L12.9706 14.1149C12.9897 14.1208 13.0051 14.1237 13.0206 14.1267C13.036 14.1296 13.0514 14.1326 13.0706 14.1384C13.0458 14.1213 13.0223 14.1152 13.0016 14.1099C12.9904 14.107 12.9799 14.1043 12.9706 14.1002L13.4088 12.2474C13.4235 12.0471 13.347 11.785 12.947 11.6848C12.9735 11.6701 12.2353 11.5081 12.2353 11.5081L12.4853 10.4566L13.847 10.7835C13.9529 10.8086 14.0595 10.8306 14.1661 10.8527C14.2728 10.8748 14.3794 10.8969 14.4853 10.922L14.8735 9.29604L15.8735 9.53462L15.497 11.1252C15.7588 11.1782 16.0235 11.2401 16.2853 11.3019L16.6617 9.71135L17.65 9.94994L17.2617 11.5759ZM14.1854 17.4902C14.98 17.6943 16.7718 18.1545 17.0382 17.0192C17.3063 15.8687 15.6266 15.5065 14.7838 15.3247C14.6837 15.3031 14.5953 15.2841 14.5235 15.2666L14.0117 17.4463C14.062 17.4585 14.1204 17.4735 14.1854 17.4902ZM14.8972 14.3026C15.5599 14.4739 17.0684 14.864 17.3117 13.8292C17.5585 12.7906 16.1507 12.489 15.4544 12.3398C15.3707 12.3219 15.2972 12.3062 15.2382 12.2916L14.7617 14.2681C14.8014 14.2778 14.8468 14.2896 14.8972 14.3026Z" fill="black"/>
</svg>
