<svg width="30" height="30" viewBox="0 0 30 30" fill="none" xmlns="http://www.w3.org/2000/svg">
<path d="M21.92 8.01C21.72 7.42 21.16 7 20.5 7H9.5C8.84 7 8.29 7.42 8.08 8.01L6 14V22C6 22.55 6.45 23 7 23H8C8.55 23 9 22.55 9 22V21H21V22C21 22.55 21.45 23 22 23H23C23.55 23 24 22.55 24 22V14L21.92 8.01ZM9.5 18C8.67 18 8 17.33 8 16.5C8 15.67 8.67 15 9.5 15C10.33 15 11 15.67 11 16.5C11 17.33 10.33 18 9.5 18ZM20.5 18C19.67 18 19 17.33 19 16.5C19 15.67 19.67 15 20.5 15C21.33 15 22 15.67 22 16.5C22 17.33 21.33 18 20.5 18ZM8 13L9.5 8.5H20.5L22 13H8Z" fill="black"/>
</svg>
