<svg width="30" height="30" viewBox="0 0 30 30" fill="none" xmlns="http://www.w3.org/2000/svg">
<rect x="15.5" y="7.5" width="10" height="15" rx="1.5" stroke="black"/>
<path fill-rule="evenodd" clip-rule="evenodd" d="M6.99999 7C5.89542 7 4.99999 7.89543 4.99999 9V21C4.99999 22.1046 5.89542 23 6.99999 23H20C21.1046 23 22 22.1046 22 21V9C22 7.89543 21.1046 7 20 7H6.99999ZM9.59998 16.6C10.5941 16.6 11.4 15.7941 11.4 14.8C11.4 13.8059 10.5941 13 9.59998 13C8.60587 13 7.79998 13.8059 7.79998 14.8C7.79998 15.7941 8.60587 16.6 9.59998 16.6Z" fill="black"/>
</svg>
