<svg width="30" height="30" viewBox="0 0 30 30" fill="none" xmlns="http://www.w3.org/2000/svg">
<path d="M21.4465 8.17052L21.4465 8.17052L21.4477 8.17402L23.5 14.0843V22C23.5 22.2739 23.2739 22.5 23 22.5H22C21.7261 22.5 21.5 22.2739 21.5 22V21V20.5H21H9H8.5V21V22C8.5 22.2739 8.27386 22.5 8 22.5H7C6.72614 22.5 6.5 22.2739 6.5 22V14.0843L8.55164 8.17601C8.69486 7.77571 9.06299 7.5 9.5 7.5H20.5C20.9429 7.5 21.3143 7.78073 21.4465 8.17052Z" stroke="black"/>
<path d="M9.5 17.5C8.94614 17.5 8.5 17.0539 8.5 16.5C8.5 15.9461 8.94614 15.5 9.5 15.5C10.0539 15.5 10.5 15.9461 10.5 16.5C10.5 17.0539 10.0539 17.5 9.5 17.5Z" stroke="black"/>
<path d="M20.5 17.5C19.9461 17.5 19.5 17.0539 19.5 16.5C19.5 15.9461 19.9461 15.5 20.5 15.5C21.0539 15.5 21.5 15.9461 21.5 16.5C21.5 17.0539 21.0539 17.5 20.5 17.5Z" stroke="black"/>
<path d="M20.1396 9L21.3063 12.5H8.69371L9.86038 9H20.1396Z" stroke="black"/>
</svg>
