<svg width="30" height="30" viewBox="0 0 30 30" fill="none" xmlns="http://www.w3.org/2000/svg">
<path d="M16.7938 12.4101L17.0118 12.8834L17.4757 12.6459C17.9699 12.393 18.53 12.25 19.125 12.25C21.127 12.25 22.75 13.873 22.75 15.875V16.375H23.25C24.4926 16.375 25.5 17.3824 25.5 18.625C25.5 19.8676 24.4926 20.875 23.25 20.875H8.125C6.12297 20.875 4.5 19.252 4.5 17.25C4.5 15.6308 5.56193 14.2584 7.02858 13.7936L7.30407 13.7063L7.36595 13.424C7.85791 11.1796 9.8584 9.5 12.25 9.5C14.2645 9.5 16.0018 10.6914 16.7938 12.4101Z" stroke="black"/>
</svg>
