<svg width="30" height="30" viewBox="0 0 30 30" fill="none" xmlns="http://www.w3.org/2000/svg">
<path d="M21.4968 21.55H8.50327C8.54487 20.6058 8.97952 19.9481 9.57734 19.4417C10.2269 18.8914 11.0505 18.5354 11.7732 18.2264L11.7732 18.2264L11.7843 18.2217C12.071 18.0991 12.4188 17.9504 12.696 17.8014C12.8347 17.7269 12.9797 17.6398 13.0965 17.5424C13.155 17.4936 13.2224 17.429 13.2785 17.3479C13.3337 17.2682 13.4 17.14 13.4 16.975V15.4059V15.1565L13.2007 15.0065C12.458 14.4474 12 13.537 12 12.6V10.5C12 8.84624 13.3462 7.5 15 7.5C16.6538 7.5 18 8.84624 18 10.5V12.6C18 13.5373 17.542 14.4474 16.7993 15.0065L16.6 15.1565V15.4059V16.975C16.6 17.1355 16.6616 17.2627 16.7174 17.3462C16.7734 17.43 16.8414 17.4967 16.9011 17.5476C17.02 17.6487 17.1676 17.7378 17.3083 17.8133C17.5896 17.9643 17.9422 18.1128 18.2317 18.2346L18.2421 18.239C18.2422 18.239 18.2422 18.239 18.2423 18.2391C18.2423 18.2391 18.2423 18.2391 18.2423 18.2391C18.9625 18.5426 19.7816 18.8917 20.4276 19.4378C21.0216 19.94 21.4556 20.5972 21.4968 21.55Z" stroke="black"/>
</svg>
