<svg width="30" height="30" viewBox="0 0 30 30" fill="none" xmlns="http://www.w3.org/2000/svg">
<path d="M23.6856 12.185L24.0023 11.798L23.6856 12.185ZM14.0246 5.22003L13.6901 4.84839L14.0246 5.22003ZM6.28374 12.1868L5.94926 11.8152L6.28374 12.1868ZM6.61823 12.5585L14.3591 5.59168L13.6901 4.84839L5.94926 11.8152L6.61823 12.5585ZM6.5 23.585V12.8239H5.5V23.585H6.5ZM11.5714 23.9422H6.85714V24.9422H11.5714V23.9422ZM12.9286 23.585V18.4422H11.9286V23.585H12.9286ZM13.2857 18.085H16.7143V17.085H13.2857V18.085ZM17.0714 18.4422V23.5851H18.0714V18.4422H17.0714ZM23.1429 23.9422H18.4286V24.9422H23.1429V23.9422ZM23.5 12.8484V23.5851H24.5V12.8484H23.5ZM14.8242 5.58073L23.369 12.572L24.0023 11.798L15.4574 4.80677L14.8242 5.58073ZM24.5 12.8484C24.5 12.4413 24.3173 12.0558 24.0023 11.798L23.369 12.572C23.4519 12.6398 23.5 12.7413 23.5 12.8484H24.5ZM23.1429 24.9422C23.8924 24.9422 24.5 24.3346 24.5 23.5851H23.5C23.5 23.7823 23.3401 23.9422 23.1429 23.9422V24.9422ZM17.0714 23.5851C17.0714 24.3346 17.679 24.9422 18.4286 24.9422V23.9422C18.2313 23.9422 18.0714 23.7823 18.0714 23.5851H17.0714ZM16.7143 18.085C16.9115 18.085 17.0714 18.2449 17.0714 18.4422H18.0714C18.0714 17.6927 17.4638 17.085 16.7143 17.085V18.085ZM12.9286 18.4422C12.9286 18.2449 13.0885 18.085 13.2857 18.085V17.085C12.5362 17.085 11.9286 17.6927 11.9286 18.4422H12.9286ZM11.5714 24.9422C12.321 24.9422 12.9286 24.3346 12.9286 23.585H11.9286C11.9286 23.7823 11.7687 23.9422 11.5714 23.9422V24.9422ZM5.5 23.585C5.5 24.3346 6.10761 24.9422 6.85714 24.9422V23.9422C6.6599 23.9422 6.5 23.7823 6.5 23.585H5.5ZM14.3591 5.59168C14.4902 5.47372 14.6877 5.46907 14.8242 5.58073L15.4574 4.80677C14.9388 4.38247 14.1882 4.40015 13.6901 4.84839L14.3591 5.59168ZM5.94926 11.8152C5.66329 12.0725 5.5 12.4392 5.5 12.8239H6.5C6.5 12.7227 6.54297 12.6262 6.61823 12.5585L5.94926 11.8152Z" fill="black"/>
</svg>
