<svg width="30" height="30" viewBox="0 0 30 30" fill="none" xmlns="http://www.w3.org/2000/svg">
<path fill-rule="evenodd" clip-rule="evenodd" d="M19 15.7426V20C19 20.5523 18.5523 21 18 21H10C9.44772 21 9 20.5523 9 20V12C9 11.4477 9.44772 11 10 11H15.2573L16.2573 10H10C8.89543 10 8 10.8954 8 12V20C8 21.1046 8.89543 22 10 22H18C19.1046 22 20 21.1046 20 20V14.7426L19 15.7426Z" fill="black"/>
<path d="M22.5 8C22.5 7.72386 22.2761 7.5 22 7.5L17.5 7.5C17.2239 7.5 17 7.72386 17 8C17 8.27614 17.2239 8.5 17.5 8.5H21.5V12.5C21.5 12.7761 21.7239 13 22 13C22.2761 13 22.5 12.7761 22.5 12.5V8ZM15.3536 15.3536L22.3536 8.35355L21.6464 7.64645L14.6464 14.6464L15.3536 15.3536Z" fill="black"/>
</svg>
