<svg width="30" height="30" viewBox="0 0 30 30" fill="none" xmlns="http://www.w3.org/2000/svg">
<mask id="path-1-inside-1" fill="white">
<path fill-rule="evenodd" clip-rule="evenodd" d="M17.2783 7.9766C17.1097 7.67586 16.7905 7.5 16.4458 7.5H13.5884C13.2252 7.5 12.892 7.69479 12.7266 8.01812C12.078 9.28629 10.5 12.6165 10.5 15V23C10.5 24.1046 11.3954 25 12.5 25H17.5C18.6046 25 19.5 24.1046 19.5 23V15C19.5 12.2264 17.93 9.1387 17.2783 7.9766Z"/>
</mask>
<path d="M17.2783 7.9766L16.4061 8.4657L17.2783 7.9766ZM13.5884 8.5H16.4458V6.5H13.5884V8.5ZM11.5 15C11.5 13.9902 11.8433 12.6973 12.3083 11.437C12.765 10.1991 13.3025 9.08831 13.6169 8.47347L11.8363 7.56276C11.5022 8.21609 10.9264 9.40449 10.4319 10.7447C9.94573 12.0624 9.5 13.6263 9.5 15H11.5ZM11.5 23V15H9.5V23H11.5ZM12.5 24C11.9477 24 11.5 23.5523 11.5 23H9.5C9.5 24.6569 10.8431 26 12.5 26V24ZM17.5 24H12.5V26H17.5V24ZM18.5 23C18.5 23.5523 18.0523 24 17.5 24V26C19.1569 26 20.5 24.6569 20.5 23H18.5ZM18.5 15V23H20.5V15H18.5ZM16.4061 8.4657C16.7168 9.0198 17.2469 10.0343 17.6972 11.2351C18.1516 12.4469 18.5 13.7839 18.5 15H20.5C20.5 13.4425 20.0634 11.8488 19.5699 10.5328C19.0722 9.20584 18.4915 8.0955 18.1505 7.48749L16.4061 8.4657ZM16.4458 8.5C16.4482 8.5 16.4439 8.50057 16.4352 8.4956C16.4255 8.4901 16.4139 8.47967 16.4061 8.4657L18.1505 7.48749C17.7942 6.85202 17.1297 6.5 16.4458 6.5V8.5ZM13.5884 6.5C12.8673 6.5 12.1805 6.88979 11.8363 7.56276L13.6169 8.47347C13.6146 8.47796 13.6113 8.48283 13.6071 8.48727C13.603 8.49159 13.599 8.49462 13.5957 8.4966C13.589 8.50057 13.5859 8.5 13.5884 8.5V6.5Z" fill="black" mask="url(#path-1-inside-1)"/>
<rect x="12" y="6" width="6" height="2" rx="0.5" stroke="black"/>
<rect x="12.5" y="15" width="1" height="7" rx="0.5" fill="black"/>
</svg>
