<svg width="30" height="30" viewBox="0 0 30 30" fill="none" xmlns="http://www.w3.org/2000/svg">
<path d="M24.3536 11.3536C24.5488 11.1583 24.5488 10.8417 24.3536 10.6464L21.1716 7.46447C20.9763 7.2692 20.6597 7.2692 20.4645 7.46447C20.2692 7.65973 20.2692 7.97631 20.4645 8.17157L23.2929 11L20.4645 13.8284C20.2692 14.0237 20.2692 14.3403 20.4645 14.5355C20.6597 14.7308 20.9763 14.7308 21.1716 14.5355L24.3536 11.3536ZM7 20.5C10.7282 20.5 13.2458 18.0882 15.6516 15.8674C18.1053 13.6025 20.4705 11.5 24 11.5V10.5C20.0295 10.5 17.3947 12.8975 14.9734 15.1326C12.5042 17.4118 10.2718 19.5 7 19.5V20.5Z" fill="black"/>
<path d="M24.3536 20.3536C24.5488 20.1583 24.5488 19.8417 24.3536 19.6464L21.1716 16.4645C20.9763 16.2692 20.6597 16.2692 20.4645 16.4645C20.2692 16.6597 20.2692 16.9763 20.4645 17.1716L23.2929 20L20.4645 22.8284C20.2692 23.0237 20.2692 23.3403 20.4645 23.5355C20.6597 23.7308 20.9763 23.7308 21.1716 23.5355L24.3536 20.3536ZM7 11.5C10.2718 11.5 12.5042 13.5882 14.9734 15.8674C17.3947 18.1025 20.0295 20.5 24 20.5V19.5C20.4705 19.5 18.1053 17.3975 15.6516 15.1326C13.2458 12.9118 10.7282 10.5 7 10.5V11.5Z" fill="black"/>
</svg>
