<svg width="30" height="30" viewBox="0 0 30 30" fill="none" xmlns="http://www.w3.org/2000/svg">
<path d="M7 19.2436V22.6872C7 23.1098 7.3426 23.4524 7.76523 23.4524H22.3045C22.7272 23.4524 23.0698 23.1098 23.0698 22.6872V19.2436" stroke="black" stroke-linecap="round" stroke-linejoin="round"/>
<path d="M15.0639 18.0667C15.2592 18.262 15.5758 18.262 15.771 18.0667L18.953 14.8848C19.1483 14.6895 19.1483 14.3729 18.953 14.1776C18.7578 13.9824 18.4412 13.9824 18.2459 14.1776L15.4175 17.0061L12.5891 14.1776C12.3938 13.9824 12.0772 13.9824 11.882 14.1776C11.6867 14.3729 11.6867 14.6895 11.882 14.8848L15.0639 18.0667ZM14.9175 7L14.9175 17.7132L15.9175 17.7132L15.9175 7L14.9175 7Z" fill="black"/>
</svg>
