<svg width="30" height="30" viewBox="0 0 30 30" fill="none" xmlns="http://www.w3.org/2000/svg">
<mask id="path-1-inside-1" fill="white">
<path fill-rule="evenodd" clip-rule="evenodd" d="M9 8H21C22.1 8 23 8.9 23 10V13H24C25.1 13 26 13.9 26 15V20C26 21.1 25.1 22 24 22H6C4.9 22 4 21.1 4 20V15C4 13.9 4.89 13 6 13H7V10C7 8.9 7.9 8 9 8Z"/>
</mask>
<path d="M23 13H22V14H23V13ZM7 13V14H8V13H7ZM21 7H9V9H21V7ZM24 10C24 8.34772 22.6523 7 21 7V9C21.5477 9 22 9.45228 22 10H24ZM24 13V10H22V13H24ZM24 12H23V14H24V12ZM27 15C27 13.3477 25.6523 12 24 12V14C24.5477 14 25 14.4523 25 15H27ZM27 20V15H25V20H27ZM24 23C25.6523 23 27 21.6523 27 20H25C25 20.5477 24.5477 21 24 21V23ZM6 23H24V21H6V23ZM3 20C3 21.6523 4.34772 23 6 23V21C5.45228 21 5 20.5477 5 20H3ZM3 15V20H5V15H3ZM6 12C4.33446 12 3 13.351 3 15H5C5 14.449 5.44554 14 6 14V12ZM7 12H6V14H7V12ZM6 10V13H8V10H6ZM9 7C7.34772 7 6 8.34772 6 10H8C8 9.45228 8.45228 9 9 9V7Z" fill="black" mask="url(#path-1-inside-1)"/>
<path d="M7 13.5V13.5C7.82842 13.5 8.5 14.1716 8.5 15V18H21.5V15C21.5 14.1716 22.1716 13.5 23 13.5L23.5 13.5" stroke="black" stroke-linecap="round" stroke-linejoin="round"/>
</svg>
