<svg width="24" height="24" viewBox="0 0 24 24" fill="none" xmlns="http://www.w3.org/2000/svg">
<path fill-rule="evenodd" clip-rule="evenodd" d="M7.00453 19.9955C7.0554 20.5587 7.52879 21 8.10525 21H17.8947C18.5051 21 18.9999 20.5052 18.9999 19.8947V6.10525C18.9999 5.5288 18.5585 5.05541 17.9954 5.00452C17.9984 5.03768 17.9999 5.07127 17.9999 5.10522V18.8948C17.9999 19.5052 17.5051 20 16.8946 20H7.10529C7.07133 20 7.03772 19.9985 7.00453 19.9955Z" fill="black"/>
<path fill-rule="evenodd" clip-rule="evenodd" d="M5 4.10527C5 3.49484 5.49484 3 6.10525 3H15.8946C16.5051 3 16.9999 3.49484 16.9999 4.10527V17.8948C16.9999 18.5052 16.5051 19.0001 15.8946 19.0001H6.10525C5.49484 19.0001 5 18.5052 5 17.8948V4.10527ZM8.33959 14.6071C7.9097 14.2779 7.9097 13.6449 8.33959 13.3158C9.07708 12.751 9.99932 12.4155 10.9999 12.4155C12.0005 12.4155 12.9227 12.751 13.6602 13.3158C14.0901 13.6449 14.0901 14.2779 13.6602 14.6071C12.9227 15.1717 12.0005 15.5073 10.9999 15.5073C9.99932 15.5073 9.07708 15.1717 8.33959 14.6071ZM10.9978 11.6416C12.1344 11.6416 13.0559 10.489 13.0559 9.06716C13.0559 7.64536 12.1344 6.49276 10.9978 6.49276C9.86119 6.49276 8.93977 7.64536 8.93977 9.06716C8.93977 10.489 9.86119 11.6416 10.9978 11.6416Z" fill="black"/>
</svg>
