<svg width="24" height="24" viewBox="0 0 24 24" fill="none" xmlns="http://www.w3.org/2000/svg">
<path d="M12.6035 12.0002C13.6201 12.0003 14.0756 12.5996 14.1084 13.0373C14.1247 13.2567 14.0472 13.4767 13.8428 13.6526C13.6315 13.8342 13.245 14.0002 12.6035 14.0002H10V12.0002H12.6035Z" fill="black"/>
<path d="M12.6035 9.00021C13.3556 9.00028 13.7161 9.5084 13.7275 10.0119C13.7332 10.2686 13.6457 10.5105 13.4785 10.6858C13.3368 10.8341 13.1102 10.9634 12.7607 10.9934L12.6035 11.0002H10V9.00021H12.6035Z" fill="black"/>
<path fill-rule="evenodd" clip-rule="evenodd" d="M11.7881 3.09982C11.9225 3.03687 12.0775 3.03687 12.2119 3.09982L19.7119 6.61545C19.8875 6.69773 19.9999 6.87373 20 7.06759V9.00021C19.9999 9.27625 19.7761 9.50021 19.5 9.50021H18V16.0002H19.5C19.7761 16.0002 20 16.2241 20 16.5002V18.5002C19.9998 18.7762 19.776 19.0002 19.5 19.0002H4.5C4.22395 19.0002 4.00015 18.7762 4 18.5002V16.5002C4 16.2241 4.22386 16.0002 4.5 16.0002H6V9.50021H4.5C4.22393 9.50021 4.00012 9.27625 4 9.00021V7.06759C4.00009 6.87373 4.11254 6.69773 4.28809 6.61545L11.7881 3.09982ZM11.5 6.50021C11.2239 6.50021 11 6.72407 11 7.00021V8.00021H9V15.0002H11V16.0002C11.0002 16.2762 11.224 16.5002 11.5 16.5002C11.776 16.5002 11.9998 16.2762 12 16.0002V15.0002H12.6035C13.4092 15.0002 14.0525 14.791 14.4951 14.4104C14.9443 14.0239 15.145 13.4935 15.1055 12.9631C15.0597 12.3502 14.709 11.7922 14.1465 11.4289C14.1647 11.4114 14.1847 11.3954 14.2021 11.3772C14.5716 10.9901 14.7377 10.4814 14.7266 9.98849C14.7037 8.99222 13.9479 8.00029 12.6035 8.00021H12V7.00021C12 6.72407 11.7761 6.50021 11.5 6.50021Z" fill="black"/>
</svg>
