<svg width="24" height="24" viewBox="0 0 24 24" fill="none" xmlns="http://www.w3.org/2000/svg">
<path fill-rule="evenodd" clip-rule="evenodd" d="M17.5 8C18.3284 8 19 8.67157 19 9.5V14.5C19 15.3284 18.3284 16 17.5 16H5.5C4.67157 16 4 15.3284 4 14.5V9.5C4 8.67157 4.67157 8 5.5 8H17.5ZM6.75 10C6.33579 10 6 10.3358 6 10.75V13.25C6 13.6642 6.33579 14 6.75 14H7.25C7.66421 14 8 13.6642 8 13.25V10.75C8 10.3358 7.66421 10 7.25 10H6.75ZM9.75 10C9.33579 10 9 10.3358 9 10.75V13.25C9 13.6642 9.33579 14 9.75 14H10.25C10.6642 14 11 13.6642 11 13.25V10.75C11 10.3358 10.6642 10 10.25 10H9.75ZM12.75 10C12.3358 10 12 10.3358 12 10.75V13.25C12 13.6642 12.3358 14 12.75 14H13.25C13.6642 14 14 13.6642 14 13.25V10.75C14 10.3358 13.6642 10 13.25 10H12.75Z" fill="black"/>
<path d="M20.5 10C20.7761 10 21 10.2239 21 10.5V13.5029C20.9998 13.7789 20.776 14.0029 20.5 14.0029C20.224 14.0029 20.0002 13.7789 20 13.5029V10.5C20 10.2239 20.2239 10 20.5 10Z" fill="black"/>
</svg>
