<svg width="24" height="24" viewBox="0 0 24 24" fill="none" xmlns="http://www.w3.org/2000/svg">
<path fill-rule="evenodd" clip-rule="evenodd" d="M16.5 3C16.7761 3 17 3.22386 17 3.5V20.5C17 20.7761 16.7761 21 16.5 21H7.5C7.22386 21 7 20.7761 7 20.5V3.5C7 3.22386 7.22386 3 7.5 3H16.5ZM12 13C10.3431 13 9 14.3431 9 16C9 17.6569 10.3431 19 12 19C13.6569 19 15 17.6569 15 16C15 14.3431 13.6569 13 12 13ZM9.5 10C9.22386 10 9 10.2239 9 10.5C9 10.7761 9.22386 11 9.5 11H14.5C14.7761 11 15 10.7761 15 10.5C15 10.2239 14.7761 10 14.5 10H9.5ZM9.5 5C9.22386 5 9 5.22386 9 5.5V8.5C9 8.77614 9.22386 9 9.5 9H12.5C12.7761 9 13 8.77614 13 8.5V5.5C13 5.22386 12.7761 5 12.5 5H9.5Z" fill="black"/>
<circle cx="12" cy="16" r="1" fill="black"/>
</svg>
