<svg width="30" height="30" viewBox="0 0 30 30" fill="none" xmlns="http://www.w3.org/2000/svg">
<path d="M20.3554 11.1838C20.1498 9.33217 18.5575 8.73579 16.5364 8.56809L16.5108 6L14.949 6.01164L14.9789 8.52267C14.5657 8.52775 14.1481 8.53393 13.7382 8.55218L13.7082 6.04115L12.1288 6.05717L12.1544 8.62526C11.8201 8.62932 11.4858 8.65204 11.1515 8.6561L9 8.67485L9.01816 10.3353C9.01816 10.3353 10.1789 10.3024 10.1449 10.3342C10.7784 10.3349 10.9898 10.6972 11.0424 11.0013L11.0777 13.9261C11.1215 13.9338 11.1741 13.9207 11.241 13.946C11.1796 13.9426 11.1445 13.9514 11.0832 13.948L11.1521 18.035C11.1236 18.238 11.0007 18.5485 10.57 18.558C10.5919 18.5711 9.42133 18.5645 9.42133 18.5645L9.14788 20.4376L11.1799 20.4067C11.5581 20.4103 11.9318 20.3964 12.2891 20.41L12.3202 23L13.882 22.9884L13.8565 20.4203C14.296 20.4273 14.7103 20.4266 15.106 20.4259L15.1271 22.9764L16.689 22.9648L16.658 20.3747C19.2863 20.1951 21.1158 19.5198 21.3061 17.0331C21.4634 15.0491 20.5321 14.1713 19.0185 13.8164C19.9448 13.3476 20.4964 12.5338 20.3554 11.1838ZM18.2263 16.7656C18.2532 18.7038 14.9246 18.5216 13.8735 18.5272L13.8262 15.0877C14.896 15.0821 18.1951 14.7353 18.2263 16.7656ZM17.4484 11.9086C17.4721 13.6656 14.6991 13.5082 13.8102 13.5106L13.7859 10.3872C14.6562 10.3847 17.4281 10.0714 17.4484 11.9086Z" fill="black"/>
</svg>
