<svg width="24" height="24" viewBox="0 0 24 24" fill="none" xmlns="http://www.w3.org/2000/svg">
<path d="M10.8636 14.3597C11.6696 14.5726 13.4306 15.0379 13.7109 13.9127C13.9976 12.762 12.2887 12.3789 11.4555 12.192C11.3626 12.1712 11.2805 12.1528 11.2134 12.1361L10.6711 14.3097C10.7264 14.3234 10.7911 14.3405 10.8636 14.3597Z" fill="black"/>
<path d="M11.6234 11.1832C12.2953 11.3626 13.7608 11.7538 14.0159 10.7312C14.2766 9.68546 12.8525 9.37009 12.1568 9.21604C12.0785 9.1987 12.0094 9.18339 11.953 9.16932L11.4615 11.1408C11.5079 11.1524 11.5624 11.1669 11.6234 11.1832Z" fill="black"/>
<path fill-rule="evenodd" clip-rule="evenodd" d="M9.82199 20.7305C14.6445 21.9328 19.5281 18.9984 20.7307 14.1771C21.9327 9.35531 18.9981 4.47145 14.1762 3.26933C9.35537 2.06721 4.47138 5.00195 3.26963 9.82381C2.06676 14.6449 5.00151 19.5284 9.82199 20.7305ZM13.9872 8.47795C15.2341 8.90745 16.1461 9.55107 15.967 10.7488C15.8374 11.6253 15.3511 12.0498 14.706 12.1986C15.592 12.6599 16.0429 13.3673 15.6132 14.5936C15.0805 16.1164 13.8141 16.2449 12.13 15.9264L11.7212 17.5642L10.7337 17.3181L11.137 15.7023C10.881 15.6387 10.6195 15.5711 10.3497 15.4981L9.94512 17.1214L8.95875 16.8753L9.36712 15.2344C9.28223 15.2126 9.19679 15.1904 9.11078 15.1679C8.96323 15.1295 8.81403 15.0906 8.66312 15.0528L7.37812 14.7324L7.86812 13.6023C7.86812 13.6023 8.59612 13.7957 8.58625 13.7814C8.86575 13.8507 8.98987 13.6683 9.03887 13.5468L9.68462 10.9581C9.71362 10.9651 9.74197 10.9722 9.7691 10.979C9.77577 10.9807 9.78236 10.9823 9.78887 10.9839C9.74937 10.9679 9.71374 10.9581 9.68624 10.9509L10.1469 9.10282C10.1589 8.89307 10.0867 8.62845 9.68674 8.52858C9.70224 8.51808 8.96962 8.3502 8.96962 8.3502L9.23237 7.29558L10.5941 7.63558L10.5931 7.64058C10.798 7.69158 11.0089 7.73983 11.2237 7.78883L11.6286 6.16683L12.6154 6.41296L12.219 8.00295C12.4841 8.06333 12.7505 8.12433 13.0104 8.18908L13.4042 6.60958L14.3916 6.85571L13.9872 8.47795Z" fill="black"/>
</svg>
