<svg width="24" height="24" viewBox="0 0 24 24" fill="none" xmlns="http://www.w3.org/2000/svg">
<path fill-rule="evenodd" clip-rule="evenodd" d="M12 3C16.9706 3 21 7.02944 21 12C21 16.9706 16.9706 21 12 21C7.02944 21 3 16.9706 3 12C3 7.02944 7.02944 3 12 3ZM9 12C8.90056 12 8.80419 12.0296 8.72266 12.084L8.64648 12.1465L7.14648 13.6465C6.95122 13.8417 6.95122 14.1583 7.14648 14.3535C7.34175 14.5488 7.65825 14.5488 7.85352 14.3535L9.20703 13H14.793L16.1465 14.3535C16.3417 14.5488 16.6583 14.5488 16.8535 14.3535C17.0488 14.1583 17.0488 13.8417 16.8535 13.6465L15.3535 12.1465C15.2597 12.0527 15.1326 12 15 12H9ZM10 9C9.44772 9 9 9.44772 9 10C9 10.5523 9.44772 11 10 11C10.5523 11 11 10.5523 11 10C11 9.44772 10.5523 9 10 9ZM14 9C13.4477 9 13 9.44772 13 10C13 10.5523 13.4477 11 14 11C14.5523 11 15 10.5523 15 10C15 9.44772 14.5523 9 14 9ZM9.25 6.56738C9.01091 6.42934 8.7055 6.51098 8.56738 6.75C8.42934 6.98909 8.51098 7.2945 8.75 7.43262L10.75 8.58789C10.9891 8.72591 11.2946 8.64342 11.4326 8.4043C11.5706 8.16517 11.4891 7.85972 11.25 7.72168L9.25 6.56738ZM15.4326 6.75C15.2945 6.51098 14.9891 6.42934 14.75 6.56738L12.75 7.72168C12.5109 7.85972 12.4294 8.16517 12.5674 8.4043C12.7054 8.64342 13.0109 8.72591 13.25 8.58789L15.25 7.43262C15.489 7.2945 15.5707 6.98909 15.4326 6.75Z" fill="black"/>
</svg>
