<svg width="30" height="30" viewBox="0 0 30 30" fill="none" xmlns="http://www.w3.org/2000/svg">
<mask id="path-1-inside-1" fill="white">
<path fill-rule="evenodd" clip-rule="evenodd" d="M14.8362 5L23.2731 10.2887L14.8362 15.5773L6.39929 10.2887L14.8362 5ZM15.267 16.3018L23.6722 11.033V19.9093H23.6694L23.6722 19.911L15.267 25.1798L15.267 16.3018ZM14.4129 16.3065L6 11.0329V19.9093H6.00281L6 19.911L14.4129 25.1846V16.3065Z"/>
</mask>
<path fill-rule="evenodd" clip-rule="evenodd" d="M14.8362 5L23.2731 10.2887L14.8362 15.5773L6.39929 10.2887L14.8362 5ZM15.267 16.3018L23.6722 11.033V19.9093H23.6694L23.6722 19.911L15.267 25.1798L15.267 16.3018ZM14.4129 16.3065L6 11.0329V19.9093H6.00281L6 19.911L14.4129 25.1846V16.3065Z" fill="black"/>
<path d="M23.2731 10.2887L23.7206 11.0026C23.9665 10.8485 24.1157 10.5788 24.1157 10.2887C24.1157 9.99852 23.9665 9.72879 23.7206 9.57469L23.2731 10.2887ZM14.8362 5L15.2838 4.28604C15.0101 4.11447 14.6624 4.11447 14.3887 4.28604L14.8362 5ZM14.8362 15.5773L14.3886 16.2913C14.6623 16.4629 15.01 16.4629 15.2837 16.2913L14.8362 15.5773ZM6.39929 10.2887L5.95175 9.57472C5.70592 9.72882 5.55666 9.99854 5.55666 10.2887C5.55666 10.5788 5.70592 10.8485 5.95175 11.0026L6.39929 10.2887ZM23.6722 11.033H24.5148C24.5148 10.7265 24.3484 10.4441 24.0802 10.2957C23.812 10.1473 23.4844 10.1562 23.2247 10.319L23.6722 11.033ZM15.267 16.3018L14.8194 15.5878C14.5736 15.7419 14.4243 16.0117 14.4243 16.3018L15.267 16.3018ZM23.6722 19.9093V20.7519C24.1376 20.7519 24.5148 20.3746 24.5148 19.9093H23.6722ZM23.6694 19.9093V19.0666C23.2937 19.0666 22.9634 19.3153 22.8596 19.6764C22.7557 20.0375 22.9035 20.4237 23.2218 20.6232L23.6694 19.9093ZM23.6722 19.911L24.1197 20.625C24.3656 20.4709 24.5148 20.2012 24.5148 19.911C24.5148 19.6209 24.3656 19.3512 24.1198 19.1971L23.6722 19.911ZM15.267 25.1798L14.4243 25.1798C14.4243 25.4864 14.5908 25.7687 14.859 25.9171C15.1272 26.0655 15.4548 26.0566 15.7145 25.8938L15.267 25.1798ZM14.4129 16.3065H15.2555C15.2555 16.0164 15.1063 15.7466 14.8604 15.5925L14.4129 16.3065ZM6 11.0329L6.44755 10.3189C6.18783 10.1561 5.8602 10.1472 5.59201 10.2956C5.32381 10.444 5.15736 10.7264 5.15736 11.0329H6ZM6 19.9093H5.15736C5.15736 20.3746 5.53462 20.7519 6 20.7519V19.9093ZM6.00281 19.9093L6.45036 20.6232C6.76869 20.4237 6.91646 20.0375 6.81264 19.6764C6.70883 19.3153 6.37851 19.0666 6.00281 19.0666V19.9093ZM6 19.911L5.55245 19.1971C5.30662 19.3511 5.15736 19.6209 5.15736 19.911C5.15736 20.2011 5.30662 20.4709 5.55245 20.625L6 19.911ZM14.4129 25.1846L13.9653 25.8986C14.225 26.0614 14.5527 26.0703 14.8209 25.9219C15.0891 25.7735 15.2555 25.4911 15.2555 25.1846H14.4129ZM23.7206 9.57469L15.2838 4.28604L14.3887 5.71396L22.8255 11.0026L23.7206 9.57469ZM15.2837 16.2913L23.7206 11.0026L22.8255 9.57469L14.3886 14.8634L15.2837 16.2913ZM5.95175 11.0026L14.3886 16.2913L15.2837 14.8634L6.84684 9.57472L5.95175 11.0026ZM14.3887 4.28604L5.95175 9.57472L6.84684 11.0026L15.2838 5.71396L14.3887 4.28604ZM23.2247 10.319L14.8194 15.5878L15.7145 17.0158L24.1197 11.7469L23.2247 10.319ZM24.5148 19.9093V11.033H22.8296V19.9093H24.5148ZM23.6694 20.7519H23.6722V19.0666H23.6694V20.7519ZM24.1198 19.1971L24.1169 19.1953L23.2218 20.6232L23.2246 20.625L24.1198 19.1971ZM15.7145 25.8938L24.1197 20.625L23.2247 19.1971L14.8194 24.4659L15.7145 25.8938ZM14.4243 16.3018L14.4243 25.1798L16.1096 25.1798L16.1096 16.3018L14.4243 16.3018ZM14.8604 15.5925L6.44755 10.3189L5.55245 11.7468L13.9653 17.0205L14.8604 15.5925ZM5.15736 11.0329V19.9093H6.84264V11.0329H5.15736ZM6 20.7519H6.00281V19.0666H6V20.7519ZM5.55526 19.1953L5.55245 19.1971L6.44755 20.625L6.45036 20.6232L5.55526 19.1953ZM5.55245 20.625L13.9653 25.8986L14.8604 24.4707L6.44755 19.1971L5.55245 20.625ZM15.2555 25.1846V16.3065H13.5702V25.1846H15.2555Z" fill="black" mask="url(#path-1-inside-1)"/>
</svg>
