<svg width="24" height="24" viewBox="0 0 24 24" fill="none" xmlns="http://www.w3.org/2000/svg">
<path fill-rule="evenodd" clip-rule="evenodd" d="M13.5 4C13.7761 4 14 4.22386 14 4.5V6H16.5C16.7761 6 17 6.22386 17 6.5V10.4277L18.543 10.8691C18.7989 10.9423 18.9534 11.2036 18.8936 11.4629L17.5977 17.0732C18.0059 17.0806 18.4166 16.9248 18.7197 16.6016L19.1348 16.1582C19.3235 15.9569 19.6403 15.9462 19.8418 16.1348C20.0431 16.3235 20.0538 16.6403 19.8652 16.8418L19.4492 17.2852C18.4615 18.3387 16.7885 18.3387 15.8008 17.2852L15.75 17.2305L15.6992 17.2852C14.7115 18.3387 13.0385 18.3387 12.0508 17.2852L12 17.2305L11.9492 17.2852C10.9615 18.3387 9.28847 18.3387 8.30078 17.2852L8.25 17.2305L8.19922 17.2852C7.21154 18.3387 5.53847 18.3387 4.55078 17.2852L4.13477 16.8418C3.94623 16.6403 3.95686 16.3235 4.1582 16.1348C4.35967 15.9462 4.67647 15.9569 4.86524 16.1582L5.28027 16.6016C5.58311 16.9246 5.99341 17.0804 6.40137 17.0732L5.10645 11.4629C5.0466 11.2036 5.20113 10.9423 5.45703 10.8691L7 10.4277V6.5C7 6.22386 7.22386 6 7.5 6H10V4.5C10 4.22386 10.2239 4 10.5 4H13.5ZM11.9199 11.0068L11.8418 11.0254L8.8418 12.0254C8.57983 12.1127 8.43807 12.3962 8.52539 12.6582C8.61272 12.9202 8.89623 13.0619 9.1582 12.9746L12 12.0273L14.8418 12.9746C15.1038 13.0619 15.3873 12.9202 15.4746 12.6582C15.5619 12.3962 15.4202 12.1127 15.1582 12.0254L12.1582 11.0254C12.0811 10.9997 11.9993 10.9939 11.9199 11.0068ZM8 10.1426L11.7256 9.07812C11.9049 9.02697 12.0951 9.02697 12.2744 9.07812L16 10.1426V7H8V10.1426Z" fill="black"/>
</svg>
