<svg width="24" height="24" viewBox="0 0 24 24" fill="none" xmlns="http://www.w3.org/2000/svg">
<path d="M6.3152 5.02231C5.84181 5.40845 5.40845 5.84181 5.02231 6.3152L7.87728 9.17018C8.22531 8.66411 8.66411 8.22531 9.17018 7.87728L6.3152 5.02231Z" fill="black"/>
<path d="M16.1227 14.8298C15.7747 15.3359 15.3359 15.7747 14.8298 16.1227L17.6848 18.9777C18.1582 18.5915 18.5915 18.1582 18.9777 17.6848L16.1227 14.8298Z" fill="black"/>
<path d="M19.5727 16.8656L16.6207 13.9136C16.8651 13.3242 17 12.6778 17 12C17 11.3222 16.8651 10.6758 16.6207 10.0864L19.5727 7.13441C20.4759 8.53731 21 10.2075 21 12C21 13.7925 20.4759 15.4627 19.5727 16.8656Z" fill="black"/>
<path d="M10.0864 7.37927L7.13441 4.4273C8.53731 3.52405 10.2075 3 12 3C13.7925 3 15.4627 3.52405 16.8656 4.4273L13.9136 7.37927C13.3242 7.13488 12.6778 7 12 7C11.3222 7 10.6758 7.13488 10.0864 7.37927Z" fill="black"/>
<path d="M5.02231 17.6848C5.40845 18.1582 5.84181 18.5915 6.3152 18.9777L9.17018 16.1227C8.66411 15.7747 8.22531 15.3359 7.87728 14.8298L5.02231 17.6848Z" fill="black"/>
<path d="M7 12C7 11.3222 7.13488 10.6758 7.37927 10.0864L4.4273 7.13441C3.52405 8.53731 3 10.2075 3 12C3 13.7925 3.52405 15.4627 4.4273 16.8656L7.37927 13.9136C7.13488 13.3242 7 12.6778 7 12Z" fill="black"/>
<path d="M16.8656 19.5727L13.9136 16.6207C13.3242 16.8651 12.6778 17 12 17C11.3222 17 10.6758 16.8651 10.0864 16.6207L7.13441 19.5727C8.53731 20.4759 10.2075 21 12 21C13.7925 21 15.4627 20.4759 16.8656 19.5727Z" fill="black"/>
<path d="M14.8298 7.87728C15.3359 8.22531 15.7747 8.66411 16.1227 9.17018L18.9777 6.3152C18.5915 5.84181 18.1582 5.40845 17.6848 5.02231L14.8298 7.87728Z" fill="black"/>
</svg>
