<svg width="24" height="24" viewBox="0 0 24 24" fill="none" xmlns="http://www.w3.org/2000/svg">
<path d="M5 7.5C5 6.67157 5.67157 6 6.5 6H17.5C18.3284 6 19 6.67157 19 7.5V9H5V7.5Z" fill="black"/>
<path fill-rule="evenodd" clip-rule="evenodd" d="M16 4.5C16.2761 4.5 16.5 4.72386 16.5 5V7C16.5 7.27614 16.2761 7.5 16 7.5C15.7239 7.5 15.5 7.27614 15.5 7V5C15.5 4.72386 15.7239 4.5 16 4.5Z" fill="black"/>
<path fill-rule="evenodd" clip-rule="evenodd" d="M8 4.5C8.27614 4.5 8.5 4.72386 8.5 5V7C8.5 7.27614 8.27614 7.5 8 7.5C7.72386 7.5 7.5 7.27614 7.5 7V5C7.5 4.72386 7.72386 4.5 8 4.5Z" fill="black"/>
<path fill-rule="evenodd" clip-rule="evenodd" d="M5 10H19V16.5C19 17.3284 18.3284 18 17.5 18H6.5C5.67157 18 5 17.3284 5 16.5V10ZM15.5 12C15.5 11.7239 15.7239 11.5 16 11.5H17C17.2761 11.5 17.5 11.7239 17.5 12C17.5 12.2761 17.2761 12.5 17 12.5H16C15.7239 12.5 15.5 12.2761 15.5 12ZM13 11.5C12.7239 11.5 12.5 11.7239 12.5 12C12.5 12.2761 12.7239 12.5 13 12.5H14C14.2761 12.5 14.5 12.2761 14.5 12C14.5 11.7239 14.2761 11.5 14 11.5H13ZM9.5 12C9.5 11.7239 9.72386 11.5 10 11.5H11C11.2761 11.5 11.5 11.7239 11.5 12C11.5 12.2761 11.2761 12.5 11 12.5H10C9.72386 12.5 9.5 12.2761 9.5 12ZM7 13.5C6.72386 13.5 6.5 13.7239 6.5 14C6.5 14.2761 6.72386 14.5 7 14.5H8C8.27614 14.5 8.5 14.2761 8.5 14C8.5 13.7239 8.27614 13.5 8 13.5H7ZM15.5 14C15.5 13.7239 15.7239 13.5 16 13.5H17C17.2761 13.5 17.5 13.7239 17.5 14C17.5 14.2761 17.2761 14.5 17 14.5H16C15.7239 14.5 15.5 14.2761 15.5 14ZM13 13.5C12.7239 13.5 12.5 13.7239 12.5 14C12.5 14.2761 12.7239 14.5 13 14.5H14C14.2761 14.5 14.5 14.2761 14.5 14C14.5 13.7239 14.2761 13.5 14 13.5H13ZM9.5 14C9.5 13.7239 9.72386 13.5 10 13.5H11C11.2761 13.5 11.5 13.7239 11.5 14C11.5 14.2761 11.2761 14.5 11 14.5H10C9.72386 14.5 9.5 14.2761 9.5 14ZM7 15.5C6.72386 15.5 6.5 15.7239 6.5 16C6.5 16.2761 6.72386 16.5 7 16.5H8C8.27614 16.5 8.5 16.2761 8.5 16C8.5 15.7239 8.27614 15.5 8 15.5H7ZM12.5 16C12.5 15.7239 12.7239 15.5 13 15.5H14C14.2761 15.5 14.5 15.7239 14.5 16C14.5 16.2761 14.2761 16.5 14 16.5H13C12.7239 16.5 12.5 16.2761 12.5 16ZM10 15.5C9.72386 15.5 9.5 15.7239 9.5 16C9.5 16.2761 9.72386 16.5 10 16.5H11C11.2761 16.5 11.5 16.2761 11.5 16C11.5 15.7239 11.2761 15.5 11 15.5H10Z" fill="black"/>
</svg>
