<svg width="24" height="24" viewBox="0 0 24 24" fill="none" xmlns="http://www.w3.org/2000/svg">
<path fill-rule="evenodd" clip-rule="evenodd" d="M14.0244 6C14.5978 6.00017 15.0972 6.39093 15.2363 6.94727L15.2637 7.05273C15.4028 7.60907 15.9022 7.99983 16.4756 8H17.5C18.3284 8 19 8.67157 19 9.5V16.5C19 17.3284 18.3284 18 17.5 18H6.5C5.67157 18 5 17.3284 5 16.5V9.5C5 8.67157 5.67157 8 6.5 8H7.52441C8.09784 7.99983 8.59724 7.60907 8.73633 7.05273L8.76367 6.94727C8.90276 6.39093 9.40216 6.00017 9.97559 6H14.0244ZM12 10C10.6193 10 9.5 11.1193 9.5 12.5C9.5 13.8807 10.6193 15 12 15C13.3807 15 14.5 13.8807 14.5 12.5C14.5 11.1193 13.3807 10 12 10Z" fill="black"/>
</svg>
