<svg width="24" height="24" viewBox="0 0 24 24" fill="none" xmlns="http://www.w3.org/2000/svg">
<path d="M18.92 5.01C18.72 4.42 18.16 4 17.5 4H6.5C5.84 4 5.29 4.42 5.08 5.01L3 11V19C3 19.55 3.45 20 4 20H5C5.55 20 6 19.55 6 19V18H18V19C18 19.55 18.45 20 19 20H20C20.55 20 21 19.55 21 19V11L18.92 5.01ZM6.5 15C5.67 15 5 14.33 5 13.5C5 12.67 5.67 12 6.5 12C7.33 12 8 12.67 8 13.5C8 14.33 7.33 15 6.5 15ZM17.5 15C16.67 15 16 14.33 16 13.5C16 12.67 16.67 12 17.5 12C18.33 12 19 12.67 19 13.5C19 14.33 18.33 15 17.5 15ZM5 10L6.5 5.5H17.5L19 10H5Z" fill="black"/>
</svg>
