<svg width="24" height="24" viewBox="0 0 24 24" fill="none" xmlns="http://www.w3.org/2000/svg">
<path fill-rule="evenodd" clip-rule="evenodd" d="M16 4C16.5523 4 17 4.44772 17 5V9H18.5C18.7761 9 19 9.22386 19 9.5C19 9.77614 18.7761 10 18.5 10H17V19.5L16.999 19.5039C16.9989 19.5173 16.9963 19.5305 16.9951 19.5439C16.9933 19.5648 16.9926 19.5854 16.9883 19.6055C16.9794 19.6466 16.963 19.6858 16.9434 19.7246C16.933 19.745 16.9231 19.7655 16.9102 19.7842L16.9092 19.7871C16.9056 19.7922 16.9002 19.7959 16.8965 19.8008C16.8806 19.8217 16.8636 19.8412 16.8447 19.8594C16.8378 19.866 16.8304 19.8718 16.8232 19.8779C16.8063 19.8925 16.7893 19.9068 16.7705 19.9189C16.7589 19.9264 16.7465 19.932 16.7344 19.9385C16.7177 19.9474 16.7013 19.9568 16.6836 19.9639C16.6737 19.9678 16.6634 19.9704 16.6533 19.9736C16.6322 19.9805 16.6111 19.9872 16.5889 19.9912C16.5756 19.9936 16.5622 19.9938 16.5488 19.9951C16.5327 19.9967 16.5166 20 16.5 20L16.4951 19.999C16.4817 19.9989 16.4685 19.9963 16.4551 19.9951C16.4017 19.9903 16.3509 19.9792 16.3037 19.959C16.2936 19.9546 16.2843 19.9484 16.2744 19.9434C16.254 19.933 16.2335 19.9232 16.2148 19.9102L16.2129 19.9092L11.499 16.6094L6.78711 19.9092L6.78418 19.9102C6.76548 19.9231 6.74505 19.933 6.72461 19.9434C6.71466 19.9484 6.70547 19.9547 6.69531 19.959C6.64806 19.9791 6.59734 19.9904 6.54395 19.9951C6.53053 19.9963 6.51733 19.9989 6.50391 19.999L6.5 20C6.48311 20 6.46665 19.9968 6.4502 19.9951C6.43682 19.9938 6.42337 19.9936 6.41016 19.9912C6.38796 19.9872 6.36677 19.9805 6.3457 19.9736C6.33561 19.9704 6.32532 19.9678 6.31543 19.9639C6.2977 19.9568 6.28131 19.9474 6.26465 19.9385C6.25258 19.932 6.24008 19.9264 6.22852 19.9189C6.20973 19.9067 6.19271 19.8925 6.17578 19.8779C6.16861 19.8718 6.16116 19.866 6.1543 19.8594C6.13545 19.8412 6.11836 19.8217 6.10254 19.8008C6.09894 19.796 6.09428 19.792 6.09082 19.7871L6.08887 19.7842C6.07593 19.7655 6.066 19.745 6.05566 19.7246C6.03612 19.686 6.02054 19.6465 6.01172 19.6055C6.0074 19.5854 6.00573 19.5648 6.00391 19.5439C6.00288 19.5322 6.0002 19.5206 6 19.5088V10H4.5C4.22386 10 4 9.77614 4 9.5C4 9.22386 4.22386 9 4.5 9H6V5C6 4.44772 6.44772 4 7 4H16ZM12.3711 15.999L16 18.5391V13.46L12.3711 15.999ZM7 18.5391L10.6279 15.999L7 13.46V18.5391ZM11.499 15.3896L14.9141 13H8.08594L11.499 15.3896Z" fill="black"/>
<path d="M17 9V10H14.5C14.2239 10 14 9.77614 14 9.5C14 9.22386 14.2239 9 14.5 9H17Z" fill="white"/>
<path d="M8.5 9C8.77614 9 9 9.22386 9 9.5C9 9.77614 8.77614 10 8.5 10H6V9H8.5Z" fill="white"/>
</svg>
