<svg width="24" height="24" viewBox="0 0 24 24" fill="none" xmlns="http://www.w3.org/2000/svg">
<path d="M3 8.5C3 7.67157 3.67157 7 4.5 7H13V10H4.5C3.67157 10 3 9.32843 3 8.5V8.5Z" fill="black"/>
<path d="M14 7H19.5C20.3284 7 21 7.67157 21 8.5V8.5C21 9.32843 20.3284 10 19.5 10H14V7Z" fill="black"/>
<path d="M3 12.5C3 11.6716 3.67157 11 4.5 11H10V14H4.5C3.67157 14 3 13.3284 3 12.5V12.5Z" fill="black"/>
<path d="M11 11H19.5C20.3284 11 21 11.6716 21 12.5V12.5C21 13.3284 20.3284 14 19.5 14H11V11Z" fill="black"/>
<path d="M3 16.5C3 15.6716 3.67157 15 4.5 15H16V18H4.5C3.67157 18 3 17.3284 3 16.5V16.5Z" fill="black"/>
<path d="M17 15H19.5C20.3284 15 21 15.6716 21 16.5V16.5C21 17.3284 20.3284 18 19.5 18H17V15Z" fill="black"/>
</svg>
