<svg width="24" height="24" viewBox="0 0 24 24" fill="none" xmlns="http://www.w3.org/2000/svg">
<path fill-rule="evenodd" clip-rule="evenodd" d="M3 12C3 10.067 4.567 8.5 6.5 8.5H17.5C19.433 8.5 21 10.067 21 12C21 13.933 19.433 15.5 17.5 15.5H6.5C4.567 15.5 3 13.933 3 12ZM6.5 9.5C5.11929 9.5 4 10.6193 4 12C4 13.3807 5.11929 14.5 6.5 14.5H17.5C18.8807 14.5 20 13.3807 20 12C20 10.6193 18.8807 9.5 17.5 9.5H6.5Z" fill="black"/>
<path d="M5 12C5 11.1716 5.67157 10.5 6.5 10.5H13.5V13.5H6.5C5.67157 13.5 5 12.8284 5 12V12Z" fill="black"/>
<path d="M14.5 10.5H17.5C18.3284 10.5 19 11.1716 19 12V12C19 12.8284 18.3284 13.5 17.5 13.5H14.5V10.5Z" fill="black"/>
</svg>
