<svg width="24" height="24" viewBox="0 0 24 24" fill="none" xmlns="http://www.w3.org/2000/svg">
<path d="M14.5 4C14.7761 4 15 4.22386 15 4.5V6.5C15 6.77614 14.7761 7 14.5 7H12V8H13.5C13.7761 8 14 8.22386 14 8.5V12H15V10.5C15 10.2239 15.2239 10 15.5 10H18.5C18.7761 10 19 10.2239 19 10.5V18.5C19 18.7761 18.7761 19 18.5 19H14V16.5C14 15.6716 13.3284 15 12.5 15H11.5C10.6716 15 10 15.6716 10 16.5V19H5.5C5.22386 19 5 18.7761 5 18.5V10.5C5 10.2239 5.22386 10 5.5 10H8.5C8.77614 10 9 10.2239 9 10.5V12H10V8.5C10 8.22386 10.2239 8 10.5 8H11V4.5C11 4.22386 11.2239 4 11.5 4H14.5Z" fill="black"/>
</svg>
