<svg width="24" height="24" viewBox="0 0 24 24" fill="none" xmlns="http://www.w3.org/2000/svg">
<path fill-rule="evenodd" clip-rule="evenodd" d="M21 12C21 16.9706 16.9706 21 12 21C7.02944 21 3 16.9706 3 12C3 7.02944 7.02944 3 12 3C16.9706 3 21 7.02944 21 12ZM12.4999 11.7929V6.96997C12.4999 6.69383 12.2761 6.46997 11.9999 6.46997C11.7238 6.46997 11.4999 6.69383 11.4999 6.96997V11.97C11.4999 11.975 11.5 11.9801 11.5002 11.9851C11.4962 12.118 11.545 12.2521 11.6464 12.3535L14.4748 15.1819C14.6701 15.3772 14.9867 15.3772 15.1819 15.1819C15.3772 14.9867 15.3772 14.6701 15.1819 14.4748L12.4999 11.7929Z" fill="black"/>
</svg>
