<svg width="24" height="24" viewBox="0 0 24 24" fill="none" xmlns="http://www.w3.org/2000/svg">
<path d="M13 5.65986C13 5.90407 13.1771 6.11032 13.4145 6.16769C14.5514 6.44244 15.562 7.04098 16.3431 7.86023C16.5114 8.03673 16.7782 8.08661 16.9894 7.96467L18.7618 6.94134C19.02 6.79227 19.092 6.45093 18.9006 6.22234C18.2215 5.41124 17.4019 4.72293 16.477 4.19254C15.5675 3.67102 14.5777 3.31456 13.5533 3.13505C13.2596 3.0836 13 3.3166 13 3.61474V5.65986Z" fill="black"/>
<path fill-rule="evenodd" clip-rule="evenodd" d="M17.7225 16.4812C17.9277 16.666 17.9442 16.9821 17.7595 17.1873C16.6643 18.4036 15.2123 19.2419 13.6114 19.5822C13.3413 19.6396 13.0758 19.4672 13.0184 19.1971C12.961 18.927 13.1334 18.6615 13.4035 18.6041C14.7978 18.3077 16.0625 17.5775 17.0163 16.5182C17.2011 16.313 17.5173 16.2964 17.7225 16.4812Z" fill="black"/>
<path fill-rule="evenodd" clip-rule="evenodd" d="M6.27764 16.4812C6.48285 16.2964 6.799 16.313 6.98378 16.5182C7.93759 17.5775 9.20229 18.3077 10.5966 18.6041C10.8667 18.6615 11.0391 18.927 10.9817 19.1971C10.9243 19.4672 10.6588 19.6396 10.3887 19.5822C8.78781 19.2419 7.33576 18.4036 6.24063 17.1873C6.05586 16.9821 6.07242 16.666 6.27764 16.4812Z" fill="black"/>
<path fill-rule="evenodd" clip-rule="evenodd" d="M5.25934 9.28581C5.52197 9.37114 5.6657 9.65322 5.58036 9.91584C5.13987 11.2715 5.13987 12.7319 5.58037 14.0876C5.6657 14.3502 5.52197 14.6323 5.25935 14.7176C4.99672 14.8029 4.71464 14.6592 4.62931 14.3966C4.12356 12.8401 4.12356 11.1634 4.62931 9.60683C4.71464 9.3442 4.99672 9.20047 5.25934 9.28581Z" fill="black"/>
<path fill-rule="evenodd" clip-rule="evenodd" d="M10.9817 4.80615C11.0391 5.07626 10.8667 5.34177 10.5966 5.39918C9.20228 5.69555 7.93759 6.42572 6.98377 7.48504C6.799 7.69026 6.48285 7.70683 6.27764 7.52205C6.07242 7.33728 6.05585 7.02113 6.24063 6.81591C7.33575 5.59965 8.78781 4.76131 10.3887 4.42103C10.6588 4.36362 10.9243 4.53604 10.9817 4.80615Z" fill="black"/>
</svg>
