<svg width="24" height="24" viewBox="0 0 24 24" fill="none" xmlns="http://www.w3.org/2000/svg">
<path d="M4.2359 8.67211C3.9778 8.52309 3.64631 8.63127 3.54403 8.9112C3.19206 9.87452 3 10.9148 3 12C3 13.0852 3.19206 14.1255 3.54403 15.0888C3.64631 15.3687 3.9778 15.4769 4.2359 15.3279L6.00906 14.3042C6.22039 14.1821 6.31052 13.926 6.24183 13.6918C6.08444 13.1553 6 12.5875 6 12C6 11.4125 6.08444 10.8447 6.24183 10.3082C6.31052 10.074 6.22039 9.81785 6.00906 9.69585L4.2359 8.67211Z" fill="black"/>
<path d="M5.09944 6.22193C4.90781 6.45054 4.97969 6.79213 5.23802 6.94128L7.01062 7.96469C7.22182 8.08663 7.4886 8.03675 7.6569 7.86024C8.43803 7.04099 9.4486 6.44244 10.5855 6.16769C10.8229 6.11032 11 5.90407 11 5.65986V3.61325C11 3.31535 10.7407 3.08242 10.4472 3.13346C8.3119 3.50482 6.4349 4.62872 5.09944 6.22193Z" fill="black"/>
<path d="M16.9894 16.0353C16.7782 15.9134 16.5114 15.9633 16.3431 16.1398C15.562 16.959 14.5514 17.5576 13.4145 17.8323C13.1771 17.8897 13 18.0959 13 18.3401V20.3868C13 20.6846 13.2593 20.9176 13.5528 20.8665C15.6881 20.4952 17.5651 19.3713 18.9005 17.7781C19.0922 17.5495 19.0203 17.2079 18.762 17.0587L16.9894 16.0353Z" fill="black"/>
<path d="M20.456 15.0888C20.3537 15.3688 20.0222 15.4769 19.7641 15.3279L17.9909 14.3042C17.7796 14.1822 17.6895 13.926 17.7582 13.6919C17.9156 13.1553 18 12.5875 18 12C18 11.4125 17.9156 10.8447 17.7582 10.3081C17.6895 10.074 17.7796 9.81783 17.9909 9.69582L19.7641 8.67209C20.0222 8.52307 20.3537 8.63124 20.456 8.91117C20.8079 9.8745 21 10.9148 21 12C21 13.0852 20.8079 14.1255 20.456 15.0888Z" fill="black"/>
<path d="M11 20.3868C11 20.6846 10.7407 20.9176 10.4472 20.8665C8.3119 20.4952 6.4349 19.3713 5.09943 17.7781C4.90781 17.5495 4.97968 17.2079 5.23802 17.0587L7.01061 16.0353C7.22182 15.9134 7.4886 15.9632 7.6569 16.1398C8.43803 16.959 9.4486 17.5576 10.5855 17.8323C10.8229 17.8897 11 18.0959 11 18.3401V20.3868Z" fill="black"/>
<path d="M13 3.61325C13 3.31535 13.2593 3.08242 13.5528 3.13346C15.6881 3.50482 17.5651 4.62871 18.9005 6.22191C19.0922 6.45052 19.0203 6.79211 18.762 6.94126L16.9894 7.96467C16.7782 8.08661 16.5114 8.03673 16.3431 7.86023C15.562 7.04098 14.5514 6.44244 13.4145 6.16769C13.1771 6.11032 13 5.90407 13 5.65986V3.61325Z" fill="black"/>
</svg>
