<svg width="24" height="24" viewBox="0 0 24 24" fill="none" xmlns="http://www.w3.org/2000/svg">
<path d="M13 20.3853C13 20.6834 13.2596 20.9164 13.5533 20.865C14.2003 20.7516 14.8344 20.5675 15.4442 20.3149C16.5361 19.8626 17.5282 19.1997 18.364 18.364C18.5517 18.1762 18.7307 17.9806 18.9006 17.7777C19.092 17.5491 19.02 17.2077 18.7618 17.0587L16.9894 16.0353C16.7782 15.9134 16.5114 15.9633 16.3431 16.1398C15.562 16.959 14.5514 17.5576 13.4145 17.8323C13.1771 17.8897 13 18.0959 13 18.3401V20.3853Z" fill="black"/>
<path d="M17.7582 13.6919C17.6895 13.926 17.7796 14.1822 17.9909 14.3042L20.0935 15.5181C20.1748 15.565 20.279 15.5309 20.3149 15.4442C20.7672 14.3522 21 13.1819 21 12C21 10.8181 20.7672 9.64778 20.3149 8.55585C20.279 8.46911 20.1748 8.43495 20.0935 8.4819L17.9909 9.69582C17.7796 9.81783 17.6895 10.074 17.7582 10.3081C17.9156 10.8447 18 11.4125 18 12C18 12.5875 17.9156 13.1553 17.7582 13.6919Z" fill="black"/>
<path d="M18.364 5.63604C18.5517 5.82379 18.7307 6.01944 18.9006 6.22234C19.092 6.45094 19.02 6.79227 18.7618 6.94134L16.9894 7.96467C16.7782 8.08661 16.5114 8.03673 16.3431 7.86023C15.562 7.04098 14.5514 6.44244 13.4145 6.16769C13.1771 6.11032 13 5.90407 13 5.65986V3.61475C13 3.3166 13.2596 3.0836 13.5533 3.13505C14.2003 3.24841 14.8344 3.43253 15.4442 3.68509C16.5361 4.13738 17.5282 4.80031 18.364 5.63604Z" fill="black"/>
<path fill-rule="evenodd" clip-rule="evenodd" d="M6.27764 16.4812C6.48285 16.2964 6.799 16.313 6.98377 16.5182C7.93759 17.5775 9.20229 18.3077 10.5966 18.6041C10.8667 18.6615 11.0391 18.927 10.9817 19.1971C10.9243 19.4672 10.6588 19.6396 10.3887 19.5822C8.78781 19.2419 7.33575 18.4036 6.24063 17.1873C6.05585 16.9821 6.07242 16.666 6.27764 16.4812Z" fill="black"/>
<path fill-rule="evenodd" clip-rule="evenodd" d="M5.25935 9.28581C5.52197 9.37114 5.6657 9.65322 5.58037 9.91584C5.13988 11.2715 5.13988 12.7319 5.58037 14.0876C5.6657 14.3502 5.52198 14.6323 5.25935 14.7176C4.99672 14.8029 4.71464 14.6592 4.62931 14.3966C4.12356 12.8401 4.12356 11.1634 4.62931 9.60683C4.71464 9.3442 4.99672 9.20047 5.25935 9.28581Z" fill="black"/>
<path fill-rule="evenodd" clip-rule="evenodd" d="M10.9817 4.80615C11.0391 5.07626 10.8667 5.34177 10.5966 5.39918C9.20229 5.69555 7.93759 6.42572 6.98377 7.48504C6.799 7.69026 6.48285 7.70683 6.27764 7.52205C6.07242 7.33728 6.05585 7.02113 6.24063 6.81591C7.33575 5.59965 8.78781 4.76131 10.3887 4.42103C10.6588 4.36362 10.9243 4.53604 10.9817 4.80615Z" fill="black"/>
</svg>
