<svg width="24" height="24" viewBox="0 0 24 24" fill="none" xmlns="http://www.w3.org/2000/svg">
<path fill-rule="evenodd" clip-rule="evenodd" d="M13.0184 4.80615C13.0758 4.53604 13.3413 4.36362 13.6114 4.42103C15.2123 4.76131 16.6643 5.59965 17.7595 6.81591C17.9442 7.02113 17.9277 7.33728 17.7225 7.52205C17.5172 7.70683 17.2011 7.69026 17.0163 7.48504C16.0625 6.42572 14.7978 5.69555 13.4035 5.39918C13.1334 5.34177 12.961 5.07626 13.0184 4.80615Z" fill="black"/>
<path fill-rule="evenodd" clip-rule="evenodd" d="M18.7408 9.28581C19.0034 9.20047 19.2855 9.3442 19.3708 9.60683C19.8766 11.1634 19.8766 12.8401 19.3708 14.3966C19.2855 14.6592 19.0034 14.8029 18.7408 14.7176C18.4782 14.6323 18.3344 14.3502 18.4198 14.0876C18.8603 12.7319 18.8603 11.2715 18.4198 9.91584C18.3344 9.65322 18.4782 9.37114 18.7408 9.28581Z" fill="black"/>
<path fill-rule="evenodd" clip-rule="evenodd" d="M17.7225 16.4812C17.9277 16.666 17.9442 16.9821 17.7595 17.1873C16.6643 18.4036 15.2123 19.2419 13.6114 19.5822C13.3413 19.6396 13.0758 19.4672 13.0184 19.1971C12.961 18.927 13.1334 18.6615 13.4035 18.6041C14.7978 18.3077 16.0625 17.5775 17.0163 16.5182C17.2011 16.313 17.5172 16.2964 17.7225 16.4812Z" fill="black"/>
<path fill-rule="evenodd" clip-rule="evenodd" d="M6.27765 16.4812C6.48287 16.2964 6.79901 16.313 6.98379 16.5182C7.93761 17.5775 9.2023 18.3077 10.5966 18.6041C10.8667 18.6615 11.0391 18.927 10.9817 19.1971C10.9243 19.4672 10.6588 19.6396 10.3887 19.5822C8.78783 19.2419 7.33577 18.4036 6.24065 17.1873C6.05587 16.9821 6.07244 16.666 6.27765 16.4812Z" fill="black"/>
<path fill-rule="evenodd" clip-rule="evenodd" d="M5.25935 9.28581C5.52197 9.37114 5.6657 9.65322 5.58037 9.91584C5.13988 11.2715 5.13988 12.7319 5.58037 14.0876C5.6657 14.3502 5.52198 14.6323 5.25935 14.7176C4.99672 14.8029 4.71464 14.6592 4.62931 14.3966C4.12356 12.8401 4.12356 11.1634 4.62931 9.60683C4.71464 9.3442 4.99672 9.20047 5.25935 9.28581Z" fill="black"/>
<path fill-rule="evenodd" clip-rule="evenodd" d="M10.9817 4.80615C11.0391 5.07626 10.8667 5.34177 10.5966 5.39918C9.2023 5.69555 7.93761 6.42572 6.98379 7.48504C6.79901 7.69026 6.48287 7.70683 6.27765 7.52205C6.07244 7.33728 6.05587 7.02113 6.24064 6.81591C7.33577 5.59965 8.78782 4.76131 10.3887 4.42103C10.6588 4.36362 10.9243 4.53604 10.9817 4.80615Z" fill="black"/>
</svg>
