<svg width="24" height="24" viewBox="0 0 24 24" fill="none" xmlns="http://www.w3.org/2000/svg">
<path d="M13 5.65985C13 5.90407 13.1771 6.11031 13.4145 6.16768C14.5514 6.44243 15.562 7.04097 16.3431 7.86022C16.5114 8.03673 16.7782 8.08661 16.9894 7.96467L18.7618 6.94133C19.02 6.79226 19.092 6.45093 18.9006 6.22233C18.2032 5.38932 17.3578 4.68611 16.4028 4.15044C15.5133 3.65155 14.5494 3.30959 13.5533 3.13504C13.2596 3.08359 13 3.3166 13 3.61474V5.65985Z" fill="black"/>
<path d="M18 12C18 11.4125 17.9156 10.8447 17.7582 10.3081C17.6895 10.074 17.7796 9.81782 17.9909 9.69581L19.7618 8.67338C20.02 8.52431 20.3516 8.63263 20.4539 8.91268C20.8249 9.92851 21.0112 11.007 20.9995 12.0969C20.9884 13.1217 20.8025 14.1326 20.4539 15.0873C20.3516 15.3674 20.02 15.4757 19.7618 15.3266L17.9909 14.3042C17.7796 14.1822 17.6895 13.926 17.7582 13.6919C17.9156 13.1553 18 12.5875 18 12Z" fill="black"/>
<path fill-rule="evenodd" clip-rule="evenodd" d="M17.7225 16.4812C17.9277 16.666 17.9442 16.9821 17.7595 17.1873C16.6643 18.4036 15.2123 19.2419 13.6114 19.5822C13.3413 19.6396 13.0758 19.4672 13.0184 19.1971C12.961 18.927 13.1334 18.6615 13.4035 18.6041C14.7978 18.3077 16.0625 17.5775 17.0163 16.5182C17.2011 16.313 17.5172 16.2964 17.7225 16.4812Z" fill="black"/>
<path fill-rule="evenodd" clip-rule="evenodd" d="M6.27764 16.4812C6.48285 16.2964 6.799 16.313 6.98377 16.5182C7.93759 17.5775 9.20229 18.3077 10.5966 18.6041C10.8667 18.6615 11.0391 18.927 10.9817 19.1971C10.9243 19.4672 10.6588 19.6396 10.3887 19.5822C8.78781 19.2419 7.33575 18.4036 6.24063 17.1873C6.05585 16.9821 6.07242 16.666 6.27764 16.4812Z" fill="black"/>
<path fill-rule="evenodd" clip-rule="evenodd" d="M5.25935 9.2858C5.52197 9.37113 5.6657 9.65321 5.58037 9.91584C5.13988 11.2715 5.13988 12.7319 5.58037 14.0876C5.6657 14.3502 5.52198 14.6323 5.25935 14.7176C4.99672 14.8029 4.71464 14.6592 4.62931 14.3966C4.12356 12.84 4.12356 11.1634 4.62931 9.60682C4.71464 9.34419 4.99672 9.20047 5.25935 9.2858Z" fill="black"/>
<path fill-rule="evenodd" clip-rule="evenodd" d="M10.9817 4.80614C11.0391 5.07625 10.8667 5.34176 10.5966 5.39917C9.20229 5.69554 7.93759 6.42571 6.98377 7.48504C6.799 7.69025 6.48285 7.70682 6.27764 7.52204C6.07242 7.33727 6.05585 7.02112 6.24063 6.81591C7.33575 5.59965 8.78781 4.7613 10.3887 4.42102C10.6588 4.36361 10.9243 4.53603 10.9817 4.80614Z" fill="black"/>
</svg>
