<svg width="24" height="24" viewBox="0 0 24 24" fill="none" xmlns="http://www.w3.org/2000/svg">
<path d="M11 18.3401C11 18.0959 10.8229 17.8897 10.5855 17.8323C9.4486 17.5576 8.43803 16.959 7.65689 16.1398C7.4886 15.9632 7.22182 15.9134 7.01061 16.0353L5.23814 17.0586C4.97994 17.2077 4.90796 17.549 5.09935 17.7776C5.80214 18.617 6.65478 19.3242 7.61779 19.8611C8.50135 20.3536 9.45803 20.6917 10.4467 20.8649C10.7404 20.9164 11 20.6834 11 20.3853V18.3401Z" fill="black"/>
<path d="M13 20.3853C13 20.6834 13.2596 20.9164 13.5533 20.8649C14.6113 20.6796 15.6316 20.3055 16.5642 19.7568C17.4537 19.2334 18.2431 18.563 18.9006 17.7777C19.092 17.5491 19.02 17.2077 18.7618 17.0587L16.9894 16.0353C16.7782 15.9134 16.5114 15.9633 16.3431 16.1398C15.562 16.959 14.5514 17.5576 13.4145 17.8323C13.1771 17.8897 13 18.0959 13 18.3401V20.3853Z" fill="black"/>
<path d="M17.7582 13.6919C17.6895 13.926 17.7796 14.1822 17.9909 14.3042L19.7618 15.3266C20.02 15.4757 20.3516 15.3674 20.4539 15.0873C20.8153 14.0976 21.0015 13.0483 21 11.9869C20.9985 10.9342 20.8123 9.89409 20.4539 8.91268C20.3516 8.63263 20.02 8.52431 19.7618 8.67338L17.9909 9.69581C17.7796 9.81782 17.6895 10.074 17.7582 10.3081C17.9156 10.8447 18 11.4125 18 12C18 12.5875 17.9156 13.1553 17.7582 13.6919Z" fill="black"/>
<path d="M16.5415 4.22989C17.4402 4.75516 18.2374 5.43023 18.9006 6.22233C19.092 6.45093 19.02 6.79226 18.7618 6.94133L16.9894 7.96467C16.7782 8.08661 16.5114 8.03673 16.3431 7.86022C15.562 7.04097 14.5514 6.44243 13.4145 6.16768C13.1771 6.11031 13 5.90407 13 5.65985V3.61474C13 3.31659 13.2596 3.08359 13.5533 3.13504C14.6026 3.31891 15.615 3.68834 16.5415 4.22989Z" fill="black"/>
<path fill-rule="evenodd" clip-rule="evenodd" d="M17.7225 16.4812C17.9277 16.666 17.9442 16.9821 17.7595 17.1873C16.6643 18.4036 15.2123 19.2419 13.6114 19.5822C13.3413 19.6396 13.0758 19.4672 13.0184 19.1971C12.961 18.927 13.1334 18.6615 13.4035 18.6041C14.7978 18.3077 16.0625 17.5775 17.0163 16.5182C17.2011 16.313 17.5173 16.2964 17.7225 16.4812Z" fill="black"/>
<path fill-rule="evenodd" clip-rule="evenodd" d="M6.27764 16.4812C6.48285 16.2964 6.799 16.313 6.98378 16.5182C7.93759 17.5775 9.20229 18.3077 10.5966 18.6041C10.8667 18.6615 11.0391 18.927 10.9817 19.1971C10.9243 19.4672 10.6588 19.6396 10.3887 19.5822C8.78781 19.2419 7.33576 18.4036 6.24063 17.1873C6.05586 16.9821 6.07242 16.666 6.27764 16.4812Z" fill="black"/>
<path fill-rule="evenodd" clip-rule="evenodd" d="M5.25934 9.2858C5.52197 9.37113 5.6657 9.65321 5.58036 9.91584C5.13987 11.2715 5.13987 12.7319 5.58037 14.0876C5.6657 14.3502 5.52197 14.6323 5.25935 14.7176C4.99672 14.8029 4.71464 14.6592 4.62931 14.3966C4.12356 12.84 4.12356 11.1634 4.62931 9.60682C4.71464 9.34419 4.99672 9.20047 5.25934 9.2858Z" fill="black"/>
<path fill-rule="evenodd" clip-rule="evenodd" d="M10.9817 4.80614C11.0391 5.07625 10.8667 5.34176 10.5966 5.39917C9.20228 5.69554 7.93759 6.42571 6.98377 7.48504C6.799 7.69025 6.48285 7.70682 6.27764 7.52204C6.07242 7.33727 6.05585 7.02112 6.24063 6.81591C7.33575 5.59965 8.78781 4.7613 10.3887 4.42102C10.6588 4.36361 10.9243 4.53603 10.9817 4.80614Z" fill="black"/>
</svg>
