<svg width="24" height="24" viewBox="0 0 24 24" fill="none" xmlns="http://www.w3.org/2000/svg">
<path d="M11 18.3401C11 18.0959 10.8229 17.8897 10.5855 17.8323C9.44861 17.5576 8.43804 16.959 7.65691 16.1398C7.48861 15.9632 7.22183 15.9134 7.01063 16.0353L5.23815 17.0586C4.97995 17.2077 4.90796 17.549 5.09935 17.7776C5.29631 18.0129 5.50586 18.2387 5.72745 18.4541C7.13513 19.8222 8.95149 20.6925 10.8997 20.9325C10.9532 20.9391 11 20.8972 11 20.8433V18.3401Z" fill="black"/>
<path d="M18 12C18 11.4125 17.9156 10.8447 17.7582 10.3081C17.6895 10.074 17.7796 9.81783 17.9909 9.69582L19.7619 8.67338C20.0201 8.52431 20.3517 8.63262 20.4539 8.91267C20.5542 9.18732 20.6414 9.4676 20.7149 9.75267C21.2051 11.6534 21.0604 13.6624 20.3028 15.4733C20.2731 15.5444 20.1876 15.5724 20.1208 15.5339L17.9909 14.3042C17.7796 14.1822 17.6895 13.926 17.7582 13.6919C17.9156 13.1553 18 12.5875 18 12Z" fill="black"/>
<path d="M6.00907 9.69584C6.2204 9.81785 6.31053 10.074 6.24185 10.3082C6.08445 10.8447 6.00001 11.4125 6.00001 12C6.00001 12.5875 6.08445 13.1553 6.24185 13.6918C6.31053 13.926 6.2204 14.1821 6.00907 14.3042L4.23816 15.3266C3.97996 15.4757 3.64837 15.3673 3.54609 15.0873C3.3422 14.529 3.193 13.9488 3.10253 13.3546C2.87397 11.8533 3.02998 10.326 3.54608 8.91272C3.64836 8.63267 3.97995 8.52433 4.23815 8.6734L6.00907 9.69584Z" fill="black"/>
<path d="M16.9894 16.0353C16.7782 15.9134 16.5114 15.9633 16.3431 16.1398C15.562 16.959 14.5514 17.5576 13.4145 17.8323C13.1771 17.8897 13 18.0959 13 18.3401V20.3853C13 20.6834 13.2596 20.9164 13.5533 20.865C14.5911 20.6831 15.5957 20.3193 16.5188 19.7833C17.4292 19.2548 18.2336 18.5744 18.9006 17.7777C19.092 17.5491 19.02 17.2077 18.7618 17.0587L16.9894 16.0353Z" fill="black"/>
<path d="M16.3431 7.86022C16.5114 8.03673 16.7782 8.08661 16.9894 7.96467L18.7619 6.94133C19.02 6.79226 19.092 6.45094 18.9007 6.22234C18.5098 5.75555 18.0705 5.32704 17.5878 4.94474C16.4088 4.01097 15.0207 3.39215 13.5533 3.13504C13.2596 3.08358 13 3.31659 13 3.61473V5.65985C13 5.90407 13.1771 6.11032 13.4145 6.16768C14.5514 6.44244 15.562 7.04098 16.3431 7.86022Z" fill="black"/>
<path fill-rule="evenodd" clip-rule="evenodd" d="M10.9817 4.80615C11.0391 5.07626 10.8667 5.34177 10.5966 5.39918C9.2023 5.69555 7.93761 6.42572 6.98379 7.48504C6.79901 7.69026 6.48287 7.70683 6.27765 7.52205C6.07244 7.33728 6.05587 7.02113 6.24064 6.81591C7.33577 5.59965 8.78782 4.76131 10.3887 4.42103C10.6588 4.36362 10.9243 4.53604 10.9817 4.80615Z" fill="black"/>
</svg>
