<svg width="24" height="24" viewBox="0 0 24 24" fill="none" xmlns="http://www.w3.org/2000/svg">
<path d="M4 7.5C4 6.67157 4.67157 6 5.5 6H18.5C19.3284 6 20 6.67157 20 7.5V9H4V7.5Z" fill="black"/>
<path fill-rule="evenodd" clip-rule="evenodd" d="M4 10H20V16.5C20 17.3284 19.3284 18 18.5 18H5.5C4.67157 18 4 17.3284 4 16.5V10ZM7 13C7 12.7239 7.22386 12.5 7.5 12.5H11.5C11.7761 12.5 12 12.7239 12 13C12 13.2761 11.7761 13.5 11.5 13.5H7.5C7.22386 13.5 7 13.2761 7 13ZM7.5 14.5C7.22386 14.5 7 14.7239 7 15C7 15.2761 7.22386 15.5 7.5 15.5H10.5C10.7761 15.5 11 15.2761 11 15C11 14.7239 10.7761 14.5 10.5 14.5H7.5Z" fill="black"/>
</svg>
