<svg width="24" height="24" viewBox="0 0 24 24" fill="none" xmlns="http://www.w3.org/2000/svg">
<path fill-rule="evenodd" clip-rule="evenodd" d="M8.5 4C7.67157 4 7 4.67157 7 5.5V18.5C7 19.3284 7.67157 20 8.5 20H15.5C16.3284 20 17 19.3284 17 18.5V5.5C17 4.67157 16.3284 4 15.5 4H8.5ZM9.75 6C9.33579 6 9 6.33579 9 6.75V11.25C9 11.6642 9.33579 12 9.75 12H14.25C14.6642 12 15 11.6642 15 11.25V6.75C15 6.33579 14.6642 6 14.25 6H9.75ZM9 14.25C9 14.6642 9.33579 15 9.75 15H10.25C10.6642 15 11 14.6642 11 14.25C11 13.8358 10.6642 13.5 10.25 13.5H9.75C9.33579 13.5 9 13.8358 9 14.25ZM13.75 15C13.3358 15 13 14.6642 13 14.25C13 13.8358 13.3358 13.5 13.75 13.5H14.25C14.6642 13.5 15 13.8358 15 14.25C15 14.6642 14.6642 15 14.25 15H13.75Z" fill="black"/>
</svg>
