<svg width="24" height="24" viewBox="0 0 24 24" fill="none" xmlns="http://www.w3.org/2000/svg">
<path fill-rule="evenodd" clip-rule="evenodd" d="M9 9C9.13783 9 9.26977 9.05687 9.36426 9.15723L9.36523 9.1582L9.36719 9.16113C9.369 9.16307 9.37182 9.16553 9.375 9.16895C9.38157 9.17601 9.39119 9.18603 9.40332 9.19922C9.42765 9.22567 9.4623 9.26478 9.50684 9.31445C9.59588 9.41378 9.72332 9.55735 9.87598 9.73828C10.1809 10.0997 10.5915 10.611 11.0137 11.21C11.8439 12.3877 12.7752 13.9822 12.9639 15.4697C12.9718 15.5299 12.9776 15.5884 12.9824 15.6426L12.9902 15.7432C12.995 15.819 13 15.9079 13 16C13 18.2091 11.2091 20 9 20C6.79086 20 5 18.2091 5 16C5 15.911 5.00364 15.8245 5.00879 15.7432C5.01099 15.709 5.01373 15.6752 5.0166 15.6426L5.03613 15.4697C5.22439 13.9858 6.15076 12.3954 6.97949 11.2188C7.82052 10.0247 8.61937 9.17462 8.63574 9.15723L8.71289 9.09082C8.79635 9.03226 8.89643 9.00001 9 9ZM7.5 15.5C7.22386 15.5 7 15.7239 7 16C7 16.2626 7.05183 16.523 7.15234 16.7656C7.25285 17.0082 7.40029 17.2284 7.58594 17.4141C7.77159 17.5997 7.99183 17.7471 8.23438 17.8477C8.47703 17.9482 8.73736 18 9 18C9.27614 18 9.5 17.7761 9.5 17.5C9.5 17.2239 9.27614 17 9 17C8.86868 17 8.73851 16.9741 8.61719 16.9238C8.49591 16.8736 8.38579 16.7999 8.29297 16.707C8.20014 16.6142 8.12643 16.5041 8.07617 16.3828C8.02592 16.2615 8 16.1313 8 16C8 15.7239 7.77614 15.5 7.5 15.5Z" fill="black"/>
<path d="M15.5 6C15.6487 6 15.7898 6.06621 15.8848 6.18066L15.8857 6.18164L15.8867 6.18359C15.8867 6.18359 15.8896 6.18705 15.8916 6.18945C15.8956 6.19429 15.9011 6.20119 15.9082 6.20996C15.9226 6.22772 15.9436 6.25325 15.9697 6.28613C16.0223 6.35229 16.097 6.44826 16.1865 6.56738C16.3654 6.80537 16.606 7.14039 16.8525 7.52734C17.3306 8.27755 17.8868 9.3071 17.9834 10.2246L17.9873 10.2617C17.9936 10.3302 18 10.4137 18 10.5C18 11.8807 16.8807 13 15.5 13C14.1193 13 13 11.8807 13 10.5C13 10.4176 13.0049 10.3375 13.0117 10.2627C13.0126 10.2534 13.0141 10.2386 13.0156 10.2246C13.1119 9.30966 13.6655 8.28346 14.1426 7.53418C14.6333 6.76349 15.1033 6.19502 15.1152 6.18066L15.1943 6.10449C15.2811 6.03745 15.3883 6 15.5 6Z" fill="black"/>
</svg>
