<svg width="24" height="24" viewBox="0 0 24 24" fill="none" xmlns="http://www.w3.org/2000/svg">
<path d="M18.7502 11.9999C18.7502 10.514 18.2603 9.06941 17.3557 7.89056C16.4512 6.71176 15.1825 5.865 13.7473 5.4804C12.3121 5.09584 10.79 5.19503 9.41723 5.76361C8.04443 6.33224 6.89748 7.3381 6.15453 8.62494C5.41162 9.91171 5.11396 11.4077 5.30785 12.8808C5.5018 14.354 6.1761 15.7227 7.2268 16.7734C8.27749 17.8241 9.64618 18.4984 11.1194 18.6923C12.5925 18.8862 14.0885 18.5886 15.3752 17.8456C15.7339 17.6386 16.1925 17.7614 16.3996 18.1201C16.6067 18.4787 16.4839 18.9373 16.1252 19.1445C14.5524 20.0525 12.7237 20.4167 10.9231 20.1796C9.12262 19.9425 7.45037 19.118 6.16625 17.8339C4.88213 16.5498 4.05764 14.8776 3.82055 13.0771C3.5835 11.2765 3.94765 9.44773 4.8557 7.87494C5.76375 6.30219 7.16519 5.07285 8.84301 4.37787C10.5209 3.68287 12.3818 3.56114 14.136 4.03119C15.8899 4.50127 17.4397 5.53691 18.5452 6.97747C19.6507 8.41829 20.2502 10.1838 20.2502 11.9999C20.2502 12.4141 19.9144 12.7499 19.5002 12.7499C19.086 12.7499 18.7502 12.4141 18.7502 11.9999Z" fill="black"/>
<path d="M15.75 13C15.75 13.3978 15.9081 13.7792 16.1895 14.0605C16.4708 14.3419 16.8522 14.5 17.25 14.5C17.6478 14.5 18.0292 14.3419 18.3105 14.0605C18.5919 13.7792 18.75 13.3978 18.75 13H20.25C20.25 13.7956 19.9337 14.5585 19.3711 15.1211C18.8085 15.6837 18.0456 16 17.25 16C16.4544 16 15.6915 15.6837 15.1289 15.1211C14.5663 14.5585 14.25 13.7956 14.25 13H15.75Z" fill="black"/>
<path d="M14.25 12C14.25 10.7574 13.2426 9.75 12 9.75C10.7574 9.75 9.75 10.7574 9.75 12C9.75 13.2426 10.7574 14.25 12 14.25C13.2426 14.25 14.25 13.2426 14.25 12ZM15.75 12C15.75 14.0711 14.0711 15.75 12 15.75C9.92893 15.75 8.25 14.0711 8.25 12C8.25 9.92893 9.92893 8.25 12 8.25C14.0711 8.25 15.75 9.92893 15.75 12Z" fill="black"/>
<path d="M20.25 11.25V13H18.75V11.25H20.25Z" fill="black"/>
<path d="M14.25 14V9C14.25 8.58579 14.5858 8.25 15 8.25C15.4142 8.25 15.75 8.58579 15.75 9V14C15.75 14.4142 15.4142 14.75 15 14.75C14.5858 14.75 14.25 14.4142 14.25 14Z" fill="black"/>
</svg>
