<svg width="30" height="30" viewBox="0 0 30 30" fill="none" xmlns="http://www.w3.org/2000/svg">
<path d="M6.49993 23.5H22.9999V13.5" stroke="black" stroke-linecap="round" stroke-linejoin="round"/>
<path d="M6.49993 16.5V6.5H22.9999" stroke="black" stroke-linecap="round" stroke-linejoin="round"/>
<path d="M21.4999 4.50006L23.5 6.50004L21.4999 8.50006" stroke="black" stroke-linecap="round" stroke-linejoin="round"/>
<path d="M8.49993 25.5L6.49991 23.5L8.49993 21.5" stroke="black" stroke-linecap="round" stroke-linejoin="round"/>
<path fill-rule="evenodd" clip-rule="evenodd" d="M14.9999 21C18.3136 21 20.9999 18.3137 20.9999 15C20.9999 11.6863 18.3136 9 14.9999 9C11.6862 9 8.99993 11.6863 8.99993 15C8.99993 18.3137 11.6862 21 14.9999 21ZM15.2882 18.716V19.5H14.7116V18.716C13.33 18.6246 12.4863 17.8512 12.4054 16.7438H13.3054C13.3687 17.468 13.9734 17.8477 14.7116 17.925V15.2637L14.4304 15.1828C13.3054 14.8594 12.6023 14.2828 12.6023 13.3125C12.6023 12.2086 13.5058 11.4422 14.7116 11.3191V10.5H15.2882V11.3086C16.5609 11.393 17.4609 12.1734 17.496 13.2H16.6523C16.5749 12.5602 16.0335 12.1594 15.2882 12.0855V14.5852L15.5695 14.6625C16.3148 14.8594 17.5945 15.2953 17.5945 16.6453C17.5945 17.7422 16.7648 18.6141 15.2882 18.716ZM15.2882 15.4289V17.925C16.139 17.8301 16.7507 17.3379 16.7507 16.6312C16.7507 15.9141 16.0757 15.6469 15.3163 15.4359L15.2882 15.4289ZM13.446 13.2703C13.446 13.984 14.1773 14.2793 14.7116 14.4305V12.0961C13.9382 12.198 13.446 12.6621 13.446 13.2703Z" fill="black"/>
</svg>
