<svg width="24" height="24" viewBox="0 0 24 24" fill="none" xmlns="http://www.w3.org/2000/svg">
<path fill-rule="evenodd" clip-rule="evenodd" d="M19.0129 10.1509C18.8845 10.2793 18.8335 10.465 18.8685 10.6432C18.9547 11.0821 18.9999 11.5358 18.9999 12C18.9999 15.866 15.8659 19 11.9999 19C9.95372 19 8.11256 18.122 6.83263 16.7222C6.63125 16.502 6.28386 16.4791 6.07284 16.6902V16.6902C5.89386 16.8691 5.87712 17.1553 6.04624 17.3437C7.5108 18.9743 9.63559 20 11.9999 20C16.4182 20 19.9999 16.4183 19.9999 12C19.9999 11.4423 19.9429 10.898 19.8343 10.3725C19.7553 9.99033 19.2888 9.87496 19.0129 10.1509V10.1509ZM17.7886 7.16112C17.9713 6.97839 17.9847 6.6849 17.8069 6.49735C16.349 4.95928 14.2865 4 11.9999 4C7.58166 4 3.99994 7.58172 3.99994 12C3.99994 12.6014 4.0663 13.1873 4.1921 13.7508C4.27628 14.1279 4.73817 14.2384 5.01135 13.9653V13.9653C5.14172 13.8349 5.19196 13.6456 5.15355 13.4653C5.0529 12.9928 4.99994 12.5026 4.99994 12C4.99994 8.13401 8.13395 5 11.9999 5C13.9781 5 15.7647 5.82058 17.0378 7.13992C17.2414 7.35092 17.5813 7.36845 17.7886 7.16112V7.16112Z" fill="black"/>
<path d="M18.1249 5.5V7.5H16.1249" stroke="black" stroke-linecap="round" stroke-linejoin="round"/>
<path d="M7.87494 16.5L5.87494 16.5V18.5" stroke="black" stroke-linecap="round" stroke-linejoin="round"/>
<path fill-rule="evenodd" clip-rule="evenodd" d="M12 17C14.7614 17 17 14.7614 17 12C17 9.23858 14.7614 7 12 7C9.23858 7 7 9.23858 7 12C7 14.7614 9.23858 17 12 17ZM12.2242 15.5H11.7758V14.8902C10.7012 14.8191 10.0449 14.2176 9.98203 13.3563H10.682C10.7312 13.9195 11.2016 14.2148 11.7758 14.275V12.2051L11.557 12.1422C10.682 11.8906 10.1352 11.4422 10.1352 10.6875C10.1352 9.82891 10.8379 9.23281 11.7758 9.13711V8.5H12.2242V9.12891C13.2141 9.19453 13.9141 9.80156 13.9414 10.6H13.2852C13.225 10.1023 12.8039 9.79063 12.2242 9.7332V11.6773L12.443 11.7375C13.0227 11.8906 14.018 12.2297 14.018 13.2797C14.018 14.1328 13.3727 14.8109 12.2242 14.8902V15.5ZM12.2242 12.3336V14.275C12.8859 14.2012 13.3617 13.8184 13.3617 13.2688C13.3617 12.7109 12.8367 12.5031 12.2461 12.3391L12.2242 12.3336ZM10.7914 10.6547C10.7914 11.2098 11.3602 11.4395 11.7758 11.557V9.74141C11.1742 9.8207 10.7914 10.1816 10.7914 10.6547Z" fill="black"/>
</svg>
