<svg width="24" height="24" viewBox="0 0 24 24" fill="none" xmlns="http://www.w3.org/2000/svg">
<path fill-rule="evenodd" clip-rule="evenodd" d="M11.3705 10.384C10.7848 10.9698 10.7848 11.9195 11.3705 12.5053L11.4373 12.5721C12.0231 13.1579 12.9728 13.1579 13.5586 12.5721L16.6736 9.45707C16.8178 9.31284 16.9266 9.14656 16.9998 8.96907C16.9999 8.97936 17 8.98967 17 9V17C17 18.1046 16.1046 19 15 19H7C5.89543 19 5 18.1046 5 17V9C5 7.89543 5.89543 7 7 7H14.8511C14.7195 7.06882 14.5961 7.15848 14.4856 7.269L11.3705 10.384Z" fill="black"/>
<path d="M12.5 11.5L18.864 5.13604" stroke="black" stroke-linecap="round" stroke-linejoin="round"/>
<path d="M14.5 4.5H19.5V9.5" stroke="black" stroke-linecap="round" stroke-linejoin="round"/>
</svg>
