<svg width="30" height="30" viewBox="0 0 30 30" fill="none" xmlns="http://www.w3.org/2000/svg">
<path d="M17.151 10C17.3737 10 17.4852 10.2693 17.3277 10.4268L13.3622 14.3923C13.2645 14.49 13.2645 14.6483 13.3622 14.7459L15.1967 16.5804C15.2943 16.678 15.4526 16.678 15.5502 16.5804L19.5732 12.5574C19.7307 12.3999 20 12.5115 20 12.7342V20C20 21.1046 19.1046 22 18 22H10C8.89543 22 8 21.1046 8 20V12C8 10.8954 8.89543 10 10 10H17.151Z" fill="black"/>
<path d="M22.5 8C22.5 7.72386 22.2761 7.5 22 7.5L17.5 7.5C17.2239 7.5 17 7.72386 17 8C17 8.27614 17.2239 8.5 17.5 8.5H21.5V12.5C21.5 12.7761 21.7239 13 22 13C22.2761 13 22.5 12.7761 22.5 12.5V8ZM15.3536 15.3536L22.3536 8.35355L21.6464 7.64645L14.6464 14.6464L15.3536 15.3536Z" fill="black"/>
</svg>
