<svg width="24" height="24" viewBox="0 0 24 24" fill="none" xmlns="http://www.w3.org/2000/svg">
<path d="M8 7H14.5C15.8807 7 17 8.11929 17 9.5V12.5C17 12.7761 16.7761 13 16.5 13H14.5C14.2239 13 14 12.7761 14 12.5V10.5C14 10.2239 13.7761 10 13.5 10H8V12.5C8 12.7761 7.77614 13 7.5 13H5.5C5.22386 13 5 12.7761 5 12.5V6.5C5 6.22386 5.22386 6 5.5 6H7.5C7.77614 6 8 6.22386 8 6.5V7Z" fill="black"/>
<path d="M15.1494 14.6585C15.3336 14.4332 15.6664 14.4332 15.8506 14.6585C16.3893 15.318 17.3701 16.6573 17.4873 17.7845C17.4949 17.8554 17.5 17.9275 17.5 18.0003C17.4999 19.1048 16.6045 20.0003 15.5 20.0003C14.3955 20.0003 13.5001 19.1048 13.5 18.0003C13.5 17.9275 13.5041 17.8553 13.5117 17.7845C13.629 16.6572 14.6107 15.318 15.1494 14.6585Z" fill="black"/>
</svg>
