<svg width="24" height="24" viewBox="0 0 24 24" fill="none" xmlns="http://www.w3.org/2000/svg">
<path d="M16.7503 12C16.7503 11.3764 16.6276 10.7588 16.389 10.1826C16.1503 9.60633 15.7998 9.08268 15.3587 8.6416C14.9176 8.20052 14.394 7.85004 13.8177 7.61133C13.2415 7.37272 12.6239 7.25001 12.0003 7.25C11.3767 7.25 10.7591 7.37274 10.1829 7.61133C9.60665 7.85003 9.08299 8.20054 8.64191 8.6416C8.62561 8.6579 8.60789 8.67277 8.59016 8.6875H8.59113L8.59016 8.68848C8.58903 8.68942 8.58627 8.69087 8.58332 8.69336C8.57738 8.69838 8.5679 8.70669 8.555 8.71777C8.52898 8.74013 8.48904 8.77461 8.43781 8.82031C8.33533 8.91173 8.18699 9.04845 8.00715 9.22363C7.64642 9.57504 7.16485 10.0788 6.68195 10.6865C5.69501 11.9285 4.79495 13.4898 4.75031 15.0215C4.73828 15.4354 4.39273 15.7619 3.97883 15.75C3.5649 15.738 3.23845 15.3924 3.25031 14.9785C3.30933 12.9481 4.46466 11.0648 5.50715 9.75293C6.03901 9.08363 6.5664 8.53311 6.96027 8.14941C7.15763 7.95715 7.32273 7.80557 7.43977 7.70117C7.49826 7.649 7.54476 7.60818 7.57746 7.58008L7.61555 7.54785C8.18878 6.9833 8.86512 6.53359 9.60871 6.22559C10.3669 5.91156 11.1796 5.75 12.0003 5.75C12.821 5.75001 13.6337 5.91154 14.3919 6.22559C15.1502 6.53968 15.8389 7.00069 16.4193 7.58105C16.9996 8.16142 17.4606 8.85012 17.7747 9.6084C18.0888 10.3666 18.2503 11.1793 18.2503 12C18.2503 12.8207 18.0888 13.6334 17.7747 14.3916C17.4606 15.1499 16.9996 15.8386 16.4193 16.4189C16.1264 16.7118 15.6516 16.7118 15.3587 16.4189C15.0662 16.126 15.0659 15.6512 15.3587 15.3584C15.7998 14.9173 16.1503 14.3937 16.389 13.8174C16.6276 13.2412 16.7503 12.6236 16.7503 12Z" fill="black"/>
<path d="M11.4697 11.4697C11.7626 11.1768 12.2374 11.1768 12.5303 11.4697C12.8049 11.7443 12.8223 12.179 12.582 12.4736L12.5303 12.5302L12.5293 12.5322C12.5283 12.5331 12.5264 12.5341 12.5244 12.5361L10.5303 14.5302C9.95275 15.1077 9.625 16.0238 9.625 16.9999C9.625 17.9761 9.95276 18.8921 10.5303 19.4697C10.8232 19.7626 10.8232 20.2373 10.5303 20.5302C10.2374 20.8231 9.76262 20.8231 9.46973 20.5302C8.54726 19.6077 8.125 18.2738 8.125 16.9999C8.125 15.7261 8.54724 14.3922 9.46973 13.4697L11.4639 11.4755C11.4658 11.4736 11.4668 11.4716 11.4678 11.4706L11.4697 11.4697Z" fill="black"/>
<path d="M5.46965 5.46969C9.10735 1.83209 14.9832 1.92278 18.5302 5.46969C22.0794 9.01891 22.1264 14.9341 18.5302 18.5302C17.6873 19.3731 16.6887 19.7176 15.7167 19.6572C14.7634 19.598 13.8878 19.1539 13.2411 18.5146C12.5945 17.8753 12.1405 17.0049 12.079 16.0488C12.0163 15.0734 12.3673 14.0721 13.2197 13.2197C13.7812 12.6581 13.9684 12.1176 13.9648 11.6679C13.961 11.211 13.7592 10.7512 13.3671 10.3584C13.069 10.0597 12.5727 9.89255 11.9931 9.92673C11.4148 9.96092 10.8696 10.1909 10.5302 10.5302L8.5302 12.5302C8.29138 12.7691 7.78111 13.5895 7.42278 14.7295C7.07122 15.848 6.91083 17.1389 7.22454 18.3047C7.33218 18.7045 7.09505 19.1168 6.69524 19.2246C6.29532 19.3322 5.88306 19.0951 5.77532 18.6953C5.3611 17.1564 5.59117 15.556 5.99211 14.2802C6.38636 13.0259 6.99076 11.9486 7.46965 11.4697C8.1873 10.752 7.46969 11.4697 9.46965 9.46969C10.1113 8.82802 11.025 8.48157 11.9052 8.42966C12.7843 8.37782 13.7468 8.61579 14.4286 9.2988C15.0538 9.92514 15.4574 10.7468 15.4648 11.6562C15.4722 12.5731 15.0763 13.4841 14.2802 14.2802C13.7163 14.8442 13.5426 15.4302 13.5761 15.9521C13.6109 16.4933 13.8739 17.0311 14.2958 17.4482C14.7178 17.8653 15.2623 18.1261 15.8095 18.1601C16.3379 18.193 16.9206 18.0187 17.4697 17.4697C20.4752 14.4641 20.4379 9.49851 17.4697 6.53024C14.4991 3.55975 9.57279 3.48774 6.5302 6.53024C6.2373 6.82313 5.76254 6.82314 5.46965 6.53024C5.1768 6.23734 5.17677 5.76257 5.46965 5.46969Z" fill="black"/>
</svg>
