<svg width="24" height="24" viewBox="0 0 24 24" fill="none" xmlns="http://www.w3.org/2000/svg">
<path d="M10 18.9997H7.5C6.67157 18.9997 6 18.3282 6 17.4997V13.9997H10V18.9997Z" fill="black"/>
<path d="M18 17.4997C18 18.3282 17.3284 18.9997 16.5 18.9997H11V13.9997H18V17.4997Z" fill="black"/>
<path fill-rule="evenodd" clip-rule="evenodd" d="M13.3564 6.46066C14.3243 5.93814 15.6075 5.83075 16.4258 6.60617C16.8363 6.99521 16.9825 7.45691 16.9102 7.91867C16.8438 8.34167 16.603 8.70803 16.3682 8.98313C16.3633 8.98887 16.3575 8.99402 16.3525 8.99973H16.5C17.3283 8.99973 17.9998 9.67148 18 10.4997V12.9997H11V8.99973H11.375C11.2159 8.24863 10.7085 7.67104 10.0967 7.34055C9.32193 6.92211 8.56341 6.97758 8.18945 7.33176C8.00401 7.50753 7.98729 7.64587 8.00586 7.76438C8.03067 7.92169 8.13585 8.11762 8.32031 8.33371C8.49853 8.54245 8.71529 8.72866 8.89453 8.86594C8.96587 8.92055 9.03021 8.96525 9.08008 8.99973H10V12.9997H6V10.4997C6.00021 9.67148 6.67171 8.99973 7.5 8.99973H7.5752C7.57024 8.99399 7.5645 8.9889 7.55957 8.98313C7.32474 8.70802 7.08394 8.34171 7.01758 7.91867C6.94527 7.4569 7.09146 6.99522 7.50195 6.60617C8.32028 5.83087 9.60353 5.93814 10.5713 6.46066C11.1178 6.75587 11.6197 7.20907 11.9639 7.79172C12.308 7.20907 12.8099 6.75585 13.3564 6.46066ZM15.7383 7.33176C15.3644 6.97748 14.6059 6.9221 13.8311 7.34055C13.2192 7.67102 12.7119 8.2486 12.5527 8.99973H14.8477C14.8975 8.96525 14.9619 8.92053 15.0332 8.86594C15.2124 8.72866 15.4292 8.54245 15.6074 8.33371C15.7918 8.11764 15.8971 7.92167 15.9219 7.76438C15.9404 7.64588 15.9237 7.50752 15.7383 7.33176Z" fill="black"/>
</svg>
