<svg width="30" height="30" viewBox="0 0 30 30" fill="none" xmlns="http://www.w3.org/2000/svg">
<path d="M7 12.7217V7.8C7 7.35817 7.35817 7 7.8 7H12.7217C13.1636 7 13.5217 7.35817 13.5217 7.8V12.7217C13.5217 13.1636 13.1636 13.5217 12.7217 13.5217H7.8C7.35817 13.5217 7 13.1636 7 12.7217Z" fill="black"/>
<path d="M15.4784 12.7217V7.8C15.4784 7.35817 15.8366 7 16.2784 7H21.2001C21.642 7 22.0001 7.35817 22.0001 7.8V12.7217C22.0001 13.1636 21.642 13.5217 21.2001 13.5217H16.2784C15.8366 13.5217 15.4784 13.1636 15.4784 12.7217Z" fill="black"/>
<path d="M15.4784 21.2V16.2783C15.4784 15.8364 15.8366 15.4783 16.2784 15.4783H21.2001C21.642 15.4783 22.0001 15.8364 22.0001 16.2783V21.2C22.0001 21.6418 21.642 22 21.2001 22H16.2784C15.8366 22 15.4784 21.6418 15.4784 21.2Z" fill="black"/>
<path d="M7 21.2V16.2783C7 15.8364 7.35817 15.4783 7.8 15.4783H12.7217C13.1636 15.4783 13.5217 15.8364 13.5217 16.2783V21.2C13.5217 21.6418 13.1636 22 12.7217 22H7.8C7.35817 22 7 21.6418 7 21.2Z" fill="black"/>
</svg>
