<svg width="24" height="24" viewBox="0 0 24 24" fill="none" xmlns="http://www.w3.org/2000/svg">
<path d="M11.5 8.75C11.9142 8.75 12.25 9.08579 12.25 9.5C12.25 9.91421 11.9142 10.25 11.5 10.25H4.5C4.08579 10.25 3.75 9.91421 3.75 9.5C3.75 9.08579 4.08579 8.75 4.5 8.75H11.5Z" fill="black"/>
<path d="M11.5 5.75C11.9142 5.75 12.25 6.08579 12.25 6.5C12.25 6.91421 11.9142 7.25 11.5 7.25H4.5C4.08579 7.25 3.75 6.91421 3.75 6.5C3.75 6.08579 4.08579 5.75 4.5 5.75H11.5Z" fill="black"/>
<path d="M8.75 11.5V4.5C8.75 4.08579 9.08579 3.75 9.5 3.75C9.91421 3.75 10.25 4.08579 10.25 4.5V11.5C10.25 11.9142 9.91421 12.25 9.5 12.25C9.08579 12.25 8.75 11.9142 8.75 11.5Z" fill="black"/>
<path d="M5.75 11.5V4.5C5.75 4.08579 6.08579 3.75 6.5 3.75C6.91421 3.75 7.25 4.08579 7.25 4.5V11.5C7.25 11.9142 6.91421 12.25 6.5 12.25C6.08579 12.25 5.75 11.9142 5.75 11.5Z" fill="black"/>
<path d="M20.5 11.75C20.9142 11.75 21.25 12.0858 21.25 12.5C21.25 12.9142 20.9142 13.25 20.5 13.25H13.5C13.0858 13.25 12.75 12.9142 12.75 12.5C12.75 12.0858 13.0858 11.75 13.5 11.75H20.5Z" fill="black"/>
<path d="M20.5 8.75C20.9142 8.75 21.25 9.08579 21.25 9.5C21.25 9.91421 20.9142 10.25 20.5 10.25H13.5C13.0858 10.25 12.75 9.91421 12.75 9.5C12.75 9.08579 13.0858 8.75 13.5 8.75H20.5Z" fill="black"/>
<path d="M17.75 14.5V7.5C17.75 7.08579 18.0858 6.75 18.5 6.75C18.9142 6.75 19.25 7.08579 19.25 7.5V14.5C19.25 14.9142 18.9142 15.25 18.5 15.25C18.0858 15.25 17.75 14.9142 17.75 14.5Z" fill="black"/>
<path d="M14.75 14.5V7.5C14.75 7.08579 15.0858 6.75 15.5 6.75C15.9142 6.75 16.25 7.08579 16.25 7.5V14.5C16.25 14.9142 15.9142 15.25 15.5 15.25C15.0858 15.25 14.75 14.9142 14.75 14.5Z" fill="black"/>
<path d="M13.5 17.75C13.9142 17.75 14.25 18.0858 14.25 18.5C14.25 18.9142 13.9142 19.25 13.5 19.25H6.5C6.08579 19.25 5.75 18.9142 5.75 18.5C5.75 18.0858 6.08579 17.75 6.5 17.75H13.5Z" fill="black"/>
<path d="M13.5 14.75C13.9142 14.75 14.25 15.0858 14.25 15.5C14.25 15.9142 13.9142 16.25 13.5 16.25H6.5C6.08579 16.25 5.75 15.9142 5.75 15.5C5.75 15.0858 6.08579 14.75 6.5 14.75H13.5Z" fill="black"/>
<path d="M10.75 20.5V13.5C10.75 13.0858 11.0858 12.75 11.5 12.75C11.9142 12.75 12.25 13.0858 12.25 13.5V20.5C12.25 20.9142 11.9142 21.25 11.5 21.25C11.0858 21.25 10.75 20.9142 10.75 20.5Z" fill="black"/>
<path d="M7.75 20.5V13.5C7.75 13.0858 8.08579 12.75 8.5 12.75C8.91421 12.75 9.25 13.0858 9.25 13.5V20.5C9.25 20.9142 8.91421 21.25 8.5 21.25C8.08579 21.25 7.75 20.9142 7.75 20.5Z" fill="black"/>
</svg>
