<svg width="24" height="24" viewBox="0 0 24 24" fill="none" xmlns="http://www.w3.org/2000/svg">
<path d="M14.1455 5C15.1677 5 16.0871 5.62232 16.4668 6.57129L17.8379 10H19.5C19.7761 10 20 10.2239 20 10.5C20 10.7761 19.7761 11 19.5 11H4.5C4.22386 11 4 10.7761 4 10.5C4 10.2239 4.22386 10 4.5 10H6.16211L7.5332 6.57129C7.91294 5.62232 8.83234 5 9.85449 5H14.1455Z" fill="black"/>
<path d="M16 13C17.6569 13 19 14.3431 19 16C19 17.6569 17.6569 19 16 19C14.3431 19 13 17.6569 13 16C13 15.792 13.0202 15.5887 13.0605 15.3926C12.3645 15.2128 11.6345 15.2127 10.9385 15.3926C10.9788 15.5887 11 15.7919 11 16C11 17.6569 9.65685 19 8 19C6.34315 19 5 17.6569 5 16C5 14.3431 6.34315 13 8 13C9.0909 13 10.0423 13.5844 10.5674 14.4551C11.5034 14.1893 12.4956 14.1894 13.4316 14.4551C13.9567 13.5841 14.9089 13 16 13Z" fill="black"/>
</svg>
