<svg width="24" height="24" viewBox="0 0 24 24" fill="none" xmlns="http://www.w3.org/2000/svg">
<path fill-rule="evenodd" clip-rule="evenodd" d="M7.5 4C6.67157 4 6 4.67157 6 5.5V18.5C6 19.3284 6.67157 20 7.5 20H16.5C17.3284 20 18 19.3284 18 18.5V5.5C18 4.67157 17.3284 4 16.5 4H7.5ZM14.3536 8.35355C14.5488 8.15829 14.5488 7.84171 14.3536 7.64645C14.1583 7.45118 13.8417 7.45118 13.6464 7.64645L9.64645 11.6464C9.45118 11.8417 9.45118 12.1583 9.64645 12.3536C9.84171 12.5488 10.1583 12.5488 10.3536 12.3536L14.3536 8.35355ZM11.5 8.5C11.5 9.05228 11.0523 9.5 10.5 9.5C9.94772 9.5 9.5 9.05228 9.5 8.5C9.5 7.94772 9.94772 7.5 10.5 7.5C11.0523 7.5 11.5 7.94772 11.5 8.5ZM13.5 12.5C14.0523 12.5 14.5 12.0523 14.5 11.5C14.5 10.9477 14.0523 10.5 13.5 10.5C12.9477 10.5 12.5 10.9477 12.5 11.5C12.5 12.0523 12.9477 12.5 13.5 12.5ZM8.5 15C8.5 14.7239 8.72386 14.5 9 14.5H15C15.2761 14.5 15.5 14.7239 15.5 15C15.5 15.2761 15.2761 15.5 15 15.5H9C8.72386 15.5 8.5 15.2761 8.5 15ZM9 16.5C8.72386 16.5 8.5 16.7239 8.5 17C8.5 17.2761 8.72386 17.5 9 17.5H15C15.2761 17.5 15.5 17.2761 15.5 17C15.5 16.7239 15.2761 16.5 15 16.5H9Z" fill="black"/>
</svg>
