<svg width="24" height="24" viewBox="0 0 24 24" fill="none" xmlns="http://www.w3.org/2000/svg">
<path d="M12.6035 10.3213C13.6711 10.3214 14.0816 10.8838 14.1084 11.2021C14.1213 11.3566 14.0651 11.5303 13.8643 11.6846C13.652 11.8476 13.2573 12 12.6035 12H10.5V10.3135H12.5234C12.5496 10.3177 12.5762 10.3213 12.6035 10.3213Z" fill="black"/>
<path d="M12.6035 8C13.4761 8.00006 13.7209 8.45142 13.7275 8.67578C13.7311 8.80206 13.6789 8.94587 13.5254 9.07031C13.3895 9.1804 13.1564 9.28584 12.792 9.31348H10.5V8H12.6035Z" fill="black"/>
<path fill-rule="evenodd" clip-rule="evenodd" d="M17 4C17.5523 4 18 4.44772 18 5V19C18 19.5523 17.5523 20 17 20H7C6.44772 20 6 19.5523 6 19V5C6 4.44772 6.44772 4 7 4H17ZM10 15C9.76583 15 9.58939 15.1168 9.48145 15.2129C9.37033 15.3118 9.28016 15.4339 9.20898 15.5479C9.06555 15.7775 8.94241 16.0639 8.84473 16.3242C8.74511 16.5897 8.66327 16.8524 8.60645 17.0469C8.57794 17.1444 8.55552 17.2265 8.54004 17.2842C8.53229 17.313 8.52562 17.3366 8.52148 17.3525C8.51946 17.3604 8.51771 17.3667 8.5166 17.3711C8.51609 17.3731 8.51593 17.3748 8.51562 17.376V17.3779L8.51465 17.3789C8.44785 17.6466 8.61121 17.9183 8.87891 17.9854C9.11306 18.0438 9.34961 17.9262 9.4502 17.7168L9.48535 17.6211C9.48552 17.6204 9.48593 17.6188 9.48633 17.6172L9.50586 17.5439C9.51972 17.4923 9.54023 17.4177 9.56641 17.3281C9.61912 17.1477 9.69331 16.9101 9.78125 16.6758C9.85608 16.4764 9.93507 16.2952 10.0117 16.1562C10.1092 16.3068 10.2151 16.5037 10.332 16.7295C10.4559 16.9687 10.5957 17.2466 10.7344 17.46C10.8036 17.5665 10.8884 17.6828 10.9883 17.7773C11.0779 17.8622 11.2537 18 11.5 18C11.8257 18 12.0402 17.8043 12.1572 17.6631C12.2713 17.5253 12.364 17.3523 12.4248 17.2422C12.4533 17.1905 12.4777 17.1472 12.499 17.1113C12.52 17.147 12.5441 17.1899 12.5723 17.2412C12.6329 17.3516 12.7258 17.5246 12.8408 17.6631C12.9596 17.806 13.1745 18 13.5 18C13.7555 18 14.0071 17.8711 14.1699 17.7764C14.3587 17.6665 14.5524 17.5258 14.7207 17.3945C14.8911 17.2616 15.0459 17.1292 15.1572 17.0312C15.213 16.9821 15.2591 16.9412 15.291 16.9121C15.3069 16.8976 15.3194 16.886 15.3281 16.8779L15.3408 16.8652C15.542 16.6761 15.5534 16.3584 15.3643 16.1572C15.1751 15.9562 14.8584 15.9467 14.6572 16.1357L14.6484 16.1445C14.6414 16.151 14.6302 16.1611 14.6162 16.1738C14.5882 16.1994 14.5477 16.2367 14.4971 16.2812C14.3954 16.3707 14.2564 16.4885 14.1064 16.6055C13.9545 16.724 13.8002 16.8336 13.667 16.9111C13.6271 16.9343 13.5925 16.9483 13.5664 16.9609C13.5362 16.9137 13.4993 16.8499 13.4492 16.7588C13.3862 16.6441 13.2917 16.4695 13.1689 16.3281C13.0398 16.1795 12.8202 16 12.5 16C12.1805 16 11.9615 16.1791 11.832 16.3271C11.7087 16.4683 11.6134 16.6426 11.5498 16.7578C11.5382 16.7788 11.5258 16.7981 11.5156 16.8164C11.4273 16.6673 11.3293 16.4822 11.2197 16.2705C11.0935 16.0267 10.9471 15.7463 10.7949 15.5273C10.7188 15.4178 10.6257 15.2997 10.5146 15.2051C10.408 15.1142 10.2319 15 10 15ZM12 5.5C11.7239 5.5 11.5 5.72386 11.5 6V7H9.5V13H11.5V14C11.5 14.2761 11.7239 14.5 12 14.5C12.2761 14.5 12.5 14.2761 12.5 14V13H12.6035C13.3972 13 14.0321 12.8167 14.4736 12.4775C14.9264 12.1296 15.1485 11.6341 15.1055 11.1191C15.0596 10.5712 14.7382 10.0954 14.2383 9.77051C14.5659 9.46658 14.7387 9.06529 14.7266 8.64648C14.6991 7.71019 13.8275 7.00007 12.6035 7H12.5V6C12.5 5.72386 12.2761 5.5 12 5.5Z" fill="black"/>
</svg>
