<svg width="24" height="24" viewBox="0 0 24 24" fill="none" xmlns="http://www.w3.org/2000/svg">
<path fill-rule="evenodd" clip-rule="evenodd" d="M18.8646 7.37395C19.6046 10.3419 17.7022 13.3718 14.6156 14.1414C14.2291 14.2377 13.8425 14.2941 13.4602 14.3131L10.025 19.7843C9.7502 20.222 9.31657 20.5363 8.81507 20.6614L6.84105 21.1536C6.30517 21.2872 5.76244 20.9611 5.62883 20.4252L5.18349 18.639C5.05188 18.1112 5.14099 17.5525 5.43027 17.0917L8.5872 12.0637C8.17419 11.5092 7.8633 10.8688 7.6868 10.1609C6.94681 7.19294 8.84916 4.16306 11.9358 3.39347C15.0225 2.62388 18.1246 4.406 18.8646 7.37395ZM14.2375 8.69808C14.9234 8.52706 15.3462 7.85376 15.1817 7.19421C15.0173 6.53467 14.3279 6.13864 13.642 6.30966C12.9561 6.48068 12.5333 7.15399 12.6978 7.81353C12.8622 8.47308 13.5516 8.8691 14.2375 8.69808Z" fill="black"/>
</svg>
