<svg width="30" height="30" viewBox="0 0 30 30" fill="none" xmlns="http://www.w3.org/2000/svg">
<path fill-rule="evenodd" clip-rule="evenodd" d="M22.9423 12.5385C22.9423 15.5973 20.4626 18.0769 17.4038 18.0769C17.0209 18.0769 16.647 18.0381 16.2859 17.9641L11.8358 22.4142C11.4607 22.7893 10.952 23 10.4216 23H8.55768C8.00539 23 7.55768 22.5523 7.55768 22V20.1361C7.55768 19.6057 7.76839 19.097 8.14346 18.7219L12.2628 14.6026C12.0064 13.9647 11.8654 13.268 11.8654 12.5385C11.8654 9.47965 14.345 7 17.4038 7C20.4626 7 22.9423 9.47965 22.9423 12.5385ZM18.0192 13.1538C18.699 13.1538 19.25 12.6028 19.25 11.9231C19.25 11.2433 18.699 10.6923 18.0192 10.6923C17.3395 10.6923 16.7884 11.2433 16.7884 11.9231C16.7884 12.6028 17.3395 13.1538 18.0192 13.1538Z" fill="black"/>
</svg>
