<svg width="24" height="24" viewBox="0 0 24 24" fill="none" xmlns="http://www.w3.org/2000/svg">
<path fill-rule="evenodd" clip-rule="evenodd" d="M18.8646 7.37392C19.6046 10.3419 17.7022 13.3717 14.6156 14.1413C14.2291 14.2377 13.8425 14.294 13.4602 14.3131L10.025 19.7843C9.7502 20.222 9.31657 20.5363 8.81507 20.6614L6.84105 21.1535C6.30517 21.2871 5.76244 20.961 5.62883 20.4252L5.18349 18.639C5.05188 18.1112 5.14099 17.5524 5.43027 17.0917L8.5872 12.0637C8.17419 11.5092 7.8633 10.8688 7.6868 10.1609C6.94681 7.19291 8.84916 4.16304 11.9358 3.39345C15.0225 2.62386 18.1246 4.40597 18.8646 7.37392ZM14.2375 8.69806C14.9234 8.52704 15.3462 7.85373 15.1817 7.19419C15.0173 6.53464 14.3279 6.13862 13.642 6.30964C12.9561 6.48066 12.5333 7.15397 12.6978 7.81351C12.8622 8.47305 13.5516 8.86908 14.2375 8.69806Z" fill="black"/>
</svg>
