<svg width="24" height="24" viewBox="0 0 24 24" fill="none" xmlns="http://www.w3.org/2000/svg">
<path fill-rule="evenodd" clip-rule="evenodd" d="M20 7C20.5523 7 21 7.44772 21 8V17C21 17.5523 20.5523 18 20 18H4C3.44772 18 3 17.5523 3 17V8C3 7.44772 3.44772 7 4 7H20ZM5.5 15C5.22386 15 5 15.2239 5 15.5C5 15.7761 5.22386 16 5.5 16H6.5C6.77614 16 7 15.7761 7 15.5C7 15.2239 6.77614 15 6.5 15H5.5ZM8.5 15C8.22386 15 8 15.2239 8 15.5C8 15.7761 8.22386 16 8.5 16H15.5C15.7761 16 16 15.7761 16 15.5C16 15.2239 15.7761 15 15.5 15H8.5ZM17.5 15C17.2239 15 17 15.2239 17 15.5C17 15.7761 17.2239 16 17.5 16H18.5C18.7761 16 19 15.7761 19 15.5C19 15.2239 18.7761 15 18.5 15H17.5ZM6.5 12C6.22386 12 6 12.2239 6 12.5C6 12.7761 6.22386 13 6.5 13H7.5C7.77614 13 8 12.7761 8 12.5C8 12.2239 7.77614 12 7.5 12H6.5ZM9.5 12C9.22386 12 9 12.2239 9 12.5C9 12.7761 9.22386 13 9.5 13H10.5C10.7761 13 11 12.7761 11 12.5C11 12.2239 10.7761 12 10.5 12H9.5ZM12.5 12C12.2239 12 12 12.2239 12 12.5C12 12.7761 12.2239 13 12.5 13H13.5C13.7761 13 14 12.7761 14 12.5C14 12.2239 13.7761 12 13.5 12H12.5ZM15.5 12C15.2239 12 15 12.2239 15 12.5C15 12.7761 15.2239 13 15.5 13H16.5C16.7761 13 17 12.7761 17 12.5C17 12.2239 16.7761 12 16.5 12H15.5ZM5.5 9C5.22386 9 5 9.22386 5 9.5C5 9.77614 5.22386 10 5.5 10H6.5C6.77614 10 7 9.77614 7 9.5C7 9.22386 6.77614 9 6.5 9H5.5ZM8.5 9C8.22386 9 8 9.22386 8 9.5C8 9.77614 8.22386 10 8.5 10H9.5C9.77614 10 10 9.77614 10 9.5C10 9.22386 9.77614 9 9.5 9H8.5ZM11.5 9C11.2239 9 11 9.22386 11 9.5C11 9.77614 11.2239 10 11.5 10H12.5C12.7761 10 13 9.77614 13 9.5C13 9.22386 12.7761 9 12.5 9H11.5ZM14.5 9C14.2239 9 14 9.22386 14 9.5C14 9.77614 14.2239 10 14.5 10H15.5C15.7761 10 16 9.77614 16 9.5C16 9.22386 15.7761 9 15.5 9H14.5ZM17.5 9C17.2239 9 17 9.22386 17 9.5C17 9.77614 17.2239 10 17.5 10H18.5C18.7761 10 19 9.77614 19 9.5C19 9.22386 18.7761 9 18.5 9H17.5Z" fill="black"/>
</svg>
