<svg width="24" height="24" viewBox="0 0 24 24" fill="none" xmlns="http://www.w3.org/2000/svg">
<path fill-rule="evenodd" clip-rule="evenodd" d="M12 21C16.9706 21 21 16.9706 21 12C21 7.02944 16.9706 3 12 3C7.02944 3 3 7.02944 3 12C3 16.9706 7.02944 21 12 21ZM10.4191 17.1094L16.6351 11.144C16.766 11.0184 16.6756 10.7976 16.4943 10.7997L11.9764 10.852C11.83 10.8537 11.7315 10.7026 11.792 10.5693L13.4459 6.92964C13.5367 6.7298 13.2859 6.55076 13.1264 6.70158L7.36517 12.1495C7.23374 12.2738 7.3217 12.4948 7.50259 12.4948H12.1442C12.2959 12.4948 12.3924 12.657 12.32 12.7903L10.1049 16.8696C9.9959 17.0704 10.2543 17.2675 10.4191 17.1094Z" fill="black"/>
</svg>
