<svg width="24" height="24" viewBox="0 0 24 24" fill="none" xmlns="http://www.w3.org/2000/svg">
<path fill-rule="evenodd" clip-rule="evenodd" d="M7.05016 11.2929L4.92884 13.4142C3.36674 14.9763 3.36674 17.509 4.92884 19.0711C6.49094 20.6332 9.0236 20.6332 10.5857 19.0711L13.4141 16.2427C14.9762 14.6806 14.9762 12.1479 13.4141 10.5858C13.4141 10.5858 13.4141 10.5858 13.4141 10.5858L12.3534 11.6464C12.3535 11.6464 12.3535 11.6465 12.3535 11.6465C13.3298 12.6228 13.3298 14.2057 12.3535 15.182L9.52503 18.0104C8.54872 18.9867 6.96581 18.9867 5.9895 18.0104C5.01319 17.0341 5.01319 15.4512 5.9895 14.4749L8.11082 12.3536L7.05016 11.2929Z" fill="black"/>
<path fill-rule="evenodd" clip-rule="evenodd" d="M15.889 11.6465L18.0103 9.52513C18.9866 8.54882 18.9866 6.96591 18.0103 5.9896C17.034 5.01329 15.4511 5.01329 14.4748 5.9896L11.6464 8.81802C10.67 9.79433 10.67 11.3772 11.6464 12.3536L10.5857 13.4142C9.0236 11.8521 9.0236 9.31946 10.5857 7.75736L13.4141 4.92894C14.9762 3.36684 17.5089 3.36684 19.071 4.92894C20.6331 6.49103 20.6331 9.02369 19.071 10.5858L16.9497 12.7071L15.889 11.6465Z" fill="black"/>
</svg>
