<svg width="30" height="30" viewBox="0 0 30 30" fill="none" xmlns="http://www.w3.org/2000/svg">
<path fill-rule="evenodd" clip-rule="evenodd" d="M10.0502 14.2929L7.92885 16.4142C6.36676 17.9763 6.36676 20.509 7.92885 22.0711C9.49095 23.6332 12.0236 23.6332 13.5857 22.0711L16.4141 19.2427C17.9762 17.6806 17.9762 15.1479 16.4141 13.5858C16.4141 13.5858 16.4141 13.5858 16.4141 13.5858L15.3535 14.6465C15.3535 14.6465 15.3535 14.6465 15.3535 14.6465C16.3298 15.6228 16.3298 17.2057 15.3535 18.182L12.525 21.0104C11.5487 21.9867 9.96582 21.9867 8.98951 21.0104C8.0132 20.0341 8.0132 18.4512 8.98951 17.4749L11.1108 15.3536L10.0502 14.2929Z" fill="black"/>
<path fill-rule="evenodd" clip-rule="evenodd" d="M18.889 14.6465L21.0103 12.5251C21.9866 11.5488 21.9866 9.96592 21.0103 8.98961C20.034 8.0133 18.4511 8.0133 17.4748 8.98961L14.6464 11.818C13.6701 12.7943 13.6701 14.3773 14.6464 15.3536L13.5857 16.4142C12.0236 14.8521 12.0236 12.3195 13.5857 10.7574L16.4141 7.92895C17.9762 6.36685 20.5089 6.36685 22.071 7.92895C23.6331 9.49105 23.6331 12.0237 22.071 13.5858L19.9497 15.7071L18.889 14.6465Z" fill="black"/>
</svg>
