<svg width="24" height="24" viewBox="0 0 24 24" fill="none" xmlns="http://www.w3.org/2000/svg">
<path fill-rule="evenodd" clip-rule="evenodd" d="M9.25 19C9.25 18.5858 9.58579 18.25 10 18.25H20.25C20.6642 18.25 21 18.5858 21 19C21 19.4142 20.6642 19.75 20.25 19.75H10C9.58579 19.75 9.25 19.4142 9.25 19Z" fill="black"/>
<path fill-rule="evenodd" clip-rule="evenodd" d="M6.60452 16.5C7.01874 16.5 7.35452 16.8358 7.35452 17.25V19C7.35452 19.4142 7.01874 19.75 6.60452 19.75C6.19031 19.75 5.85452 19.4142 5.85452 19V17.25C5.85452 16.8358 6.19031 16.5 6.60452 16.5Z" fill="black"/>
<path fill-rule="evenodd" clip-rule="evenodd" d="M6.60452 4.5C7.01874 4.5 7.35452 4.83579 7.35452 5.25V7C7.35452 7.41421 7.01874 7.75 6.60452 7.75C6.19031 7.75 5.85452 7.41421 5.85452 7V5.25C5.85452 4.83579 6.19031 4.5 6.60452 4.5Z" fill="black"/>
<path fill-rule="evenodd" clip-rule="evenodd" d="M2.96451 9.50915C2.96451 7.60255 4.71833 6.30199 6.67167 6.302C8.59711 6.30202 10.1209 7.44452 10.4175 8.75823C10.5088 9.16227 10.2552 9.56377 9.85116 9.65501C9.44712 9.74624 9.04562 9.49266 8.95438 9.08862C8.85103 8.6309 8.08909 7.80201 6.67166 7.802C5.28212 7.80199 4.46451 8.67289 4.46451 9.50915C4.46451 9.76587 4.52586 9.93736 4.61013 10.0673C4.69926 10.2047 4.84252 10.3386 5.06559 10.4708C5.51558 10.7375 6.12736 10.9112 6.88212 11.1254C6.92749 11.1383 6.97339 11.1514 7.01979 11.1646C7.77548 11.3796 8.67462 11.6442 9.37591 12.1351C10.1361 12.6673 10.6645 13.4642 10.6645 14.6377C10.6645 15.6061 10.0866 16.4104 9.36265 16.94C8.63102 17.4753 7.66489 17.802 6.67166 17.802C4.67748 17.802 3.22603 16.565 2.78414 15.1465C2.66094 14.751 2.88166 14.3306 3.27713 14.2074C3.6726 14.0842 4.09306 14.3049 4.21626 14.7004C4.45972 15.4819 5.32339 16.302 6.67166 16.302C7.34967 16.302 8.00497 16.0747 8.47697 15.7294C8.95665 15.3785 9.16454 14.9756 9.16454 14.6377C9.16454 14.004 8.91799 13.6456 8.51565 13.3639C8.05443 13.041 7.40357 12.8333 6.60925 12.6073C6.54713 12.5896 6.48387 12.5718 6.41968 12.5537C5.72771 12.3585 4.9282 12.133 4.30093 11.7613C3.94275 11.5491 3.60163 11.2689 3.3517 10.8836C3.0969 10.4908 2.96451 10.031 2.96451 9.50915Z" fill="black"/>
</svg>
