<svg width="30" height="30" viewBox="0 0 30 30" fill="none" xmlns="http://www.w3.org/2000/svg">
<path fill-rule="evenodd" clip-rule="evenodd" d="M8.92857 9.85713C7.58731 9.85713 6.5 10.9444 6.5 12.2857V22C6.5 23.3413 7.58731 24.4286 8.92857 24.4286H21.0714C22.4127 24.4286 23.5 23.3413 23.5 22V12.2857C23.5 10.9444 22.4127 9.85713 21.0714 9.85713H8.92857ZM15 19.5714C16.3413 19.5714 17.4286 18.4841 17.4286 17.1429C17.4286 15.8016 16.3413 14.7143 15 14.7143C13.6587 14.7143 12.5714 15.8016 12.5714 17.1429C12.5714 18.4841 13.6587 19.5714 15 19.5714Z" fill="black"/>
<path d="M10.75 10.4643H19.25V7.42857C19.25 6.42262 18.4345 5.60714 17.4286 5.60714H12.5714C11.5655 5.60714 10.75 6.42262 10.75 7.42857V10.4643Z" stroke="black" stroke-width="1.21429"/>
</svg>
