<svg width="24" height="24" viewBox="0 0 24 24" fill="none" xmlns="http://www.w3.org/2000/svg">
<path fill-rule="evenodd" clip-rule="evenodd" d="M5.99995 9.00002C4.89538 9.00002 3.99995 9.89545 3.99995 11V19C3.99995 20.1046 4.89538 21 5.99995 21H17.9999C19.1045 21 19.9999 20.1046 19.9999 19V11C19.9999 9.89545 19.1045 9.00002 17.9999 9.00002H5.99995ZM11.9999 17C13.1045 17 13.9999 16.1046 13.9999 15C13.9999 13.8955 13.1045 13 11.9999 13C10.8953 13 9.99989 13.8955 9.99989 15C9.99989 16.1046 10.8953 17 11.9999 17Z" fill="black"/>
<path d="M7.74995 10.75H16.2499V5.75002C16.2499 4.64545 15.3545 3.75002 14.2499 3.75002H9.74995C8.64538 3.75002 7.74995 4.64545 7.74995 5.75002V10.75Z" stroke="black" stroke-width="1.5"/>
</svg>
