<svg width="30" height="30" viewBox="0 0 30 30" fill="none" xmlns="http://www.w3.org/2000/svg">
<path d="M13.0955 14.1441L15.9239 16.9725L10.267 22.6294C9.48598 23.4104 8.21965 23.4104 7.4386 22.6294C6.65756 21.8484 6.65756 20.582 7.4386 19.801L13.0955 14.1441Z" fill="black" stroke="black"/>
<path d="M17.5097 15.3868L16.0955 16.801L13.267 13.9725L14.6812 12.5583C15.4623 11.7773 16.7286 11.7773 17.5097 12.5583C18.2907 13.3394 18.2907 14.6057 17.5097 15.3868Z" stroke="black"/>
<path d="M11.1993 6.11033C11.2657 5.86366 11.6157 5.86366 11.6821 6.11033L12.0396 7.43836C12.0628 7.5244 12.13 7.59161 12.2161 7.61477L13.5441 7.97234C13.7908 8.03876 13.7908 8.38873 13.5441 8.45515L12.2161 8.81272C12.13 8.83588 12.0628 8.90309 12.0396 8.98913L11.6821 10.3172C11.6157 10.5638 11.2657 10.5638 11.1993 10.3172L10.8417 8.98913C10.8185 8.90309 10.7513 8.83589 10.6653 8.81272L9.33726 8.45515C9.09058 8.38873 9.09058 8.03876 9.33726 7.97234L10.6653 7.61477C10.7513 7.59161 10.8185 7.5244 10.8417 7.43836L11.1993 6.11033Z" fill="black"/>
<path d="M21.1331 5.61033C21.1995 5.36366 21.5495 5.36366 21.6159 5.61033L21.9735 6.93836C21.9967 7.0244 22.0639 7.09161 22.1499 7.11477L23.4779 7.47234C23.7246 7.53876 23.7246 7.88873 23.4779 7.95515L22.1499 8.31272C22.0639 8.33588 21.9967 8.40309 21.9735 8.48913L21.6159 9.81716C21.5495 10.0638 21.1995 10.0638 21.1331 9.81716L20.7755 8.48913C20.7524 8.40309 20.6852 8.33589 20.5991 8.31272L19.2711 7.95515C19.0244 7.88873 19.0244 7.53876 19.2711 7.47234L20.5991 7.11477C20.6852 7.09161 20.7524 7.0244 20.7755 6.93836L21.1331 5.61033Z" fill="black"/>
<path d="M21.9769 15.162C22.0433 14.9153 22.3932 14.9153 22.4597 15.162L22.8172 16.49C22.8404 16.576 22.9076 16.6432 22.9936 16.6664L24.3217 17.024C24.5684 17.0904 24.5684 17.4404 24.3217 17.5068L22.9936 17.8644C22.9076 17.8875 22.8404 17.9547 22.8172 18.0408L22.4597 19.3688C22.3932 19.6155 22.0433 19.6155 21.9769 19.3688L21.6193 18.0408C21.5961 17.9547 21.5289 17.8875 21.4429 17.8644L20.1148 17.5068C19.8682 17.4404 19.8682 17.0904 20.1148 17.024L21.4429 16.6664C21.5289 16.6432 21.5961 16.576 21.6193 16.49L21.9769 15.162Z" fill="black"/>
</svg>
