<svg width="24" height="24" viewBox="0 0 24 24" fill="none" xmlns="http://www.w3.org/2000/svg">
<path fill-rule="evenodd" clip-rule="evenodd" d="M8.5 18.8964V16H6C5.44772 16 5 15.5523 5 15V7C5 6.44772 5.44772 6 6 6H18C18.5523 6 19 6.44772 19 7V15C19 15.5523 18.5523 16 18 16H12L8.92678 19.0732C8.76929 19.2307 8.5 19.1192 8.5 18.8964ZM8 12.5C8 12.2239 8.22386 12 8.5 12H15.5C15.7761 12 16 12.2239 16 12.5C16 12.7761 15.7761 13 15.5 13H8.5C8.22386 13 8 12.7761 8 12.5ZM8.5 9C8.22386 9 8 9.22386 8 9.5C8 9.77614 8.22386 10 8.5 10H15.5C15.7761 10 16 9.77614 16 9.5C16 9.22386 15.7761 9 15.5 9H8.5Z" fill="black"/>
</svg>
