<svg width="30" height="30" viewBox="0 0 30 30" fill="none" xmlns="http://www.w3.org/2000/svg">
<path d="M22 23.5333C22.5523 23.5333 23.0066 23.0834 22.9383 22.5353C22.4471 18.588 19.0803 15.5333 15 15.5333C10.9197 15.5333 7.55286 18.588 7.06164 22.5353C6.99344 23.0834 7.44771 23.5333 7.99999 23.5333H22Z" fill="black"/>
<mask id="path-2-inside-1" fill="white">
<path fill-rule="evenodd" clip-rule="evenodd" d="M11.8284 10.2333C11.8097 10.3969 11.8 10.5638 11.8 10.7333C11.8 12.7952 13.2327 14.4667 15 14.4667C16.7673 14.4667 18.2 12.7952 18.2 10.7333C18.2 10.5638 18.1903 10.3969 18.1715 10.2333H11.8284Z"/>
</mask>
<path d="M11.8284 10.2333V9.23334H10.9366L10.835 10.1194L11.8284 10.2333ZM18.1715 10.2333L19.165 10.1194L19.0634 9.23334H18.1715V10.2333ZM12.8 10.7333C12.8 10.6019 12.8075 10.473 12.8219 10.3473L10.835 10.1194C10.8119 10.3207 10.8 10.5257 10.8 10.7333H12.8ZM15 13.4667C13.924 13.4667 12.8 12.3931 12.8 10.7333H10.8C10.8 13.1973 12.5413 15.4667 15 15.4667V13.4667ZM17.2 10.7333C17.2 12.3931 16.0759 13.4667 15 13.4667V15.4667C17.4587 15.4667 19.2 13.1973 19.2 10.7333H17.2ZM17.1781 10.3473C17.1925 10.473 17.2 10.6019 17.2 10.7333H19.2C19.2 10.5257 19.1881 10.3207 19.165 10.1194L17.1781 10.3473ZM18.1715 9.23334H11.8284V11.2333H18.1715V9.23334Z" fill="black" mask="url(#path-2-inside-1)"/>
<path fill-rule="evenodd" clip-rule="evenodd" d="M18.7333 10.7333C18.7333 10.9144 18.7204 11.0925 18.6955 11.2667H11.3045C11.2796 11.0925 11.2667 10.9144 11.2667 10.7333C11.2667 8.67147 12.9381 7 15 7C17.0619 7 18.7333 8.67147 18.7333 10.7333ZM15 10C15.5523 10 16 9.55229 16 9.00001C16 8.44772 15.5523 8.00001 15 8.00001C14.4477 8.00001 14 8.44772 14 9.00001C14 9.55229 14.4477 10 15 10Z" fill="black"/>
<line x1="11.2333" y1="10.7667" x2="18.7667" y2="10.7667" stroke="black" stroke-linecap="round" stroke-linejoin="round"/>
</svg>
