<svg width="24" height="24" viewBox="0 0 24 24" fill="none" xmlns="http://www.w3.org/2000/svg">
<path d="M12 13V14H11V13H12Z" fill="black"/>
<path fill-rule="evenodd" clip-rule="evenodd" d="M19.498 6C19.7742 6 19.998 6.22386 19.998 6.5V7.47461C19.9985 7.48305 20 7.49148 20 7.5V17C20 17.0092 19.9985 17.0183 19.998 17.0273V17.5C19.998 18.3284 19.3265 19 18.498 19H5.49805C4.66962 19 3.99805 18.3284 3.99805 17.5V6.5C3.99805 6.22386 4.2219 6 4.49805 6C4.77419 6 4.99805 6.22386 4.99805 6.5V7.2998L5.28027 7.60156C5.87288 8.23368 6.87712 8.23368 7.46973 7.60156L7.88477 7.1582C7.97929 7.05738 8.1118 7 8.25 7C8.3882 7 8.52071 7.05738 8.61523 7.1582L9.03027 7.60156C9.62288 8.23368 10.6271 8.23368 11.2197 7.60156L11.6348 7.1582C11.7293 7.05738 11.8618 7 12 7C12.1382 7 12.2707 7.05738 12.3652 7.1582L12.7803 7.60156C13.3729 8.23368 14.3771 8.23368 14.9697 7.60156L15.3848 7.1582C15.4793 7.05738 15.6118 7 15.75 7C15.8882 7 16.0207 7.05738 16.1152 7.1582L16.5303 7.60156C17.1229 8.23368 18.1271 8.23368 18.7197 7.60156L18.998 7.30371V6.5C18.998 6.22386 19.2219 6 19.498 6ZM12.5 10C12.2239 10 12 10.2239 12 10.5V12H11V10.5C11 10.2239 10.7761 10 10.5 10C10.2239 10 10 10.2239 10 10.5V12H8.5C8.22386 12 8 12.2239 8 12.5C8 12.7761 8.22386 13 8.5 13H10V14H8.5C8.22386 14 8 14.2239 8 14.5C8 14.7761 8.22386 15 8.5 15H10V16.5C10 16.7761 10.2239 17 10.5 17C10.7761 17 11 16.7761 11 16.5V15H12V16.5C12 16.7761 12.2239 17 12.5 17C12.7761 17 13 16.7761 13 16.5V15H14.5C14.7761 15 15 14.7761 15 14.5C15 14.2239 14.7761 14 14.5 14H13V13H14.5C14.7761 13 15 12.7761 15 12.5C15 12.2239 14.7761 12 14.5 12H13V10.5C13 10.2239 12.7761 10 12.5 10Z" fill="black"/>
</svg>
