<svg width="24" height="24" viewBox="0 0 24 24" fill="none" xmlns="http://www.w3.org/2000/svg">
<path fill-rule="evenodd" clip-rule="evenodd" d="M20.5868 9.40589C18.8607 7.75071 16.4242 6.40407 13.5725 5.69307C10.7208 4.98207 7.93727 5.02721 5.63609 5.67829C7.50055 3.91366 10.705 3.17454 13.9959 3.99505C17.2867 4.81555 19.7691 6.97252 20.5868 9.40589Z" fill="black"/>
<path d="M20.5868 9.40589L20.2408 9.76678C20.4069 9.92608 20.6603 9.95139 20.8547 9.8281C21.049 9.70481 21.1341 9.46477 21.0608 9.2466L20.5868 9.40589ZM5.63609 5.67829L5.2924 5.31515C5.12523 5.47336 5.08767 5.72525 5.20139 5.92535C5.31512 6.12545 5.55075 6.22207 5.77222 6.15941L5.63609 5.67829ZM13.4516 6.17822C16.2274 6.87032 18.5838 8.17793 20.2408 9.76678L20.9329 9.04499C19.1376 7.3235 16.6209 5.93781 13.6935 5.20792L13.4516 6.17822ZM5.77222 6.15941C7.98118 5.53442 10.6756 5.48611 13.4516 6.17822L13.6935 5.20792C10.766 4.47803 7.89335 4.52001 5.49997 5.19718L5.77222 6.15941ZM5.97979 6.04143C7.69385 4.41915 10.7108 3.69129 13.8749 4.4802L14.1168 3.5099C10.6991 2.65778 7.30725 3.40818 5.2924 5.31515L5.97979 6.04143ZM13.8749 4.4802C17.039 5.26909 19.3611 7.3281 20.1129 9.56517L21.0608 9.2466C20.177 6.61695 17.5345 4.36202 14.1168 3.5099L13.8749 4.4802Z" fill="black"/>
<rect x="12.7238" y="5.99677" width="1.5" height="5" transform="rotate(14 12.7238 5.99677)" fill="black" stroke="black" stroke-linecap="round" stroke-linejoin="round"/>
<rect x="11.0291" y="10.7273" width="2.5" height="9.5" transform="rotate(14 11.0291 10.7273)" fill="black" stroke="black" stroke-linecap="round" stroke-linejoin="round"/>
<rect x="12.3583" y="3.3291" width="3.5" height="2.75" transform="rotate(14 12.3583 3.3291)" fill="black" stroke="black" stroke-linecap="round" stroke-linejoin="round"/>
</svg>
