<svg width="30" height="30" viewBox="0 0 30 30" fill="none" xmlns="http://www.w3.org/2000/svg">
<path d="M22 23.5333C22.5522 23.5333 23.0065 23.0834 22.9383 22.5353C22.4471 18.588 19.0803 15.5333 15 15.5333C10.9197 15.5333 7.55283 18.588 7.06161 22.5353C6.99341 23.0834 7.44768 23.5333 7.99996 23.5333H22Z" fill="black"/>
<path d="M15 13.9667C13.5783 13.9667 12.3 12.5941 12.3 10.7333H17.7C17.7 12.5941 16.4216 13.9667 15 13.9667Z" stroke="black"/>
<path fill-rule="evenodd" clip-rule="evenodd" d="M18.7333 10.7333C18.7333 10.9144 18.7204 11.0925 18.6955 11.2667H11.3044C11.2795 11.0925 11.2666 10.9144 11.2666 10.7333C11.2666 8.67147 12.9381 7 14.9999 7C17.0618 7 18.7333 8.67147 18.7333 10.7333ZM14.9999 10C15.5522 10 15.9999 9.55229 15.9999 9.00001C15.9999 8.44772 15.5522 8.00001 14.9999 8.00001C14.4477 8.00001 13.9999 8.44772 13.9999 9.00001C13.9999 9.55229 14.4477 10 14.9999 10Z" fill="black"/>
<path d="M11.2333 10.7667H18.7666" stroke="black" stroke-linecap="round" stroke-linejoin="round"/>
</svg>
