<svg width="24" height="24" viewBox="0 0 24 24" fill="none" xmlns="http://www.w3.org/2000/svg">
<path d="M8.5 12C8.5 11.2138 8.7592 10.4882 9.19681 9.90392L11.2929 12L9.19681 14.0961C8.7592 13.5118 8.5 12.7862 8.5 12Z" fill="black"/>
<path d="M14.0961 9.19681C13.5118 8.7592 12.7862 8.5 12 8.5C11.2138 8.5 10.4882 8.7592 9.90391 9.19681L12 11.2929L14.0961 9.19681Z" fill="black"/>
<path d="M12 12.7071L14.0961 14.8032C13.5118 15.2408 12.7862 15.5 12 15.5C11.2138 15.5 10.4882 15.2408 9.90392 14.8032L12 12.7071Z" fill="black"/>
<path d="M12.7071 12L14.8032 9.90392C15.2408 10.4882 15.5 11.2138 15.5 12C15.5 12.7862 15.2408 13.5118 14.8032 14.0961L12.7071 12Z" fill="black"/>
<path fill-rule="evenodd" clip-rule="evenodd" d="M19 5H5V19H19V5ZM8.48405 14.8088L7.14645 16.1465C6.95118 16.3417 6.95118 16.6583 7.14645 16.8536C7.34171 17.0488 7.65829 17.0488 7.85355 16.8536L9.19116 15.516C9.961 16.1318 10.9375 16.5 12 16.5C13.0625 16.5 14.039 16.1318 14.8088 15.516L16.1464 16.8536C16.3417 17.0488 16.6583 17.0488 16.8536 16.8536C17.0488 16.6583 17.0488 16.3417 16.8536 16.1465L15.5159 14.8089C16.1318 14.039 16.5 13.0625 16.5 12C16.5 10.9375 16.1318 9.96099 15.516 9.19116L16.8536 7.85355C17.0488 7.65829 17.0488 7.34171 16.8536 7.14645C16.6583 6.95118 16.3417 6.95118 16.1464 7.14645L14.8088 8.48405C14.039 7.86824 13.0625 7.5 12 7.5C10.9375 7.5 9.96099 7.86824 9.19116 8.48405L7.85355 7.14645C7.65829 6.95118 7.34171 6.95118 7.14645 7.14645C6.95118 7.34171 6.95118 7.65829 7.14645 7.85355L8.48405 9.19116C7.86824 9.96099 7.5 10.9375 7.5 12C7.5 13.0625 7.86824 14.039 8.48405 14.8088Z" fill="black"/>
</svg>
