<svg width="30" height="30" viewBox="0 0 30 30" fill="none" xmlns="http://www.w3.org/2000/svg">
<path fill-rule="evenodd" clip-rule="evenodd" d="M6 7.72727C6 6.77333 6.77333 6 7.72727 6H23.2727C24.2267 6 25 6.77333 25 7.72727V21.5455C25 22.4994 24.2267 23.2727 23.2727 23.2727H7.72727C6.77333 23.2727 6 22.4994 6 21.5455V7.72727ZM8.59091 8.59091H12.0455V10.3182H8.59091V8.59091ZM12.0455 12.0455H8.59091V13.7727H12.0455V12.0455ZM8.59091 15.5H12.0455V17.2273H8.59091V15.5ZM12.0455 18.9545H8.59091V20.6818H12.0455V18.9545ZM13.7727 8.59091H17.2273V10.3182H13.7727V8.59091ZM17.2273 12.0455H13.7727V13.7727H17.2273V12.0455ZM13.7727 15.5H17.2273V17.2273H13.7727V15.5ZM17.2273 18.9545H13.7727V20.6818H17.2273V18.9545ZM18.9545 8.59091H22.4091V10.3182H18.9545V8.59091ZM22.4091 12.0455H18.9545V13.7727H22.4091V12.0455ZM18.9545 15.5H22.4091V17.2273H18.9545V15.5ZM22.4091 18.9545H18.9545V20.6818H22.4091V18.9545Z" fill="black"/>
</svg>
