<svg width="24" height="24" viewBox="0 0 24 24" fill="none" xmlns="http://www.w3.org/2000/svg">
<path d="M13.7071 3.32035C14.0312 3.06253 14.5029 3.11631 14.7608 3.44047C16.6833 5.85743 17.7364 8.85119 17.75 11.9395C17.7635 15.0279 16.7364 18.0311 14.835 20.4649C14.58 20.7913 14.1087 20.8497 13.7823 20.5948C13.4559 20.3398 13.3983 19.8684 13.6533 19.542C15.3474 17.3738 16.262 14.6979 16.25 11.9463C16.238 9.19483 15.2998 6.52742 13.5869 4.37406C13.3291 4.04989 13.3829 3.57819 13.7071 3.32035Z" fill="black"/>
<path d="M11.3592 5.18789C11.6834 4.93007 12.1551 4.98386 12.4129 5.30801C13.9161 7.19773 14.7393 9.5389 14.7499 11.9535C14.7603 14.368 13.958 16.7159 12.4715 18.6186C12.2165 18.945 11.7442 19.0025 11.4178 18.7475C11.0917 18.4924 11.034 18.021 11.2889 17.6947C12.5681 16.0575 13.2589 14.0371 13.2499 11.9594C13.2407 9.88175 12.5325 7.86759 11.2391 6.24161C10.9813 5.91744 11.0351 5.44574 11.3592 5.18789Z" fill="black"/>
<path d="M9.01141 7.05543C9.33558 6.79761 9.80728 6.85139 10.0651 7.17555C11.1488 8.53791 11.7421 10.2258 11.7497 11.9666C11.7572 13.7072 11.1787 15.3996 10.1071 16.7713C9.8521 17.0977 9.38078 17.1552 9.05438 16.9002C8.7281 16.6451 8.6705 16.1738 8.92547 15.8474C9.78954 14.7412 10.2558 13.3761 10.2497 11.9724C10.2435 10.5687 9.76517 9.20776 8.89129 8.10914C8.63347 7.78498 8.68726 7.31328 9.01141 7.05543Z" fill="black"/>
<path d="M6.66359 8.92299C6.98775 8.66516 7.45945 8.71895 7.7173 9.0431C8.38147 9.87809 8.74487 10.9127 8.74952 11.9796C8.75409 13.0464 8.39944 14.0833 7.74269 14.924C7.48767 15.2504 7.01636 15.3089 6.68995 15.0538C6.36365 14.7989 6.30617 14.3275 6.56105 14.0011C7.01049 13.4259 7.25271 12.7155 7.24952 11.9855C7.24627 11.2556 6.99785 10.5479 6.54347 9.9767C6.28565 9.65253 6.33943 9.18083 6.66359 8.92299Z" fill="black"/>
</svg>
