<svg width="24" height="24" viewBox="0 0 24 24" fill="none" xmlns="http://www.w3.org/2000/svg">
<path fill-rule="evenodd" clip-rule="evenodd" d="M21 9.88382H20.9999C21.0033 9.63409 20.8823 9.38273 20.636 9.23828L13.1419 4.84337C12.4534 4.43959 11.6007 4.4385 10.9111 4.8405L3.36937 9.2373C3.12195 9.38155 3.00041 9.6335 3.00385 9.88382H2.99994V14.3148H3.00407C3.01114 14.5585 3.13673 14.7991 3.38 14.9355L10.9431 19.1778C11.6163 19.5554 12.4378 19.5544 13.11 19.175L20.6253 14.9346C20.8675 14.798 20.9926 14.5579 20.9996 14.3148H21V9.88382ZM4.76443 10.4474C4.58406 10.3457 4.35533 10.4094 4.25356 10.5897C4.15178 10.7701 4.2155 10.9989 4.39588 11.1006L10.7548 14.6885C11.5471 15.1355 12.516 15.1331 13.306 14.6823L19.584 11.0997C19.7639 10.9971 19.8265 10.768 19.7239 10.5882C19.6212 10.4083 19.3922 10.3457 19.2123 10.4483L12.9343 14.0309C12.3735 14.3509 11.6857 14.3526 11.1234 14.0353L4.76443 10.4474Z" fill="black"/>
</svg>
