<svg width="30" height="30" viewBox="0 0 30 30" fill="none" xmlns="http://www.w3.org/2000/svg">
<path fill-rule="evenodd" clip-rule="evenodd" d="M25.2583 12.5879H25.2584V17.6384H25.258C25.25 17.9156 25.1074 18.1892 24.8314 18.3449L16.2652 23.1783C15.499 23.6106 14.5627 23.6118 13.7954 23.1814L5.17474 18.346C4.89746 18.1904 4.75431 17.9162 4.74626 17.6384H4.74155V12.5879H4.74598C4.74207 12.3026 4.8806 12.0154 5.16262 11.851L13.7589 6.83942C14.5448 6.38121 15.5168 6.38247 16.3016 6.8427L24.8435 11.8521C25.1243 12.0168 25.2622 12.3033 25.2583 12.5879Z" fill="black"/>
<path d="M6.54269 13.6026L13.7907 17.6921C14.5628 18.1277 15.5069 18.1254 16.2768 17.6861L23.4326 13.6026" stroke="white" stroke-width="0.839567" stroke-linecap="round" stroke-linejoin="round"/>
</svg>
