<svg width="24" height="24" viewBox="0 0 24 24" fill="none" xmlns="http://www.w3.org/2000/svg">
<path fill-rule="evenodd" clip-rule="evenodd" d="M12.5393 7.1653C13.0395 7.00341 13.4411 6.62246 13.631 6.13559L17.8644 10.369C17.3775 10.5589 16.9965 10.9605 16.8347 11.4606L12.5393 7.1653ZM16.8347 12.5394L12.5394 16.8347C13.0395 16.9966 13.4411 17.3776 13.631 17.8644L17.8644 13.631C17.3775 13.4411 16.9965 13.0396 16.8347 12.5394ZM11.4607 16.8347L7.16529 12.5393C7.00344 13.0394 6.62252 13.4411 6.13567 13.631L10.369 17.8643C10.5589 17.3774 10.9605 16.9965 11.4607 16.8347ZM11.4607 7.16535L7.16529 11.4608C7.00345 10.9606 6.62252 10.559 6.13567 10.3691L10.369 6.13572C10.5589 6.62258 10.9605 7.0035 11.4607 7.16535Z" fill="black"/>
<circle cx="12" cy="5.5" r="1.75" stroke="black" stroke-width="1.5"/>
<circle cx="12" cy="18.5" r="1.75" stroke="black" stroke-width="1.5"/>
<circle cx="5.5" cy="12" r="1.75" stroke="black" stroke-width="1.5"/>
<circle cx="18.5" cy="12" r="1.75" stroke="black" stroke-width="1.5"/>
</svg>
