<svg width="24" height="24" viewBox="0 0 24 24" fill="none" xmlns="http://www.w3.org/2000/svg">
<path d="M12.6035 13.3213C13.6711 13.3214 14.0816 13.8838 14.1084 14.2021C14.1213 14.3566 14.0651 14.5303 13.8643 14.6846C13.652 14.8476 13.2573 15 12.6035 15H10.5V13.3135H12.5234C12.5496 13.3177 12.5762 13.3213 12.6035 13.3213Z" fill="black"/>
<path d="M12.6035 11C13.4761 11.0001 13.7209 11.4514 13.7275 11.6758C13.7311 11.8021 13.6789 11.9459 13.5254 12.0703C13.3895 12.1804 13.1564 12.2858 12.792 12.3135H10.5V11H12.6035Z" fill="black"/>
<path fill-rule="evenodd" clip-rule="evenodd" d="M13.9775 4C14.1081 4 14.2337 4.05133 14.3271 4.14258L17.8496 7.58594C17.9457 7.67992 17.9999 7.80894 18 7.94336V19.5C18 19.7761 17.7761 20 17.5 20H6.5C6.22386 20 6 19.7761 6 19.5V4.5C6 4.22386 6.22386 4 6.5 4H13.9775ZM12 8.5C11.7239 8.5 11.5 8.72386 11.5 9V10H9.5V16H11.5V17C11.5 17.2761 11.7239 17.5 12 17.5C12.2761 17.5 12.5 17.2761 12.5 17V16H12.6035C13.3972 16 14.0321 15.8167 14.4736 15.4775C14.9264 15.1296 15.1485 14.6341 15.1055 14.1191C15.0596 13.5712 14.7382 13.0954 14.2383 12.7705C14.5659 12.4666 14.7387 12.0653 14.7266 11.6465C14.6991 10.7102 13.8275 10.0001 12.6035 10H12.5V9C12.5 8.72386 12.2761 8.5 12 8.5ZM13.9268 5.42676C13.7693 5.2693 13.5 5.38082 13.5 5.60352V8.25C13.5 8.38807 13.6119 8.5 13.75 8.5H16.3965C16.6192 8.49997 16.7307 8.23073 16.5732 8.07324L13.9268 5.42676Z" fill="black"/>
</svg>
