<svg width="30" height="30" viewBox="0 0 30 30" fill="none" xmlns="http://www.w3.org/2000/svg">
<path fill-rule="evenodd" clip-rule="evenodd" d="M5.90909 10C5.40701 10 5 10.407 5 10.9091V18.1818C5 18.6839 5.40701 19.0909 5.90909 19.0909H24.0909C24.593 19.0909 25 18.6839 25 18.1818V10.9091C25 10.407 24.593 10 24.0909 10H5.90909ZM9.54546 16.3636C10.5496 16.3636 11.3636 15.5496 11.3636 14.5455C11.3636 13.5413 10.5496 12.7273 9.54546 12.7273C8.54131 12.7273 7.72728 13.5413 7.72728 14.5455C7.72728 15.5496 8.54131 16.3636 9.54546 16.3636ZM16.8182 14.5455C16.8182 15.5496 16.0042 16.3636 15 16.3636C13.9959 16.3636 13.1818 15.5496 13.1818 14.5455C13.1818 13.5413 13.9959 12.7273 15 12.7273C16.0042 12.7273 16.8182 13.5413 16.8182 14.5455ZM20.4546 16.3636C21.4588 16.3636 22.2728 15.5496 22.2728 14.5455C22.2728 13.5413 21.4588 12.7273 20.4546 12.7273C19.4504 12.7273 18.6364 13.5413 18.6364 14.5455C18.6364 15.5496 19.4504 16.3636 20.4546 16.3636Z" fill="black"/>
</svg>
