<svg width="24" height="24" viewBox="0 0 24 24" fill="none" xmlns="http://www.w3.org/2000/svg">
<path d="M17.5 11.5C17.5 10.8434 17.3707 10.1932 17.1194 9.58658C16.8681 8.97995 16.4998 8.42876 16.0355 7.96447C15.5712 7.50017 15.02 7.13188 14.4134 6.8806C13.8068 6.62933 13.1566 6.5 12.5 6.5L12.5 11.5H17.5Z" fill="black"/>
<path d="M11.5 7.5C10.5111 7.5 9.54439 7.79324 8.72215 8.34265C7.8999 8.89206 7.25904 9.67295 6.8806 10.5866C6.50216 11.5002 6.40315 12.5055 6.59607 13.4755C6.789 14.4454 7.2652 15.3363 7.96447 16.0355C8.66373 16.7348 9.55464 17.211 10.5245 17.4039C11.4945 17.5969 12.4998 17.4978 13.4134 17.1194C14.327 16.741 15.1079 16.1001 15.6573 15.2779C16.2068 14.4556 16.5 13.4889 16.5 12.5H11.5L11.5 7.5Z" fill="black"/>
</svg>
