<svg width="24" height="24" viewBox="0 0 24 24" fill="none" xmlns="http://www.w3.org/2000/svg">
<path fill-rule="evenodd" clip-rule="evenodd" d="M11.9999 3.25002C12.4141 3.25002 12.7499 3.5858 12.7499 4.00002V11.25L20 11.25C20.4142 11.25 20.75 11.5858 20.75 12C20.75 12.4142 20.4142 12.75 20 12.75L12.7499 12.75V20C12.7499 20.4142 12.4141 20.75 11.9999 20.75C11.5857 20.75 11.2499 20.4142 11.2499 20V12.75L3.99996 12.75C3.58575 12.75 3.24996 12.4142 3.24996 12C3.24996 11.5858 3.58575 11.25 3.99996 11.25L11.2499 11.25V4.00002C11.2499 3.5858 11.5857 3.25002 11.9999 3.25002Z" fill="black"/>
</svg>
