<svg width="24" height="24" viewBox="0 0 24 24" fill="none" xmlns="http://www.w3.org/2000/svg">
<path d="M12 3C9.79086 3 8 4.79086 8 7L10 7C10.2761 7 10.5 7.22386 10.5 7.5C10.5 7.77614 10.2761 8 10 8H8V9H10C10.2761 9 10.5 9.22386 10.5 9.5C10.5 9.77614 10.2761 10 10 10H8V11H10C10.2761 11 10.5 11.2239 10.5 11.5C10.5 11.7761 10.2761 12 10 12H8C8 14.2091 9.79086 16 12 16C14.2091 16 16 14.2091 16 12H14C13.7239 12 13.5 11.7761 13.5 11.5C13.5 11.2239 13.7239 11 14 11H16V10H14C13.7239 10 13.5 9.77614 13.5 9.5C13.5 9.22386 13.7239 9 14 9H16V8H14C13.7239 8 13.5 7.77614 13.5 7.5C13.5 7.22386 13.7239 7 14 7H16C16 4.79086 14.2091 3 12 3Z" fill="black"/>
<path fill-rule="evenodd" clip-rule="evenodd" d="M11.5 20V17.5H12.5V20H11.5Z" fill="black"/>
<path fill-rule="evenodd" clip-rule="evenodd" d="M8 20.5C8 20.2239 8.22386 20 8.5 20H15.5C15.7761 20 16 20.2239 16 20.5C16 20.7761 15.7761 21 15.5 21H8.5C8.22386 21 8 20.7761 8 20.5Z" fill="black"/>
<path fill-rule="evenodd" clip-rule="evenodd" d="M6.22694 13.7088C6.48431 13.6087 6.77408 13.7362 6.87417 13.9935C7.26842 15.0074 7.95447 15.8815 8.84554 16.5055C9.73661 17.1294 10.7927 17.4751 11.8802 17.4988C12.9678 17.5226 14.0379 17.2233 14.9554 16.6388C15.8728 16.0543 16.5963 15.2109 17.0344 14.2152C17.1456 13.9625 17.4407 13.8477 17.6935 13.959C17.9462 14.0702 18.0609 14.3652 17.9497 14.618C17.432 15.7947 16.5769 16.7914 15.4927 17.4822C14.4084 18.1729 13.1437 18.5266 11.8584 18.4986C10.5731 18.4705 9.32505 18.062 8.27196 17.3246C7.21888 16.5872 6.4081 15.5541 5.94216 14.356C5.84207 14.0986 5.96958 13.8088 6.22694 13.7088Z" fill="black"/>
</svg>
