<svg width="24" height="24" viewBox="0 0 24 24" fill="none" xmlns="http://www.w3.org/2000/svg">
<path fill-rule="evenodd" clip-rule="evenodd" d="M6 5.5C6 4.67157 6.67157 4 7.5 4H16.5C17.3284 4 18 4.67157 18 5.5V18.5C18 19.3284 17.3284 20 16.5 20H7.5C6.67157 20 6 19.3284 6 18.5V5.5ZM8 6.5C8 6.22386 8.22386 6 8.5 6H15.5C15.7761 6 16 6.22386 16 6.5V11C16 11.2761 15.7761 11.5 15.5 11.5H8.5C8.22386 11.5 8 11.2761 8 11V6.5ZM8.5 17C8.22386 17 8 17.2239 8 17.5C8 17.7761 8.22386 18 8.5 18H9.5C9.77614 18 10 17.7761 10 17.5C10 17.2239 9.77614 17 9.5 17H8.5ZM14 17.5C14 17.2239 14.2239 17 14.5 17H15.5C15.7761 17 16 17.2239 16 17.5C16 17.7761 15.7761 18 15.5 18H14.5C14.2239 18 14 17.7761 14 17.5ZM11.5 17C11.2239 17 11 17.2239 11 17.5C11 17.7761 11.2239 18 11.5 18H12.5C12.7761 18 13 17.7761 13 17.5C13 17.2239 12.7761 17 12.5 17H11.5ZM8 15.5C8 15.2239 8.22386 15 8.5 15H9.5C9.77614 15 10 15.2239 10 15.5C10 15.7761 9.77614 16 9.5 16H8.5C8.22386 16 8 15.7761 8 15.5ZM14.5 15C14.2239 15 14 15.2239 14 15.5C14 15.7761 14.2239 16 14.5 16H15.5C15.7761 16 16 15.7761 16 15.5C16 15.2239 15.7761 15 15.5 15H14.5ZM11 15.5C11 15.2239 11.2239 15 11.5 15H12.5C12.7761 15 13 15.2239 13 15.5C13 15.7761 12.7761 16 12.5 16H11.5C11.2239 16 11 15.7761 11 15.5ZM8.5 13C8.22386 13 8 13.2239 8 13.5C8 13.7761 8.22386 14 8.5 14H9.5C9.77614 14 10 13.7761 10 13.5C10 13.2239 9.77614 13 9.5 13H8.5ZM14 13.5C14 13.2239 14.2239 13 14.5 13H15.5C15.7761 13 16 13.2239 16 13.5C16 13.7761 15.7761 14 15.5 14H14.5C14.2239 14 14 13.7761 14 13.5ZM11.5 13C11.2239 13 11 13.2239 11 13.5C11 13.7761 11.2239 14 11.5 14H12.5C12.7761 14 13 13.7761 13 13.5C13 13.2239 12.7761 13 12.5 13H11.5Z" fill="black"/>
</svg>
