<svg width="24" height="24" viewBox="0 0 24 24" fill="none" xmlns="http://www.w3.org/2000/svg">
<path d="M4.75 12.0001C4.75 9.20199 6.33583 6.77661 8.65332 5.56849C9.02062 5.37702 9.47356 5.51955 9.66504 5.88685C9.85651 6.25415 9.71398 6.7071 9.34668 6.89857C7.50493 7.85868 6.25 9.78322 6.25 12.0001C6.25 15.1758 8.82436 17.7501 12 17.7501C15.1756 17.7501 17.75 15.1758 17.75 12.0001C17.75 9.78322 16.4951 7.85868 14.6533 6.89857C14.286 6.7071 14.1435 6.25415 14.335 5.88685C14.5264 5.51955 14.9794 5.37702 15.3467 5.56849C17.6642 6.77661 19.25 9.20199 19.25 12.0001C19.25 16.0042 16.0041 19.2501 12 19.2501C7.99594 19.2501 4.75 16.0042 4.75 12.0001Z" fill="black"/>
<path d="M11.25 9.5V4.5C11.25 4.08579 11.5858 3.75 12 3.75C12.4142 3.75 12.75 4.08579 12.75 4.5V9.5C12.75 9.91421 12.4142 10.25 12 10.25C11.5858 10.25 11.25 9.91421 11.25 9.5Z" fill="black"/>
</svg>
