<svg width="24" height="24" viewBox="0 0 24 24" fill="none" xmlns="http://www.w3.org/2000/svg">
<path fill-rule="evenodd" clip-rule="evenodd" d="M18.5 6C18.7761 6 19 6.22386 19 6.5V17.5C19 17.7761 18.7761 18 18.5 18H15V19.5C15 19.7761 14.7761 20 14.5 20H8.5C8.22386 20 8 19.7761 8 19.5V18H4.5C4.22386 18 4 17.7761 4 17.5V6.5C4 6.22386 4.22386 6 4.5 6H18.5ZM6.5 12C6.22386 12 6 12.2239 6 12.5V15.5C6 15.7761 6.22386 16 6.5 16H9V19H14V16H16.5C16.7761 16 17 15.7761 17 15.5V12.5C17 12.2239 16.7761 12 16.5 12H6.5ZM7 8C6.44772 8 6 8.44772 6 9C6 9.55228 6.44772 10 7 10C7.55228 10 8 9.55228 8 9C8 8.44772 7.55228 8 7 8ZM10 8C9.44772 8 9 8.44772 9 9C9 9.55228 9.44772 10 10 10C10.5523 10 11 9.55228 11 9C11 8.44772 10.5523 8 10 8Z" fill="black"/>
<circle cx="11.5" cy="15.5" r="1" fill="black"/>
<rect x="8" y="11" width="1" height="6" fill="black"/>
<rect x="14" y="11" width="1" height="6" fill="black"/>
</svg>
