<svg width="24" height="24" viewBox="0 0 24 24" fill="none" xmlns="http://www.w3.org/2000/svg">
<rect x="5.75" y="5.75" width="3" height="3" stroke="black" stroke-width="1.5"/>
<rect x="15.2499" y="5.75" width="3" height="3" stroke="black" stroke-width="1.5"/>
<rect x="5.75" y="15.25" width="3" height="3" stroke="black" stroke-width="1.5"/>
<rect x="5.375" y="11.625" width="0.75" height="0.75" stroke="black" stroke-width="0.75"/>
<rect x="8.375" y="11.625" width="0.75" height="0.75" stroke="black" stroke-width="0.75"/>
<rect x="11.5416" y="11.625" width="0.75" height="0.75" stroke="black" stroke-width="0.75"/>
<rect x="11.5416" y="14.75" width="0.75" height="0.75" stroke="black" stroke-width="0.75"/>
<rect x="11.5416" y="17.875" width="0.75" height="0.75" stroke="black" stroke-width="0.75"/>
<rect x="11.5416" y="8.5" width="0.75" height="0.75" stroke="black" stroke-width="0.75"/>
<rect x="11.5416" y="5.375" width="0.75" height="0.75" stroke="black" stroke-width="0.75"/>
<rect x="14.7083" y="11.625" width="0.75" height="0.75" stroke="black" stroke-width="0.75"/>
<rect x="17.8749" y="11.625" width="0.75" height="0.75" stroke="black" stroke-width="0.75"/>
<rect x="14.7083" y="14.75" width="0.75" height="0.75" stroke="black" stroke-width="0.75"/>
<rect x="17.8749" y="14.75" width="0.75" height="0.75" stroke="black" stroke-width="0.75"/>
<rect x="14.7083" y="17.875" width="0.75" height="0.75" stroke="black" stroke-width="0.75"/>
<rect x="17.8749" y="17.875" width="0.75" height="0.75" stroke="black" stroke-width="0.75"/>
</svg>
