<svg width="24" height="24" viewBox="0 0 24 24" fill="none" xmlns="http://www.w3.org/2000/svg">
<rect x="5.75" y="5.75" width="3" height="3" stroke="black" stroke-width="1.5"/>
<rect x="15.2499" y="5.75" width="3" height="3" stroke="black" stroke-width="1.5"/>
<rect x="5.75" y="15.25" width="3" height="3" stroke="black" stroke-width="1.5"/>
<rect x="5" y="11.25" width="1.5" height="1.5" fill="black"/>
<rect x="8" y="11.25" width="1.5" height="1.5" fill="black"/>
<rect x="11.1666" y="11.25" width="1.5" height="1.5" fill="black"/>
<rect x="11.1666" y="14.375" width="1.5" height="1.5" fill="black"/>
<rect x="11.1666" y="17.5" width="1.5" height="1.5" fill="black"/>
<rect x="11.1666" y="8.125" width="1.5" height="1.5" fill="black"/>
<rect x="11.1666" y="5" width="1.5" height="1.5" fill="black"/>
<rect x="14.3333" y="11.25" width="1.5" height="1.5" fill="black"/>
<rect x="17.4999" y="11.25" width="1.5" height="1.5" fill="black"/>
<rect x="14.3333" y="14.375" width="1.5" height="1.5" fill="black"/>
<rect x="17.4999" y="14.375" width="1.5" height="1.5" fill="black"/>
<rect x="14.3333" y="17.5" width="1.5" height="1.5" fill="black"/>
<rect x="17.4999" y="17.5" width="1.5" height="1.5" fill="black"/>
</svg>
