<svg width="24" height="24" viewBox="0 0 24 24" fill="none" xmlns="http://www.w3.org/2000/svg">
<path fill-rule="evenodd" clip-rule="evenodd" d="M21 12C21 16.9706 16.9706 21 12 21C7.02944 21 3 16.9706 3 12C3 7.02944 7.02944 3 12 3C16.9706 3 21 7.02944 21 12ZM13 15.5V17.5H11V15.5H13ZM10.5 10C10.5 9.15616 11.0893 8.5 12 8.5C12.5228 8.5 12.8807 8.66989 13.1054 8.89461C13.3301 9.11933 13.5 9.47725 13.5 10C13.5 10.3203 13.4189 10.4624 13.3322 10.5694C13.2189 10.7094 13.0808 10.8139 12.8252 11.0073C12.7701 11.049 12.7093 11.0951 12.6424 11.1463C12.3066 11.4032 11.8675 11.7624 11.532 12.3245C11.189 12.8989 11 13.6036 11 14.5H13C13 13.8964 13.1235 13.5604 13.2493 13.3497C13.3825 13.1265 13.5684 12.956 13.8576 12.7347C13.8935 12.7073 13.9337 12.6773 13.9772 12.6448C14.2333 12.4537 14.6036 12.1774 14.8865 11.828C15.2686 11.3561 15.5 10.7671 15.5 10C15.5 9.02275 15.1699 8.13067 14.5196 7.48039C13.8693 6.83011 12.9772 6.5 12 6.5C9.9107 6.5 8.5 8.12712 8.5 10H10.5Z" fill="black"/>
</svg>
