<svg width="24" height="24" viewBox="0 0 24 24" fill="none" xmlns="http://www.w3.org/2000/svg">
<path fill-rule="evenodd" clip-rule="evenodd" d="M16.5 4C17.3284 4 18 4.67157 18 5.5V18C18 19.1046 17.1046 20 16 20C14.8954 20 14 19.1046 14 18C14 19.1046 13.1046 20 12 20C10.8954 20 10 19.1046 10 18C10 19.1046 9.10457 20 8 20C6.89543 20 6 19.1046 6 18V5.5C6 4.67157 6.67157 4 7.5 4H16.5ZM9 11C8.72386 11 8.5 11.2239 8.5 11.5C8.5 11.7761 8.72386 12 9 12H15C15.2761 12 15.5 11.7761 15.5 11.5C15.5 11.2239 15.2761 11 15 11H9ZM9 9C8.72386 9 8.5 9.22386 8.5 9.5C8.5 9.77614 8.72386 10 9 10H15C15.2761 10 15.5 9.77614 15.5 9.5C15.5 9.22386 15.2761 9 15 9H9ZM9 7C8.72386 7 8.5 7.22386 8.5 7.5C8.5 7.77614 8.72386 8 9 8H15C15.2761 8 15.5 7.77614 15.5 7.5C15.5 7.22386 15.2761 7 15 7H9Z" fill="black"/>
</svg>
