<svg width="24" height="24" viewBox="0 0 24 24" fill="none" xmlns="http://www.w3.org/2000/svg">
<path d="M16.75 17.5V6.5C16.75 6.36193 16.6381 6.25 16.5 6.25H14.5C14.0858 6.25 13.75 5.91421 13.75 5.5C13.75 5.08579 14.0858 4.75 14.5 4.75H16.5C17.4665 4.75 18.25 5.5335 18.25 6.5V17.5C18.25 18.4665 17.4665 19.25 16.5 19.25H14.5C14.0858 19.25 13.75 18.9142 13.75 18.5C13.75 18.0858 14.0858 17.75 14.5 17.75H16.5C16.6381 17.75 16.75 17.6381 16.75 17.5Z" fill="black"/>
<path d="M17.5 13.25C17.9142 13.25 18.25 13.5858 18.25 14C18.25 14.4142 17.9142 14.75 17.5 14.75H14.5C14.0858 14.75 13.75 14.4142 13.75 14C13.75 13.5858 14.0858 13.25 14.5 13.25H17.5Z" fill="black"/>
<path d="M17.5 9.25C17.9142 9.25 18.25 9.58579 18.25 10C18.25 10.4142 17.9142 10.75 17.5 10.75H14.5C14.0858 10.75 13.75 10.4142 13.75 10C13.75 9.58579 14.0858 9.25 14.5 9.25H17.5Z" fill="black"/>
<path d="M10.5 17.75C10.9142 17.75 11.25 18.0858 11.25 18.5C11.25 18.9142 10.9142 19.25 10.5 19.25H6.5C6.08579 19.25 5.75 18.9142 5.75 18.5C5.75 18.0858 6.08579 17.75 6.5 17.75H10.5Z" fill="black"/>
<path d="M10.25 8C10.25 7.0335 9.4665 6.25 8.5 6.25C7.5335 6.25 6.75 7.0335 6.75 8C6.75 8.9665 7.5335 9.75 8.5 9.75C9.4665 9.75 10.25 8.9665 10.25 8ZM11.75 8C11.75 9.79493 10.2949 11.25 8.5 11.25C6.70507 11.25 5.25 9.79493 5.25 8C5.25 6.20507 6.70507 4.75 8.5 4.75C10.2949 4.75 11.75 6.20507 11.75 8Z" fill="black"/>
<path d="M7.75 14V11C7.75 10.5858 8.08579 10.25 8.5 10.25C8.91421 10.25 9.25 10.5858 9.25 11V14C9.25 14.4142 8.91421 14.75 8.5 14.75C8.08579 14.75 7.75 14.4142 7.75 14Z" fill="black"/>
<path d="M9.96967 12.4697C10.2626 12.1768 10.7373 12.1768 11.0302 12.4697C11.3231 12.7626 11.3231 13.2373 11.0302 13.5302L9.03022 15.5302C8.73732 15.8231 8.26256 15.8231 7.96967 15.5302L5.96967 13.5302C5.67678 13.2373 5.67678 12.7626 5.96967 12.4697C6.26256 12.1768 6.73732 12.1768 7.03022 12.4697L8.49994 13.9394L9.96967 12.4697Z" fill="black"/>
</svg>
