<svg width="24" height="24" viewBox="0 0 24 24" fill="none" xmlns="http://www.w3.org/2000/svg">
<path fill-rule="evenodd" clip-rule="evenodd" d="M6.64004 9.78753C7.04014 9.89474 7.27758 10.306 7.17037 10.7061C6.91442 11.6613 6.94748 12.671 7.26535 13.6074C7.58322 14.5438 8.17164 15.3649 8.95619 15.967C9.74075 16.569 10.6862 16.9248 11.673 16.9895C12.6598 17.0542 13.6436 16.8248 14.5 16.3303C14.8587 16.1232 15.3174 16.2461 15.5245 16.6048C15.7316 16.9636 15.6087 17.4222 15.25 17.6294C14.1367 18.2721 12.8577 18.5703 11.5749 18.4863C10.2921 18.4022 9.06297 17.9396 8.04305 17.157C7.02313 16.3744 6.25819 15.3069 5.84495 14.0895C5.43172 12.8722 5.38875 11.5596 5.72148 10.3179C5.82869 9.91776 6.23994 9.68033 6.64004 9.78753Z" fill="black"/>
<path fill-rule="evenodd" clip-rule="evenodd" d="M8.75013 6.37084C9.86347 5.72805 11.1424 5.42984 12.4252 5.51392C13.7081 5.598 14.9372 6.06059 15.9571 6.8432C16.977 7.62581 17.7419 8.69329 18.1552 9.91064C18.5684 11.128 18.6114 12.4406 18.2786 13.6823C18.1714 14.0824 17.7602 14.3199 17.3601 14.2127C16.96 14.1054 16.7225 13.6942 16.8298 13.2941C17.0857 12.3389 17.0526 11.3292 16.7348 10.3928C16.4169 9.45638 15.8285 8.63524 15.0439 8.03323C14.2594 7.43123 13.3139 7.07538 12.3271 7.01071C11.3404 6.94603 10.3565 7.17542 9.50013 7.66987C9.14141 7.87698 8.68271 7.75407 8.47561 7.39535C8.2685 7.03663 8.39141 6.57794 8.75013 6.37084Z" fill="black"/>
<path fill-rule="evenodd" clip-rule="evenodd" d="M5.71967 9.46967C6.01256 9.17678 6.48744 9.17678 6.78033 9.46967L9.28033 11.9697C9.57322 12.2626 9.57322 12.7374 9.28033 13.0303C8.98744 13.3232 8.51256 13.3232 8.21967 13.0303L6.25 11.0607L4.28033 13.0303C3.98744 13.3232 3.51256 13.3232 3.21967 13.0303C2.92678 12.7374 2.92678 12.2626 3.21967 11.9697L5.71967 9.46967Z" fill="black"/>
<path fill-rule="evenodd" clip-rule="evenodd" d="M14.7197 10.9697C15.0126 10.6768 15.4874 10.6768 15.7803 10.9697L17.75 12.9393L19.7197 10.9697C20.0126 10.6768 20.4874 10.6768 20.7803 10.9697C21.0732 11.2626 21.0732 11.7374 20.7803 12.0303L18.2803 14.5303C17.9874 14.8232 17.5126 14.8232 17.2197 14.5303L14.7197 12.0303C14.4268 11.7374 14.4268 11.2626 14.7197 10.9697Z" fill="black"/>
</svg>
