<svg width="24" height="24" viewBox="0 0 24 24" fill="none" xmlns="http://www.w3.org/2000/svg">
<path fill-rule="evenodd" clip-rule="evenodd" d="M13.3827 4.84383C13.5027 4.44738 13.9213 4.22327 14.3178 4.34327C16.2743 4.93549 17.9299 6.25422 18.9447 8.02875C19.9595 9.80327 20.2566 11.899 19.7748 13.8856C19.293 15.8722 18.0691 17.599 16.3541 18.7116C14.6392 19.8241 12.5634 20.238 10.5529 19.8682C10.1456 19.7933 9.87606 19.4023 9.95099 18.9949C10.0259 18.5875 10.4169 18.318 10.8243 18.393C12.4578 18.6934 14.1444 18.3572 15.5377 17.4532C16.9311 16.5493 17.9256 15.1462 18.317 13.5321C18.7085 11.9179 18.4672 10.2152 17.6426 8.7734C16.8181 7.33159 15.4729 6.26013 13.8832 5.77895C13.4868 5.65895 13.2627 5.24028 13.3827 4.84383Z" fill="black"/>
<path fill-rule="evenodd" clip-rule="evenodd" d="M10.7234 4.82418C10.8375 5.22236 10.6072 5.63767 10.209 5.7518C9.0921 6.07195 8.0814 6.68563 7.28214 7.52898C6.48289 8.37232 5.9243 9.41449 5.66453 10.547C5.40476 11.6795 5.45331 12.8609 5.80512 13.9683C6.15692 15.0757 6.79913 16.0685 7.66489 16.8434C7.97352 17.1197 7.99977 17.5938 7.72351 17.9025C7.44726 18.2111 6.97311 18.2373 6.66447 17.9611C5.59893 17.0073 4.80852 15.7854 4.37553 14.4225C3.94253 13.0596 3.88278 11.6055 4.2025 10.2116C4.52221 8.81779 5.2097 7.53512 6.1934 6.49716C7.1771 5.4592 8.42105 4.70389 9.79574 4.30986C10.1939 4.19573 10.6092 4.426 10.7234 4.82418Z" fill="black"/>
<path fill-rule="evenodd" clip-rule="evenodd" d="M10.8416 6.87941C12.0009 6.61714 13.2149 6.75602 14.285 7.27333C15.3551 7.79065 16.218 8.65578 16.7325 9.72722C17.2471 10.7987 17.3829 12.013 17.1176 13.1716C17.0252 13.5754 16.6229 13.8278 16.2191 13.7353C15.8154 13.6429 15.563 13.2406 15.6554 12.8369C15.8449 12.0093 15.7479 11.1419 15.3804 10.3766C15.0128 9.61127 14.3965 8.99332 13.6321 8.62381C12.8678 8.2543 12.0006 8.1551 11.1725 8.34243C10.3445 8.52977 9.60448 8.99255 9.07359 9.65509C8.54271 10.3176 8.25235 11.1407 8.25001 11.9897C8.24768 12.8387 8.5335 13.6633 9.06074 14.3288C9.58797 14.9942 10.3254 15.4611 11.1524 15.653C11.9795 15.8449 12.8471 15.7504 13.6135 15.3851C13.9874 15.2069 14.435 15.3655 14.6133 15.7394C14.7915 16.1134 14.6328 16.5609 14.2589 16.7392C13.186 17.2506 11.9713 17.3828 10.8134 17.1142C9.65558 16.8455 8.62316 16.1919 7.88504 15.2603C7.14691 14.3287 6.74675 13.1742 6.75002 11.9856C6.75329 10.797 7.15979 9.64467 7.90303 8.71712C8.64627 7.78957 9.68227 7.14167 10.8416 6.87941Z" fill="black"/>
<path fill-rule="evenodd" clip-rule="evenodd" d="M12.2973 11.0452C12.1273 10.9923 11.9463 10.9857 11.7729 11.0261C11.5995 11.0666 11.4401 11.1525 11.3111 11.2752C11.0108 11.5605 10.5361 11.5485 10.2508 11.2482C9.96539 10.948 9.97744 10.4733 10.2777 10.1879C10.6003 9.88132 10.9989 9.66638 11.4323 9.56532C11.8657 9.46425 12.3182 9.48072 12.7432 9.61302C13.1681 9.74532 13.55 9.98866 13.8495 10.3179C14.1489 10.6471 14.3551 11.0504 14.4466 11.4859C14.5381 11.9214 14.5117 12.3735 14.3701 12.7954C14.2285 13.2174 13.9768 13.5938 13.6411 13.886C13.3053 14.1781 12.8977 14.3753 12.4602 14.4573C12.0228 14.5392 11.5714 14.5029 11.1527 14.352C10.763 14.2116 10.5609 13.7819 10.7013 13.3922C10.8417 13.0025 11.2714 12.8004 11.6611 12.9408C11.8286 13.0011 12.0091 13.0157 12.1841 12.9829C12.3591 12.9501 12.5221 12.8712 12.6564 12.7544C12.7907 12.6375 12.8914 12.4869 12.948 12.3182C13.0047 12.1494 13.0152 11.9686 12.9786 11.7944C12.942 11.6201 12.8596 11.4589 12.7398 11.3272C12.62 11.1955 12.4672 11.0981 12.2973 11.0452Z" fill="black"/>
</svg>
