<svg width="24" height="24" viewBox="0 0 24 24" fill="none" xmlns="http://www.w3.org/2000/svg">
<path fill-rule="evenodd" clip-rule="evenodd" d="M8.00048 15.9995C8.19574 16.1948 8.19574 16.5113 8.00048 16.7066L7.00048 17.7066C6.80522 17.9019 6.48864 17.9019 6.29337 17.7066C6.09811 17.5113 6.09811 17.1948 6.29337 16.9995L7.29337 15.9995C7.48864 15.8042 7.80522 15.8042 8.00048 15.9995Z" fill="black"/>
<path fill-rule="evenodd" clip-rule="evenodd" d="M9.50048 17.4995C9.69574 17.6948 9.69574 18.0113 9.50048 18.2066L8.50048 19.2066C8.30522 19.4019 7.98864 19.4019 7.79337 19.2066C7.59811 19.0113 7.59811 18.6948 7.79337 18.4995L8.79337 17.4995C8.98864 17.3042 9.30522 17.3042 9.50048 17.4995Z" fill="black"/>
<path fill-rule="evenodd" clip-rule="evenodd" d="M6.50048 14.4995C6.69574 14.6948 6.69574 15.0113 6.50048 15.2066L5.50048 16.2066C5.30522 16.4019 4.98864 16.4019 4.79337 16.2066C4.59811 16.0113 4.59811 15.6948 4.79337 15.4995L5.79337 14.4995C5.98864 14.3042 6.30522 14.3042 6.50048 14.4995Z" fill="black"/>
<path fill-rule="evenodd" clip-rule="evenodd" d="M12.6024 6.01561C9.9139 7.33003 7.81394 9.66237 6.80452 12.5106L11.4893 17.1955C14.3376 16.186 16.67 14.0861 17.9844 11.3976L12.6024 6.01561ZM13.647 11.353C13.647 12.1815 12.9754 12.853 12.147 12.853C11.3185 12.853 10.647 12.1815 10.647 11.353C10.647 10.5246 11.3185 9.85304 12.147 9.85304C12.9754 9.85304 13.647 10.5246 13.647 11.353Z" fill="black"/>
<path d="M18.4109 10.4099C18.8867 9.14833 19.147 7.78108 19.147 6.35304C19.147 5.87433 19.1177 5.40246 19.0609 4.9391C18.5975 4.88229 18.1257 4.85304 17.6469 4.85304C16.2189 4.85304 14.8517 5.11333 13.5901 5.58905L18.4109 10.4099Z" fill="black"/>
<path d="M12.2658 17.972L13.2934 18.9995C13.6084 19.3145 14.1469 19.0914 14.1469 18.6459V17.0322C13.5509 17.3958 12.922 17.7109 12.2658 17.972Z" fill="black"/>
<path d="M6.02803 11.7341C6.28912 11.0779 6.60418 10.4491 6.96774 9.85304H5.35405C4.90859 9.85304 4.68551 10.3916 5.00049 10.7066L6.02803 11.7341Z" fill="black"/>
</svg>
