<svg width="24" height="24" viewBox="0 0 24 24" fill="none" xmlns="http://www.w3.org/2000/svg">
<path fill-rule="evenodd" clip-rule="evenodd" d="M8.0005 15.9995C8.19576 16.1948 8.19576 16.5113 8.0005 16.7066L7.0005 17.7066C6.80523 17.9019 6.48865 17.9019 6.29339 17.7066C6.09813 17.5113 6.09813 17.1948 6.29339 16.9995L7.29339 15.9995C7.48865 15.8042 7.80523 15.8042 8.0005 15.9995Z" fill="black"/>
<path fill-rule="evenodd" clip-rule="evenodd" d="M9.5005 17.4995C9.69576 17.6948 9.69576 18.0113 9.5005 18.2066L8.5005 19.2066C8.30523 19.4019 7.98865 19.4019 7.79339 19.2066C7.59813 19.0113 7.59813 18.6948 7.79339 18.4995L8.79339 17.4995C8.98865 17.3042 9.30523 17.3042 9.5005 17.4995Z" fill="black"/>
<path fill-rule="evenodd" clip-rule="evenodd" d="M6.5005 14.4995C6.69576 14.6948 6.69576 15.0113 6.5005 15.2066L5.5005 16.2066C5.30523 16.4019 4.98865 16.4019 4.79339 16.2066C4.59813 16.0113 4.59813 15.6948 4.79339 15.4995L5.79339 14.4995C5.98865 14.3042 6.30523 14.3042 6.5005 14.4995Z" fill="black"/>
<path fill-rule="evenodd" clip-rule="evenodd" d="M12.6024 6.01562C9.91392 7.33003 7.81396 9.66238 6.80453 12.5107L11.4894 17.1955C14.3376 16.1861 16.67 14.0861 17.9844 11.3976L12.6024 6.01562ZM13.647 11.3531C13.647 12.1815 12.9754 12.8531 12.147 12.8531C11.3185 12.8531 10.647 12.1815 10.647 11.3531C10.647 10.5246 11.3185 9.85305 12.147 9.85305C12.9754 9.85305 13.647 10.5246 13.647 11.3531Z" fill="black"/>
<path d="M18.411 10.4099C18.8867 9.14833 19.147 7.78109 19.147 6.35305C19.147 5.87434 19.1177 5.40247 19.0609 4.93911C18.5976 4.8823 18.1257 4.85305 17.647 4.85305C16.2189 4.85305 14.8517 5.11334 13.5901 5.58906L18.411 10.4099Z" fill="black"/>
<path d="M12.2659 17.972L13.2934 18.9995C13.6084 19.3145 14.147 19.0914 14.147 18.6459V17.0322C13.5509 17.3958 12.9221 17.7109 12.2659 17.972Z" fill="black"/>
<path d="M6.02805 11.7341C6.28913 11.0779 6.6042 10.4491 6.96776 9.85305H5.35406C4.90861 9.85305 4.68552 10.3916 5.00051 10.7066L6.02805 11.7341Z" fill="black"/>
</svg>
