<svg width="30" height="30" viewBox="0 0 30 30" fill="none" xmlns="http://www.w3.org/2000/svg">
<path fill-rule="evenodd" clip-rule="evenodd" d="M5.84444 5C5.37807 5 5 5.37807 5 5.84444V24.1556C5 24.6219 5.37807 25 5.84444 25H24.1556C24.6219 25 25 24.6219 25 24.1556V5.84444C25 5.37807 24.6219 5 24.1556 5H5.84444ZM8.84444 8C8.37807 8 8 8.37807 8 8.84444V21.1556C8 21.6219 8.37807 22 8.84444 22H21.1556C21.6219 22 22 21.6219 22 21.1556V8.84444C22 8.37807 21.6219 8 21.1556 8H8.84444Z" fill="black"/>
<path d="M8 24H11V25.5778C11 25.811 10.811 26 10.5778 26H8.42222C8.18904 26 8 25.811 8 25.5778V24Z" fill="black"/>
<path d="M19 24H22V25.5778C22 25.811 21.811 26 21.5778 26H19.4222C19.189 26 19 25.811 19 25.5778V24Z" fill="black"/>
<path d="M18 15C18 16.6569 16.6569 18 15 18C13.3431 18 12 16.6569 12 15C12 13.3431 13.3431 12 15 12C16.6569 12 18 13.3431 18 15Z" fill="black"/>
<path d="M10.7536 19.2388C10.5583 19.0436 10.5583 18.727 10.7536 18.5317L12.8749 16.4104C13.0702 16.2151 13.3867 16.2151 13.582 16.4104C13.7773 16.6057 13.7773 16.9223 13.582 17.1175L11.4607 19.2388C11.2654 19.4341 10.9488 19.4341 10.7536 19.2388Z" fill="black"/>
<path d="M16.4104 13.582C16.2152 13.3867 16.2152 13.0701 16.4104 12.8749L18.5318 10.7536C18.727 10.5583 19.0436 10.5583 19.2389 10.7536C19.4341 10.9488 19.4341 11.2654 19.2389 11.4607L17.1175 13.582C16.9223 13.7772 16.6057 13.7772 16.4104 13.582Z" fill="black"/>
<path d="M10.7536 10.7536C10.9489 10.5583 11.2655 10.5583 11.4607 10.7536L13.5821 12.8749C13.7773 13.0701 13.7773 13.3867 13.5821 13.582C13.3868 13.7772 13.0702 13.7772 12.8749 13.582L10.7536 11.4607C10.5584 11.2654 10.5584 10.9488 10.7536 10.7536Z" fill="black"/>
<path d="M16.4105 16.4104C16.6057 16.2151 16.9223 16.2151 17.1176 16.4104L19.2389 18.5317C19.4342 18.727 19.4342 19.0436 19.2389 19.2388C19.0436 19.4341 18.7271 19.4341 18.5318 19.2388L16.4105 17.1175C16.2152 16.9223 16.2152 16.6057 16.4105 16.4104Z" fill="black"/>
</svg>
