<svg width="24" height="24" viewBox="0 0 24 24" fill="none" xmlns="http://www.w3.org/2000/svg">
<path fill-rule="evenodd" clip-rule="evenodd" d="M21 12C21 16.9706 16.9706 21 12 21C7.02944 21 3 16.9706 3 12C3 7.02944 7.02944 3 12 3C16.9706 3 21 7.02944 21 12ZM8.69253 8.74209L16.3304 10.8053L16.6668 9.34348L9.02893 7.2803L8.69253 8.74209ZM14.2194 5.69235L13.8127 7.46639L12.3649 7.07388L12.7717 5.29984L14.2194 5.69235ZM11.2272 18.7L11.6352 16.9263L10.1872 16.535L9.77913 18.3087L11.2272 18.7ZM15.6482 13.7661L8.01124 11.6996L8.34708 10.2376L15.984 12.3042L15.6482 13.7661ZM7.33193 14.6559L14.9696 16.7197L15.3059 15.2579L7.66823 13.1941L7.33193 14.6559Z" fill="black"/>
</svg>
