<svg width="30" height="30" viewBox="0 0 30 30" fill="none" xmlns="http://www.w3.org/2000/svg">
<path d="M15 24.0017C19.9715 24.0017 24.0017 19.9715 24.0017 15C24.0017 10.0285 19.9715 5.99829 15 5.99829C10.0285 5.99829 5.99828 10.0285 5.99828 15C5.99828 19.9715 10.0285 24.0017 15 24.0017Z" fill="black"/>
<path d="M17.5009 8.0029L16.3587 7.69965L15.8405 9.65134L16.9827 9.95459L17.5009 8.0029Z" fill="white"/>
<path d="M14.1581 20.592L13.016 20.2887L12.4978 22.2404L13.6399 22.5436L14.1581 20.592Z" fill="white"/>
<path d="M19.7239 13.7361L20.027 12.5944L11.8862 10.4329L11.583 11.5746L19.7239 13.7361Z" fill="white"/>
<path d="M18.9234 16.7511L19.2266 15.6094L11.0857 13.4478L10.7826 14.5896L18.9234 16.7511Z" fill="white"/>
<path d="M18.146 19.6813L18.4492 18.5396L10.3084 16.378L10.0052 17.5197L18.146 19.6813Z" fill="white"/>
</svg>
