<svg width="24" height="24" viewBox="0 0 24 24" fill="none" xmlns="http://www.w3.org/2000/svg">
<path fill-rule="evenodd" clip-rule="evenodd" d="M13.9594 5.54065C13.3198 5.34664 12.6591 5.24988 11.9987 5.25H11.9986C9.79184 5.25 8.34749 6.05863 7.19285 7.35642C6.22584 8.4433 5.85547 9.79354 5.85547 10.8047C5.85547 13.7073 8.66763 15.8175 11.8081 15.7502L11.8242 15.75H11.8299C12.4318 15.75 13.0127 15.5495 13.429 15.2475C13.8534 14.9394 14.022 14.597 14.022 14.3271C14.022 13.7865 13.8139 13.4859 13.4653 13.2438C13.0577 12.9608 12.4783 12.7763 11.7557 12.5723C11.6992 12.5564 11.6415 12.5402 11.5828 12.5238C10.9568 12.3487 10.2229 12.1435 9.64582 11.8042C9.31489 11.6097 8.99579 11.3507 8.76096 10.9915C8.52104 10.6246 8.39697 10.1956 8.39697 9.71144C8.39697 7.93693 10.0376 6.74999 11.8299 6.75C13.5959 6.75001 15.0164 7.79014 15.2959 9.01782C15.3878 9.4217 15.1349 9.82364 14.7311 9.91558C14.3272 10.0075 13.9252 9.75463 13.8333 9.35074C13.7499 8.98413 13.0967 8.25001 11.8299 8.25C10.5893 8.24999 9.89697 9.01736 9.89697 9.71144C9.89697 9.92799 9.94869 10.0671 10.0164 10.1706C10.0892 10.2819 10.2095 10.3956 10.4059 10.5111C10.8064 10.7465 11.3536 10.9006 12.043 11.0948C12.0826 11.106 12.1227 11.1173 12.1632 11.1287C12.8469 11.3217 13.6737 11.5623 14.3209 12.0118C15.0269 12.5021 15.522 13.2414 15.522 14.3271C15.522 15.2329 14.9776 15.977 14.31 16.4614C13.6348 16.9515 12.7456 17.2495 11.8321 17.25C8.15605 17.325 4.35547 14.8195 4.35547 10.8047C4.35547 9.47389 4.83073 7.75472 6.07219 6.35936C7.4897 4.76612 9.33189 3.75003 11.9985 3.75M11.9986 3.75C12.8056 3.74986 13.6132 3.86814 14.3948 4.10524C16.0444 4.60563 17.4958 5.61015 18.5451 6.97772C19.5945 8.34529 20.1892 10.0072 20.2456 11.7301C20.302 13.4529 19.8173 15.1502 18.8596 16.5835C17.9019 18.0167 16.5193 19.114 14.906 19.7212C13.2927 20.3284 11.5298 20.415 9.86472 19.9689C9.46462 19.8617 9.22719 19.4504 9.33439 19.0503C9.4416 18.6502 9.85285 18.4128 10.253 18.52C11.6153 18.885 13.0577 18.8142 14.3777 18.3174C15.6976 17.8206 16.8288 16.9228 17.6124 15.7501C18.396 14.5774 18.7925 13.1888 18.7464 11.7791C18.7002 10.3695 18.2137 9.00978 17.3551 7.89086C16.4965 6.77194 15.309 5.95006 13.9594 5.54065" fill="black"/>
</svg>
