<svg width="24" height="24" viewBox="0 0 24 24" fill="none" xmlns="http://www.w3.org/2000/svg">
<path d="M16.75 17.5V6.5C16.75 6.36193 16.6381 6.25 16.5 6.25H14.5C14.0858 6.25 13.75 5.91421 13.75 5.5C13.75 5.08579 14.0858 4.75 14.5 4.75H16.5C17.4665 4.75 18.25 5.5335 18.25 6.5V17.5C18.25 18.4665 17.4665 19.25 16.5 19.25H14.5C14.0858 19.25 13.75 18.9142 13.75 18.5C13.75 18.0858 14.0858 17.75 14.5 17.75H16.5C16.6381 17.75 16.75 17.6381 16.75 17.5Z" fill="black"/>
<path d="M17.5 13.25C17.9142 13.25 18.25 13.5858 18.25 14C18.25 14.4142 17.9142 14.75 17.5 14.75H14.5C14.0858 14.75 13.75 14.4142 13.75 14C13.75 13.5858 14.0858 13.25 14.5 13.25H17.5Z" fill="black"/>
<path d="M17.5 9.25C17.9142 9.25 18.25 9.58579 18.25 10C18.25 10.4142 17.9142 10.75 17.5 10.75H14.5C14.0858 10.75 13.75 10.4142 13.75 10C13.75 9.58579 14.0858 9.25 14.5 9.25H17.5Z" fill="black"/>
<path d="M10.5 4.75C10.9142 4.75 11.25 5.08579 11.25 5.5C11.25 5.91421 10.9142 6.25 10.5 6.25H6.5C6.08579 6.25 5.75 5.91421 5.75 5.5C5.75 5.08579 6.08579 4.75 6.5 4.75H10.5Z" fill="black"/>
<path d="M10.25 16C10.25 15.0335 9.4665 14.25 8.5 14.25C7.5335 14.25 6.75 15.0335 6.75 16C6.75 16.9665 7.5335 17.75 8.5 17.75C9.4665 17.75 10.25 16.9665 10.25 16ZM11.75 16C11.75 17.7949 10.2949 19.25 8.5 19.25C6.70507 19.25 5.25 17.7949 5.25 16C5.25 14.2051 6.70507 12.75 8.5 12.75C10.2949 12.75 11.75 14.2051 11.75 16Z" fill="black"/>
<path d="M7.75 13V10C7.75 9.58579 8.08579 9.25 8.5 9.25C8.91421 9.25 9.25 9.58579 9.25 10V13C9.25 13.4142 8.91421 13.75 8.5 13.75C8.08579 13.75 7.75 13.4142 7.75 13Z" fill="black"/>
<path d="M8.02631 8.41809C8.32089 8.17778 8.75561 8.19524 9.03022 8.46984L11.0302 10.4698C11.3231 10.7627 11.3231 11.2375 11.0302 11.5304C10.7373 11.8233 10.2626 11.8233 9.96967 11.5304L8.49994 10.0607L7.03022 11.5304C6.73732 11.8233 6.26256 11.8233 5.96967 11.5304C5.67678 11.2375 5.67678 10.7627 5.96967 10.4698L7.96967 8.46984L8.02631 8.41809Z" fill="black"/>
</svg>
