<svg width="24" height="24" viewBox="0 0 24 24" fill="none" xmlns="http://www.w3.org/2000/svg">
<path fill-rule="evenodd" clip-rule="evenodd" d="M6 4H15V9H16V4C16 3.44772 15.5523 3 15 3H6C5.44772 3 5 3.44772 5 4V17C5 17.5523 5.44772 18 6 18H11V17H6L6 4Z" fill="black"/>
<path d="M5 15H11V18H6C5.44772 18 5 17.5523 5 17V15Z" fill="black"/>
<rect x="12.5" y="10.5" width="6" height="10" rx="0.5" stroke="black"/>
<path d="M12.5 18.5H18.5V20C18.5 20.2761 18.2761 20.5 18 20.5H13C12.7239 20.5 12.5 20.2761 12.5 20V18.5Z" fill="black" stroke="black"/>
</svg>
