<svg width="24" height="24" viewBox="0 0 24 24" fill="none" xmlns="http://www.w3.org/2000/svg">
<path fill-rule="evenodd" clip-rule="evenodd" d="M6 6C6 4.89543 6.89543 4 8 4H16C17.1046 4 18 4.89543 18 6V18C18 19.1046 17.1046 20 16 20H8C6.89543 20 6 19.1046 6 18V6ZM9.49017 17.5983L9.4904 17.5972L9.49133 17.5926L9.4953 17.5733C9.49886 17.5561 9.50424 17.5305 9.5113 17.4975C9.52545 17.4317 9.54631 17.337 9.57291 17.2232C9.62633 16.9946 9.70193 16.6929 9.79174 16.3938C9.86231 16.1587 9.93784 15.9383 10.0136 15.76C10.1078 15.9487 10.207 16.1839 10.3136 16.4413L10.3441 16.5152C10.461 16.7978 10.5869 17.1023 10.7104 17.34C10.777 17.468 10.8567 17.6045 10.9505 17.7154C11.0237 17.802 11.2092 18 11.4999 18C11.826 18 12.0407 17.8038 12.1576 17.6626C12.2637 17.5345 12.3507 17.3763 12.4113 17.2662L12.4248 17.2417C12.4534 17.1898 12.4778 17.1467 12.4991 17.1106C12.5202 17.1464 12.5442 17.1892 12.5725 17.2408L12.5853 17.264C12.6458 17.3745 12.7331 17.534 12.8405 17.6632C12.9592 17.8062 13.1744 18 13.4999 18C13.7556 18 14.007 17.8707 14.1698 17.7759C14.3587 17.6659 14.5526 17.5256 14.721 17.3942C14.8914 17.2613 15.0459 17.1296 15.1572 17.0316C15.2131 16.9825 15.2586 16.9413 15.2905 16.9122L15.3381 16.8683L15.3419 16.8648C15.5431 16.6756 15.5534 16.3588 15.3643 16.1576C15.1751 15.9563 14.8587 15.9466 14.6575 16.1357L14.6556 16.1374L14.6479 16.1446L14.6162 16.1738C14.5882 16.1993 14.5473 16.2363 14.4966 16.2809C14.3948 16.3704 14.2561 16.4887 14.106 16.6058C13.9539 16.7244 13.8 16.8341 13.6668 16.9116C13.6264 16.9351 13.5934 16.9524 13.5672 16.9651C13.5365 16.9175 13.5001 16.8524 13.4489 16.7592L13.4432 16.7488C13.3803 16.6341 13.2877 16.4655 13.1684 16.3283C13.0392 16.1797 12.8201 16 12.4999 16C12.1803 16 11.961 16.1792 11.8316 16.3273C11.7113 16.465 11.6179 16.6341 11.5544 16.7493L11.5433 16.7694C11.4567 16.5884 11.3645 16.3655 11.2629 16.1201L11.2375 16.0587C11.1106 15.7522 10.9681 15.4118 10.8212 15.1476C10.7483 15.0166 10.66 14.8776 10.5545 14.7652C10.4607 14.6654 10.2729 14.5 9.99994 14.5C9.72377 14.5 9.53605 14.6684 9.44188 14.7732C9.33721 14.8896 9.25322 15.0325 9.18597 15.1671C9.04941 15.4403 8.93026 15.7855 8.83397 16.1062C8.73615 16.4321 8.65529 16.7554 8.59915 16.9956C8.57098 17.1161 8.5488 17.2168 8.53359 17.2876C8.52605 17.3227 8.51868 17.3579 8.51145 17.393L8.5102 17.3992L8.50986 17.4009C8.45558 17.6717 8.63091 17.936 8.90167 17.9902C9.1724 18.0445 9.43587 17.8691 9.49017 17.5983ZM9 6.53979C8.72386 6.53979 8.5 6.76365 8.5 7.03979C8.5 7.31594 8.72386 7.53979 9 7.53979H15C15.2761 7.53979 15.5 7.31594 15.5 7.03979C15.5 6.76365 15.2761 6.53979 15 6.53979H9ZM8.5 9.25C8.5 8.97386 8.72386 8.75 9 8.75H15C15.2761 8.75 15.5 8.97386 15.5 9.25C15.5 9.52614 15.2761 9.75 15 9.75H9C8.72386 9.75 8.5 9.52614 8.5 9.25ZM9 11C8.72386 11 8.5 11.2239 8.5 11.5C8.5 11.7761 8.72386 12 9 12H15C15.2761 12 15.5 11.7761 15.5 11.5C15.5 11.2239 15.2761 11 15 11H9Z" fill="black"/>
</svg>
