<svg width="24" height="24" viewBox="0 0 24 24" fill="none" xmlns="http://www.w3.org/2000/svg">
<rect x="7" y="18" width="10" height="2" rx="1" fill="black"/>
<path fill-rule="evenodd" clip-rule="evenodd" d="M12 8C14.2091 8 16 9.79086 16 12V16.1816C16 16.6335 15.6335 17 15.1816 17H8.81836C8.36649 17 8 16.6335 8 16.1816V12C8 9.79086 9.79086 8 12 8ZM12.5 9.5C12.2239 9.5 12 9.72386 12 10C12 10.2761 12.2239 10.5 12.5 10.5C13.3284 10.5 14 11.1716 14 12C14 12.2761 14.2239 12.5 14.5 12.5C14.7761 12.5 15 12.2761 15 12C15 10.6193 13.8807 9.5 12.5 9.5Z" fill="black"/>
<path d="M5.5 11.5C5.77614 11.5 6 11.7239 6 12C6 12.2761 5.77614 12.5 5.5 12.5H3.5C3.22386 12.5 3 12.2761 3 12C3 11.7239 3.22386 11.5 3.5 11.5H5.5Z" fill="black"/>
<path d="M20.5 11.5C20.7761 11.5 21 11.7239 21 12C21 12.2761 20.7761 12.5 20.5 12.5H18.5C18.2239 12.5 18 12.2761 18 12C18 11.7239 18.2239 11.5 18.5 11.5H20.5Z" fill="black"/>
<path d="M11.5 5.5V3.5C11.5 3.22386 11.7239 3 12 3C12.2761 3 12.5 3.22386 12.5 3.5V5.5C12.5 5.77614 12.2761 6 12 6C11.7239 6 11.5 5.77614 11.5 5.5Z" fill="black"/>
<path d="M17.6465 5.64648C17.8417 5.45121 18.1582 5.45121 18.3535 5.64648C18.5488 5.84174 18.5488 6.15825 18.3535 6.35351L16.8535 7.85351C16.6582 8.04877 16.3417 8.04877 16.1465 7.85351C15.9512 7.65825 15.9512 7.34174 16.1465 7.14648L17.6465 5.64648Z" fill="black"/>
<path d="M5.64648 5.64648C5.84174 5.45121 6.15825 5.45121 6.35351 5.64648L7.85351 7.14648C8.04877 7.34174 8.04877 7.65825 7.85351 7.85351C7.65825 8.04877 7.34174 8.04877 7.14648 7.85351L5.64648 6.35351C5.45121 6.15825 5.45121 5.84174 5.64648 5.64648Z" fill="black"/>
</svg>
