<svg width="24" height="24" viewBox="0 0 24 24" fill="none" xmlns="http://www.w3.org/2000/svg">
<path d="M16.75 16.5V7.5C16.75 7.36193 16.6381 7.25 16.5 7.25H14C13.5858 7.25 13.25 6.91421 13.25 6.5C13.25 6.08579 13.5858 5.75 14 5.75H16.5C17.4665 5.75 18.25 6.5335 18.25 7.5V16.5C18.25 17.4665 17.4665 18.25 16.5 18.25H14C13.5858 18.25 13.25 17.9142 13.25 17.5C13.25 17.0858 13.5858 16.75 14 16.75H16.5C16.6381 16.75 16.75 16.6381 16.75 16.5Z" fill="black"/>
<path d="M4.75 16.5V7.5C4.75 6.5335 5.5335 5.75 6.5 5.75H9C9.41421 5.75 9.75 6.08579 9.75 6.5C9.75 6.91421 9.41421 7.25 9 7.25H6.5C6.36193 7.25 6.25 7.36193 6.25 7.5V16.5C6.25 16.6381 6.36193 16.75 6.5 16.75H9C9.41421 16.75 9.75 17.0858 9.75 17.5C9.75 17.9142 9.41421 18.25 9 18.25H6.5C5.5335 18.25 4.75 17.4665 4.75 16.5Z" fill="black"/>
<path d="M10.75 19.5V4.5C10.75 4.08579 11.0858 3.75 11.5 3.75C11.9142 3.75 12.25 4.08579 12.25 4.5V19.5C12.25 19.9142 11.9142 20.25 11.5 20.25C11.0858 20.25 10.75 19.9142 10.75 19.5Z" fill="black"/>
</svg>
