<svg width="24" height="24" viewBox="0 0 24 24" fill="none" xmlns="http://www.w3.org/2000/svg">
<path d="M11.3343 3.54894C11.5438 2.90402 12.4562 2.90402 12.6657 3.54894L14.2002 8.27163C14.2939 8.56005 14.5627 8.75532 14.866 8.75532H19.8317C20.5098 8.75532 20.7918 9.62305 20.2432 10.0216L16.2258 12.9404C15.9805 13.1187 15.8778 13.4346 15.9715 13.723L17.506 18.4457C17.7156 19.0907 16.9774 19.6269 16.4288 19.2284L12.4115 16.3096C12.1661 16.1313 11.8339 16.1313 11.5886 16.3096L7.57118 19.2284C7.02259 19.6269 6.28445 19.0907 6.49399 18.4457L8.02849 13.723C8.1222 13.4346 8.01954 13.1187 7.7742 12.9404L3.75684 10.0216C3.20824 9.62305 3.49018 8.75532 4.16829 8.75532H9.13402C9.43728 8.75532 9.70605 8.56005 9.79976 8.27163L11.3343 3.54894Z" fill="black"/>
</svg>
