<svg width="24" height="24" viewBox="0 0 24 24" fill="none" xmlns="http://www.w3.org/2000/svg">
<path fill-rule="evenodd" clip-rule="evenodd" d="M10.6465 18.6464L5.3536 13.3536C5.15834 13.1583 5.15834 12.8417 5.3536 12.6464L11.8536 6.14645C11.9474 6.05268 12.0745 6 12.2072 6H15.7929C15.816 6 15.8389 6.0016 15.8615 6.00473C15.9073 6.00159 15.9535 6 16.0001 6C17.1047 6 18.0001 6.89543 18.0001 8C18.0001 8.04669 17.9985 8.09301 17.9954 8.1389C17.9985 8.16137 18 8.18416 18 8.20711V11.7929C18 11.9255 17.9474 12.0527 17.8536 12.1464L11.3536 18.6464C11.1583 18.8417 10.8418 18.8417 10.6465 18.6464ZM12.0001 9.67157C12.0001 9.39543 11.7762 9.17157 11.5001 9.17157C11.2239 9.17157 11.0001 9.39543 11.0001 9.67157V15.3284C11.0001 15.6046 11.2239 15.8284 11.5001 15.8284C11.7762 15.8284 12.0001 15.6046 12.0001 15.3284V9.67157ZM10.0858 11.7929C10.4763 12.1834 10.4763 12.8166 10.0858 13.2071C9.69527 13.5976 9.06211 13.5976 8.67158 13.2071C8.28106 12.8166 8.28106 12.1834 8.67158 11.7929C9.06211 11.4024 9.69527 11.4024 10.0858 11.7929ZM14.3285 13.2071C14.719 12.8166 14.719 12.1834 14.3285 11.7929C13.9379 11.4024 13.3048 11.4024 12.9143 11.7929C12.5237 12.1834 12.5237 12.8166 12.9143 13.2071C13.3048 13.5976 13.9379 13.5976 14.3285 13.2071Z" fill="black"/>
</svg>
