<svg width="24" height="24" viewBox="0 0 24 24" fill="none" xmlns="http://www.w3.org/2000/svg">
<rect x="5.5" y="13" width="13" height="8" rx="1" fill="black"/>
<path d="M6.5 11.5C6.5 10.9477 6.94772 10.5 7.5 10.5H16.5C17.0523 10.5 17.5 10.9477 17.5 11.5V12.5H6.5V11.5Z" fill="black"/>
<path fill-rule="evenodd" clip-rule="evenodd" d="M12 10C13.933 10 15.5 8.433 15.5 6.5C15.5 4.567 13.933 3 12 3C10.067 3 8.5 4.567 8.5 6.5C8.5 8.433 10.067 10 12 10ZM12.7271 5.65069C12.7939 5.38275 12.6308 5.11138 12.3629 5.04458C12.095 4.97777 11.8236 5.14082 11.7568 5.40876L11.273 7.34935C11.2061 7.61729 11.3692 7.88866 11.6371 7.95546C11.9051 8.02227 12.1764 7.85922 12.2432 7.59128L12.7271 5.65069Z" fill="black"/>
</svg>
