<svg width="24" height="24" viewBox="0 0 24 24" fill="none" xmlns="http://www.w3.org/2000/svg">
<circle cx="5.5" cy="7.5" r="1.5" fill="black"/>
<path fill-rule="evenodd" clip-rule="evenodd" d="M8 6.5C8 6.22386 8.22386 6 8.5 6H19.5C19.7761 6 20 6.22386 20 6.5C20 6.77614 19.7761 7 19.5 7H8.5C8.22386 7 8 6.77614 8 6.5Z" fill="black"/>
<path fill-rule="evenodd" clip-rule="evenodd" d="M8 8.5C8 8.22386 8.22386 8 8.5 8H14.5C14.7761 8 15 8.22386 15 8.5C15 8.77614 14.7761 9 14.5 9H8.5C8.22386 9 8 8.77614 8 8.5Z" fill="black"/>
<circle cx="5.5" cy="12" r="1.5" fill="black"/>
<path fill-rule="evenodd" clip-rule="evenodd" d="M8 11C8 10.7239 8.22386 10.5 8.5 10.5H16.5C16.7761 10.5 17 10.7239 17 11C17 11.2761 16.7761 11.5 16.5 11.5H8.5C8.22386 11.5 8 11.2761 8 11Z" fill="black"/>
<path fill-rule="evenodd" clip-rule="evenodd" d="M8 13C8 12.7239 8.22386 12.5 8.5 12.5H15.5C15.7761 12.5 16 12.7239 16 13C16 13.2761 15.7761 13.5 15.5 13.5H8.5C8.22386 13.5 8 13.2761 8 13Z" fill="black"/>
<circle cx="5.5" cy="16.5" r="1.5" fill="black"/>
<path fill-rule="evenodd" clip-rule="evenodd" d="M8 15.5C8 15.2239 8.22386 15 8.5 15H18C18.2761 15 18.5 15.2239 18.5 15.5C18.5 15.7761 18.2761 16 18 16H8.5C8.22386 16 8 15.7761 8 15.5Z" fill="black"/>
<path fill-rule="evenodd" clip-rule="evenodd" d="M8 17.5C8 17.2239 8.22386 17 8.5 17H12.5C12.7761 17 13 17.2239 13 17.5C13 17.7761 12.7761 18 12.5 18H8.5C8.22386 18 8 17.7761 8 17.5Z" fill="black"/>
</svg>
