<svg width="24" height="24" viewBox="0 0 24 24" fill="none" xmlns="http://www.w3.org/2000/svg">
<path d="M6 6.90912L18 6.90912" stroke="black" stroke-width="1.5" stroke-linecap="round"/>
<path d="M14.6667 6.90909V6C14.6667 4.89543 13.7712 4 12.6667 4H12H11.3333C10.2288 4 9.33334 4.89543 9.33334 6V6.90909" stroke="black" stroke-width="1.5"/>
<path fill-rule="evenodd" clip-rule="evenodd" d="M6 6.90906L8 20H16L18 6.90906H6ZM12.5 10.5454C12.5 10.2693 12.2761 10.0454 12 10.0454C11.7239 10.0454 11.5 10.2693 11.5 10.5454V16.3636C11.5 16.6398 11.7239 16.8636 12 16.8636C12.2761 16.8636 12.5 16.6398 12.5 16.3636V10.5454ZM9.27615 10.0464C9.54779 10.0043 9.7936 10.1935 9.82517 10.4691L10.4918 16.2873C10.5234 16.5629 10.3288 16.8204 10.0572 16.8626C9.78552 16.9047 9.53971 16.7155 9.50813 16.4399L8.84147 10.6218C8.80989 10.3462 9.0045 10.0886 9.27615 10.0464ZM15.1585 10.6218C15.1901 10.3462 14.9955 10.0886 14.7238 10.0464C14.4522 10.0043 14.2064 10.1935 14.1748 10.4691L13.5081 16.2873C13.4766 16.5629 13.6712 16.8204 13.9428 16.8626C14.2145 16.9047 14.4603 16.7155 14.4918 16.4399L15.1585 10.6218Z" fill="black"/>
</svg>
