<svg width="24" height="24" viewBox="0 0 24 24" fill="none" xmlns="http://www.w3.org/2000/svg">
<path d="M9.5 4C10.3284 4 11 4.67157 11 5.5V7.5C11 8.32843 10.3284 9 9.5 9H9V12H13V11.5C13 10.6716 13.6716 10 14.5 10H16.5C17.3284 10 18 10.6716 18 11.5V13.5C18 14.3284 17.3284 15 16.5 15H14.5C13.6716 15 13 14.3284 13 13.5V13H9V18H13V17.5C13 16.6716 13.6716 16 14.5 16H16.5C17.3284 16 18 16.6716 18 17.5V19.5C18 20.3284 17.3284 21 16.5 21H14.5C13.6716 21 13 20.3284 13 19.5V19H8.5C8.22386 19 8 18.7761 8 18.5V9H7.5C6.67157 9 6 8.32843 6 7.5V5.5C6 4.67157 6.67157 4 7.5 4H9.5Z" fill="black"/>
</svg>
