<svg width="30" height="30" viewBox="0 0 30 30" fill="none" xmlns="http://www.w3.org/2000/svg">
<path fill-rule="evenodd" clip-rule="evenodd" d="M23.75 15.5C23.75 17.9853 21.7353 20 19.25 20C18.9388 20 18.6351 19.9684 18.3417 19.9083L14.8358 23.4142C14.4607 23.7893 13.952 24 13.4216 24H12.25C11.6977 24 11.25 23.5523 11.25 23V21.8284C11.25 21.298 11.4607 20.7893 11.8358 20.4142L15.0729 17.1771C14.8646 16.6588 14.75 16.0928 14.75 15.5C14.75 13.0147 16.7647 11 19.25 11C21.7353 11 23.75 13.0147 23.75 15.5ZM19.75 16C20.3023 16 20.75 15.5523 20.75 15C20.75 14.4477 20.3023 14 19.75 14C19.1977 14 18.75 14.4477 18.75 15C18.75 15.5523 19.1977 16 19.75 16Z" fill="black"/>
<path fill-rule="evenodd" clip-rule="evenodd" d="M18.6452 9.5301C15.787 9.81619 13.5199 12.1082 13.2724 14.9776L9.83579 18.4142C9.46071 18.7893 8.95201 19 8.42157 19H7.25C6.69772 19 6.25 18.5523 6.25 18V16.8284C6.25 16.298 6.46071 15.7893 6.83579 15.4142L10.0729 12.1771C9.86462 11.6588 9.75 11.0928 9.75 10.5C9.75 8.01472 11.7647 6 14.25 6C16.4023 6 18.2017 7.51101 18.6452 9.5301ZM15.75 10C15.75 10.5523 15.3023 11 14.75 11C14.1977 11 13.75 10.5523 13.75 10C13.75 9.44772 14.1977 9 14.75 9C15.3023 9 15.75 9.44772 15.75 10Z" fill="black"/>
</svg>
