<svg width="24" height="24" viewBox="0 0 24 24" fill="none" xmlns="http://www.w3.org/2000/svg">
<path fill-rule="evenodd" clip-rule="evenodd" d="M20.9999 12.4999C20.9999 14.9852 18.9276 16.9999 16.3714 16.9999C16.0513 16.9999 15.7389 16.9683 15.4371 16.9082L11.8108 20.4338C11.4374 20.7968 10.9373 20.9999 10.4166 20.9999H9.14288C8.5906 20.9999 8.14288 20.5521 8.14288 19.9999V18.8449C8.14288 18.3047 8.3614 17.7874 8.74873 17.4109L12.075 14.177C11.8607 13.6587 11.7428 13.0927 11.7428 12.4999C11.7428 10.0147 13.8151 7.99995 16.3714 7.99995C18.9276 7.99995 20.9999 10.0147 20.9999 12.4999ZM16.8855 12.9999C17.4536 12.9999 17.9141 12.5522 17.9141 11.9999C17.9141 11.4477 17.4536 10.9999 16.8855 10.9999C16.3174 10.9999 15.8569 11.4477 15.8569 11.9999C15.8569 12.5522 16.3174 12.9999 16.8855 12.9999Z" fill="black"/>
<path fill-rule="evenodd" clip-rule="evenodd" d="M11.2285 11.9999C13.7848 11.9999 15.857 9.98523 15.857 7.49997C15.857 5.0147 13.7848 3 11.2285 3C8.67221 3 6.59995 5.0147 6.59995 7.49997C6.59995 8.09275 6.71784 8.65877 6.93208 9.17706L3.60584 12.4109C3.21852 12.7875 3 13.3047 3 13.8449V14.9999C3 15.5522 3.44772 15.9999 4 15.9999H5.27372C5.7944 15.9999 6.29455 15.7968 6.66787 15.4339L10.2943 11.9082C10.596 11.9684 10.9085 11.9999 11.2285 11.9999ZM12.7715 6.99996C12.7715 7.55224 12.3109 7.99996 11.7429 7.99996C11.1748 7.99996 10.7143 7.55224 10.7143 6.99996C10.7143 6.44768 11.1748 5.99997 11.7429 5.99997C12.3109 5.99997 12.7715 6.44768 12.7715 6.99996Z" fill="black"/>
</svg>
