<svg width="24" height="24" viewBox="0 0 24 24" fill="none" xmlns="http://www.w3.org/2000/svg">
<path fill-rule="evenodd" clip-rule="evenodd" d="M20.8535 10.3078C21.4548 12.7192 19.9315 15.1754 17.4511 15.7938C17.1406 15.8712 16.8298 15.9162 16.5225 15.9309L13.8567 20.2291C13.5823 20.6716 13.1461 20.9896 12.6409 21.1156L11.405 21.4237C10.8692 21.5573 10.3264 21.2312 10.1928 20.6953L9.9134 19.5746C9.78271 19.0505 9.86961 18.4958 10.1543 18.0367L12.5994 14.0942C12.2662 13.6431 12.0148 13.1225 11.8714 12.5473C11.2702 10.1358 12.7935 7.67965 15.2738 7.06123C17.7542 6.44281 20.2523 7.89634 20.8535 10.3078ZM16.9823 11.7883C17.5335 11.6509 17.872 11.1051 17.7384 10.5692C17.6048 10.0333 17.0496 9.7103 16.4985 9.84773C15.9473 9.98515 15.6088 10.531 15.7424 11.0668C15.876 11.6027 16.4311 11.9257 16.9823 11.7883Z" fill="black"/>
<path fill-rule="evenodd" clip-rule="evenodd" d="M11.2514 12.1866C13.7317 11.5682 15.255 9.11198 14.6538 6.70054C14.0526 4.28911 11.5545 2.83557 9.07412 3.45399C6.59378 4.07241 5.07047 6.52859 5.67171 8.94003C5.81512 9.51521 6.06644 10.0359 6.39971 10.487L3.95461 14.4294C3.66989 14.8885 3.58299 15.4432 3.71368 15.9674L3.9931 17.0881C4.12671 17.624 4.66943 17.9501 5.20531 17.8165L6.44119 17.5083C6.94641 17.3824 7.38258 17.0643 7.65701 16.6218L10.3227 12.3236C10.6301 12.309 10.9409 12.264 11.2514 12.1866ZM11.5389 6.96186C11.6725 7.49774 11.334 8.04355 10.7828 8.18098C10.2317 8.31841 9.67652 7.9954 9.54291 7.45952C9.4093 6.92365 9.74782 6.37783 10.299 6.2404C10.8502 6.10298 11.4053 6.42598 11.5389 6.96186Z" fill="black"/>
</svg>
