<svg width="24" height="24" viewBox="0 0 24 24" fill="none" xmlns="http://www.w3.org/2000/svg">
<path fill-rule="evenodd" clip-rule="evenodd" d="M16.3403 11.8846H6.34034C5.96441 11.8846 5.65967 12.1893 5.65967 12.5652V18.5652C5.65967 18.9412 5.96441 19.2459 6.34034 19.2459H16.3403C16.7163 19.2459 17.021 18.9412 17.021 18.5652V12.5652C17.021 12.1893 16.7163 11.8846 16.3403 11.8846ZM6.34034 10.5652C5.23577 10.5652 4.34034 11.4607 4.34034 12.5652V18.5652C4.34034 19.6698 5.23577 20.5652 6.34034 20.5652H16.3403C17.4449 20.5652 18.3403 19.6698 18.3403 18.5652V12.5652C18.3403 11.4607 17.4449 10.5652 16.3403 10.5652H6.34034Z" fill="black"/>
<path fill-rule="evenodd" clip-rule="evenodd" d="M10 5.75C9.58579 5.75 9.25 6.08579 9.25 6.5V12H7.75V6.5C7.75 5.25736 8.75736 4.25 10 4.25H14C15.2426 4.25 16.25 5.25736 16.25 6.5V9.02155H14.75V6.5C14.75 6.08579 14.4142 5.75 14 5.75H10Z" fill="black"/>
</svg>
