<svg width="24" height="24" viewBox="0 0 24 24" fill="none" xmlns="http://www.w3.org/2000/svg">
<mask id="path-1-inside-1" fill="white">
<path d="M5 13.2249C5 12.1203 5.89543 11.2249 7 11.2249H17C18.1046 11.2249 19 12.1203 19 13.2249V19.2249C19 20.3295 18.1046 21.2249 17 21.2249H7C5.89543 21.2249 5 20.3295 5 19.2249V13.2249Z"/>
</mask>
<path d="M5 13.2249C5 12.1203 5.89543 11.2249 7 11.2249H17C18.1046 11.2249 19 12.1203 19 13.2249V19.2249C19 20.3295 18.1046 21.2249 17 21.2249H7C5.89543 21.2249 5 20.3295 5 19.2249V13.2249Z" fill="black"/>
<path d="M7 12.5442H17V9.90559H7V12.5442ZM17.6807 13.2249V19.2249H20.3193V13.2249H17.6807ZM17 19.9056H7V22.5442H17V19.9056ZM6.31933 19.2249V13.2249H3.68067V19.2249H6.31933ZM7 19.9056C6.62408 19.9056 6.31933 19.6008 6.31933 19.2249H3.68067C3.68067 21.0581 5.16679 22.5442 7 22.5442V19.9056ZM17.6807 19.2249C17.6807 19.6008 17.3759 19.9056 17 19.9056V22.5442C18.8332 22.5442 20.3193 21.0581 20.3193 19.2249H17.6807ZM17 12.5442C17.3759 12.5442 17.6807 12.849 17.6807 13.2249H20.3193C20.3193 11.3917 18.8332 9.90559 17 9.90559V12.5442ZM7 9.90559C5.16679 9.90559 3.68067 11.3917 3.68067 13.2249H6.31933C6.31933 12.849 6.62407 12.5442 7 12.5442V9.90559Z" fill="black" mask="url(#path-1-inside-1)"/>
<path d="M15.5 9.02155V6.5C15.5 5.67157 14.8284 5 14 5H12H10C9.17157 5 8.5 5.67157 8.5 6.5V12" stroke="black" stroke-width="1.5"/>
</svg>
