<svg width="24" height="24" viewBox="0 0 24 24" fill="none" xmlns="http://www.w3.org/2000/svg">
<path fill-rule="evenodd" clip-rule="evenodd" d="M15.4179 5.64279C15.1352 5.19159 14.5978 4.96897 14.0788 5.08813L12.28 5.50122C12.0959 5.5435 11.9046 5.5435 11.7205 5.50122L9.92162 5.08813C9.4027 4.96897 8.86524 5.19159 8.58257 5.64279L7.60269 7.20685C7.5024 7.36694 7.36713 7.50221 7.20704 7.60251L5.64297 8.58238C5.19177 8.86506 4.96915 9.40251 5.08832 9.92144L5.5014 11.7203C5.54369 11.9044 5.54369 12.0957 5.50141 12.2798L5.08832 14.0787C4.96915 14.5976 5.19177 15.135 5.64297 15.4177L7.20704 16.3976C7.36713 16.4979 7.5024 16.6331 7.60269 16.7932L8.58257 18.3573C8.86524 18.8085 9.4027 19.0311 9.92162 18.912L11.7205 18.4989C11.9046 18.4566 12.0959 18.4566 12.28 18.4989L14.0788 18.912C14.5978 19.0311 15.1352 18.8085 15.4179 18.3573L16.3978 16.7932C16.4981 16.6332 16.6333 16.4979 16.7934 16.3976L18.3575 15.4177C18.8087 15.135 19.0313 14.5976 18.9121 14.0787L18.4991 12.2798C18.4568 12.0957 18.4568 11.9044 18.4991 11.7203L18.9121 9.92144C19.0313 9.40251 18.8087 8.86506 18.3575 8.58238L16.7934 7.60251C16.6333 7.50221 16.4981 7.36694 16.3978 7.20685L15.4179 5.64279ZM14.9152 9.76963C15.0556 9.53186 14.9767 9.22527 14.7389 9.08485C14.5011 8.94443 14.1945 9.02335 14.0541 9.26113L11.4402 13.6872L9.86121 12.1751C9.66177 11.9841 9.34526 11.9909 9.15426 12.1903C8.96327 12.3898 8.97012 12.7063 9.16956 12.8973L11.2042 14.8457C11.3144 14.9514 11.4669 15.0008 11.6182 14.98C11.7694 14.9591 11.9029 14.8704 11.9805 14.7389L14.9152 9.76963Z" fill="black"/>
</svg>
