<svg width="24" height="24" viewBox="0 0 24 24" fill="none" xmlns="http://www.w3.org/2000/svg">
<path d="M10 7.5L7 10H4V14H7L10 16.5H12V7.5H10Z" fill="black"/>
<path d="M15.0002 11.9997C15.0002 11.606 14.9223 11.2161 14.7717 10.8523C14.6209 10.4883 14.3999 10.1572 14.1213 9.87862C13.926 9.68336 13.926 9.36686 14.1213 9.17159C14.3166 8.97633 14.6331 8.97633 14.8283 9.17159C15.1998 9.54303 15.4945 9.98414 15.6955 10.4694C15.8965 10.9546 16.0002 11.4746 16.0002 11.9997C16.0002 12.525 15.8965 13.0457 15.6955 13.531C15.4945 14.0162 15.1997 14.4574 14.8283 14.8288C14.6331 15.0238 14.3165 15.0238 14.1213 14.8288C13.9261 14.6336 13.9263 14.3171 14.1213 14.1218C14.3999 13.8432 14.6209 13.5121 14.7717 13.1482C14.9225 12.7842 15.0002 12.3937 15.0002 11.9997Z" fill="black"/>
</svg>
