<svg width="24" height="24" viewBox="0 0 24 24" fill="none" xmlns="http://www.w3.org/2000/svg">
<path d="M10 7.5L7 10H4V14H7L10 16.5H12V7.5H10Z" fill="black"/>
<path d="M17.0005 11.9995C17.0004 11.2774 16.8578 10.5621 16.5815 9.89498C16.3051 9.22773 15.8998 8.6215 15.3891 8.1108C15.1939 7.91554 15.1939 7.59903 15.3891 7.40377C15.5844 7.20851 15.9009 7.20851 16.0962 7.40377C16.6997 8.00729 17.1787 8.72364 17.5053 9.51217C17.8319 10.3006 18.0004 11.146 18.0005 11.9995C18.0005 12.8531 17.832 13.6991 17.5053 14.4878C17.1787 15.2763 16.6997 15.9926 16.0962 16.5962C15.9009 16.7914 15.5844 16.7914 15.3891 16.5962C15.1939 16.4009 15.1939 16.0844 15.3891 15.8891C15.8998 15.3784 16.3051 14.7722 16.5815 14.1049C16.8579 13.4377 17.0005 12.7217 17.0005 11.9995Z" fill="black"/>
<path d="M18.9996 12.0005C18.9996 11.0157 18.8061 10.0402 18.4293 9.13033C18.0524 8.22039 17.4997 7.39318 16.8033 6.69674C16.608 6.50148 16.608 6.18497 16.8033 5.98971C16.9986 5.79445 17.3151 5.79445 17.5103 5.98971C18.2996 6.77901 18.9259 7.71625 19.3531 8.74752C19.7802 9.77871 19.9996 10.8843 19.9996 12.0005C19.9995 13.1164 19.7801 14.2214 19.3531 15.2524C18.926 16.2836 18.2996 17.2209 17.5103 18.0102C17.3151 18.2055 16.9986 18.2055 16.8033 18.0102C16.6082 17.8149 16.6081 17.4984 16.8033 17.3032C17.4996 16.6068 18.0524 15.7804 18.4293 14.8706C18.8061 13.9607 18.9995 12.9852 18.9996 12.0005Z" fill="black"/>
<path d="M15.0002 11.9997C15.0002 11.606 14.9223 11.2161 14.7717 10.8523C14.6209 10.4883 14.3999 10.1572 14.1213 9.87862C13.926 9.68336 13.926 9.36686 14.1213 9.17159C14.3166 8.97633 14.6331 8.97633 14.8283 9.17159C15.1998 9.54303 15.4945 9.98414 15.6955 10.4694C15.8965 10.9546 16.0002 11.4746 16.0002 11.9997C16.0002 12.525 15.8965 13.0457 15.6955 13.531C15.4945 14.0162 15.1997 14.4574 14.8283 14.8288C14.6331 15.0238 14.3165 15.0238 14.1213 14.8288C13.9261 14.6336 13.9263 14.3171 14.1213 14.1218C14.3999 13.8432 14.6209 13.5121 14.7717 13.1482C14.9225 12.7842 15.0002 12.3937 15.0002 11.9997Z" fill="black"/>
</svg>
