<svg width="24" height="24" viewBox="0 0 24 24" fill="none" xmlns="http://www.w3.org/2000/svg">
<rect x="12.4999" y="6.5" width="7" height="11" rx="1.5" stroke="black"/>
<path fill-rule="evenodd" clip-rule="evenodd" d="M5.49995 6C4.67152 6 3.99995 6.67157 3.99995 7.5V16.5C3.99995 17.3284 4.67152 18 5.49995 18H15.4999C16.3284 18 16.9999 17.3284 16.9999 16.5V7.5C16.9999 6.67157 16.3284 6 15.4999 6H5.49995ZM7.49995 13.5C8.32837 13.5 8.99995 12.8284 8.99995 12C8.99995 11.1716 8.32837 10.5 7.49995 10.5C6.67152 10.5 5.99995 11.1716 5.99995 12C5.99995 12.8284 6.67152 13.5 7.49995 13.5Z" fill="black"/>
</svg>
