<svg width="24" height="24" viewBox="0 0 24 24" fill="none" xmlns="http://www.w3.org/2000/svg">
<path fill-rule="evenodd" clip-rule="evenodd" d="M11.9993 6C12.5244 6.00003 13.0444 6.10379 13.5295 6.30469C14.0148 6.5057 14.456 6.80049 14.8274 7.17188C15.1988 7.54329 15.4936 7.98447 15.6946 8.46973C15.8955 8.95491 15.9993 9.47486 15.9993 10H16.4475C16.7433 10 16.974 10.2555 16.9446 10.5498L16.0452 19.5498C16.0196 19.8054 15.804 20 15.5471 20H8.45238C8.19559 19.9999 7.98091 19.8053 7.95531 19.5498L7.05492 10.5498C7.02549 10.2555 7.25716 10 7.55297 10H7.99926C7.99926 9.47483 8.10302 8.95494 8.30395 8.46973C8.50497 7.98446 8.79972 7.54329 9.17113 7.17188C9.54255 6.8005 9.98373 6.50569 10.469 6.30469C10.9541 6.10381 11.4742 6 11.9993 6ZM12.3079 12.5312C12.1341 12.3634 11.8664 12.3635 11.6926 12.5312C11.1966 13.0103 10.2555 14.0362 10.0442 15.0947C10.0375 15.1263 10.0327 15.1584 10.0276 15.1904C10.022 15.2259 10.0158 15.2613 10.012 15.2969C10.0045 15.3668 10.0003 15.4379 10.0002 15.5098C10.0002 16.6143 10.8957 17.5098 12.0002 17.5098C13.1047 17.5097 14.0002 16.6143 14.0002 15.5098C14.0002 15.4378 13.995 15.3668 13.9875 15.2969C13.9837 15.2613 13.9775 15.226 13.9719 15.1904C13.9667 15.1583 13.962 15.1263 13.9553 15.0947C13.744 14.0363 12.8039 13.0103 12.3079 12.5312ZM11.9993 7C11.6054 7 11.2147 7.07781 10.8508 7.22852C10.487 7.37926 10.1566 7.60048 9.87817 7.87891C9.59971 8.15736 9.37854 8.48777 9.22778 8.85156C9.07701 9.21554 8.99926 9.60603 8.99926 10H14.9993C14.9993 9.60606 14.9215 9.21552 14.7707 8.85156C14.62 8.48779 14.3988 8.15736 14.1204 7.87891C13.8419 7.60048 13.5114 7.37927 13.1477 7.22852C12.7838 7.07778 12.3931 7.00003 11.9993 7Z" fill="black"/>
</svg>
