<svg width="24" height="24" viewBox="0 0 24 24" fill="none" xmlns="http://www.w3.org/2000/svg">
<path d="M8 20.5H17.5C18.0523 20.5 18.5 20.0523 18.5 19.5V6" stroke="black" stroke-linecap="round"/>
<path fill-rule="evenodd" clip-rule="evenodd" d="M5 4.0749C5 3.48125 5.47736 3 6.0662 3H15.5097C16.0986 3 16.5759 3.48125 16.5759 4.0749V17.4855C16.5759 18.0792 16.0986 18.5604 15.5097 18.5604H6.0662C5.47736 18.5604 5 18.0792 5 17.4855V4.0749ZM8.22161 14.2881C7.8069 13.968 7.8069 13.3524 8.22161 13.0323C8.93304 12.4831 9.8227 12.1568 10.7879 12.1568C11.7532 12.1568 12.6428 12.4831 13.3543 13.0323C13.769 13.3524 13.769 13.968 13.3543 14.2881C12.6428 14.8373 11.7532 15.1636 10.7879 15.1636C9.8227 15.1636 8.93304 14.8373 8.22161 14.2881ZM10.7859 11.4041C11.8824 11.4041 12.7713 10.2832 12.7713 8.90046C12.7713 7.51772 11.8824 6.39679 10.7859 6.39679C9.68945 6.39679 8.80058 7.51772 8.80058 8.90046C8.80058 10.2832 9.68945 11.4041 10.7859 11.4041Z" stroke="black"/>
</svg>
