<svg width="24" height="24" viewBox="0 0 24 24" fill="none" xmlns="http://www.w3.org/2000/svg">
<path d="M19.5 9.5H17.5V16.5H19.5V18.5H4.49998V16.5H6.49998V9.5H4.49998V7L12 3.5L19.5 7V9.5Z" stroke="black" stroke-linejoin="round"/>
<path d="M9.50002 14.5L9.5 8.5" stroke="black" stroke-linecap="square" stroke-linejoin="round"/>
<path d="M10 8.5C10 8.5 10.5065 8.5 12.6034 8.5C14.7002 8.5 14.8365 11.5 12.6034 11.5C15.0508 11.5 15.4988 14.5 12.6034 14.5C11.1883 14.5 10 14.5 10 14.5" stroke="black" stroke-linecap="square" stroke-linejoin="round"/>
<path d="M10 11.5L12.5594 11.5" stroke="black" stroke-linecap="square" stroke-linejoin="round"/>
<path d="M11.5 8.5L11.5 7" stroke="black" stroke-linecap="round" stroke-linejoin="round"/>
<path d="M11.5 16L11.5 14.5" stroke="black" stroke-linecap="round" stroke-linejoin="round"/>
</svg>
