<svg width="24" height="24" viewBox="0 0 24 24" fill="none" xmlns="http://www.w3.org/2000/svg">
<path d="M17.1351 8.96007L17.5086 8.92584L17.5083 8.92333L17.1351 8.96007ZM13.4253 6.43215L13.0503 6.43277L13.0509 6.77302L13.3896 6.80544L13.4253 6.43215ZM15.7799 11.4234L15.6214 11.0836L14.6513 11.5361L15.6917 11.7879L15.7799 11.4234ZM17.9758 14.4945L17.6026 14.4574L17.6025 14.4584L17.9758 14.4945ZM13.3564 17.5752L13.3378 17.2007L12.9808 17.2184L12.9814 17.5758L13.3564 17.5752ZM13.3604 19.9947L13.3609 20.3697L13.736 20.3692L13.7354 19.9941L13.3604 19.9947ZM11.8381 19.9966L11.4631 19.9972L11.4637 20.3721L11.8386 20.3716L11.8381 19.9966ZM11.8341 17.5771L12.2091 17.5765L12.2084 17.2074L11.8394 17.2021L11.8341 17.5771ZM11.3153 17.5796L11.3101 17.2047L11.3101 17.2047L11.3153 17.5796ZM10.5837 17.5787L10.5954 17.2038L10.2081 17.1917L10.2087 17.5793L10.5837 17.5787ZM10.5878 19.9982L10.5882 20.3732L10.9634 20.3727L10.9628 19.9975L10.5878 19.9982ZM9.06823 20.0001L8.69323 20.0007L8.69386 20.3755L9.0687 20.3751L9.06823 20.0001ZM9.06418 17.5806L9.43918 17.5799L9.43857 17.2127L9.07136 17.2056L9.06418 17.5806ZM6.01983 17.5222L5.64871 17.4684L5.58768 17.889L6.01264 17.8972L6.01983 17.5222ZM6.27638 15.754L6.28439 15.3791L5.95288 15.372L5.90527 15.7001L6.27638 15.754ZM7.40486 15.7657L7.40292 15.3907L6.0624 15.3977L7.21195 16.0873L7.40486 15.7657ZM7.98507 15.2814L8.35514 15.342L8.36013 15.3115L8.36007 15.2807L7.98507 15.2814ZM7.9775 11.4028L7.60249 11.4012L7.6025 11.4036L7.9775 11.4028ZM7.98945 8.64238L8.36445 8.644L8.36459 8.61292L8.3596 8.58224L7.98945 8.64238ZM7.11848 7.99892L6.87242 7.71593L6.13467 8.3574L7.11216 8.37386L7.11848 7.99892ZM6.00388 8.00031L5.62889 8.0012L5.6298 8.38549L6.01396 8.37517L6.00388 8.00031ZM6.00003 6.37926L5.99956 6.00426L5.62414 6.00473L5.62503 6.38015L6.00003 6.37926ZM9.11972 6.37537L9.12019 6.75037L9.49535 6.74991L9.49472 6.37475L9.11972 6.37537ZM9.11576 4.00543L9.11529 3.63043L8.74013 3.6309L8.74076 4.00606L9.11576 4.00543ZM10.6874 4.00347L11.0624 4.00284L11.0618 3.628L10.687 3.62847L10.6874 4.00347ZM10.6914 6.37341L10.3164 6.37404L10.317 6.7586L10.7015 6.74828L10.6914 6.37341ZM11.5968 6.36995L11.5938 6.74494L11.5947 6.74495L11.5968 6.36995ZM11.5968 6.36995L11.5997 5.99496L11.5988 5.99496L11.5968 6.36995ZM11.8961 6.37191L11.8946 6.74691L12.2717 6.74845L12.2711 6.37128L11.8961 6.37191ZM11.8921 4.00197L11.8917 3.62697L11.5165 3.62744L11.5171 4.0026L11.8921 4.00197ZM13.4213 4.00006L13.7963 3.99944L13.7957 3.62459L13.4208 3.62506L13.4213 4.00006ZM10.5815 10.8944L10.5973 10.5197L10.5971 10.5197L10.5815 10.8944ZM10.5043 10.8912H10.1293V11.2508L10.4887 11.2658L10.5043 10.8912ZM14.2543 9.43656L14.6293 9.43754L14.6293 9.43553L14.2543 9.43656ZM10.8305 7.97759L10.8226 7.60267L10.8305 7.97759ZM10.5043 7.98197L10.5072 7.60698L10.1293 7.60406V7.98197H10.5043ZM10.5 15.6368L10.125 15.6368L10.125 15.9983L10.4862 16.0115L10.5 15.6368ZM10.6339 15.642L10.6488 15.2673L10.6488 15.2673L10.6339 15.642ZM10.5 12.7276L10.5034 12.3526L10.125 12.3492L10.125 12.7276L10.5 12.7276ZM10.8587 12.7253L10.8633 13.1003L10.8633 13.1003L10.8587 12.7253ZM14.9908 14.219L14.6157 14.2157L14.6158 14.2224L14.9908 14.219ZM17.5083 8.92333C17.4095 7.92011 16.9029 7.23365 16.1501 6.78814C15.4202 6.3562 14.4694 6.15539 13.4611 6.05886L13.3896 6.80544C14.3639 6.89872 15.1819 7.08664 15.7681 7.43359C16.3315 7.76697 16.6883 8.24956 16.7619 8.99682L17.5083 8.92333ZM15.9384 11.7633C16.448 11.5255 16.882 11.1836 17.168 10.701C17.4547 10.2172 17.5727 9.62594 17.5086 8.92584L16.7617 8.9943C16.8145 9.57033 16.7136 9.99676 16.5228 10.3186C16.3313 10.6417 16.0292 10.8934 15.6214 11.0836L15.9384 11.7633ZM18.3489 14.5317C18.4485 13.5315 18.2618 12.7467 17.7972 12.1596C17.3378 11.579 16.6513 11.2485 15.8681 11.0589L15.6917 11.7879C16.3896 11.9568 16.8941 12.227 17.209 12.6249C17.5186 13.0162 17.6892 13.5878 17.6026 14.4574L18.3489 14.5317ZM13.375 17.9497C14.6786 17.885 15.8526 17.6985 16.7371 17.1908C17.6538 16.6646 18.2249 15.8139 18.349 14.5306L17.6025 14.4584C17.5 15.5187 17.0538 16.1442 16.3637 16.5403C15.6413 16.955 14.6189 17.137 13.3378 17.2007L13.375 17.9497ZM13.7354 19.9941L13.7314 17.5746L12.9814 17.5758L12.9854 19.9953L13.7354 19.9941ZM11.8386 20.3716L13.3609 20.3697L13.36 19.6197L11.8377 19.6216L11.8386 20.3716ZM11.4591 17.5777L11.4631 19.9972L12.2131 19.996L12.2091 17.5765L11.4591 17.5777ZM11.3206 17.9546C11.5 17.9521 11.6686 17.9498 11.8288 17.9521L11.8394 17.2021C11.6668 17.1997 11.4875 17.2022 11.3101 17.2047L11.3206 17.9546ZM10.572 17.9535C10.8287 17.9615 11.0835 17.9579 11.3206 17.9546L11.3101 17.2047C11.0704 17.208 10.8325 17.2112 10.5954 17.2038L10.572 17.9535ZM10.9628 19.9975L10.9587 17.578L10.2087 17.5793L10.2128 19.9988L10.9628 19.9975ZM9.0687 20.3751L10.5882 20.3732L10.5873 19.6232L9.06776 19.6251L9.0687 20.3751ZM8.68918 17.5812L8.69323 20.0007L9.44323 19.9994L9.43918 17.5799L8.68918 17.5812ZM6.01264 17.8972L9.057 17.9555L9.07136 17.2056L6.02701 17.1473L6.01264 17.8972ZM5.90527 15.7001L5.64871 17.4684L6.39094 17.5761L6.6475 15.8078L5.90527 15.7001ZM7.21195 16.0873C7.19833 16.0791 7.08167 16.0128 7.04212 15.8601C6.98753 15.6493 7.12237 15.5117 7.17235 15.4722C7.22263 15.4324 7.27063 15.416 7.28285 15.4118C7.30211 15.4052 7.31779 15.4017 7.32573 15.4C7.34197 15.3965 7.35445 15.3951 7.35825 15.3947C7.36356 15.3941 7.36735 15.3938 7.36873 15.3937C7.3721 15.3934 7.3693 15.3937 7.35544 15.394C7.33069 15.3944 7.2912 15.3945 7.23933 15.3943C7.13671 15.3938 6.9967 15.392 6.85459 15.3897C6.71281 15.3874 6.57025 15.3848 6.46304 15.3827C6.40945 15.3816 6.36475 15.3807 6.33346 15.3801C6.31782 15.3798 6.30553 15.3795 6.29716 15.3793C6.29297 15.3792 6.28977 15.3792 6.28762 15.3791C6.28654 15.3791 6.28573 15.3791 6.28519 15.3791C6.28492 15.3791 6.28471 15.3791 6.28458 15.3791C6.28451 15.3791 6.28446 15.3791 6.28443 15.3791C6.28441 15.3791 6.2844 15.3791 6.28439 15.3791C6.28439 15.3791 6.28439 15.3791 6.27638 15.754C6.26838 16.1289 6.26839 16.1289 6.2684 16.1289C6.26841 16.1289 6.26842 16.1289 6.26844 16.1289C6.26848 16.1289 6.26853 16.1289 6.2686 16.1289C6.26875 16.1289 6.26896 16.1289 6.26924 16.1289C6.26981 16.1289 6.27064 16.1289 6.27174 16.129C6.27394 16.129 6.27719 16.1291 6.28142 16.1292C6.28988 16.1294 6.30228 16.1296 6.31803 16.1299C6.34954 16.1306 6.3945 16.1315 6.44837 16.1325C6.55608 16.1347 6.69963 16.1373 6.84264 16.1396C6.98531 16.1419 7.12875 16.1438 7.23573 16.1443C7.28865 16.1445 7.33549 16.1445 7.36954 16.1438C7.38508 16.1435 7.4048 16.143 7.42267 16.1417C7.42661 16.1415 7.45208 16.1399 7.48127 16.1337C7.48998 16.1318 7.5063 16.1281 7.52607 16.1213C7.53879 16.1169 7.58716 16.1004 7.63767 16.0604C7.68788 16.0207 7.82281 15.883 7.76817 15.672C7.72857 15.5191 7.61172 15.4525 7.59777 15.4442L7.21195 16.0873ZM7.615 15.2208C7.60628 15.274 7.58734 15.3171 7.56466 15.342C7.55502 15.3526 7.54251 15.3626 7.52274 15.371C7.50237 15.3797 7.46531 15.3904 7.40292 15.3907L7.4068 16.1407C7.7144 16.1391 7.95464 16.0277 8.11928 15.8468C8.27306 15.6779 8.33257 15.4798 8.35514 15.342L7.615 15.2208ZM7.6025 11.4036L7.61007 15.2821L8.36007 15.2807L8.3525 11.4021L7.6025 11.4036ZM7.61446 8.64075L7.6025 11.4012L8.35249 11.4045L8.36445 8.644L7.61446 8.64075ZM7.11216 8.37386C7.35221 8.37791 7.46313 8.44401 7.51568 8.49244C7.57206 8.5444 7.60542 8.61705 7.61931 8.70251L8.3596 8.58224C8.32674 8.37997 8.23577 8.13613 8.02393 7.94091C7.80826 7.74217 7.50706 7.63041 7.12479 7.62397L7.11216 8.37386ZM6.00388 8.00031C6.01396 8.37517 6.01396 8.37517 6.01396 8.37517C6.01397 8.37517 6.01398 8.37517 6.01399 8.37517C6.01402 8.37517 6.01407 8.37517 6.01413 8.37517C6.01426 8.37516 6.01445 8.37516 6.01472 8.37515C6.01524 8.37514 6.01604 8.37512 6.0171 8.37509C6.01922 8.37503 6.02239 8.37495 6.02654 8.37484C6.03483 8.37462 6.04703 8.37431 6.06257 8.37392C6.09366 8.37314 6.13809 8.37206 6.19132 8.37085C6.29788 8.36843 6.43924 8.36552 6.57923 8.36352C6.72006 8.36152 6.85635 8.36049 6.95406 8.36167C7.00443 8.36229 7.03739 8.36342 7.05406 8.36459C7.06683 8.36549 7.05472 8.36538 7.03355 8.36087C7.02678 8.35944 7.01348 8.35639 6.99679 8.35081C6.9842 8.3466 6.9476 8.33391 6.90665 8.30592C6.87552 8.28464 6.76085 8.19923 6.74572 8.03122C6.72977 7.85412 6.83707 7.74666 6.87242 7.71593L7.36453 8.2819C7.40094 8.25025 7.50873 8.1419 7.4927 7.96394C7.47749 7.79507 7.36218 7.70882 7.32987 7.68674C7.26103 7.63968 7.1914 7.62767 7.18954 7.62728C7.15527 7.61999 7.12196 7.61752 7.10657 7.61644C7.06692 7.61365 7.01571 7.61237 6.96318 7.61173C6.85508 7.61041 6.7106 7.61157 6.56855 7.6136C6.42566 7.61563 6.28201 7.6186 6.17429 7.62104C6.12038 7.62227 6.07535 7.62336 6.04376 7.62416C6.02797 7.62455 6.01553 7.62487 6.00701 7.62509C6.00276 7.6252 5.99948 7.62529 5.99726 7.62535C5.99614 7.62538 5.9953 7.6254 5.99472 7.62542C5.99443 7.62542 5.99421 7.62543 5.99406 7.62543C5.99398 7.62544 5.99392 7.62544 5.99388 7.62544C5.99386 7.62544 5.99384 7.62544 5.99383 7.62544C5.99382 7.62544 5.99381 7.62544 6.00388 8.00031ZM5.62503 6.38015L5.62889 8.0012L6.37888 7.99941L6.37503 6.37837L5.62503 6.38015ZM9.11926 6.00037L5.99956 6.00426L6.0005 6.75426L9.12019 6.75037L9.11926 6.00037ZM8.74076 4.00606L8.74473 6.376L9.49472 6.37475L9.49076 4.0048L8.74076 4.00606ZM10.687 3.62847L9.11529 3.63043L9.11622 4.38043L10.6879 4.37847L10.687 3.62847ZM11.0664 6.37279L11.0624 4.00284L10.3124 4.0041L10.3164 6.37404L11.0664 6.37279ZM11.5997 5.99496C11.298 5.99262 10.9923 5.9902 10.6813 5.99855L10.7015 6.74828C10.9973 6.74033 11.2901 6.74258 11.5938 6.74494L11.5997 5.99496ZM11.5988 5.99496L11.5988 5.99496L11.5947 6.74495L11.5947 6.74495L11.5988 5.99496ZM11.8976 5.99692C11.7981 5.99651 11.6991 5.99574 11.5997 5.99496L11.5939 6.74494C11.6931 6.74571 11.7935 6.7465 11.8946 6.74691L11.8976 5.99692ZM11.5171 4.0026L11.5211 6.37254L12.2711 6.37128L12.2671 4.00134L11.5171 4.0026ZM13.4208 3.62506L11.8917 3.62697L11.8926 4.37697L13.4218 4.37506L13.4208 3.62506ZM13.8003 6.43153L13.7963 3.99944L13.0463 4.00068L13.0503 6.43277L13.8003 6.43153ZM10.5971 10.5197L10.52 10.5165L10.4887 11.2658L10.5659 11.2691L10.5971 10.5197ZM13.8793 9.43558C13.8786 9.71347 13.7678 9.90462 13.5761 10.0562C13.3691 10.2199 13.0617 10.3395 12.6865 10.4179C11.9372 10.5746 11.0657 10.5395 10.5973 10.5197L10.5657 11.269C11.0225 11.2884 11.9853 11.3308 12.84 11.1521C13.2669 11.0628 13.7039 10.9114 14.0414 10.6444C14.3942 10.3653 14.6279 9.96613 14.6293 9.43754L13.8793 9.43558ZM10.8384 8.3525C11.3899 8.34083 12.1946 8.32597 12.8585 8.48846C13.189 8.56936 13.4487 8.68633 13.6208 8.8395C13.7799 8.98098 13.8786 9.1645 13.8793 9.4376L14.6293 9.43553C14.6279 8.94296 14.4332 8.5584 14.1194 8.27917C13.8187 8.01163 13.4261 7.85526 13.0368 7.75997C12.261 7.57006 11.3559 7.59139 10.8226 7.60267L10.8384 8.3525ZM10.5014 8.35696C10.5954 8.35768 10.7123 8.35517 10.8384 8.3525L10.8226 7.60267C10.6924 7.60543 10.5879 7.6076 10.5072 7.60698L10.5014 8.35696ZM10.8793 10.8912V7.98197H10.1293V10.8912H10.8793ZM10.4862 16.0115C10.5261 16.013 10.5703 16.0148 10.619 16.0167L10.6488 15.2673C10.6004 15.2654 10.555 15.2635 10.5138 15.262L10.4862 16.0115ZM10.125 12.7276L10.125 15.6368L10.875 15.6368L10.875 12.7276L10.125 12.7276ZM10.8542 12.3503C10.7122 12.352 10.5952 12.3534 10.5034 12.3526L10.4966 13.1026C10.5981 13.1035 10.7242 13.1019 10.8633 13.1003L10.8542 12.3503ZM15.3658 14.2223C15.3704 13.6975 15.1211 13.3042 14.7553 13.0315C14.4051 12.7705 13.9467 12.6162 13.4872 12.5203C12.5658 12.3281 11.4878 12.3427 10.8542 12.3503L10.8633 13.1003C11.5117 13.0924 12.5065 13.0819 13.3341 13.2545C13.749 13.3411 14.0841 13.4666 14.3071 13.6328C14.5144 13.7873 14.618 13.9687 14.6158 14.2157L15.3658 14.2223ZM10.619 16.0167C11.1832 16.0391 12.3146 16.0854 13.308 15.9159C13.8022 15.8316 14.3008 15.6882 14.6838 15.4337C15.0828 15.1686 15.3708 14.7694 15.3658 14.2156L14.6158 14.2224C14.618 14.4671 14.5074 14.6505 14.2688 14.809C14.0142 14.9782 13.6362 15.0991 13.1819 15.1766C12.2779 15.3308 11.2237 15.2901 10.6488 15.2673L10.619 16.0167Z" fill="black"/>
</svg>
