<svg width="30" height="30" viewBox="0 0 30 30" fill="none" xmlns="http://www.w3.org/2000/svg">
<mask id="path-1-inside-1" fill="white">
<path fill-rule="evenodd" clip-rule="evenodd" d="M12.8239 23.7313C17.6512 24.933 22.5315 21.9906 23.7325 17.1721C24.9305 12.3507 21.9929 7.45565 17.1626 6.2687C12.347 5.06703 7.46966 8.00937 6.26871 12.8279C5.06777 17.6463 8.00538 22.5267 12.8239 23.7313ZM17.2618 11.5759C18.5118 12 19.4235 12.6274 19.2618 13.8292C19.1382 14.704 18.6618 15.1311 18.0029 15.2813C18.9029 15.7437 19.3529 16.4448 18.9412 17.6731C18.4294 19.2136 17.1676 19.352 15.4794 19.0515L15.0912 20.6922L14.1029 20.4536L14.4912 18.8395C14.2412 18.7776 13.9794 18.7128 13.7029 18.6392L13.3147 20.2651L12.3265 20.0265L12.7147 18.3859C12.5788 18.3465 12.4375 18.3125 12.2941 18.2781C12.2016 18.2558 12.1081 18.2334 12.0147 18.2091L10.7265 17.9087L11.1941 16.7688C11.1941 16.7688 11.9323 16.9573 11.9206 16.9455C12.1941 17.0074 12.3206 16.8306 12.3706 16.7069L12.9706 14.1149C12.9897 14.1208 13.0051 14.1237 13.0206 14.1267C13.036 14.1296 13.0515 14.1326 13.0706 14.1384C13.0458 14.1213 13.0223 14.1152 13.0017 14.1099C12.9904 14.107 12.9799 14.1043 12.9706 14.1002L13.4088 12.2474C13.4235 12.0471 13.3471 11.785 12.9471 11.6848C12.9735 11.6701 12.2353 11.5081 12.2353 11.5081L12.4853 10.4566L13.8471 10.7835C13.9529 10.8085 14.0596 10.8306 14.1662 10.8527C14.2728 10.8748 14.3794 10.8969 14.4853 10.9219L14.8735 9.29603L15.8735 9.53462L15.4971 11.1252C15.7588 11.1782 16.0235 11.2401 16.2853 11.3019L16.6618 9.71135L17.65 9.94993L17.2618 11.5759ZM14.1854 17.4902C14.98 17.6943 16.7718 18.1545 17.0382 17.0191C17.3064 15.8687 15.6266 15.5065 14.7838 15.3247C14.6837 15.3031 14.5954 15.2841 14.5235 15.2666L14.0118 17.4462C14.062 17.4585 14.1204 17.4735 14.1854 17.4902ZM14.8972 14.3026C15.5599 14.4739 17.0685 14.864 17.3118 13.8292C17.5586 12.7906 16.1507 12.489 15.4544 12.3398C15.3707 12.3219 15.2973 12.3062 15.2382 12.2916L14.7618 14.268C14.8014 14.2778 14.8469 14.2896 14.8972 14.3026Z"/>
</mask>
<path d="M23.7325 17.1721L24.4602 17.3535L24.4603 17.353L23.7325 17.1721ZM12.8239 23.7313L12.642 24.4589L12.6427 24.4591L12.8239 23.7313ZM17.1626 6.2687L16.981 6.9964L16.9836 6.99704L17.1626 6.2687ZM6.26871 12.8279L5.54098 12.6465L6.26871 12.8279ZM19.2618 13.8292L20.0044 13.934L20.0051 13.9292L19.2618 13.8292ZM17.2618 11.5759L16.5323 11.4017C16.4423 11.7784 16.654 12.1616 17.0208 12.2861L17.2618 11.5759ZM18.0029 15.2813L17.8362 14.5501C17.5289 14.6201 17.2982 14.8749 17.2588 15.1876C17.2194 15.5004 17.3798 15.8043 17.6602 15.9484L18.0029 15.2813ZM18.9412 17.6731L18.2301 17.4347L18.2294 17.4366L18.9412 17.6731ZM15.4794 19.0515L15.6108 18.3132C15.2191 18.2434 14.8412 18.4917 14.7496 18.8788L15.4794 19.0515ZM15.0912 20.6922L14.9152 21.4213C15.1091 21.4681 15.3137 21.4357 15.4837 21.3313C15.6537 21.2269 15.7751 21.059 15.821 20.8649L15.0912 20.6922ZM14.1029 20.4536L13.3737 20.2782C13.2769 20.6807 13.5245 21.0855 13.9269 21.1827L14.1029 20.4536ZM14.4912 18.8395L15.2204 19.0149C15.3168 18.614 15.0715 18.2105 14.6713 18.1114L14.4912 18.8395ZM13.7029 18.6392L13.896 17.9144C13.7005 17.8624 13.4923 17.8915 13.3186 17.9951C13.1449 18.0988 13.0204 18.2682 12.9734 18.465L13.7029 18.6392ZM13.3147 20.2651L13.1387 20.9942C13.3324 21.0409 13.5367 21.0087 13.7066 20.9046C13.8764 20.8005 13.9979 20.6331 14.0442 20.4393L13.3147 20.2651ZM12.3265 20.0265L11.5966 19.8538C11.5015 20.2556 11.7491 20.6587 12.1504 20.7556L12.3265 20.0265ZM12.7147 18.3859L13.4445 18.5586C13.5366 18.1696 13.3074 17.7768 12.9235 17.6655L12.7147 18.3859ZM12.2941 18.2781L12.1189 19.0073L12.1189 19.0073L12.2941 18.2781ZM12.0147 18.2091L12.2032 17.4832C12.1972 17.4816 12.1911 17.4802 12.185 17.4787L12.0147 18.2091ZM10.7265 17.9087L10.0326 17.624C9.94915 17.8274 9.95914 18.0571 10.0599 18.2525C10.1607 18.4478 10.342 18.5892 10.5561 18.6391L10.7265 17.9087ZM11.1941 16.7688L11.3797 16.0421C11.0173 15.9496 10.6422 16.1381 10.5002 16.4841L11.1941 16.7688ZM11.9206 16.9455L12.086 16.214C11.7604 16.1403 11.4253 16.2908 11.2639 16.5831C11.1026 16.8754 11.1539 17.2392 11.3898 17.4754L11.9206 16.9455ZM12.3706 16.7069L13.0659 16.988C13.0806 16.9516 13.0924 16.9142 13.1013 16.8761L12.3706 16.7069ZM12.9706 14.1149L13.1914 13.3981C12.9925 13.3368 12.7769 13.361 12.5965 13.4648C12.416 13.5687 12.2869 13.7429 12.2399 13.9457L12.9706 14.1149ZM13.0206 14.1267L12.88 14.8634L12.88 14.8634L13.0206 14.1267ZM13.0706 14.1384L12.8497 14.8552C13.2032 14.9641 13.5833 14.7991 13.7451 14.4664C13.9068 14.1337 13.8019 13.7328 13.4979 13.5221L13.0706 14.1384ZM13.0017 14.1099L12.8146 14.8362L12.8146 14.8362L13.0017 14.1099ZM12.9706 14.1002L12.2407 13.9275C12.1577 14.2784 12.3362 14.6387 12.6656 14.7853L12.9706 14.1002ZM13.4088 12.2474L14.1387 12.4201C14.1478 12.3814 14.1539 12.342 14.1568 12.3023L13.4088 12.2474ZM12.9471 11.6848L12.5824 11.0294C12.3135 11.1791 12.1632 11.4778 12.2035 11.7829C12.2438 12.0881 12.4663 12.3376 12.7649 12.4124L12.9471 11.6848ZM12.2353 11.5081L11.5056 11.3346C11.4591 11.5304 11.4931 11.7366 11.6001 11.9069C11.7071 12.0773 11.878 12.1976 12.0745 12.2407L12.2353 11.5081ZM12.4853 10.4566L12.6604 9.72728C12.4667 9.68078 12.2624 9.71324 12.0927 9.81751C11.923 9.92178 11.8017 10.0893 11.7556 10.2831L12.4853 10.4566ZM13.8471 10.7835L13.672 11.5128L13.6745 11.5134L13.8471 10.7835ZM14.1662 10.8527L14.3183 10.1183L14.3183 10.1183L14.1662 10.8527ZM14.4853 10.9219L14.3127 11.6518C14.7152 11.747 15.1187 11.4984 15.2148 11.0961L14.4853 10.9219ZM14.8735 9.29603L15.0476 8.56651C14.6447 8.47039 14.2402 8.71901 14.144 9.12184L14.8735 9.29603ZM15.8735 9.53462L16.6034 9.70736C16.6986 9.30479 16.45 8.9011 16.0476 8.80509L15.8735 9.53462ZM15.4971 11.1252L14.7672 10.9524C14.7204 11.1501 14.7558 11.3583 14.8653 11.5295C14.9748 11.7006 15.1491 11.8199 15.3482 11.8603L15.4971 11.1252ZM16.2853 11.3019L16.1128 12.0318C16.5158 12.1271 16.9197 11.8776 17.0151 11.4747L16.2853 11.3019ZM16.6618 9.71135L16.8378 8.98229C16.6438 8.93547 16.4393 8.96785 16.2693 9.07225C16.0993 9.17665 15.9779 9.34447 15.9319 9.5386L16.6618 9.71135ZM17.65 9.94993L18.3795 10.1241C18.4755 9.72195 18.2279 9.31792 17.826 9.22088L17.65 9.94993ZM17.0382 17.0191L17.7684 17.1905L17.7687 17.1894L17.0382 17.0191ZM14.1854 17.4902L13.9989 18.2166L13.9989 18.2166L14.1854 17.4902ZM14.7838 15.3247L14.6257 16.0579L14.6257 16.0579L14.7838 15.3247ZM14.5235 15.2666L14.7012 14.5379C14.5069 14.4905 14.3017 14.5227 14.1312 14.6274C13.9607 14.732 13.8391 14.9004 13.7934 15.0951L14.5235 15.2666ZM14.0118 17.4462L13.2816 17.2748C13.1875 17.6757 13.4341 18.0774 13.8342 18.1749L14.0118 17.4462ZM17.3118 13.8292L16.5821 13.6558L16.5817 13.6575L17.3118 13.8292ZM14.8972 14.3026L14.7094 15.0287L14.7094 15.0287L14.8972 14.3026ZM15.4544 12.3398L15.2973 13.0732L15.2973 13.0732L15.4544 12.3398ZM15.2382 12.2916L15.4176 11.5634C15.2239 11.5156 15.0191 11.5471 14.8485 11.6508C14.678 11.7545 14.5559 11.9218 14.5091 12.1158L15.2382 12.2916ZM14.7618 14.268L14.0326 14.0923C13.9359 14.4935 14.1816 14.8975 14.5823 14.9963L14.7618 14.268ZM23.0047 16.9908C21.9038 21.408 17.4299 24.105 13.005 23.0035L12.6427 24.4591C17.8725 25.7609 23.1593 22.5732 24.4602 17.3535L23.0047 16.9908ZM16.9836 6.99704C21.409 8.08449 24.103 12.5706 23.0046 16.9913L24.4603 17.353C25.7579 12.1308 22.5768 6.82682 17.3416 5.54037L16.9836 6.99704ZM6.99645 13.0092C8.09762 8.59106 12.5691 5.89544 16.981 6.99639L17.3442 5.54102C12.125 4.23862 6.84169 7.42768 5.54098 12.6465L6.99645 13.0092ZM13.0058 23.0037C8.58797 21.8992 5.89586 17.4251 6.99645 13.0092L5.54098 12.6465C4.23967 17.8676 7.42278 23.1541 12.642 24.4589L13.0058 23.0037ZM20.0051 13.9292C20.1187 13.0852 19.8427 12.3962 19.3186 11.8777C18.8327 11.397 18.1623 11.0894 17.5028 10.8656L17.0208 12.2861C17.6112 12.4864 18.0217 12.7047 18.2637 12.9441C18.4675 13.1458 18.5666 13.3713 18.5185 13.7291L20.0051 13.9292ZM18.1697 16.0125C18.6128 15.9115 19.0432 15.7049 19.3841 15.3358C19.7252 14.9664 19.926 14.489 20.0044 13.934L18.5191 13.7243C18.474 14.0441 18.3748 14.2177 18.2821 14.3181C18.1891 14.4188 18.0518 14.5009 17.8362 14.5501L18.1697 16.0125ZM19.6523 17.9114C19.8976 17.1796 19.9218 16.4923 19.6482 15.8829C19.3791 15.2833 18.8791 14.8883 18.3457 14.6142L17.6602 15.9484C18.0268 16.1368 18.2018 16.3235 18.2797 16.4971C18.3532 16.6609 18.3965 16.9383 18.2301 17.4347L19.6523 17.9114ZM15.348 19.7899C16.2163 19.9445 17.1071 20.0152 17.8808 19.7667C18.7238 19.496 19.3302 18.8809 19.6529 17.9095L18.2294 17.4366C18.0404 18.0057 17.76 18.2301 17.4221 18.3386C17.015 18.4693 16.4308 18.4591 15.6108 18.3132L15.348 19.7899ZM15.821 20.8649L16.2092 19.2243L14.7496 18.8788L14.3613 20.5195L15.821 20.8649ZM13.9269 21.1827L14.9152 21.4213L15.2672 19.9631L14.2789 19.7246L13.9269 21.1827ZM13.762 18.6641L13.3737 20.2782L14.8321 20.629L15.2204 19.0149L13.762 18.6641ZM13.5099 19.3639C13.7937 19.4395 14.0617 19.5058 14.311 19.5675L14.6713 18.1114C14.4207 18.0494 14.1651 17.9861 13.896 17.9144L13.5099 19.3639ZM14.0442 20.4393L14.4324 18.8134L12.9734 18.465L12.5852 20.0909L14.0442 20.4393ZM12.1504 20.7556L13.1387 20.9942L13.4907 19.536L12.5025 19.2975L12.1504 20.7556ZM11.9849 18.2132L11.5966 19.8538L13.0563 20.1992L13.4445 18.5586L11.9849 18.2132ZM12.1189 19.0073C12.2656 19.0426 12.3896 19.0725 12.5059 19.1062L12.9235 17.6655C12.768 17.6204 12.6095 17.5825 12.4693 17.5488L12.1189 19.0073ZM11.8262 18.9351C11.9274 18.9613 12.0274 18.9853 12.1189 19.0073L12.4693 17.5488C12.3757 17.5263 12.2889 17.5055 12.2032 17.4832L11.8262 18.9351ZM10.5561 18.6391L11.8444 18.9395L12.185 17.4787L10.8968 17.1783L10.5561 18.6391ZM10.5002 16.4841L10.0326 17.624L11.4203 18.1934L11.888 17.0534L10.5002 16.4841ZM11.3898 17.4754C11.3609 17.4465 11.3145 17.3954 11.2719 17.3218C11.2296 17.2489 11.1734 17.1232 11.1708 16.9576C11.168 16.7764 11.2304 16.6105 11.3309 16.4826C11.4213 16.3674 11.5242 16.3054 11.5869 16.2742C11.7038 16.2162 11.8064 16.2042 11.8341 16.201C11.8763 16.1961 11.91 16.1959 11.9275 16.1961C11.9631 16.1965 11.9905 16.1994 12.0003 16.2005C12.0131 16.2019 12.0232 16.2034 12.0286 16.2042C12.0457 16.2069 12.0556 16.2092 12.0478 16.2075C12.0382 16.2055 12.0178 16.2009 11.985 16.1931C11.9219 16.1781 11.8342 16.1565 11.7432 16.1338C11.6529 16.1113 11.562 16.0884 11.4935 16.071C11.4593 16.0624 11.4307 16.0551 11.4108 16.05C11.4008 16.0475 11.393 16.0455 11.3877 16.0441C11.385 16.0435 11.383 16.043 11.3817 16.0426C11.381 16.0424 11.3805 16.0423 11.3801 16.0422C11.38 16.0422 11.3799 16.0421 11.3798 16.0421C11.3797 16.0421 11.3797 16.0421 11.3797 16.0421C11.3797 16.0421 11.3797 16.0421 11.3797 16.0421C11.3797 16.0421 11.3797 16.0421 11.1941 16.7688C11.0085 17.4955 11.0086 17.4955 11.0086 17.4955C11.0086 17.4955 11.0086 17.4955 11.0086 17.4955C11.0086 17.4955 11.0087 17.4955 11.0087 17.4955C11.0088 17.4955 11.009 17.4956 11.0091 17.4956C11.0095 17.4957 11.0101 17.4959 11.0108 17.496C11.0122 17.4964 11.0144 17.4969 11.0171 17.4976C11.0226 17.499 11.0306 17.5011 11.0408 17.5037C11.0612 17.5089 11.0903 17.5163 11.1251 17.5251C11.1946 17.5427 11.2875 17.5661 11.3803 17.5893C11.4724 17.6122 11.567 17.6356 11.639 17.6526C11.6738 17.6609 11.7092 17.6691 11.7377 17.6751C11.749 17.6775 11.7735 17.6826 11.8002 17.6867C11.8033 17.6872 11.8519 17.6954 11.9116 17.696C11.9296 17.6962 11.9637 17.696 12.0062 17.6911C12.0343 17.6878 12.1372 17.6757 12.2543 17.6176C12.3759 17.5572 12.6772 17.3499 12.6706 16.9339C12.6658 16.6254 12.4789 16.4433 12.4513 16.4156L11.3898 17.4754ZM11.6752 16.4259C11.6806 16.4127 11.7074 16.3475 11.791 16.2873C11.8376 16.2537 11.8949 16.2272 11.958 16.2152C12.02 16.2032 12.0659 16.2094 12.086 16.214L11.7552 17.677C12.0891 17.7526 12.4113 17.6891 12.6678 17.5043C12.8955 17.3403 13.0106 17.1249 13.0659 16.988L11.6752 16.4259ZM12.2399 13.9457L11.6399 16.5378L13.1013 16.8761L13.7013 14.284L12.2399 13.9457ZM13.1611 13.39C13.1591 13.3896 13.1579 13.3893 13.1569 13.3891C13.156 13.389 13.1557 13.3889 13.1558 13.3889C13.156 13.389 13.1582 13.3894 13.1616 13.3902C13.1692 13.3919 13.1796 13.3945 13.1914 13.3981L12.7497 14.8316C12.8123 14.8509 12.8639 14.8603 12.88 14.8634L13.1611 13.39ZM13.2914 13.4217C13.2289 13.4024 13.1772 13.393 13.1611 13.3899L12.88 14.8634C12.8821 14.8638 12.8832 14.864 12.8842 14.8642C12.8851 14.8644 12.8854 14.8644 12.8853 14.8644C12.8851 14.8644 12.8829 14.8639 12.8795 14.8632C12.872 14.8614 12.8615 14.8588 12.8497 14.8552L13.2914 13.4217ZM12.8146 14.8362C12.833 14.841 12.739 14.8212 12.6433 14.7548L13.4979 13.5221C13.3527 13.4214 13.2116 13.3895 13.1887 13.3836L12.8146 14.8362ZM12.6656 14.7853C12.7092 14.8047 12.7466 14.8169 12.77 14.8239C12.7918 14.8304 12.8118 14.8355 12.8146 14.8362L13.1888 13.3836C13.1802 13.3814 13.1894 13.3837 13.2008 13.3871C13.2138 13.391 13.2413 13.3997 13.2756 13.415L12.6656 14.7853ZM12.679 12.0748L12.2407 13.9275L13.7004 14.2728L14.1387 12.4201L12.679 12.0748ZM12.7649 12.4124C12.7958 12.4201 12.7945 12.4245 12.7763 12.4124C12.7564 12.3992 12.7292 12.375 12.7054 12.3385C12.6579 12.2658 12.66 12.2041 12.6608 12.1925L14.1568 12.3023C14.1724 12.0905 14.1435 11.7976 13.9615 11.5187C13.7715 11.2275 13.4749 11.0438 13.1292 10.9573L12.7649 12.4124ZM12.2353 11.5081C12.0745 12.2407 12.0745 12.2407 12.0745 12.2407C12.0745 12.2407 12.0745 12.2407 12.0745 12.2407C12.0745 12.2407 12.0746 12.2407 12.0746 12.2407C12.0746 12.2407 12.0748 12.2407 12.0749 12.2408C12.0752 12.2408 12.0757 12.2409 12.0763 12.2411C12.0776 12.2414 12.0796 12.2418 12.0822 12.2424C12.0873 12.2435 12.095 12.2452 12.1048 12.2474C12.1244 12.2517 12.1525 12.2579 12.1862 12.2655C12.2538 12.2806 12.3429 12.3008 12.4305 12.3213C12.5198 12.3422 12.6011 12.3618 12.6559 12.3762C12.6864 12.3843 12.6942 12.3869 12.6885 12.3851C12.6859 12.3842 12.6784 12.3817 12.6679 12.3777C12.6599 12.3746 12.6359 12.3653 12.6054 12.3499C12.5901 12.3422 12.563 12.3279 12.5308 12.3065C12.5055 12.2897 12.4391 12.244 12.3731 12.1655C12.3176 12.0994 12.1584 11.8848 12.2063 11.5708C12.2567 11.241 12.4901 11.0808 12.5824 11.0294L13.3117 12.3402C13.4048 12.2884 13.6387 12.1277 13.6891 11.7973C13.7372 11.4827 13.5777 11.2674 13.5215 11.2005C13.4121 11.0703 13.2828 11.0116 13.2814 11.0109C13.2238 10.9818 13.1712 10.9648 13.1596 10.961C13.1186 10.9474 13.0731 10.935 13.0381 10.9258C12.9619 10.9057 12.8636 10.8821 12.7717 10.8606C12.6781 10.8387 12.5842 10.8175 12.5142 10.8018C12.4791 10.7939 12.4498 10.7874 12.4291 10.7828C12.4188 10.7805 12.4106 10.7787 12.405 10.7775C12.4022 10.7769 12.4 10.7764 12.3985 10.7761C12.3977 10.7759 12.3971 10.7758 12.3967 10.7757C12.3965 10.7756 12.3964 10.7756 12.3963 10.7756C12.3962 10.7756 12.3962 10.7756 12.3961 10.7756C12.3961 10.7755 12.3961 10.7755 12.3961 10.7755C12.3961 10.7755 12.396 10.7755 12.2353 11.5081ZM11.7556 10.2831L11.5056 11.3346L12.9649 11.6816L13.2149 10.63L11.7556 10.2831ZM14.0221 10.0542L12.6604 9.72728L12.3102 11.1858L13.672 11.5128L14.0221 10.0542ZM14.3183 10.1183C14.21 10.0959 14.1136 10.0759 14.0196 10.0536L13.6745 11.5134C13.7922 11.5412 13.9091 11.5654 14.014 11.5871L14.3183 10.1183ZM14.6579 10.1921C14.5401 10.1642 14.4232 10.1401 14.3183 10.1183L14.014 11.5871C14.1223 11.6096 14.2187 11.6296 14.3127 11.6518L14.6579 10.1921ZM14.144 9.12184L13.7558 10.7478L15.2148 11.0961L15.603 9.47022L14.144 9.12184ZM16.0476 8.80509L15.0476 8.56651L14.6995 10.0256L15.6995 10.2641L16.0476 8.80509ZM16.2269 11.2979L16.6034 9.70736L15.1437 9.36187L14.7672 10.9524L16.2269 11.2979ZM16.4578 10.572C16.1963 10.5102 15.9209 10.4458 15.6459 10.3901L15.3482 11.8603C15.5967 11.9106 15.8507 11.9699 16.1128 12.0318L16.4578 10.572ZM15.9319 9.5386L15.5555 11.1292L17.0151 11.4747L17.3916 9.88409L15.9319 9.5386ZM17.826 9.22088L16.8378 8.98229L16.4857 10.4404L17.474 10.679L17.826 9.22088ZM17.9912 11.75L18.3795 10.1241L16.9205 9.77575L16.5323 11.4017L17.9912 11.75ZM16.3081 16.8478C16.2941 16.9075 16.2803 16.9171 16.2457 16.9351C16.1785 16.97 16.041 17.0064 15.8081 17.007C15.3393 17.0081 14.7856 16.87 14.372 16.7638L13.9989 18.2166C14.3798 18.3145 15.1193 18.5086 15.8116 18.507C16.1593 18.5061 16.5694 18.4575 16.9379 18.2658C17.339 18.0571 17.6492 17.6985 17.7684 17.1905L16.3081 16.8478ZM14.6257 16.0579C15.067 16.153 15.5942 16.2716 15.9802 16.4733C16.1691 16.5721 16.2588 16.6586 16.2944 16.7118C16.3116 16.7375 16.3278 16.7631 16.3078 16.8489L17.7687 17.1894C17.8827 16.6999 17.7895 16.2488 17.5409 15.8774C17.3106 15.5334 16.978 15.3023 16.6751 15.144C16.0775 14.8316 15.3434 14.6782 14.9419 14.5916L14.6257 16.0579ZM14.3458 15.9952C14.4296 16.0156 14.529 16.037 14.6257 16.0579L14.9419 14.5916C14.8384 14.5693 14.7611 14.5525 14.7012 14.5379L14.3458 15.9952ZM14.7419 17.6177L15.2537 15.438L13.7934 15.0951L13.2816 17.2748L14.7419 17.6177ZM14.372 16.7638C14.3083 16.7474 14.2451 16.7312 14.1893 16.7176L13.8342 18.1749C13.879 18.1858 13.9325 18.1996 13.9989 18.2166L14.372 16.7638ZM16.5817 13.6575C16.5687 13.7128 16.559 13.7092 16.5529 13.7126C16.5183 13.7324 16.4267 13.7645 16.2458 13.7684C15.8761 13.7762 15.4335 13.6666 15.0849 13.5765L14.7094 15.0287C15.0236 15.1099 15.6667 15.281 16.2777 15.268C16.5873 15.2614 16.9598 15.2078 17.2971 15.015C17.6631 14.8059 17.9332 14.4629 18.0419 14.0008L16.5817 13.6575ZM15.2973 13.0732C15.6664 13.1522 16.0808 13.2466 16.3761 13.4085C16.5173 13.486 16.5693 13.547 16.5839 13.5709C16.5889 13.579 16.5893 13.582 16.5897 13.5847C16.5902 13.5881 16.5931 13.6093 16.5821 13.6558L18.0414 14.0026C18.1468 13.5594 18.0797 13.1413 17.8632 12.7876C17.6615 12.4582 17.3643 12.2398 17.0974 12.0934C16.5763 11.8075 15.9387 11.6765 15.6115 11.6065L15.2973 13.0732ZM15.0588 13.0198C15.1314 13.0377 15.2175 13.0561 15.2973 13.0732L15.6115 11.6065C15.5238 11.5877 15.4631 11.5746 15.4176 11.5634L15.0588 13.0198ZM15.4909 14.4438L15.9673 12.4674L14.5091 12.1158L14.0326 14.0923L15.4909 14.4438ZM15.0849 13.5765C15.0358 13.5638 14.9859 13.5508 14.9412 13.5398L14.5823 14.9963C14.6169 15.0048 14.6579 15.0154 14.7094 15.0287L15.0849 13.5765Z" fill="black" mask="url(#path-1-inside-1)"/>
</svg>
