<svg width="30" height="30" viewBox="0 0 30 30" fill="none" xmlns="http://www.w3.org/2000/svg">
<path d="M17.0415 6.75383L17.0433 6.75426C21.6035 7.87485 24.3787 12.4971 23.2473 17.0512C22.113 21.6022 17.5037 24.381 12.9447 23.2461C8.39358 22.1081 5.61987 17.4987 6.75387 12.9488C7.8883 8.39716 12.4951 5.61931 17.0415 6.75383Z" stroke="black"/>
<path d="M16.3758 9.14283L17.7648 9.47411C18.033 9.53806 18.1988 9.807 18.1354 10.0753L17.8555 11.2617C19.0586 11.6601 19.9051 12.8017 19.7803 13.7029C19.6555 14.6042 19.3398 15.164 18.9834 15.3778C19.5188 15.8385 19.8201 16.5989 19.4005 17.862C18.8484 19.5238 17.4673 19.8481 15.8594 19.6172L15.5737 20.8127C15.5093 21.082 15.2384 21.2477 14.9694 21.1824L13.5902 20.8475M16.3758 9.14283L15.8962 11.2135M16.3758 9.14283L14.9966 8.80194C14.7263 8.73515 14.4536 8.90192 14.3899 9.1729L14.1192 10.3239L12.6088 9.97538C12.3399 9.91333 12.0716 10.0808 12.0093 10.3496L11.7694 11.3842C11.7089 11.6451 11.8648 11.9073 12.1229 11.9789L12.8929 12.1925L11.9204 16.4246L11.3045 16.2819C11.064 16.2261 10.8188 16.3542 10.7272 16.5835L10.2714 17.7249C10.1586 18.0074 10.322 18.3242 10.6175 18.3962L12.1122 18.7599L11.8468 19.8987C11.785 20.1638 11.9467 20.4297 12.2105 20.4968L13.5902 20.8475M13.5902 20.8475L14.1062 18.748M16.5498 16.8972C16.3443 17.4929 15.3083 17.2431 14.5912 17.0684L14.8925 15.8699C15.6223 16.0479 16.7552 16.3014 16.5498 16.8972ZM16.8281 13.6797C16.7656 14.1367 15.9849 14.0439 15.3789 13.8945L15.625 12.9101C16.2183 13.0563 16.8906 13.2226 16.8281 13.6797Z" stroke="black"/>
</svg>
