<svg width="24" height="24" viewBox="0 0 24 24" fill="none" xmlns="http://www.w3.org/2000/svg">
<path d="M17.1351 8.96007L17.633 8.91443L17.6327 8.91108L17.1351 8.96007ZM13.4253 6.43215L12.9253 6.43298L12.9261 6.88664L13.3777 6.92988L13.4253 6.43215ZM15.7799 11.4234L15.5685 10.9703L14.275 11.5736L15.6623 11.9094L15.7799 11.4234ZM17.9758 14.4945L17.4782 14.445L17.4781 14.4464L17.9758 14.4945ZM13.3564 17.5752L13.3316 17.0758L12.8556 17.0995L12.8564 17.576L13.3564 17.5752ZM13.3604 19.9947L13.361 20.4947L13.8613 20.4941L13.8604 19.9939L13.3604 19.9947ZM11.8381 19.9966L11.3381 19.9974L11.339 20.4972L11.8387 20.4966L11.8381 19.9966ZM11.8341 17.5771L12.3341 17.5763L12.3332 17.0841L11.8412 17.0772L11.8341 17.5771ZM11.3153 17.5796L11.3084 17.0797L11.3084 17.0797L11.3153 17.5796ZM10.5837 17.5787L10.5993 17.0789L10.0828 17.0628L10.0837 17.5795L10.5837 17.5787ZM10.5878 19.9982L10.5884 20.4982L11.0886 20.4975L11.0878 19.9973L10.5878 19.9982ZM9.06823 20.0001L8.56823 20.0009L8.56907 20.5007L9.06885 20.5001L9.06823 20.0001ZM9.06418 17.5806L9.56418 17.5797L9.56336 17.09L9.07376 17.0806L9.06418 17.5806ZM6.01983 17.5222L5.52501 17.4504L5.44363 18.0113L6.01025 18.0221L6.01983 17.5222ZM6.27638 15.754L6.28705 15.2541L5.84505 15.2447L5.78156 15.6822L6.27638 15.754ZM7.40486 15.7657L7.40227 15.2657L5.61492 15.275L7.14764 16.1945L7.40486 15.7657ZM7.98507 15.2814L8.4785 15.3622L8.48515 15.3216L8.48507 15.2804L7.98507 15.2814ZM7.9775 11.4028L7.47749 11.4007L7.4775 11.4038L7.9775 11.4028ZM7.98945 8.64238L8.48945 8.64454L8.48963 8.6031L8.48298 8.5622L7.98945 8.64238ZM7.11848 7.99892L6.7904 7.6216L5.80673 8.4769L7.11006 8.49885L7.11848 7.99892ZM6.00388 8.00031L5.50389 8.00149L5.5051 8.51389L6.01731 8.50013L6.00388 8.00031ZM6.00003 6.37926L5.99941 5.87926L5.49884 5.87988L5.50003 6.38045L6.00003 6.37926ZM9.11972 6.37537L9.12035 6.87537L9.62056 6.87475L9.61972 6.37454L9.11972 6.37537ZM9.11576 4.00543L9.11513 3.50543L8.61492 3.50605L8.61576 4.00627L9.11576 4.00543ZM10.6874 4.00347L11.1874 4.00263L11.1866 3.50285L10.6868 3.50347L10.6874 4.00347ZM10.6914 6.37341L10.1914 6.37425L10.1922 6.887L10.7048 6.87323L10.6914 6.37341ZM11.5968 6.36995L11.5929 6.86994L11.594 6.86995L11.5968 6.36995ZM11.5968 6.36995L11.6007 5.86997L11.5995 5.86996L11.5968 6.36995ZM11.8961 6.37191L11.8941 6.87191L12.3969 6.87396L12.3961 6.37108L11.8961 6.37191ZM11.8921 4.00197L11.8915 3.50197L11.3913 3.50259L11.3921 4.00281L11.8921 4.00197ZM13.4213 4.00006L13.9213 3.99924L13.9205 3.49944L13.4207 3.50006L13.4213 4.00006ZM10.5815 10.8944L10.6026 10.3948L10.6024 10.3948L10.5815 10.8944ZM10.5043 10.8912H10.0043V11.3707L10.4835 11.3907L10.5043 10.8912ZM14.2543 9.43656L14.7543 9.43787L14.7543 9.43518L14.2543 9.43656ZM10.8305 7.97759L10.8199 7.4777L10.8305 7.97759ZM10.5043 7.98197L10.5082 7.48198L10.0043 7.47809V7.98197H10.5043ZM10.5 15.6368L10 15.6368L10 16.1188L10.4817 16.1364L10.5 15.6368ZM10.6339 15.642L10.6538 15.1424L10.6538 15.1424L10.6339 15.642ZM10.5 12.7276L10.5045 12.2276L10 12.2231L10 12.7276L10.5 12.7276ZM10.8587 12.7253L10.8648 13.2253L10.8648 13.2253L10.8587 12.7253ZM14.9908 14.219L14.4907 14.2146L14.4908 14.2235L14.9908 14.219ZM17.6327 8.91108C17.5297 7.86521 16.9981 7.14476 16.2137 6.68057C15.4599 6.23446 14.487 6.0315 13.473 5.93443L13.3777 6.92988C14.3464 7.02261 15.1421 7.20838 15.7045 7.54116C16.2362 7.85586 16.5681 8.30447 16.6375 9.00906L17.6327 8.91108ZM15.9912 11.8765C16.5178 11.6309 16.9737 11.2739 17.2755 10.7648C17.5783 10.254 17.6991 9.63521 17.633 8.91443L16.6372 9.00571C16.6881 9.56106 16.59 9.96001 16.4153 10.2549C16.2396 10.5514 15.9594 10.788 15.5685 10.9703L15.9912 11.8765ZM18.4733 14.5441C18.5751 13.5221 18.3856 12.7018 17.8952 12.082C17.4118 11.471 16.695 11.1305 15.8975 10.9374L15.6623 11.9094C16.346 12.0749 16.8202 12.335 17.111 12.7025C17.3948 13.0612 17.5627 13.5972 17.4782 14.445L18.4733 14.5441ZM13.3812 18.0746C14.6886 18.0096 15.8878 17.8224 16.7993 17.2992C17.7538 16.7513 18.3458 15.8631 18.4735 14.5427L17.4781 14.4464C17.3792 15.4695 16.9538 16.0574 16.3015 16.4319C15.6061 16.831 14.609 17.0123 13.3316 17.0758L13.3812 18.0746ZM13.8604 19.9939L13.8564 17.5744L12.8564 17.576L12.8604 19.9955L13.8604 19.9939ZM11.8387 20.4966L13.361 20.4947L13.3598 19.4947L11.8375 19.4966L11.8387 20.4966ZM11.3341 17.5779L11.3381 19.9974L12.3381 19.9958L12.3341 17.5763L11.3341 17.5779ZM11.3223 18.0796C11.5021 18.0771 11.6689 18.0748 11.827 18.077L11.8412 17.0772C11.6665 17.0747 11.4854 17.0772 11.3084 17.0797L11.3223 18.0796ZM10.5681 18.0784C10.8281 18.0865 11.0857 18.0829 11.3223 18.0796L11.3084 17.0797C11.0682 17.083 10.8331 17.0862 10.5993 17.0789L10.5681 18.0784ZM11.0878 19.9973L11.0837 17.5778L10.0837 17.5795L10.0878 19.999L11.0878 19.9973ZM9.06885 20.5001L10.5884 20.4982L10.5871 19.4982L9.06761 19.5001L9.06885 20.5001ZM8.56418 17.5814L8.56823 20.0009L9.56823 19.9992L9.56418 17.5797L8.56418 17.5814ZM6.01025 18.0221L9.0546 18.0805L9.07376 17.0806L6.0294 17.0223L6.01025 18.0221ZM5.78156 15.6822L5.52501 17.4504L6.51464 17.594L6.7712 15.8258L5.78156 15.6822ZM7.14764 16.1945C7.12943 16.1836 6.97386 16.095 6.92112 15.8914C6.84831 15.6103 7.02812 15.4269 7.09479 15.3742C7.16187 15.3211 7.22594 15.2992 7.24231 15.2936C7.26808 15.2848 7.28909 15.28 7.2998 15.2777C7.32172 15.2731 7.33871 15.2711 7.34421 15.2705C7.35172 15.2696 7.35729 15.2692 7.35974 15.269C7.36665 15.2685 7.36667 15.2687 7.35309 15.269C7.3299 15.2694 7.29163 15.2695 7.23993 15.2693C7.13804 15.2688 6.9986 15.267 6.85658 15.2647C6.71501 15.2625 6.57261 15.2598 6.46548 15.2577C6.41195 15.2567 6.36729 15.2558 6.33603 15.2551C6.32041 15.2548 6.30813 15.2545 6.29978 15.2544C6.29561 15.2543 6.29241 15.2542 6.29026 15.2542C6.28919 15.2541 6.28838 15.2541 6.28784 15.2541C6.28758 15.2541 6.28737 15.2541 6.28724 15.2541C6.28718 15.2541 6.28713 15.2541 6.2871 15.2541C6.28708 15.2541 6.28707 15.2541 6.28706 15.2541C6.28706 15.2541 6.28705 15.2541 6.27638 15.754C6.26571 16.2539 6.26572 16.2539 6.26573 16.2539C6.26574 16.2539 6.26576 16.2539 6.26578 16.2539C6.26581 16.2539 6.26587 16.2539 6.26594 16.2539C6.26609 16.2539 6.2663 16.2539 6.26659 16.2539C6.26715 16.2539 6.26799 16.2539 6.2691 16.2539C6.2713 16.254 6.27456 16.2541 6.2788 16.2541C6.28728 16.2543 6.29969 16.2546 6.31546 16.2549C6.347 16.2556 6.392 16.2565 6.44593 16.2575C6.55372 16.2596 6.69744 16.2623 6.84065 16.2646C6.98341 16.2669 7.12743 16.2688 7.23513 16.2693C7.28822 16.2695 7.33629 16.2695 7.37189 16.2688C7.38772 16.2685 7.41025 16.268 7.43166 16.2664C7.43571 16.2661 7.4688 16.2641 7.50719 16.256C7.51868 16.2535 7.54033 16.2486 7.56661 16.2396C7.58349 16.2338 7.64792 16.2117 7.71523 16.1584C7.78213 16.1055 7.96203 15.922 7.88917 15.6407C7.83638 15.4368 7.68062 15.3481 7.66208 15.337L7.14764 16.1945ZM7.49164 15.2006C7.48899 15.2168 7.48476 15.2318 7.47984 15.2436C7.47506 15.2549 7.47163 15.2585 7.47222 15.2578C7.47408 15.2558 7.47619 15.255 7.47375 15.256C7.47053 15.2574 7.45019 15.2655 7.40227 15.2657L7.40745 16.2657C7.74703 16.264 8.0216 16.1398 8.21171 15.931C8.38734 15.7381 8.45362 15.5141 8.4785 15.3622L7.49164 15.2006ZM7.4775 11.4038L7.48507 15.2824L8.48507 15.2804L8.4775 11.4019L7.4775 11.4038ZM7.48946 8.64021L7.4775 11.4007L8.47749 11.405L8.48945 8.64454L7.48946 8.64021ZM7.11006 8.49885C7.3264 8.50249 7.4056 8.56098 7.43097 8.58436C7.46144 8.61244 7.4852 8.65656 7.49592 8.72255L8.48298 8.5622C8.44696 8.34046 8.34639 8.06809 8.10864 7.84899C7.86578 7.62519 7.53287 7.50582 7.1269 7.49899L7.11006 8.49885ZM6.00388 8.00031C6.01731 8.50013 6.01731 8.50013 6.01732 8.50013C6.01732 8.50013 6.01733 8.50013 6.01734 8.50012C6.01737 8.50012 6.01741 8.50012 6.01747 8.50012C6.0176 8.50012 6.01779 8.50011 6.01805 8.50011C6.01857 8.50009 6.01936 8.50007 6.02041 8.50004C6.02251 8.49999 6.02566 8.4999 6.02979 8.4998C6.03805 8.49958 6.05021 8.49927 6.06571 8.49888C6.09671 8.4981 6.14104 8.49702 6.19416 8.49582C6.30052 8.4934 6.4415 8.4905 6.58101 8.48851C6.72164 8.48651 6.85656 8.4855 6.95254 8.48666C7.00256 8.48727 7.03247 8.48839 7.04531 8.48929C7.05764 8.49015 7.03796 8.48961 7.00755 8.48314C6.99798 8.48111 6.97978 8.47693 6.95716 8.46936C6.93999 8.46362 6.89091 8.44657 6.83611 8.40911C6.79441 8.38061 6.64141 8.26659 6.62122 8.04243C6.59994 7.80616 6.7431 7.66273 6.7904 7.6216L7.44655 8.37623C7.49492 8.33418 7.63855 8.18986 7.61719 7.95273C7.59692 7.72771 7.4433 7.61286 7.40041 7.58354C7.30901 7.52107 7.21693 7.50531 7.21554 7.50501C7.17203 7.49576 7.13115 7.49285 7.11532 7.49174C7.07184 7.48869 7.01759 7.48738 6.9647 7.48674C6.85487 7.4854 6.70903 7.48658 6.56677 7.48861C6.4234 7.49065 6.27937 7.49362 6.17146 7.49607C6.11743 7.4973 6.0723 7.4984 6.04063 7.49919C6.02479 7.49959 6.01231 7.49991 6.00376 7.50014C5.99948 7.50025 5.99619 7.50033 5.99395 7.50039C5.99283 7.50042 5.99197 7.50045 5.99139 7.50046C5.99109 7.50047 5.99087 7.50048 5.99071 7.50048C5.99063 7.50048 5.99057 7.50048 5.99053 7.50048C5.99051 7.50049 5.99049 7.50049 5.99048 7.50049C5.99046 7.50049 5.99045 7.50049 6.00388 8.00031ZM5.50003 6.38045L5.50389 8.00149L6.50388 7.99912L6.50003 6.37807L5.50003 6.38045ZM9.1191 5.87537L5.99941 5.87926L6.00065 6.87926L9.12035 6.87537L9.1191 5.87537ZM8.61576 4.00627L8.61973 6.37621L9.61972 6.37454L9.61576 4.00459L8.61576 4.00627ZM10.6868 3.50347L9.11513 3.50543L9.11638 4.50543L10.688 4.50347L10.6868 3.50347ZM11.1914 6.37258L11.1874 4.00263L10.1874 4.00431L10.1914 6.37425L11.1914 6.37258ZM11.6006 5.86997C11.2994 5.86762 10.9914 5.86517 10.678 5.87359L10.7048 6.87323C10.9981 6.86536 11.2888 6.86757 11.5929 6.86994L11.6006 5.86997ZM11.5995 5.86996L11.5995 5.86996L11.594 6.86995L11.5941 6.86995L11.5995 5.86996ZM11.8981 5.87192C11.7989 5.87151 11.7002 5.87074 11.6007 5.86997L11.5929 6.86994C11.6921 6.87071 11.7927 6.87149 11.8941 6.87191L11.8981 5.87192ZM11.3921 4.00281L11.3961 6.37275L12.3961 6.37108L12.3921 4.00113L11.3921 4.00281ZM13.4207 3.50006L11.8915 3.50197L11.8928 4.50197L13.4219 4.50006L13.4207 3.50006ZM13.9253 6.43133L13.9213 3.99924L12.9213 4.00089L12.9253 6.43298L13.9253 6.43133ZM10.6024 10.3948L10.5252 10.3916L10.4835 11.3907L10.5607 11.3939L10.6024 10.3948ZM13.7543 9.43526C13.7537 9.67136 13.6633 9.82783 13.4986 9.95815C13.3133 10.1047 13.0275 10.2189 12.6609 10.2956C11.9292 10.4486 11.0729 10.4147 10.6026 10.3948L10.5604 11.3939C11.0153 11.4132 11.9934 11.4568 12.8656 11.2744C13.3011 11.1833 13.7597 11.0266 14.1189 10.7425C14.4987 10.4421 14.7528 10.0082 14.7543 9.43787L13.7543 9.43526ZM10.8411 8.47748C11.3956 8.46574 12.1836 8.45196 12.8287 8.60988C13.1495 8.68838 13.387 8.79878 13.5377 8.93289C13.671 9.05141 13.7537 9.20142 13.7543 9.43795L14.7543 9.43518C14.7528 8.90603 14.5421 8.48797 14.2025 8.18578C13.8803 7.89919 13.4656 7.73624 13.0665 7.63855C12.272 7.44408 11.3502 7.46648 10.8199 7.4777L10.8411 8.47748ZM10.5005 8.48195C10.5967 8.4827 10.7156 8.48013 10.8411 8.47748L10.8199 7.4777C10.6891 7.48047 10.5867 7.48259 10.5082 7.48198L10.5005 8.48195ZM11.0043 10.8912V7.98197H10.0043V10.8912H11.0043ZM10.4817 16.1364C10.5213 16.1379 10.5653 16.1397 10.6141 16.1416L10.6538 15.1424C10.6054 15.1405 10.5598 15.1386 10.5183 15.1371L10.4817 16.1364ZM10 12.7276L10 15.6368L11 15.6368L11 12.7276L10 12.7276ZM10.8527 12.2253C10.7102 12.227 10.5947 12.2284 10.5045 12.2276L10.4955 13.2276C10.5986 13.2285 10.7262 13.2269 10.8648 13.2253L10.8527 12.2253ZM15.4908 14.2234C15.4958 13.6523 15.2222 13.2236 14.83 12.9313C14.4586 12.6544 13.9796 12.4953 13.5127 12.398C12.5757 12.2025 11.4838 12.2177 10.8527 12.2253L10.8648 13.2253C11.5157 13.2174 12.4967 13.2076 13.3085 13.3769C13.7161 13.4619 14.0306 13.5826 14.2324 13.733C14.4133 13.8679 14.4926 14.0139 14.4908 14.2146L15.4908 14.2234ZM10.6141 16.1416C11.1764 16.164 12.3207 16.2111 13.329 16.0392C13.8299 15.9537 14.3486 15.8065 14.753 15.5378C15.1787 15.255 15.4962 14.8197 15.4908 14.2145L14.4908 14.2235C14.4926 14.4167 14.4115 14.5642 14.1996 14.7049C13.9664 14.8598 13.6086 14.977 13.1608 15.0534C12.2718 15.205 11.2305 15.1653 10.6538 15.1424L10.6141 16.1416Z" fill="black"/>
</svg>
