<svg width="30" height="30" viewBox="0 0 30 30" fill="none" xmlns="http://www.w3.org/2000/svg">
<path d="M17.0415 6.75383L17.0433 6.75426C21.6035 7.87485 24.3787 12.4971 23.2473 17.0512C22.113 21.6022 17.5037 24.381 12.9447 23.2461C8.39358 22.1081 5.61987 17.4987 6.75387 12.9488C7.8883 8.39716 12.4951 5.61931 17.0415 6.75383Z" fill="white" stroke="black"/>
<path d="M19.7573 13.8959L19.7568 13.8991C19.684 14.4149 19.5001 14.8416 19.2004 15.1662C19.1325 15.2397 19.0604 15.3061 18.9848 15.3659C19.1633 15.5422 19.313 15.7465 19.4201 15.9852C19.6602 16.5202 19.6474 17.139 19.4154 17.8313C19.1149 18.7353 18.5629 19.2851 17.8043 19.5287C17.2216 19.7159 16.5538 19.7094 15.8594 19.6171L15.5777 20.8073C15.5471 20.9368 15.4662 21.0486 15.3528 21.1182C15.2395 21.1879 15.1031 21.2094 14.9738 21.1782L13.9856 20.9396C13.8239 20.9006 13.6997 20.787 13.6406 20.6442C13.6205 20.6616 13.5989 20.6774 13.5759 20.6914C13.4627 20.7608 13.3265 20.7823 13.1973 20.7511L12.2091 20.5125C11.9415 20.4479 11.7765 20.1792 11.8399 19.9114L12.1148 18.7494C12.0468 18.733 11.9745 18.7152 11.8951 18.6947L10.6129 18.3956C10.4702 18.3623 10.3492 18.2681 10.2821 18.1379C10.2149 18.0076 10.2082 17.8545 10.2639 17.7189L10.7315 16.579C10.8261 16.3483 11.0762 16.2226 11.3178 16.2843L11.3178 16.2843L11.3179 16.2843L11.3183 16.2844L11.3198 16.2848L11.3259 16.2864L11.3491 16.2923L11.4321 16.3134C11.5007 16.3308 11.592 16.3538 11.6827 16.3764C11.7706 16.3983 11.8564 16.4195 11.9204 16.4347L12.4736 14.0444C12.4759 14.0247 12.4793 14.0048 12.484 13.9851L12.9064 12.1992C12.8934 12.192 12.8684 12.1806 12.8256 12.1699C12.7958 12.1624 12.7672 12.1523 12.7399 12.14C12.7339 12.1383 12.7271 12.1365 12.7196 12.1345C12.6612 12.1191 12.5771 12.0988 12.4873 12.0778C12.3987 12.0571 12.3088 12.0368 12.2409 12.0215L12.1588 12.0033L12.1359 11.9982L12.13 11.9969L12.1285 11.9966L12.1282 11.9965L12.1281 11.9965L12.1281 11.9965C12.1281 11.9965 12.1281 11.9965 12.1281 11.9965M19.7573 13.8959L12.3448 11.0202L12.3431 11.0199L12.3426 11.0198L12.3425 11.0197L12.3425 11.0197L12.2353 11.5081L12.1281 11.9965M19.7573 13.8959C19.86 13.1329 19.6135 12.5211 19.1428 12.0555C18.7968 11.7131 18.341 11.4601 17.8509 11.2611L18.1363 10.066C18.2003 9.79793 18.0353 9.52858 17.7673 9.46389L16.7791 9.2253C16.6498 9.19409 16.5134 9.21567 16.4001 9.28527C16.3759 9.30012 16.3532 9.3169 16.3321 9.33536M19.7573 13.8959L16.3321 9.33536M12.1281 11.9965C11.9971 11.9677 11.8831 11.8876 11.8118 11.774C11.7405 11.6604 11.7178 11.5229 11.7488 11.3924L11.9988 10.3409C12.0295 10.2117 12.1104 10.1 12.2235 10.0305C12.3367 9.961 12.4729 9.93936 12.602 9.97037L13.9621 10.2969C13.9624 10.297 13.9626 10.297 13.9629 10.2971C14.012 10.3087 14.0616 10.3197 14.1124 10.3306L14.3872 9.1799C14.4513 8.91134 14.721 8.74559 14.9895 8.80967L15.9895 9.04826C16.1485 9.08619 16.2715 9.19618 16.3321 9.33536M12.1281 11.9965L16.3321 9.33536M16.8253 13.7136L16.825 13.7147C16.7946 13.844 16.7372 13.9001 16.6575 13.9401C16.5541 13.992 16.3898 14.0234 16.1606 14.0182C15.8929 14.0121 15.6132 13.9605 15.3641 13.903L15.6092 12.8863C15.8583 12.9433 16.1288 13.0158 16.3765 13.1294C16.5827 13.2239 16.7122 13.3228 16.7791 13.4135C16.8297 13.4824 16.8607 13.5646 16.8253 13.7136ZM16.5514 16.9052C16.5181 17.0465 16.449 17.1183 16.3322 17.1708C16.1893 17.235 15.9723 17.2663 15.6869 17.2545C15.3204 17.2392 14.9362 17.1599 14.611 17.0813L14.8973 15.8618C15.2281 15.9355 15.6056 16.0296 15.9452 16.1795C16.2038 16.2936 16.3798 16.4165 16.476 16.5372C16.5539 16.6349 16.5899 16.7395 16.5514 16.9052Z" stroke="black" stroke-linecap="round" stroke-linejoin="round"/>
</svg>
