<svg width="24" height="24" viewBox="0 0 24 24" fill="none" xmlns="http://www.w3.org/2000/svg">
<path d="M20.2473 14.0515C19.1131 18.6023 14.5039 21.3811 9.94477 20.2462C5.39397 19.1085 2.61956 14.4993 3.75378 9.94853C4.88801 5.39774 9.49442 2.61886 14.0424 3.75378C18.6044 4.87478 21.3788 9.4979 20.2473 14.0515Z" stroke="black"/>
<path d="M15.8733 10.616L16.1693 10.6647L16.1696 10.6629L15.8733 10.616ZM13.9322 8.17808L13.641 8.10593L13.5763 8.36706L13.8289 8.45972L13.9322 8.17808ZM14.5497 12.1901L14.4787 11.8986L13.7372 12.0792L14.4032 12.4519L14.5497 12.1901ZM15.4129 14.7792L15.1293 14.6812L15.1291 14.6819L15.4129 14.7792ZM11.8658 16.276L11.922 15.9813L11.6429 15.9281L11.5746 16.2039L11.8658 16.276ZM11.4294 18.0374L11.3573 18.3286L11.6485 18.4007L11.7206 18.1095L11.4294 18.0374ZM10.4444 17.7932L10.1532 17.7211L10.081 18.0123L10.3722 18.0844L10.4444 17.7932ZM10.8807 16.0319L11.1719 16.104L11.2428 15.8178L10.9579 15.742L10.8807 16.0319ZM10.5447 15.9501L10.4722 16.2412L10.4767 16.2422L10.5447 15.9501ZM10.5447 15.95L10.6173 15.659L10.5447 15.95ZM10.5447 15.95L10.6173 15.6589L10.6127 15.6579L10.5447 15.95ZM10.0716 15.8313L10.1544 15.543L9.85527 15.4571L9.78044 15.7592L10.0716 15.8313ZM9.63526 17.5927L9.56309 17.8839L9.8543 17.9561L9.92645 17.6649L9.63526 17.5927ZM8.65199 17.349L8.36079 17.2769L8.28866 17.568L8.57982 17.6402L8.65199 17.349ZM9.08837 15.5876L9.37956 15.6598L9.45006 15.3752L9.1672 15.2982L9.08837 15.5876ZM7.12967 15.0542L6.85025 14.945L6.72872 15.2559L7.05083 15.3437L7.12967 15.0542ZM7.61646 13.8088L7.696 13.5195L7.43543 13.4479L7.33704 13.6996L7.61646 13.8088ZM8.34429 13.9993L8.41517 13.7078L7.47204 13.4785L8.12129 14.2L8.34429 13.9993ZM8.80749 13.7404L9.0851 13.8542L9.09343 13.8339L9.09871 13.8125L8.80749 13.7404ZM9.50632 10.9167L9.21551 10.843L9.21511 10.8447L9.50632 10.9167ZM10.0149 8.9098L10.3057 8.9835L10.3112 8.96205L10.3134 8.94003L10.0149 8.9098ZM9.56827 8.30107L9.4166 8.04223L8.79864 8.40433L9.49019 8.59073L9.56827 8.30107ZM8.84703 8.12232L8.55578 8.05036L8.48177 8.3499L8.78328 8.41547L8.84703 8.12232ZM9.13866 6.94203L9.21083 6.65084L8.91943 6.57862L8.84742 6.87006L9.13866 6.94203ZM11.1574 7.44235L11.0852 7.73354L11.3764 7.80571L11.4486 7.51449L11.1574 7.44235ZM11.5848 5.71705L11.657 5.42586L11.3658 5.35368L11.2936 5.6449L11.5848 5.71705ZM12.6018 5.9691L12.893 6.04125L12.9652 5.75007L12.674 5.67791L12.6018 5.9691ZM12.1744 7.6944L11.8832 7.62226L11.8089 7.92194L12.1106 7.98755L12.1744 7.6944ZM12.7607 7.8379L12.6855 8.12834L12.6857 8.12838L12.7607 7.8379ZM12.7607 7.83791L12.8358 7.54746L12.8357 7.54743L12.7607 7.83791ZM12.9539 7.88761L12.88 8.17836L13.1726 8.25272L13.2451 7.95975L12.9539 7.88761ZM13.3814 6.16231L13.4536 5.87112L13.1623 5.79894L13.0902 6.09016L13.3814 6.16231ZM14.3709 6.40755L14.6621 6.4797L14.7342 6.18852L14.4431 6.11636L14.3709 6.40755ZM11.283 10.9667L11.3693 10.6794L11.3691 10.6793L11.283 10.9667ZM11.2336 10.9519L10.9425 10.8793L10.8733 11.157L11.1475 11.2392L11.2336 10.9519ZM13.9233 10.4981L14.2142 10.5714L14.2146 10.57L13.9233 10.4981ZM11.9733 8.88421L11.9007 9.17538L11.9076 9.17695L11.9733 8.88421ZM11.9733 8.88421L12.0459 8.59304L12.0389 8.59148L11.9733 8.88421ZM11.7615 8.83479L11.8366 8.54435L11.5436 8.46859L11.4704 8.76222L11.7615 8.83479ZM10.3698 14.4047L10.0787 14.3321L10.0091 14.6114L10.2853 14.6925L10.3698 14.4047ZM10.4555 14.4301L10.541 14.1425L10.541 14.1425L10.4555 14.4301ZM10.8976 12.2876L10.9731 11.9972L10.6799 11.921L10.6065 12.215L10.8976 12.2876ZM11.1301 12.3438L11.0615 12.6358L11.0615 12.6358L11.1301 12.3438ZM13.532 14.0972L13.2414 14.0223L13.2403 14.027L13.532 14.0972ZM16.1696 10.6629C16.2866 9.92403 16.0875 9.3369 15.6698 8.87856C15.2662 8.43567 14.6752 8.13111 14.0355 7.89643L13.8289 8.45972C14.4373 8.68295 14.92 8.94654 15.2263 9.28272C15.5187 9.60347 15.6661 10.0064 15.577 10.5691L16.1696 10.6629ZM14.6207 12.4816C15.0047 12.388 15.3537 12.2044 15.6284 11.897C15.9021 11.5907 16.0843 11.1813 16.1693 10.6647L15.5773 10.5673C15.5064 10.9983 15.3624 11.2942 15.181 11.4972C15.0006 11.6991 14.7658 11.8287 14.4787 11.8986L14.6207 12.4816ZM15.6964 14.8771C15.9409 14.1696 15.9636 13.5704 15.7684 13.0649C15.5732 12.5595 15.1796 12.1988 14.6962 11.9283L14.4032 12.4519C14.8128 12.6811 15.0807 12.9496 15.2087 13.2811C15.3368 13.6126 15.3446 14.0581 15.1293 14.6812L15.6964 14.8771ZM11.8096 16.5707C12.6686 16.7346 13.4772 16.7909 14.1576 16.5586C14.8636 16.3175 15.3862 15.7827 15.6967 14.8764L15.1291 14.6819C14.8678 15.4445 14.4645 15.8198 13.9637 15.9908C13.4374 16.1705 12.7583 16.1409 11.922 15.9813L11.8096 16.5707ZM11.7206 18.1095L12.157 16.3481L11.5746 16.2039L11.1382 17.9652L11.7206 18.1095ZM10.3722 18.0844L11.3573 18.3286L11.5016 17.7462L10.5165 17.502L10.3722 18.0844ZM10.5895 15.9597L10.1532 17.7211L10.7356 17.8654L11.1719 16.104L10.5895 15.9597ZM10.4767 16.2422C10.5935 16.2694 10.7017 16.2946 10.8035 16.3218L10.9579 15.742C10.8454 15.712 10.7277 15.6846 10.6128 15.6579L10.4767 16.2422ZM10.4721 16.2411L10.4722 16.2411L10.6173 15.659L10.6173 15.659L10.4721 16.2411ZM10.4721 16.2411L10.4721 16.2411L10.6173 15.659L10.6173 15.6589L10.4721 16.2411ZM9.98888 16.1197C10.1557 16.1676 10.323 16.2065 10.4767 16.2422L10.6127 15.6579C10.4567 15.6215 10.3042 15.586 10.1544 15.543L9.98888 16.1197ZM9.92645 17.6649L10.3628 15.9035L9.78044 15.7592L9.34406 17.5206L9.92645 17.6649ZM8.57982 17.6402L9.56309 17.8839L9.70743 17.3015L8.72416 17.0578L8.57982 17.6402ZM8.79717 15.5155L8.36079 17.2769L8.94319 17.4212L9.37956 15.6598L8.79717 15.5155ZM7.05083 15.3437L9.00954 15.8771L9.1672 15.2982L7.2085 14.7647L7.05083 15.3437ZM7.33704 13.6996L6.85025 14.945L7.40908 15.1634L7.89587 13.918L7.33704 13.6996ZM8.12129 14.2C8.1077 14.1849 8.04235 14.1116 8.04448 13.9942C8.04722 13.8421 8.15261 13.7615 8.20497 13.7341C8.25242 13.7092 8.29449 13.7037 8.30684 13.7022C8.32467 13.7 8.3389 13.6999 8.34628 13.6999C8.36127 13.7001 8.37265 13.7014 8.37638 13.7018C8.38144 13.7024 8.38516 13.703 8.38681 13.7033C8.39147 13.7041 8.39153 13.7043 8.38272 13.7023C8.36768 13.6988 8.34295 13.6928 8.30955 13.6843C8.24376 13.6675 8.15391 13.6437 8.06246 13.6191C7.9713 13.5946 7.87967 13.5697 7.81076 13.5509C7.77632 13.5415 7.7476 13.5337 7.7275 13.5282C7.71745 13.5254 7.70956 13.5232 7.70418 13.5218C7.7015 13.521 7.69944 13.5205 7.69807 13.5201C7.69738 13.5199 7.69686 13.5198 7.69651 13.5197C7.69634 13.5196 7.69621 13.5196 7.69612 13.5196C7.69608 13.5195 7.69605 13.5195 7.69603 13.5195C7.69602 13.5195 7.69601 13.5195 7.69601 13.5195C7.696 13.5195 7.696 13.5195 7.61646 13.8088C7.53691 14.098 7.53692 14.0981 7.53692 14.0981C7.53693 14.0981 7.53694 14.0981 7.53695 14.0981C7.53698 14.0981 7.53701 14.0981 7.53706 14.0981C7.53716 14.0981 7.53729 14.0982 7.53748 14.0982C7.53784 14.0983 7.53838 14.0985 7.53909 14.0986C7.54051 14.099 7.5426 14.0996 7.54533 14.1004C7.55078 14.1019 7.55876 14.104 7.56891 14.1068C7.58919 14.1124 7.61814 14.1203 7.65283 14.1298C7.72218 14.1487 7.81466 14.1738 7.9069 14.1986C7.99883 14.2233 8.09166 14.2479 8.16126 14.2656C8.19557 14.2744 8.22671 14.2821 8.24991 14.2874C8.26021 14.2897 8.27498 14.293 8.28921 14.2953C8.29196 14.2958 8.31384 14.2996 8.34015 14.2999C8.34806 14.3 8.36274 14.2999 8.38092 14.2976C8.39363 14.296 8.43597 14.2905 8.48361 14.2655C8.53614 14.2379 8.64163 14.1572 8.64438 14.005C8.6465 13.8874 8.58107 13.814 8.5673 13.7987L8.12129 14.2ZM8.52989 13.6267C8.51342 13.6669 8.49283 13.6941 8.4775 13.7056C8.47213 13.7097 8.46842 13.7111 8.46429 13.712C8.46013 13.7129 8.44534 13.7152 8.41517 13.7078L8.27342 14.2908C8.49735 14.3453 8.69184 14.2955 8.83876 14.1847C8.97275 14.0836 9.04665 13.948 9.0851 13.8542L8.52989 13.6267ZM9.21511 10.8447L8.51628 13.6684L9.09871 13.8125L9.79754 10.9888L9.21511 10.8447ZM9.72411 8.83611L9.21551 10.843L9.79713 10.9904L10.3057 8.9835L9.72411 8.83611ZM9.49019 8.59073C9.62615 8.62738 9.67152 8.68207 9.69018 8.71444C9.71338 8.75467 9.72338 8.8111 9.71645 8.87957L10.3134 8.94003C10.3284 8.79157 10.3154 8.59763 10.21 8.41474C10.1 8.22397 9.91104 8.08276 9.64634 8.01141L9.49019 8.59073ZM8.84703 8.12232C8.78328 8.41547 8.78328 8.41547 8.78328 8.41547C8.78328 8.41547 8.78329 8.41547 8.7833 8.41547C8.78331 8.41548 8.78334 8.41548 8.78338 8.41549C8.78346 8.41551 8.78359 8.41554 8.78376 8.41557C8.78409 8.41565 8.78461 8.41576 8.78529 8.41591C8.78666 8.41621 8.78871 8.41665 8.7914 8.41724C8.79678 8.41842 8.80471 8.42015 8.8148 8.42237C8.835 8.4268 8.86386 8.43316 8.89843 8.44085C8.96767 8.45625 9.05938 8.47687 9.14997 8.49792C9.24129 8.51914 9.32871 8.54015 9.39053 8.55647C9.42275 8.56497 9.44181 8.57058 9.44984 8.57327C9.45758 8.57586 9.44485 8.57226 9.42635 8.56264C9.42052 8.55962 9.40968 8.55373 9.39674 8.5448C9.38646 8.5377 9.3597 8.51852 9.33362 8.48566C9.31004 8.45595 9.2531 8.37122 9.27303 8.2511C9.29361 8.12707 9.37915 8.06418 9.4166 8.04223L9.71993 8.55991C9.75824 8.53747 9.84425 8.474 9.86494 8.34933C9.88498 8.22857 9.82777 8.14313 9.80357 8.11264C9.75935 8.05692 9.70526 8.03141 9.70297 8.03022C9.6765 8.01646 9.65049 8.00772 9.64037 8.00433C9.61269 7.99506 9.57774 7.98533 9.54363 7.97633C9.47277 7.95763 9.37817 7.93496 9.28577 7.91349C9.19265 7.89185 9.09893 7.87078 9.02868 7.85516C8.9935 7.84733 8.9641 7.84085 8.94347 7.83632C8.93315 7.83406 8.92502 7.83228 8.91945 7.83106C8.91666 7.83045 8.91451 7.82999 8.91305 7.82967C8.91232 7.82951 8.91176 7.82939 8.91138 7.8293C8.91119 7.82926 8.91104 7.82923 8.91094 7.82921C8.91089 7.8292 8.91085 7.82919 8.91082 7.82918C8.91081 7.82918 8.9108 7.82918 8.91079 7.82917C8.91078 7.82917 8.91077 7.82917 8.84703 8.12232ZM8.84742 6.87006L8.55578 8.05036L9.13827 8.19428L9.4299 7.01399L8.84742 6.87006ZM11.2295 7.15116L9.21083 6.65084L9.06649 7.23322L11.0852 7.73354L11.2295 7.15116ZM11.2936 5.6449L10.8662 7.3702L11.4486 7.51449L11.876 5.78919L11.2936 5.6449ZM12.674 5.67791L11.657 5.42586L11.5127 6.00824L12.5297 6.26029L12.674 5.67791ZM12.4656 7.76654L12.893 6.04125L12.3106 5.89696L11.8832 7.62226L12.4656 7.76654ZM12.8358 7.54746C12.6413 7.49716 12.4425 7.4457 12.2381 7.40125L12.1106 7.98755C12.3017 8.02911 12.4893 8.07758 12.6855 8.12834L12.8358 7.54746ZM12.8357 7.54743L12.8357 7.54743L12.6857 8.12838L12.6857 8.12838L12.8357 7.54743ZM13.0279 7.59685C12.9638 7.58056 12.9 7.56407 12.8358 7.54746L12.6856 8.12835C12.7496 8.1449 12.8145 8.1617 12.88 8.17836L13.0279 7.59685ZM13.0902 6.09016L12.6627 7.81546L13.2451 7.95975L13.6726 6.23445L13.0902 6.09016ZM14.4431 6.11636L13.4536 5.87112L13.3092 6.4535L14.2987 6.69874L14.4431 6.11636ZM14.2234 8.25023L14.6621 6.4797L14.0797 6.3354L13.641 8.10593L14.2234 8.25023ZM11.3691 10.6793L11.3198 10.6645L11.1475 11.2392L11.1968 11.254L11.3691 10.6793ZM13.6324 10.4249C13.5797 10.6339 13.4709 10.7517 13.33 10.8255C13.1767 10.9059 12.9676 10.9423 12.7181 10.939C12.2172 10.9323 11.6699 10.7697 11.3693 10.6794L11.1967 11.254C11.4875 11.3414 12.1126 11.531 12.7102 11.5389C13.0099 11.5429 13.3316 11.5022 13.6086 11.3569C13.8981 11.2052 14.1191 10.9489 14.2142 10.5714L13.6324 10.4249ZM11.9076 9.17695C12.2684 9.25782 12.7802 9.37478 13.1689 9.59374C13.3608 9.70186 13.4986 9.82207 13.5767 9.95219C13.649 10.0726 13.6826 10.2212 13.632 10.4263L14.2146 10.57C14.3015 10.2175 14.2484 9.9054 14.0911 9.6434C13.9397 9.3911 13.7052 9.20719 13.4634 9.07099C12.9848 8.80132 12.384 8.66885 12.0389 8.59148L11.9076 9.17695ZM11.9007 9.1753L11.9007 9.1753L12.0458 8.59312L12.0458 8.59312L11.9007 9.1753ZM11.6864 9.12524C11.7486 9.14132 11.826 9.15865 11.9076 9.17695L12.0389 8.59148C11.9537 8.57239 11.8872 8.55743 11.8366 8.54435L11.6864 9.12524ZM11.5247 11.0245L12.0526 8.90737L11.4704 8.76222L10.9425 10.8793L11.5247 11.0245ZM10.2853 14.6925C10.3106 14.7 10.3388 14.7083 10.37 14.7176L10.541 14.1425C10.51 14.1333 10.4809 14.1246 10.4543 14.1168L10.2853 14.6925ZM10.6065 12.215L10.0787 14.3321L10.6609 14.4773L11.1887 12.3602L10.6065 12.215ZM11.1987 12.0517C11.1062 12.03 11.0313 12.0124 10.9731 11.9972L10.8221 12.5779C10.8887 12.5952 10.9715 12.6147 11.0615 12.6358L11.1987 12.0517ZM13.8225 14.1721C13.9188 13.7982 13.8332 13.4695 13.6382 13.2013C13.4522 12.9454 13.1741 12.7533 12.8886 12.6065C12.3178 12.3131 11.6084 12.148 11.1987 12.0517L11.0615 12.6358C11.484 12.7351 12.12 12.886 12.6143 13.1401C12.8613 13.2671 13.0457 13.4066 13.1529 13.5541C13.2512 13.6892 13.2896 13.8355 13.2414 14.0224L13.8225 14.1721ZM10.37 14.7176C10.7297 14.8246 11.4617 15.0436 12.1454 15.0811C12.4862 15.0998 12.8463 15.0757 13.1516 14.9475C13.4723 14.8129 13.7283 14.5632 13.8236 14.1674L13.2403 14.027C13.1954 14.2134 13.0879 14.3235 12.9193 14.3943C12.7353 14.4715 12.4804 14.4985 12.1782 14.482C11.5759 14.449 10.9099 14.2522 10.541 14.1425L10.37 14.7176Z" fill="black"/>
</svg>
