<svg width="30" height="30" viewBox="0 0 30 30" fill="none" xmlns="http://www.w3.org/2000/svg">
<path d="M23.2199 10.7404L23.4855 11.1641C23.6314 11.0726 23.7199 10.9126 23.7199 10.7404C23.7199 10.5683 23.6314 10.4082 23.4855 10.3168L23.2199 10.7404ZM14.86 5.5L15.1256 5.07635C14.9632 4.97455 14.7569 4.97455 14.5945 5.07635L14.86 5.5ZM23.2115 10.7457L22.946 10.322C22.7571 10.4404 22.6694 10.6696 22.731 10.8838C22.7926 11.0981 22.9886 11.2457 23.2115 11.2457V10.7457ZM23.2198 10.7457H23.7198C23.7198 10.4695 23.496 10.2457 23.2198 10.2457V10.7457ZM23.2198 19.6058V20.1058C23.496 20.1058 23.7198 19.8819 23.7198 19.6058H23.2198ZM23.2172 19.6058V19.1058C22.9942 19.1058 22.7982 19.2534 22.7366 19.4676C22.675 19.6819 22.7627 19.911 22.9516 20.0294L23.2172 19.6058ZM23.2198 19.6074L23.4854 20.0311C23.6313 19.9397 23.7198 19.7796 23.7198 19.6074C23.7198 19.4353 23.6312 19.2752 23.4854 19.1838L23.2198 19.6074ZM14.8599 24.8479L14.5944 25.2715C14.7568 25.3733 14.9631 25.3733 15.1255 25.2715L14.8599 24.8479ZM6.5 19.6074L6.23444 19.1838C6.08857 19.2752 6 19.4353 6 19.6074C6 19.7796 6.08857 19.9397 6.23444 20.0311L6.5 19.6074ZM6.50265 19.6058L6.76822 20.0294C6.95711 19.911 7.04479 19.6819 6.98319 19.4676C6.92159 19.2534 6.72559 19.1058 6.50265 19.1058V19.6058ZM6.5 19.6058H6C6 19.8819 6.22386 20.1058 6.5 20.1058V19.6058ZM6.5 10.7457V10.2457C6.22386 10.2457 6 10.4695 6 10.7457H6.5ZM6.50851 10.7457V11.2457C6.73144 11.2457 6.92744 11.0981 6.98904 10.8838C7.05064 10.6696 6.96296 10.4404 6.77407 10.322L6.50851 10.7457ZM6.50011 10.7404L6.23454 10.3168C6.08867 10.4082 6.00011 10.5683 6.00011 10.7404C6.00011 10.9126 6.08867 11.0726 6.23454 11.1641L6.50011 10.7404ZM23.4855 10.3168L15.1256 5.07635L14.5945 5.92365L22.9544 11.1641L23.4855 10.3168ZM23.4771 11.1693L23.4855 11.1641L22.9544 10.3168L22.946 10.322L23.4771 11.1693ZM23.2115 11.2457H23.2198V10.2457H23.2115V11.2457ZM22.7198 10.7457V19.6058H23.7198V10.7457H22.7198ZM23.2198 19.1058H23.2172V20.1058H23.2198V19.1058ZM23.4854 19.1838L23.4827 19.1821L22.9516 20.0294L22.9543 20.0311L23.4854 19.1838ZM15.1255 25.2715L23.4854 20.0311L22.9543 19.1838L14.5944 24.4242L15.1255 25.2715ZM6.23444 20.0311L14.5944 25.2715L15.1255 24.4242L6.76556 19.1838L6.23444 20.0311ZM6.23709 19.1821L6.23444 19.1838L6.76556 20.0311L6.76822 20.0294L6.23709 19.1821ZM6.50265 19.1058H6.5V20.1058H6.50265V19.1058ZM7 19.6058V10.7457H6V19.6058H7ZM6.5 11.2457H6.50851V10.2457H6.5V11.2457ZM6.23454 11.1641L6.24294 11.1693L6.77407 10.322L6.76567 10.3168L6.23454 11.1641ZM14.5945 5.07635L6.23454 10.3168L6.76567 11.1641L15.1256 5.92365L14.5945 5.07635Z" fill="black"/>
<path d="M14.8575 5.61237L22.7809 10.5791L14.8575 15.5459L6.93411 10.5791L14.8575 5.61237Z" stroke="black"/>
<line x1="14.9333" y1="15.8422" x2="14.9333" y2="24.5003" stroke="black" stroke-linecap="round" stroke-linejoin="round"/>
</svg>
