<svg width="24" height="24" viewBox="0 0 24 24" fill="none" xmlns="http://www.w3.org/2000/svg">
<path d="M20.5391 15.5524H20.0391V15.5646L20.0397 15.5767L20.5391 15.5524ZM20.5391 8.67607L20.0396 8.65319L20.0391 8.66462V8.67607H20.5391ZM20.1845 16.196L19.9388 15.7605L19.9388 15.7605L20.1845 16.196ZM13.0531 20.2197L12.8074 19.7843L13.0531 20.2197ZM10.9969 20.2223L10.7523 20.6584L10.7523 20.6584L10.9969 20.2223ZM3.82016 16.1968L4.06477 15.7607L4.06477 15.7607L3.82016 16.1968ZM3.46488 15.5374L3.96366 15.5722L3.96488 15.5548V15.5374H3.46488ZM3.46488 8.69449H3.96488V8.67657L3.96359 8.65869L3.46488 8.69449ZM3.80997 8.0397L3.55814 7.60775L3.55814 7.60775L3.80997 8.0397ZM10.9664 3.86752L10.7146 3.43557L10.7146 3.43557L10.9664 3.86752ZM13.0832 3.87025L12.8303 4.30155L12.8303 4.30155L13.0832 3.87025ZM20.1945 8.04063L19.9415 8.47193L19.9415 8.47193L20.1945 8.04063ZM21.0391 15.5524V8.67607H20.0391V15.5524H21.0391ZM20.4302 16.6314C20.8561 16.3911 21.0591 15.9507 21.0385 15.5281L20.0397 15.5767C20.0434 15.6522 20.0093 15.7207 19.9388 15.7605L20.4302 16.6314ZM13.2988 20.6552L20.4302 16.6314L19.9388 15.7605L12.8074 19.7843L13.2988 20.6552ZM10.7523 20.6584C11.5434 21.1022 12.5088 21.101 13.2988 20.6552L12.8074 19.7843C12.3216 20.0584 11.728 20.0591 11.2415 19.7863L10.7523 20.6584ZM3.57556 16.6329L10.7523 20.6584L11.2415 19.7863L4.06477 15.7607L3.57556 16.6329ZM2.96609 15.5026C2.93598 15.9338 3.13909 16.3881 3.57556 16.6329L4.06477 15.7607C3.99271 15.7203 3.95826 15.6496 3.96366 15.5722L2.96609 15.5026ZM2.96488 8.69449V15.5374H3.96488V8.69449H2.96488ZM3.96359 8.65869C3.95813 8.5826 3.99125 8.51278 4.06179 8.47166L3.55814 7.60775C3.13188 7.85626 2.93562 8.30488 2.96616 8.73029L3.96359 8.65869ZM4.06179 8.47166L11.2183 4.29947L10.7146 3.43557L3.55814 7.60775L4.06179 8.47166ZM11.2183 4.29947C11.7165 4.00897 12.3328 4.00977 12.8303 4.30155L13.3362 3.43894C12.5271 2.96443 11.5249 2.96314 10.7146 3.43557L11.2183 4.29947ZM12.8303 4.30155L19.9415 8.47193L20.4474 7.60933L13.3362 3.43894L12.8303 4.30155ZM19.9415 8.47193C20.0103 8.51226 20.043 8.57944 20.0396 8.65319L21.0386 8.69895C21.0576 8.28391 20.8612 7.85196 20.4474 7.60932L19.9415 8.47193Z" fill="black"/>
<path d="M3.82019 9.25312C3.3487 8.98865 3.34307 8.31197 3.81009 8.03969L10.9665 3.86751C11.6209 3.48605 12.43 3.48709 13.0834 3.87024L20.1946 8.04062C20.6596 8.31329 20.6539 8.98739 20.1845 9.25227L13.0531 13.276C12.4152 13.636 11.6357 13.637 10.9969 13.2786L3.82019 9.25312Z" stroke="black"/>
</svg>
