<svg width="30" height="30" viewBox="0 0 30 30" fill="none" xmlns="http://www.w3.org/2000/svg">
<mask id="path-1-inside-1" fill="white">
<path fill-rule="evenodd" clip-rule="evenodd" d="M14.8576 5L23.7151 10.5523L23.7062 10.5579H23.715V19.9454H23.7122L23.715 19.9471L14.8575 25.4995L6 19.9471L6.00282 19.9454H6V10.5579H6.009L6.00011 10.5523L14.8576 5Z"/>
</mask>
<path d="M23.7151 10.5523L24.2463 11.3996C24.538 11.2167 24.7151 10.8966 24.7151 10.5523C24.7151 10.208 24.538 9.88791 24.2462 9.70504L23.7151 10.5523ZM14.8576 5L15.3887 4.15271C15.0639 3.9491 14.6513 3.9491 14.3265 4.15271L14.8576 5ZM23.7062 10.5579L23.1751 9.71063C22.7973 9.94745 22.622 10.4057 22.7452 10.8342C22.8684 11.2627 23.2604 11.5579 23.7062 11.5579V10.5579ZM23.715 10.5579H24.715C24.715 10.0056 24.2673 9.5579 23.715 9.5579V10.5579ZM23.715 19.9454V20.9454C24.2673 20.9454 24.715 20.4977 24.715 19.9454H23.715ZM23.7122 19.9454V18.9454C23.2663 18.9454 22.8743 19.2405 22.7511 19.669C22.6279 20.0975 22.8033 20.5558 23.181 20.7926L23.7122 19.9454ZM23.715 19.9471L24.2461 20.7944C24.5379 20.6116 24.715 20.2915 24.715 19.9472C24.715 19.6029 24.5379 19.2828 24.2462 19.0999L23.715 19.9471ZM14.8575 25.4995L14.3264 26.3468C14.6512 26.5504 15.0638 26.5504 15.3886 26.3468L14.8575 25.4995ZM6 19.9471L5.46887 19.0998C5.17714 19.2827 5 19.6028 5 19.9471C5 20.2915 5.17714 20.6116 5.46887 20.7944L6 19.9471ZM6.00282 19.9454L6.53394 20.7927C6.91172 20.5559 7.08708 20.0976 6.96388 19.669C6.84068 19.2405 6.44868 18.9454 6.00282 18.9454V19.9454ZM6 19.9454H5C5 20.4977 5.44772 20.9454 6 20.9454V19.9454ZM6 10.5579V9.5579C5.44772 9.5579 5 10.0056 5 10.5579H6ZM6.009 10.5579V11.5579C6.45486 11.5579 6.84686 11.2627 6.97007 10.8342C7.09327 10.4057 6.9179 9.94742 6.54013 9.71061L6.009 10.5579ZM6.00011 10.5523L5.46898 9.70504C5.17724 9.88791 5.00011 10.208 5.00011 10.5523C5.00011 10.8966 5.17724 11.2167 5.46898 11.3996L6.00011 10.5523ZM24.2462 9.70504L15.3887 4.15271L14.3265 5.84729L23.184 11.3996L24.2462 9.70504ZM24.2374 11.4052L24.2463 11.3996L23.184 9.70506L23.1751 9.71063L24.2374 11.4052ZM23.7062 11.5579H23.715V9.5579H23.7062V11.5579ZM22.715 10.5579V19.9454H24.715V10.5579H22.715ZM23.715 18.9454H23.7122V20.9454H23.715V18.9454ZM24.2462 19.0999L24.2434 19.0981L23.181 20.7926L23.1838 20.7944L24.2462 19.0999ZM15.3886 26.3468L24.2461 20.7944L23.1839 19.0998L14.3264 24.6522L15.3886 26.3468ZM5.46887 20.7944L14.3264 26.3468L15.3886 24.6522L6.53113 19.0998L5.46887 20.7944ZM5.47169 19.0981L5.46887 19.0998L6.53113 20.7944L6.53394 20.7927L5.47169 19.0981ZM6.00282 18.9454H6V20.9454H6.00282V18.9454ZM7 19.9454V10.5579H5V19.9454H7ZM6 11.5579H6.009V9.5579H6V11.5579ZM5.46898 11.3996L5.47788 11.4052L6.54013 9.71061L6.53123 9.70504L5.46898 11.3996ZM14.3265 4.15271L5.46898 9.70504L6.53123 11.3996L15.3887 5.84729L14.3265 4.15271Z" fill="black" mask="url(#path-1-inside-1)"/>
<path d="M6.9415 10.5523L14.8576 5.59011L22.7737 10.5523L14.8576 15.5145L6.9415 10.5523Z" stroke="black"/>
<line x1="14.9333" y1="15.8422" x2="14.9333" y2="24.5003" stroke="black" stroke-linecap="round" stroke-linejoin="round"/>
</svg>
