<svg width="24" height="24" viewBox="0 0 24 24" fill="none" xmlns="http://www.w3.org/2000/svg">
<path d="M5.5 8C5.5 7.17157 6.17157 6.5 7 6.5H17C17.8284 6.5 18.5 7.17157 18.5 8V8.5H5.5V8Z" stroke="black"/>
<path d="M16 5V7" stroke="black" stroke-linecap="round"/>
<path d="M8 5V7" stroke="black" stroke-linecap="round"/>
<path d="M5.5 10.5H18.5V16C18.5 16.8284 17.8284 17.5 17 17.5H7C6.17157 17.5 5.5 16.8284 5.5 16V10.5Z" stroke="black"/>
<path d="M15.7498 12.25H16.7498" stroke="black" stroke-linecap="round"/>
<path d="M12.9166 12.25H13.9166" stroke="black" stroke-linecap="round"/>
<path d="M10.0833 12.25H11.0833" stroke="black" stroke-linecap="round"/>
<path d="M7.25 14H8.25" stroke="black" stroke-linecap="round"/>
<path d="M15.7498 14H16.7498" stroke="black" stroke-linecap="round"/>
<path d="M12.9166 14H13.9166" stroke="black" stroke-linecap="round"/>
<path d="M10.0833 14H11.0833" stroke="black" stroke-linecap="round"/>
<path d="M7.25 15.75H8.25" stroke="black" stroke-linecap="round"/>
<path d="M12.9166 15.75H13.9166" stroke="black" stroke-linecap="round"/>
<path d="M10.0833 15.75H11.0833" stroke="black" stroke-linecap="round"/>
</svg>
