<svg width="24" height="24" viewBox="0 0 24 24" fill="none" xmlns="http://www.w3.org/2000/svg">
<path d="M15.2236 7.94721C15.393 8.286 15.7393 8.5 16.118 8.5H17.5C18.0523 8.5 18.5 8.94772 18.5 9.5V16.5C18.5 17.0523 18.0523 17.5 17.5 17.5H6.5C5.94772 17.5 5.5 17.0523 5.5 16.5V9.5C5.5 8.94772 5.94772 8.5 6.5 8.5H7.88197C8.26074 8.5 8.607 8.286 8.77639 7.94721L9.22361 7.05279C9.393 6.714 9.73926 6.5 10.118 6.5H13.882C14.2607 6.5 14.607 6.714 14.7764 7.05279L15.2236 7.94721Z" stroke="black" stroke-linejoin="round"/>
<circle cx="12" cy="12.5" r="2.5" stroke="black"/>
</svg>
