<svg width="24" height="24" viewBox="0 0 24 24" fill="none" xmlns="http://www.w3.org/2000/svg">
<path d="M18.4465 5.17052L18.4465 5.17052L18.4477 5.17402L20.5 11.0843V19C20.5 19.2739 20.2739 19.5 20 19.5H19C18.7261 19.5 18.5 19.2739 18.5 19V18V17.5H18H6H5.5V18V19C5.5 19.2739 5.27386 19.5 5 19.5H4C3.72614 19.5 3.5 19.2739 3.5 19V11.0843L5.55164 5.17601C5.69486 4.77571 6.06299 4.5 6.5 4.5H17.5C17.9429 4.5 18.3143 4.78073 18.4465 5.17052Z" stroke="black"/>
<path d="M6.5 14.5C5.94614 14.5 5.5 14.0539 5.5 13.5C5.5 12.9461 5.94614 12.5 6.5 12.5C7.05386 12.5 7.5 12.9461 7.5 13.5C7.5 14.0539 7.05386 14.5 6.5 14.5Z" stroke="black"/>
<path d="M17.5 14.5C16.9461 14.5 16.5 14.0539 16.5 13.5C16.5 12.9461 16.9461 12.5 17.5 12.5C18.0539 12.5 18.5 12.9461 18.5 13.5C18.5 14.0539 18.0539 14.5 17.5 14.5Z" stroke="black"/>
<path d="M18.3063 9.5H5.69371L6.86038 6H17.1396L18.3063 9.5Z" stroke="black"/>
</svg>
