<svg width="24" height="24" viewBox="0 0 24 24" fill="none" xmlns="http://www.w3.org/2000/svg">
<path d="M18.5 5.51C18.3 4.92 17.91 4.5 17.25 4.5H6.75C6.09 4.5 5.71 4.92 5.5 5.51L3.5 11.25V18.75C3.5 19.3 3.7 19.5 4.25 19.5H4.75C5.3 19.5 5.5 19.3 5.5 18.75V17.5H18.5V18.75C18.5 19.3 18.7 19.5 19.25 19.5H19.75C20.3 19.5 20.5 19.3 20.5 18.75V11.25L18.5 5.51Z" stroke="black"/>
<path d="M6.5 14.5C5.94667 14.5 5.5 14.0533 5.5 13.5C5.5 12.9467 5.94667 12.5 6.5 12.5C7.05333 12.5 7.5 12.9467 7.5 13.5C7.5 14.0533 7.05333 14.5 6.5 14.5Z" stroke="black"/>
<path d="M17.5 14.5C16.9467 14.5 16.5 14.0533 16.5 13.5C16.5 12.9467 16.9467 12.5 17.5 12.5C18.0533 12.5 18.5 12.9467 18.5 13.5C18.5 14.0533 18.0533 14.5 17.5 14.5Z" stroke="black"/>
<path d="M5.75 9.5L7 6H17L18.25 9.5H5.75Z" stroke="black" stroke-linejoin="round"/>
</svg>
