<svg xmlns="http://www.w3.org/2000/svg" fill="none" viewBox="0 0 24 24" stroke="currentColor">
  <path d="M18.5 5.51c-.2-.59-.59-1.01-1.25-1.01H6.75c-.66 0-1.04.42-1.25 1.01l-2 5.74v7.5c0 .55.2.75.75.75h.5c.55 0 .75-.2.75-.75V17.5h13v1.25c0 .55.2.75.75.75h.5c.55 0 .75-.2.75-.75v-7.5l-2-5.74z"/>
  <path d="M6.5 14.5c-.553 0-1-.447-1-1 0-.553.447-1 1-1 .553 0 1 .447 1 1 0 .553-.447 1-1 1zM17.5 14.5c-.553 0-1-.447-1-1 0-.553.447-1 1-1 .553 0 1 .447 1 1 0 .553-.447 1-1 1z"/>
  <path stroke-linejoin="round" d="M5.75 9.5L7 6h10l1.25 3.5H5.75z"/>
</svg>
