<svg width="24" height="24" viewBox="0 0 24 24" fill="none" xmlns="http://www.w3.org/2000/svg">
<path d="M3.5 8.5C3.5 7.94772 3.94772 7.5 4.5 7.5H12.5V9.5H4.5C3.94772 9.5 3.5 9.05228 3.5 8.5V8.5Z" stroke="black"/>
<path d="M14.5 7.5H19.5C20.0523 7.5 20.5 7.94772 20.5 8.5V8.5C20.5 9.05228 20.0523 9.5 19.5 9.5H14.5V7.5Z" stroke="black"/>
<path d="M3.5 12.5C3.5 11.9477 3.94772 11.5 4.5 11.5H9.5V13.5H4.5C3.94772 13.5 3.5 13.0523 3.5 12.5V12.5Z" stroke="black"/>
<path d="M11.5 11.5H19.5C20.0523 11.5 20.5 11.9477 20.5 12.5V12.5C20.5 13.0523 20.0523 13.5 19.5 13.5H11.5V11.5Z" stroke="black"/>
<path d="M3.5 16.5C3.5 15.9477 3.94772 15.5 4.5 15.5H15.5V17.5H4.5C3.94772 17.5 3.5 17.0523 3.5 16.5V16.5Z" stroke="black"/>
<path d="M17.5 15.5H19.5C20.0523 15.5 20.5 15.9477 20.5 16.5V16.5C20.5 17.0523 20.0523 17.5 19.5 17.5H17.5V15.5Z" stroke="black"/>
</svg>
