<svg width="24" height="24" viewBox="0 0 24 24" fill="none" xmlns="http://www.w3.org/2000/svg">
<path d="M7.5 5C7.22386 5 7 5.22386 7 5.5C7 5.77614 7.22386 6 7.5 6V5ZM7.49978 18.4996L7.06783 18.7515L7.49978 18.4996ZM7.49978 5.50034L7.08086 5.22738L7.49978 5.50034ZM4.47148 11.0638L7.9187 5.7733L7.08086 5.22738L3.63364 10.5179L4.47148 11.0638ZM7.93174 18.2478L4.44173 12.2615L3.57783 12.7651L7.06783 18.7515L7.93174 18.2478ZM7.99982 18.4998V18.4998H6.99982V18.4998H7.99982ZM9 18H7.5V19H9V18ZM18.8587 18H9V19H18.8587V18ZM19.9998 7.14109V16.8589H20.9998V7.14109H19.9998ZM9 6H18.8587V5H9V6ZM7.5 6H9V5H7.5V6ZM7.99982 5.50022V5.50018H6.99982V5.50022H7.99982ZM7.5 5C7.22376 5 6.99982 5.22394 6.99982 5.50018H7.99982C7.99982 5.77622 7.77604 6 7.5 6V5ZM20.9998 7.14109C20.9998 5.9586 20.0412 5 18.8587 5V6C19.4889 6 19.9998 6.51088 19.9998 7.14109H20.9998ZM6.99982 18.4998C6.99982 18.7761 7.22376 19 7.5 19V18C7.77604 18 7.99982 18.2238 7.99982 18.4998H6.99982ZM7.06783 18.7515C7.02329 18.675 6.99982 18.5882 6.99982 18.4998H7.99982C7.99982 18.4112 7.97632 18.3243 7.93174 18.2478L7.06783 18.7515ZM18.8587 19C20.0412 19 20.9998 18.0414 20.9998 16.8589H19.9998C19.9998 17.4891 19.4889 18 18.8587 18V19ZM7.9187 5.7733C7.97194 5.69159 7.99982 5.59663 7.99982 5.50022H6.99982C6.99982 5.40389 7.02767 5.30901 7.08086 5.22738L7.9187 5.7733ZM3.63364 10.5179C3.19169 11.1962 3.17009 12.0657 3.57783 12.7651L4.44173 12.2615C4.22443 11.8887 4.23594 11.4253 4.47148 11.0638L3.63364 10.5179Z" fill="black"/>
<path d="M10 8.5L17 15.5" stroke="black" stroke-linecap="round" stroke-linejoin="round"/>
<path d="M10 15.5L16.9303 8.49996" stroke="black" stroke-linecap="round" stroke-linejoin="round"/>
</svg>
