<svg width="30" height="30" viewBox="0 0 30 30" fill="none" xmlns="http://www.w3.org/2000/svg">
<mask id="path-1-inside-1" fill="white">
<path fill-rule="evenodd" clip-rule="evenodd" d="M10.6229 7.61511C10.0662 7.61511 9.5475 7.89731 9.24509 8.36468L5.76316 13.7458C5.42806 14.2637 5.41167 14.9258 5.72073 15.4596L9.25603 21.566C9.54944 22.0728 10.0907 22.3849 10.6763 22.3849H22.8588C23.7651 22.3849 24.4999 21.6502 24.4999 20.7438V9.2562C24.4999 8.34985 23.7651 7.61511 22.8588 7.61511H10.6229Z"/>
</mask>
<path d="M6.60273 14.2891L10.0847 8.90793L8.40552 7.82143L4.92359 13.2026L6.60273 14.2891ZM10.1215 21.065L6.58615 14.9586L4.8553 15.9606L8.39061 22.0671L10.1215 21.065ZM22.8588 21.3849H10.6763V23.3849H22.8588V21.3849ZM23.4999 9.2562V20.7438H25.4999V9.2562H23.4999ZM10.6229 8.61511H22.8588V6.61511H10.6229V8.61511ZM25.4999 9.2562C25.4999 7.79757 24.3174 6.61511 22.8588 6.61511V8.61511C23.2129 8.61511 23.4999 8.90214 23.4999 9.2562H25.4999ZM22.8588 23.3849C24.3174 23.3849 25.4999 22.2024 25.4999 20.7438H23.4999C23.4999 21.0979 23.2129 21.3849 22.8588 21.3849V23.3849ZM8.39061 22.0671C8.8628 22.8827 9.73383 23.3849 10.6763 23.3849V21.3849C10.4475 21.3849 10.2361 21.263 10.1215 21.065L8.39061 22.0671ZM10.0847 8.90793C10.2028 8.72535 10.4054 8.61511 10.6229 8.61511V6.61511C9.72701 6.61511 8.89221 7.06927 8.40552 7.82143L10.0847 8.90793ZM4.92359 13.2026C4.38429 14.036 4.35791 15.1015 4.8553 15.9606L6.58615 14.9586C6.46542 14.75 6.47182 14.4914 6.60273 14.2891L4.92359 13.2026Z" fill="black" mask="url(#path-1-inside-1)"/>
<rect x="12.4178" y="11.292" width="0.5" height="10.9876" rx="0.25" transform="rotate(-45 12.4178 11.292)" fill="black" stroke="black" stroke-width="0.5"/>
<rect x="12.0642" y="18.7079" width="11.4876" height="1" rx="0.5" transform="rotate(-45 12.0642 18.7079)" fill="black"/>
</svg>
