<svg width="24" height="24" viewBox="0 0 24 24" fill="none" xmlns="http://www.w3.org/2000/svg">
<path d="M13.4935 10.2697L12.9943 10.2981L13.0533 11.3388L13.828 10.6413L13.4935 10.2697ZM18.5 12.5H18V13H18.5V12.5ZM5.50352 10.6695L5.66956 11.1411L6.0185 11.0183L6.00309 10.6486L5.50352 10.6695ZM13.9927 10.2414C13.8584 7.87623 11.8985 6 9.5 6V7C11.3652 7 12.8899 8.45928 12.9943 10.2981L13.9927 10.2414ZM15.5 9C14.6002 9 13.7787 9.34019 13.1589 9.89815L13.828 10.6413C14.2713 10.2423 14.8568 10 15.5 10V9ZM19 12.5C19 10.567 17.433 9 15.5 9V10C16.8807 10 18 11.1193 18 12.5H19ZM18.5 13C19.3284 13 20 13.6716 20 14.5H21C21 13.1193 19.8807 12 18.5 12V13ZM20 14.5C20 15.3284 19.3284 16 18.5 16V17C19.8807 17 21 15.8807 21 14.5H20ZM6.5 17H18.5V16H6.5V17ZM3 13.5C3 15.433 4.567 17 6.5 17V16C5.11929 16 4 14.8807 4 13.5H3ZM5.33749 10.1978C3.97662 10.6769 3 11.9738 3 13.5H4C4 12.4112 4.69636 11.4837 5.66956 11.1411L5.33749 10.1978ZM5 10.5C5 10.5637 5.00133 10.6272 5.00396 10.6903L6.00309 10.6486C6.00104 10.5994 6 10.5498 6 10.5H5ZM9.5 6C7.01472 6 5 8.01472 5 10.5H6C6 8.567 7.567 7 9.5 7V6Z" fill="black"/>
</svg>
