<svg width="24" height="24" viewBox="0 0 24 24" fill="none" xmlns="http://www.w3.org/2000/svg">
<path d="M16.2811 7.79622L18.4957 6.51765C17.8459 5.74773 17.0618 5.09643 16.1776 4.59745C15.3422 4.12601 14.4366 3.80132 13.5 3.6334V6.18903C14.5724 6.46505 15.5288 7.03011 16.2811 7.79622Z" stroke="black" stroke-linejoin="round"/>
<path d="M18.8952 9.75961C19.3683 11.2157 19.3683 12.7842 18.8952 14.2403" stroke="black" stroke-linecap="round"/>
<path d="M17.3878 16.8512C16.3633 17.989 15.0049 18.7732 13.5074 19.0916" stroke="black" stroke-linecap="round"/>
<path d="M10.4927 19.0916C8.99506 18.7732 7.63669 17.989 6.61221 16.8512" stroke="black" stroke-linecap="round"/>
<path d="M5.10484 14.2403C4.63172 12.7842 4.63172 11.2157 5.10484 9.75961" stroke="black" stroke-linecap="round"/>
<path d="M6.61221 7.14878C7.63668 6.01099 8.99506 5.22673 10.4926 4.90841" stroke="black" stroke-linecap="round"/>
</svg>
