<svg width="24" height="24" viewBox="0 0 24 24" fill="none" xmlns="http://www.w3.org/2000/svg">
<path d="M10.5 3.63194C8.50852 3.98652 6.75702 5.03461 5.50414 6.51758L7.71884 7.79623C8.47119 7.03012 9.42757 6.46505 10.5 6.18903V3.63194Z" stroke="black" stroke-linejoin="round"/>
<path d="M3.5 12C3.5 10.987 3.67719 10.0155 4.00227 9.11458L6.21748 10.3935C6.07574 10.9048 6 11.4436 6 12C6 12.5564 6.07574 13.0952 6.21748 13.6065L4.00227 14.8854C3.67719 13.9845 3.5 13.013 3.5 12Z" stroke="black" stroke-linejoin="round"/>
<path d="M5.50414 17.4824C6.75702 18.9654 8.50852 20.0135 10.5 20.3681V17.811C9.42757 17.535 8.47119 16.9699 7.71884 16.2038L5.50414 17.4824Z" stroke="black" stroke-linejoin="round"/>
<path d="M17.7825 10.3935C17.9243 10.9048 18 11.4436 18 12C18 12.5564 17.9243 13.0952 17.7825 13.6065L19.9977 14.8855C20.3228 13.9846 20.5 13.013 20.5 12C20.5 10.987 20.3228 10.0154 19.9977 9.11455L17.7825 10.3935Z" stroke="black" stroke-linejoin="round"/>
<path d="M18.4958 6.51756C17.243 5.0346 15.4915 3.98652 13.5 3.63194V6.18903C14.5724 6.46505 15.5288 7.03011 16.2811 7.79622L18.4958 6.51756Z" stroke="black" stroke-linejoin="round"/>
<path d="M13.5 17.811C14.5724 17.535 15.5288 16.9699 16.2811 16.2038L18.4958 17.4824C17.243 18.9654 15.4915 20.0135 13.5 20.3681V17.811Z" stroke="black" stroke-linejoin="round"/>
</svg>
