<svg width="24" height="24" viewBox="0 0 24 24" fill="none" xmlns="http://www.w3.org/2000/svg">
<path d="M7.71883 16.2038L5.5043 17.4823C6.11416 18.2049 6.84271 18.8235 7.66212 19.3098C8.54034 19.8309 9.50199 20.1877 10.5 20.3666V17.811C9.42757 17.535 8.47118 16.9699 7.71883 16.2038Z" stroke="black" stroke-linejoin="round"/>
<path d="M17.7825 10.3935L19.9957 9.11573C20.3614 10.1295 20.5322 11.207 20.495 12.2911C20.4646 13.1798 20.295 14.0545 19.9957 14.8843L17.7825 13.6065C17.9243 13.0952 18 12.5564 18 12C18 11.4436 17.9243 10.9048 17.7825 10.3935Z" stroke="black" stroke-linejoin="round"/>
<path d="M18.4957 6.51766L16.2811 7.79622C15.5288 7.03011 14.5724 6.46505 13.5 6.18903V3.6334C14.5922 3.82922 15.6391 4.23767 16.5797 4.83925C17.302 5.30119 17.9472 5.86777 18.4957 6.51766Z" stroke="black" stroke-linejoin="round"/>
<path d="M13.5 20.3666C14.3995 20.2053 15.2706 19.8994 16.0787 19.4575C17.0025 18.9522 17.8212 18.2815 18.4957 17.4824L16.2811 16.2038C15.5288 16.9699 14.5724 17.535 13.5 17.811V20.3666Z" stroke="black" stroke-linejoin="round"/>
<path d="M5.10484 14.2403C4.63172 12.7842 4.63172 11.2157 5.10484 9.75961" stroke="black" stroke-linecap="round"/>
<path d="M6.6122 7.14878C7.63667 6.01099 8.99504 5.22673 10.4926 4.90841" stroke="black" stroke-linecap="round"/>
</svg>
