<svg width="24" height="24" viewBox="0 0 24 24" fill="none" xmlns="http://www.w3.org/2000/svg">
<path d="M6.21749 13.6065C6.07576 13.0952 6.00001 12.5564 6.00001 12C6.00001 11.4436 6.07576 10.9048 6.21749 10.3935L4.00431 9.11574C3.54275 10.3953 3.3926 11.774 3.57626 13.1359C3.65714 13.7357 3.80131 14.3215 4.00431 14.8843L6.21749 13.6065Z" stroke="black" stroke-linejoin="round"/>
<path d="M7.71885 16.2038L5.50431 17.4823C5.65543 17.6614 5.81434 17.8346 5.98077 18.0016C7.21146 19.2359 8.78975 20.06 10.5 20.3666V17.811C9.42759 17.535 8.4712 16.9699 7.71885 16.2038Z" stroke="black" stroke-linejoin="round"/>
<path d="M17.7825 10.3935L19.9957 9.11572C20.0957 9.39282 20.1815 9.6759 20.2526 9.96397C20.6555 11.5972 20.5639 13.3092 19.9957 14.8843L17.7825 13.6065C17.9243 13.0952 18 12.5564 18 12C18 11.4436 17.9243 10.9048 17.7825 10.3935Z" stroke="black" stroke-linejoin="round"/>
<path d="M18.4957 6.51765L16.2812 7.79621C15.5288 7.03011 14.5724 6.46505 13.5 6.18903V3.63339C14.8997 3.88434 16.2212 4.4839 17.3383 5.38542C17.7616 5.72704 18.1487 6.1065 18.4957 6.51765Z" stroke="black" stroke-linejoin="round"/>
<path d="M13.5 17.811C14.5724 17.535 15.5288 16.9699 16.2812 16.2038L18.4957 17.4823C17.846 18.2522 17.0603 18.9054 16.1711 19.4062C15.3353 19.8769 14.4318 20.1995 13.5 20.3666V17.811Z" stroke="black" stroke-linejoin="round"/>
<path d="M6.61221 7.14878C7.63668 6.01099 8.99506 5.22673 10.4926 4.90841" stroke="black" stroke-linecap="round"/>
</svg>
