<svg width="24" height="24" viewBox="0 0 24 24" fill="none" xmlns="http://www.w3.org/2000/svg">
<path d="M13.5 20.3666C15.1971 20.0624 16.7745 19.2463 18.0104 18.0104C18.1802 17.8406 18.342 17.6644 18.4957 17.4824L16.2811 16.2038C15.5288 16.9699 14.5724 17.535 13.5 17.811V20.3666Z" stroke="black" stroke-linejoin="round"/>
<path d="M20.5 12C20.5 12.9929 20.3263 13.9678 19.9957 14.8843L17.7825 13.6065C17.9243 13.0952 18 12.5564 18 12C18 11.4436 17.9243 10.9048 17.7825 10.3935L19.9957 9.11572C20.3263 10.0321 20.5 11.0071 20.5 12Z" stroke="black" stroke-linejoin="round"/>
<path d="M18.4957 6.51764C18.342 6.33556 18.1802 6.15936 18.0104 5.98959C16.7745 4.75365 15.1971 3.93763 13.5 3.63336V6.18902C14.5724 6.46505 15.5288 7.03011 16.2811 7.79621L18.4957 6.51764Z" stroke="black" stroke-linejoin="round"/>
<path d="M10.4926 19.0915C8.99504 18.7732 7.63667 17.989 6.6122 16.8512" stroke="black" stroke-linecap="round"/>
<path d="M5.10484 14.2403C4.63172 12.7842 4.63172 11.2157 5.10484 9.7596" stroke="black" stroke-linecap="round"/>
<path d="M6.6122 7.14877C7.63667 6.01098 8.99504 5.22673 10.4926 4.9084" stroke="black" stroke-linecap="round"/>
</svg>
