<svg width="24" height="24" viewBox="0 0 24 24" fill="none" xmlns="http://www.w3.org/2000/svg">
<path d="M17.7825 10.3935C17.9243 10.9048 18 11.4436 18 12C18 12.5564 17.9243 13.0952 17.7825 13.6065L19.9957 14.8843C20.2988 14.044 20.4689 13.1574 20.4961 12.2567C20.5285 11.1835 20.3573 10.1181 19.9957 9.11573L17.7825 10.3935Z" stroke="black" stroke-linejoin="round"/>
<path d="M16.2811 7.79622L18.4957 6.51765C17.8708 5.77724 17.1212 5.14596 16.2769 4.65438C15.4145 4.15228 14.4742 3.80807 13.5 3.6334V6.18903C14.5724 6.46505 15.5288 7.03011 16.2811 7.79622Z" stroke="black" stroke-linejoin="round"/>
<path d="M17.3878 16.8512C16.3633 17.989 15.0049 18.7732 13.5074 19.0916" stroke="black" stroke-linecap="round"/>
<path d="M10.4926 19.0916C8.99504 18.7732 7.63667 17.989 6.6122 16.8512" stroke="black" stroke-linecap="round"/>
<path d="M5.10484 14.2403C4.63172 12.7842 4.63172 11.2157 5.10484 9.75961" stroke="black" stroke-linecap="round"/>
<path d="M6.6122 7.14878C7.63667 6.01099 8.99504 5.22673 10.4926 4.90841" stroke="black" stroke-linecap="round"/>
</svg>
