<svg width="24" height="24" viewBox="0 0 24 24" fill="none" xmlns="http://www.w3.org/2000/svg">
<path d="M6.21748 13.6065C6.07574 13.0952 6 12.5564 6 12C6 11.4436 6.07574 10.9048 6.21748 10.3935L4.00429 9.11575C3.54274 10.3953 3.39259 11.774 3.57624 13.1359C3.65712 13.7357 3.8013 14.3215 4.0043 14.8843L6.21748 13.6065Z" stroke="black" stroke-linejoin="round"/>
<path d="M7.71883 16.2038L5.50429 17.4823C5.65542 17.6614 5.81433 17.8346 5.98076 18.0016C7.21144 19.2359 8.78974 20.06 10.5 20.3666V17.811C9.42757 17.535 8.47118 16.9699 7.71883 16.2038Z" stroke="black" stroke-linejoin="round"/>
<path d="M17.7825 10.3935L19.9957 9.11572C20.0956 9.39282 20.1815 9.6759 20.2525 9.96397C20.6555 11.5972 20.5639 13.3092 19.9957 14.8843L17.7825 13.6065C17.9242 13.0952 18 12.5564 18 12C18 11.4436 17.9242 10.9048 17.7825 10.3935Z" stroke="black" stroke-linejoin="round"/>
<path d="M18.4957 6.51765L16.2811 7.79622C15.5288 7.03011 14.5724 6.46505 13.5 6.18903V3.63339C14.8997 3.88435 16.2212 4.48391 17.3383 5.38542C17.7616 5.72704 18.1487 6.10651 18.4957 6.51765Z" stroke="black" stroke-linejoin="round"/>
<path d="M13.5 17.811C14.5724 17.535 15.5288 16.9699 16.2811 16.2038L18.4957 17.4824C17.846 18.2522 17.0603 18.9054 16.171 19.4062C15.3353 19.8769 14.4318 20.1995 13.5 20.3666V17.811Z" stroke="black" stroke-linejoin="round"/>
<path d="M6.6122 7.14879C7.63667 6.011 8.99504 5.22674 10.4926 4.90842" stroke="black" stroke-linecap="round"/>
</svg>
