<svg width="24" height="24" viewBox="0 0 24 24" fill="none" xmlns="http://www.w3.org/2000/svg">
<path d="M16.2811 7.79621L18.4957 6.51765C17.8459 5.74773 17.0618 5.09642 16.1776 4.59745C15.3422 4.126 14.4366 3.80131 13.5 3.63339V6.18902C14.5724 6.46504 15.5288 7.0301 16.2811 7.79621Z" stroke="black" stroke-linejoin="round"/>
<path d="M18.8952 9.7596C19.3683 11.2157 19.3683 12.7842 18.8952 14.2403" stroke="black" stroke-linecap="round"/>
<path d="M17.3878 16.8512C16.3633 17.989 15.005 18.7732 13.5074 19.0915" stroke="black" stroke-linecap="round"/>
<path d="M10.4926 19.0915C8.99504 18.7732 7.63667 17.989 6.6122 16.8512" stroke="black" stroke-linecap="round"/>
<path d="M5.10484 14.2403C4.63172 12.7842 4.63172 11.2157 5.10484 9.7596" stroke="black" stroke-linecap="round"/>
<path d="M6.6122 7.14877C7.63667 6.01098 8.99504 5.22673 10.4926 4.9084" stroke="black" stroke-linecap="round"/>
</svg>
