<svg width="24" height="24" viewBox="0 0 24 24" fill="none" xmlns="http://www.w3.org/2000/svg">
<path d="M13.5 12.0987L13.2496 11.6659C13.0951 11.7552 13 11.9202 13 12.0987H13.5ZM14.1286 14.2514L13.9429 14.7157L13.9429 14.7157L14.1286 14.2514ZM16.1788 15.0715L16.3645 14.6073L16.3645 14.6073L16.1788 15.0715ZM18.5 18.5V19C18.7761 19 19 18.7761 19 18.5H18.5ZM5.5 18.5H5C5 18.7761 5.22386 19 5.5 19V18.5ZM7.82119 15.0715L7.6355 14.6073L7.6355 14.6073L7.82119 15.0715ZM9.87139 14.2514L9.6857 13.7872L9.6857 13.7872L9.87139 14.2514ZM10.5 12.0987H11C11 11.9202 10.9049 11.7552 10.7504 11.6659L10.5 12.0987ZM8.5 7.5V9.5H9.5V7.5H8.5ZM12 4C10.067 4 8.5 5.567 8.5 7.5H9.5C9.5 6.11929 10.6193 5 12 5V4ZM15.5 7.5C15.5 5.567 13.933 4 12 4V5C13.3807 5 14.5 6.11929 14.5 7.5H15.5ZM15.5 9.5V7.5H14.5V9.5H15.5ZM13.7504 12.5315C14.7952 11.927 15.5 10.7961 15.5 9.5H14.5C14.5 10.4247 13.9982 11.2328 13.2496 11.6659L13.7504 12.5315ZM14 12.5V12.0987H13V12.5H14ZM14 13.323V12.5H13V13.323H14ZM14.3143 13.7872C14.1245 13.7113 14 13.5274 14 13.323H13C13 13.9363 13.3734 14.4879 13.9429 14.7157L14.3143 13.7872ZM16.3645 14.6073L14.3143 13.7872L13.9429 14.7157L15.9931 15.5358L16.3645 14.6073ZM19 18.5C19 16.7856 17.9563 15.244 16.3645 14.6073L15.9931 15.5358C17.2052 16.0206 18 17.1945 18 18.5H19ZM5.5 19H18.5V18H5.5V19ZM7.6355 14.6073C6.04375 15.244 5 16.7856 5 18.5H6C6 17.1945 6.7948 16.0206 8.00689 15.5358L7.6355 14.6073ZM9.6857 13.7872L7.6355 14.6073L8.00689 15.5358L10.0571 14.7157L9.6857 13.7872ZM10 13.323C10 13.5274 9.87552 13.7113 9.6857 13.7872L10.0571 14.7157C10.6266 14.4879 11 13.9363 11 13.323H10ZM10 12.5V13.323H11V12.5H10ZM10 12.0987V12.5H11V12.0987H10ZM8.5 9.5C8.5 10.7961 9.20479 11.927 10.2496 12.5315L10.7504 11.6659C10.0018 11.2328 9.5 10.4247 9.5 9.5H8.5Z" fill="black"/>
</svg>
