<svg width="24" height="24" viewBox="0 0 24 24" fill="none" xmlns="http://www.w3.org/2000/svg">
<path d="M9 9.5C9 9.5 12.1234 12.8175 12.4678 15.5322C12.4746 15.5833 12.4798 15.6348 12.4844 15.6865C12.487 15.7162 12.4893 15.7458 12.4912 15.7754C12.4959 15.8497 12.5 15.9245 12.5 16C12.5 17.933 10.933 19.5 9 19.5C7.067 19.5 5.5 17.933 5.5 16C5.5 15.9245 5.50311 15.8497 5.50781 15.7754C5.50971 15.7458 5.51204 15.7162 5.51465 15.6865C5.51924 15.6348 5.52443 15.5833 5.53125 15.5322C5.87478 12.8243 8.98443 9.51654 9 9.5Z" stroke="black" stroke-linejoin="round"/>
<path d="M7.5 16C7.5 16.197 7.5388 16.392 7.61418 16.574C7.68956 16.756 7.80005 16.9214 7.93934 17.0607C8.07863 17.1999 8.24399 17.3104 8.42597 17.3858C8.60796 17.4612 8.80302 17.5 9 17.5" stroke="black" stroke-linecap="round"/>
<path d="M15.5 6.5C15.5 6.5 17.3212 8.6958 17.4863 10.2793C17.4874 10.289 17.4883 10.2988 17.4893 10.3086C17.4952 10.3736 17.5 10.4373 17.5 10.5C17.5 11.6046 16.6046 12.5 15.5 12.5C14.3954 12.5 13.5 11.6046 13.5 10.5C13.5 10.4374 13.5038 10.3735 13.5098 10.3086C13.5107 10.2988 13.5116 10.289 13.5127 10.2793C13.6773 8.70057 15.4891 6.51319 15.5 6.5Z" stroke="black" stroke-linejoin="round"/>
</svg>
