<svg width="24" height="24" viewBox="0 0 24 24" fill="none" xmlns="http://www.w3.org/2000/svg">
<path d="M7.14645 19.3536L7.5 19.7071L7.5 19.7071L7.14645 19.3536ZM15.6452 10.8548L15.9987 11.2084L16.3523 10.8548L15.9987 10.5013L15.6452 10.8548ZM13.1452 8.35485L13.4987 8.00129L13.1452 7.64774L12.7916 8.00129L13.1452 8.35485ZM4.64645 16.8536L5 17.2071L5 17.2071L4.64645 16.8536ZM15.0897 6.4103L14.7361 6.05675L14.3826 6.4103L14.7361 6.76385L15.0897 6.4103ZM17.5897 8.9103L17.2361 9.26385L17.5897 9.61741L17.9433 9.26385L17.5897 8.9103ZM18.7929 7.70711L18.4393 7.35355L18.4393 7.35355L18.7929 7.70711ZM18.7929 6.2929L19.1464 5.93934L19.1464 5.93934L18.7929 6.2929ZM17.7071 5.20711L17.3536 5.56066L17.3536 5.56066L17.7071 5.20711ZM16.2929 5.20711L16.6464 5.56066L16.6464 5.56066L16.2929 5.20711ZM5 19V17.2071H4V19H5ZM5 19H4C4 19.5523 4.44772 20 5 20V19ZM6.79289 19H5V20H6.79289V19ZM6.79289 19L6.79289 19V20C7.05811 20 7.31246 19.8946 7.5 19.7071L6.79289 19ZM15.2916 10.5013L6.79289 19L7.5 19.7071L15.9987 11.2084L15.2916 10.5013ZM15.9987 10.5013L13.4987 8.00129L12.7916 8.7084L15.2916 11.2084L15.9987 10.5013ZM5 17.2071L13.4987 8.7084L12.7916 8.00129L4.29289 16.5L5 17.2071ZM5 17.2071L5 17.2071L4.29289 16.5C4.10536 16.6875 4 16.9419 4 17.2071H5ZM14.7361 6.76385L17.2361 9.26385L17.9433 8.55675L15.4433 6.05675L14.7361 6.76385ZM18.4393 7.35355L17.2361 8.55675L17.9433 9.26385L19.1464 8.06066L18.4393 7.35355ZM18.4393 6.64645C18.6346 6.84171 18.6346 7.15829 18.4393 7.35355L19.1464 8.06066C19.7322 7.47487 19.7322 6.52513 19.1464 5.93934L18.4393 6.64645ZM17.3536 5.56066L18.4393 6.64645L19.1464 5.93934L18.0607 4.85355L17.3536 5.56066ZM16.6464 5.56066C16.8417 5.3654 17.1583 5.3654 17.3536 5.56066L18.0607 4.85355C17.4749 4.26777 16.5251 4.26777 15.9393 4.85356L16.6464 5.56066ZM15.4433 6.76385L16.6464 5.56066L15.9393 4.85356L14.7361 6.05675L15.4433 6.76385Z" fill="black"/>
</svg>
