<svg width="24" height="24" viewBox="0 0 24 24" fill="none" xmlns="http://www.w3.org/2000/svg">
<path d="M15.75 18.4952C14.3202 19.3207 12.6579 19.6513 11.0211 19.4358C9.38417 19.2203 7.86414 18.4707 6.6967 17.3033C5.52926 16.1359 4.77966 14.6158 4.56416 12.9789C4.34866 11.3421 4.67931 9.67981 5.50481 8.25C6.33031 6.82019 7.60454 5.70272 9.12987 5.0709C10.6552 4.43909 12.3464 4.32824 13.9411 4.75556C15.5359 5.18287 16.9451 6.12446 17.9501 7.43429C18.9552 8.74412 19.5 10.349 19.5 12" stroke="black" stroke-linecap="round"/>
<path d="M19.5 13.75C19.5 14.3467 19.2629 14.919 18.841 15.341C18.419 15.7629 17.8467 16 17.25 16C16.6533 16 16.081 15.7629 15.659 15.341C15.2371 14.919 15 14.3467 15 13.75" stroke="black"/>
<circle cx="12" cy="12" r="3" stroke="black"/>
<path d="M19.5 12V13.75" stroke="black"/>
<path d="M15 9V14" stroke="black" stroke-linecap="round"/>
</svg>
