<svg width="30" height="30" viewBox="0 0 30 30" fill="none" xmlns="http://www.w3.org/2000/svg">
<path d="M6.49993 23.5H22.9999V13.5" stroke="black" stroke-linecap="round" stroke-linejoin="round"/>
<path d="M6.49993 16.5V6.5H22.9999" stroke="black" stroke-linecap="round" stroke-linejoin="round"/>
<path d="M21.4999 4.50006L23.5 6.50004L21.4999 8.50006" stroke="black" stroke-linecap="round" stroke-linejoin="round"/>
<path d="M8.49993 25.5L6.49991 23.5L8.49993 21.5" stroke="black" stroke-linecap="round" stroke-linejoin="round"/>
<path d="M14.6476 20.5H15.3523V19.5418C17.157 19.4172 18.171 18.3516 18.171 17.011C18.171 15.361 16.607 14.8282 15.696 14.5875L15.3523 14.493V11.4379C16.2632 11.5282 16.9249 12.018 17.0195 12.8H18.0507C18.0077 11.5453 16.9077 10.5914 15.3523 10.4883V9.50003H14.6476V10.5012C13.1738 10.6516 12.0695 11.5883 12.0695 12.9375C12.0695 14.1235 12.9288 14.8282 14.3038 15.2235L14.6476 15.3223V18.575C13.7452 18.4805 13.0062 18.0164 12.9288 17.1313H11.8288C11.9277 18.4848 12.9589 19.4301 14.6476 19.5418V20.5ZM15.3523 18.575V15.5242L15.3866 15.5328C16.3148 15.7907 17.1398 16.1172 17.1398 16.9938C17.1398 17.8575 16.3921 18.459 15.3523 18.575ZM14.6476 14.3039C13.9945 14.1192 13.1007 13.7582 13.1007 12.886C13.1007 12.1426 13.7023 11.5754 14.6476 11.4508V14.3039Z" fill="black"/>
</svg>
