<svg width="24" height="24" viewBox="0 0 24 24" fill="none" xmlns="http://www.w3.org/2000/svg">
<path fill-rule="evenodd" clip-rule="evenodd" d="M19.0129 10.1509C18.8845 10.2793 18.8335 10.465 18.8685 10.6432C18.9547 11.0821 18.9999 11.5358 18.9999 12C18.9999 15.866 15.8659 19 11.9999 19C9.95372 19 8.11256 18.122 6.83263 16.7222C6.63125 16.502 6.28386 16.4791 6.07284 16.6902V16.6902C5.89386 16.8691 5.87712 17.1553 6.04624 17.3437C7.5108 18.9743 9.63559 20 11.9999 20C16.4182 20 19.9999 16.4183 19.9999 12C19.9999 11.4423 19.9429 10.898 19.8343 10.3725C19.7553 9.99033 19.2888 9.87496 19.0129 10.1509V10.1509ZM17.7886 7.16112C17.9713 6.97839 17.9847 6.6849 17.8069 6.49735C16.349 4.95928 14.2865 4 11.9999 4C7.58166 4 3.99994 7.58172 3.99994 12C3.99994 12.6014 4.0663 13.1873 4.1921 13.7508C4.27628 14.1279 4.73817 14.2384 5.01135 13.9653V13.9653C5.14172 13.8349 5.19196 13.6456 5.15355 13.4653C5.0529 12.9928 4.99994 12.5026 4.99994 12C4.99994 8.13401 8.13395 5 11.9999 5C13.9781 5 15.7647 5.82058 17.0378 7.13992C17.2414 7.35092 17.5813 7.36845 17.7886 7.16112V7.16112Z" fill="black"/>
<path d="M18.1249 5.5V7.5H16.1249" stroke="black" stroke-linecap="round" stroke-linejoin="round"/>
<path d="M7.87494 16.5L5.87494 16.5V18.5" stroke="black" stroke-linecap="round" stroke-linejoin="round"/>
<path d="M11.7437 16H12.2562V15.3031C13.5687 15.2125 14.3062 14.4375 14.3062 13.4625C14.3062 12.2625 13.1687 11.875 12.5062 11.7L12.2562 11.6313V9.40938C12.9187 9.475 13.3999 9.83125 13.4687 10.4H14.2187C14.1874 9.4875 13.3874 8.79375 12.2562 8.71875V8H11.7437V8.72813C10.6718 8.8375 9.8687 9.51875 9.8687 10.5C9.8687 11.3625 10.4937 11.875 11.4937 12.1625L11.7437 12.2344V14.6C11.0874 14.5313 10.5499 14.1937 10.4937 13.55H9.6937C9.76557 14.5344 10.5156 15.2219 11.7437 15.3031V16ZM12.2562 14.6V12.3813L12.2812 12.3875C12.9562 12.575 13.5562 12.8125 13.5562 13.45C13.5562 14.0781 13.0124 14.5156 12.2562 14.6ZM11.7437 11.4938C11.2687 11.3594 10.6187 11.0969 10.6187 10.4625C10.6187 9.92188 11.0562 9.50938 11.7437 9.41875V11.4938Z" fill="black"/>
</svg>
