<svg width="24" height="24" viewBox="0 0 24 24" fill="none" xmlns="http://www.w3.org/2000/svg">
<path fill-rule="evenodd" clip-rule="evenodd" d="M16 12.2924V17C16 17.5523 15.5523 18 15 18H7C6.44772 18 6 17.5523 6 17V9C6 8.44772 6.44772 8 7 8H11.8071L12.8071 7H7C5.89543 7 5 7.89543 5 9V17C5 18.1046 5.89543 19 7 19H15C16.1046 19 17 18.1046 17 17V11.2924L16 12.2924Z" fill="black"/>
<path d="M12.5 11.5L18.864 5.13604" stroke="black" stroke-linecap="round" stroke-linejoin="round"/>
<path d="M14.5 4.5H19.5V9.5" stroke="black" stroke-linecap="round" stroke-linejoin="round"/>
</svg>
