<svg width="24" height="24" viewBox="0 0 24 24" fill="none" xmlns="http://www.w3.org/2000/svg">
<path d="M7.5 7.5H14.5C15.6046 7.5 16.5 8.39543 16.5 9.5V12.5H14.5V10.5C14.5 9.94772 14.0523 9.5 13.5 9.5H7.5V12.5H5.5V6.5H7.5V7.5Z" stroke="black" stroke-linejoin="round"/>
<path d="M15.5 15C15.5 15 16.7539 16.5141 16.9668 17.6855C16.9686 17.694 16.97 17.7025 16.9717 17.7109C16.9885 17.8104 17 17.9069 17 18C17 18.8284 16.3284 19.5 15.5 19.5C14.6716 19.5 14 18.8284 14 18C14 17.9578 14.0022 17.9148 14.0059 17.8711C14.0075 17.8514 14.0103 17.832 14.0127 17.8125C14.016 17.7844 14.0208 17.7562 14.0254 17.7275C14.0286 17.7102 14.0314 17.6929 14.0352 17.6758C14.2521 16.5117 15.4873 15.0153 15.5 15Z" stroke="black" stroke-linejoin="round"/>
</svg>
