<svg width="30" height="30" viewBox="0 0 30 30" fill="none" xmlns="http://www.w3.org/2000/svg">
<mask id="path-1-inside-1" fill="white">
<path fill-rule="evenodd" clip-rule="evenodd" d="M16.3166 7.5H11.5C10.3954 7.5 9.5 8.39543 9.5 9.5V20.5C9.5 21.6046 10.3954 22.5 11.5 22.5H18.5C19.6046 22.5 20.5 21.6046 20.5 20.5V11.6834L16.3166 7.5Z"/>
</mask>
<path d="M16.3166 7.5L17.0237 6.79289L16.7308 6.5H16.3166V7.5ZM20.5 11.6834H21.5V11.2692L21.2071 10.9763L20.5 11.6834ZM11.5 8.5H16.3166V6.5H11.5V8.5ZM10.5 9.5C10.5 8.94772 10.9477 8.5 11.5 8.5V6.5C9.84315 6.5 8.5 7.84315 8.5 9.5H10.5ZM10.5 20.5V9.5H8.5V20.5H10.5ZM11.5 21.5C10.9477 21.5 10.5 21.0523 10.5 20.5H8.5C8.5 22.1569 9.84315 23.5 11.5 23.5V21.5ZM18.5 21.5H11.5V23.5H18.5V21.5ZM19.5 20.5C19.5 21.0523 19.0523 21.5 18.5 21.5V23.5C20.1569 23.5 21.5 22.1569 21.5 20.5H19.5ZM19.5 11.6834V20.5H21.5V11.6834H19.5ZM21.2071 10.9763L17.0237 6.79289L15.6095 8.20711L19.7929 12.3905L21.2071 10.9763Z" fill="black" mask="url(#path-1-inside-1)"/>
<path d="M16 8V12H20" stroke="black" stroke-linecap="round" stroke-linejoin="round"/>
</svg>
