<svg width="24" height="24" viewBox="0 0 24 24" fill="none" xmlns="http://www.w3.org/2000/svg">
<path d="M13.4997 4.5L13.8534 4.14659L13.7069 4H13.4997V4.5ZM17.5 8.50365H18V8.29666L17.8537 8.15024L17.5 8.50365ZM8 5H13.4997V4H8V5ZM7 6C7 5.44772 7.44772 5 8 5V4C6.89543 4 6 4.89543 6 6H7ZM7 18V6H6V18H7ZM8 19C7.44772 19 7 18.5523 7 18H6C6 19.1046 6.89543 20 8 20V19ZM16 19H8V20H16V19ZM17 18C17 18.5523 16.5523 19 16 19V20C17.1046 20 18 19.1046 18 18H17ZM17 8.50365V18H18V8.50365H17ZM17.8537 8.15024L13.8534 4.14659L13.146 4.85341L17.1463 8.85705L17.8537 8.15024Z" fill="black"/>
<path d="M13 5V9H17" stroke="black" stroke-linecap="round" stroke-linejoin="round"/>
</svg>
