<svg width="24" height="24" viewBox="0 0 24 24" fill="none" xmlns="http://www.w3.org/2000/svg">
<path d="M15.889 15.8891C16.3998 15.3784 16.8049 14.7721 17.0813 14.1048C17.3577 13.4375 17.4999 12.7223 17.4999 12C17.4999 11.2777 17.3577 10.5625 17.0813 9.89524C16.8049 9.22795 16.3998 8.62164 15.889 8.11091C15.3783 7.60019 14.772 7.19506 14.1047 6.91866C13.4374 6.64226 12.7222 6.5 11.9999 6.5C11.2777 6.5 10.5625 6.64226 9.89519 6.91866C9.2279 7.19506 8.62158 7.60019 8.11086 8.11091C8.11086 8.11091 4.10354 11.4377 4 15" stroke="black" stroke-linecap="round" stroke-linejoin="round"/>
<path d="M12 12C12 12 11.5 12.5 10 14C8.5 15.5 8.50002 18.5 10 20" stroke="black" stroke-linecap="round" stroke-linejoin="round"/>
<path d="M6 6.00008C9.34015 2.65997 14.7412 2.74132 18 6.00008C21.2588 9.25883 21.3009 14.6992 18 18.0001C15.2162 20.7839 10.9171 16.583 13.75 13.7501C15.1077 12.3924 14.9156 10.8477 13.898 9.82832C12.918 8.84664 10.9812 9.01892 10 10.0001C8 12.0001 8.71772 11.2824 8 12.0001C7.28228 12.7178 5.77193 15.7953 6.5 18.5001" stroke="black" stroke-linecap="round" stroke-linejoin="round"/>
</svg>
