<svg width="24" height="24" viewBox="0 0 24 24" fill="none" xmlns="http://www.w3.org/2000/svg">
<path d="M19.2267 10.7677L19.1461 11.2612L19.1462 11.2612L19.2267 10.7677ZM17.2994 10.4527L16.8194 10.5928L16.9077 10.8953L17.2187 10.9462L17.2994 10.4527ZM19.5 11.0896L19 11.0885V11.0896H19.5ZM19.2303 13.2042L19.1439 12.7118L19.1438 12.7118L19.2303 13.2042ZM17.3004 13.543L17.2139 13.0506L16.9067 13.1045L16.82 13.4041L17.3004 13.543ZM16.8415 14.6543L16.4032 14.4137L16.2513 14.6904L16.4358 14.9466L16.8415 14.6543ZM17.9823 16.2382L17.5765 16.5304L17.5767 16.5306L17.9823 16.2382ZM17.9483 16.6595L18.302 17.0129L18.3024 17.0125L17.9483 16.6595ZM16.6804 17.9283L17.0334 18.2823L17.0341 18.2817L16.6804 17.9283ZM16.2623 17.9645L16.5507 17.556L16.5495 17.5551L16.2623 17.9645ZM14.6627 16.8424L14.9499 16.4331L14.6934 16.2532L14.4197 16.4055L14.6627 16.8424ZM13.5442 17.3103L13.403 16.8307L13.1059 16.9181L13.0518 17.223L13.5442 17.3103ZM13.2034 19.231L12.7111 19.1436L12.7109 19.1443L13.2034 19.231ZM10.7676 19.228L11.261 19.147L11.2608 19.1459L10.7676 19.228ZM10.4493 17.3168L10.9425 17.2347L10.8908 16.924L10.5882 16.8365L10.4493 17.3168ZM9.32585 16.8525L9.56675 16.4144L9.29399 16.2644L9.03903 16.443L9.32585 16.8525ZM7.73767 17.9648L7.45085 17.5552L7.4502 17.5557L7.73767 17.9648ZM7.31992 17.9283L6.96624 18.2817L6.96638 18.2818L7.31992 17.9283ZM6.05198 16.6595L5.69742 17.012L5.69831 17.0129L6.05198 16.6595ZM6.01741 16.2391L6.42406 16.5301L6.42414 16.5299L6.01741 16.2391ZM7.13958 14.6697L7.54631 14.9605L7.7298 14.7038L7.57715 14.4278L7.13958 14.6697ZM6.67062 13.5414L7.15082 13.4021L7.06416 13.1034L6.75792 13.0491L6.67062 13.5414ZM4.76905 13.2042L4.68134 13.6965L4.68175 13.6966L4.76905 13.2042ZM4.77263 10.768L4.85449 11.2613L4.85476 11.2613L4.77263 10.768ZM6.67421 10.4514L6.75633 10.9446L7.06643 10.893L7.15429 10.5911L6.67421 10.4514ZM7.14316 9.32315L7.5808 9.56497L7.73154 9.29216L7.55297 9.03669L7.14316 9.32315ZM6.0347 7.73739L6.44451 7.45093L6.44377 7.44988L6.0347 7.73739ZM6.07122 7.32L6.42476 7.67357L6.42476 7.67357L6.07122 7.32ZM7.33883 6.0525L6.98632 5.69791L6.9853 5.69893L7.33883 6.0525ZM7.7592 6.01793L8.0498 5.61106L8.0498 5.61106L7.7592 6.01793ZM9.33433 7.14293L9.04373 7.54981L9.29913 7.73222L9.57442 7.58152L9.33433 7.14293ZM10.4552 6.6825L10.5933 7.16304L10.8976 7.07556L10.9487 6.76309L10.4552 6.6825ZM10.767 4.77359L11.2604 4.85418L11.2604 4.85414L10.767 4.77359ZM13.2037 4.77L13.6962 4.68373L13.6961 4.68345L13.2037 4.77ZM13.5399 6.68935L13.0474 6.77562L13.1012 7.08246L13.4003 7.16945L13.5399 6.68935ZM14.6591 7.15467L14.4173 7.59227L14.6941 7.74529L14.951 7.56069L14.6591 7.15467ZM16.2385 6.01957L16.5303 6.42558L16.531 6.42513L16.2385 6.01957ZM16.6595 6.05348L17.013 5.69982L17.0126 5.6994L16.6595 6.05348ZM17.9278 7.32098L18.2818 6.96792L18.2812 6.96732L17.9278 7.32098ZM17.9643 7.73902L17.5553 7.45152L17.555 7.45182L17.9643 7.73902ZM16.8392 9.34239L16.4299 9.05519L16.2511 9.31001L16.4009 9.58291L16.8392 9.34239ZM19.3074 10.2743L17.38 9.95926L17.2187 10.9462L19.1461 11.2612L19.3074 10.2743ZM20 11.0906C20.0008 10.6849 19.7069 10.3395 19.3073 10.2742L19.1462 11.2612C19.0622 11.2475 18.9998 11.1747 19 11.0885L20 11.0906ZM20 12.883V11.0896H19V12.883H20ZM19.3167 13.6967C19.7126 13.6273 20 13.2834 20 12.883H19C19 12.799 19.0604 12.7264 19.1439 12.7118L19.3167 13.6967ZM17.3868 14.0355L19.3168 13.6967L19.1438 12.7118L17.2139 13.0506L17.3868 14.0355ZM17.2798 14.895C17.491 14.5104 17.6587 14.1038 17.7807 13.682L16.82 13.4041C16.7183 13.7557 16.5788 14.094 16.4032 14.4137L17.2798 14.895ZM18.388 15.9459L17.2472 14.3621L16.4358 14.9466L17.5765 16.5304L18.388 15.9459ZM18.3024 17.0125C18.5875 16.7266 18.6253 16.2751 18.3878 15.9457L17.5767 16.5306C17.5264 16.4608 17.5349 16.366 17.5943 16.3064L18.3024 17.0125ZM17.0341 18.2817L18.302 17.0129L17.5947 16.306L16.3267 17.5748L17.0341 18.2817ZM15.974 18.3729C16.3045 18.6063 16.7509 18.564 17.0334 18.2823L16.3274 17.5742C16.3855 17.5162 16.4798 17.5059 16.5507 17.556L15.974 18.3729ZM14.3756 17.2517L15.9752 18.3738L16.5495 17.5551L14.9499 16.4331L14.3756 17.2517ZM13.6854 17.79C14.1112 17.6646 14.5201 17.4939 14.9058 17.2793L14.4197 16.4055C14.0996 16.5835 13.7591 16.7258 13.403 16.8307L13.6854 17.79ZM13.6957 19.3183L14.0365 17.3977L13.0518 17.223L12.7111 19.1436L13.6957 19.3183ZM12.8825 20C13.2829 20 13.6262 19.7127 13.6958 19.3177L12.7109 19.1443C12.7257 19.0603 12.7984 19 12.8825 19V20ZM11.0888 20H12.8825V19H11.0888V20ZM10.2742 19.3091C10.3399 19.7088 10.6858 20 11.0888 20V19C11.1729 19 11.2469 19.0609 11.261 19.147L10.2742 19.3091ZM9.95611 17.399L10.2744 19.3102L11.2608 19.1459L10.9425 17.2347L9.95611 17.399ZM9.08496 17.2906C9.47386 17.5045 9.88477 17.6741 10.3105 17.7972L10.5882 16.8365C10.2332 16.7339 9.89073 16.5925 9.56675 16.4144L9.08496 17.2906ZM8.0245 18.3743L9.61268 17.262L9.03903 16.443L7.45085 17.5552L8.0245 18.3743ZM6.96638 18.2818C7.24931 18.5647 7.69606 18.6051 8.02515 18.3739L7.4502 17.5557C7.52035 17.5064 7.61424 17.5155 7.67346 17.5747L6.96638 18.2818ZM5.69831 17.0129L6.96625 18.2817L7.67359 17.5748L6.40566 16.306L5.69831 17.0129ZM5.61077 15.9482C5.37546 16.2771 5.41371 16.7267 5.69742 17.012L6.40654 16.3069C6.46524 16.3659 6.47413 16.4601 6.42406 16.5301L5.61077 15.9482ZM6.73285 14.3789L5.61069 15.9483L6.42414 16.5299L7.54631 14.9605L6.73285 14.3789ZM6.19043 13.6807C6.31464 14.1089 6.48616 14.5212 6.702 14.9116L7.57715 14.4278C7.39709 14.1021 7.25423 13.7585 7.15082 13.4021L6.19043 13.6807ZM4.68175 13.6966L6.58333 14.0337L6.75792 13.0491L4.85634 12.7119L4.68175 13.6966ZM4 12.883C4 13.2837 4.28741 13.6263 4.68134 13.6965L4.85675 12.712C4.93957 12.7267 5 12.7987 5 12.883H4ZM4 11.0896V12.883H5V11.0896H4ZM4.69077 10.2748C4.2923 10.3409 4 10.6859 4 11.0896H5C5 11.175 4.93859 11.2473 4.85449 11.2613L4.69077 10.2748ZM6.59209 9.9582L4.69051 10.2748L4.85476 11.2613L6.75633 10.9446L6.59209 9.9582ZM6.70553 9.08133C6.49034 9.47078 6.31892 9.88296 6.19413 10.3117L7.15429 10.5911C7.25843 10.2333 7.40139 9.88965 7.5808 9.56497L6.70553 9.08133ZM5.62489 8.02385L6.73336 9.60961L7.55297 9.03669L6.4445 7.45093L5.62489 8.02385ZM5.71769 6.96643C5.4348 7.2493 5.39428 7.69573 5.62563 8.0249L6.44377 7.44988C6.49315 7.52014 6.48394 7.6144 6.42476 7.67357L5.71769 6.96643ZM6.9853 5.69893L5.71769 6.96643L6.42476 7.67357L7.69237 6.40607L6.9853 5.69893ZM8.0498 5.61106C7.72007 5.37556 7.2714 5.4145 6.98632 5.69791L7.69135 6.40709C7.63259 6.4655 7.53808 6.47444 7.46859 6.42481L8.0498 5.61106ZM9.62494 6.73606L8.0498 5.61106L7.46859 6.42481L9.04373 7.54981L9.62494 6.73606ZM10.317 6.20196C9.89072 6.32452 9.4808 6.49274 9.09424 6.70435L9.57442 7.58152C9.89553 7.40574 10.237 7.26548 10.5933 7.16304L10.317 6.20196ZM10.2735 4.69299L9.96173 6.60191L10.9487 6.76309L11.2604 4.85418L10.2735 4.69299ZM11.0888 4C10.6841 4 10.3388 4.29323 10.2735 4.69303L11.2604 4.85414C11.2467 4.93829 11.174 5 11.0888 5V4ZM12.8825 4H11.0888V5H12.8825V4ZM13.6961 4.68345C13.6269 4.28939 13.2846 4 12.8825 4V5C12.7973 5 12.7257 4.93887 12.7112 4.85655L13.6961 4.68345ZM14.0324 6.60307L13.6962 4.68373L12.7112 4.85627L13.0474 6.77562L14.0324 6.60307ZM14.901 6.71708C14.5135 6.50286 14.1042 6.33273 13.6795 6.20924L13.4003 7.16945C13.7538 7.27227 14.0945 7.41388 14.4173 7.59227L14.901 6.71708ZM15.9467 5.61355L14.3673 6.74866L14.951 7.56069L16.5303 6.42558L15.9467 5.61355ZM17.0126 5.6994C16.7267 5.41442 16.2755 5.37645 15.9461 5.614L16.531 6.42513C16.4611 6.4755 16.366 6.46688 16.3065 6.40756L17.0126 5.6994ZM18.2812 6.96732L17.013 5.69982L16.3061 6.40714L17.5744 7.67464L18.2812 6.96732ZM18.3734 8.02653C18.6049 7.69717 18.5639 7.25081 18.2818 6.96792L17.5737 7.67403C17.5154 7.61549 17.5057 7.52196 17.5553 7.45152L18.3734 8.02653ZM17.2485 9.62959L18.3736 8.02622L17.555 7.45182L16.4299 9.05519L17.2485 9.62959ZM17.7794 10.3127C17.6563 9.89095 17.4881 9.48552 17.2776 9.10187L16.4009 9.58291C16.5765 9.90296 16.7168 10.241 16.8194 10.5928L17.7794 10.3127ZM12.0001 13.7826C11.0154 13.7826 10.2172 12.9845 10.2172 12H9.21725C9.21725 13.5369 10.4632 14.7826 12.0001 14.7826V13.7826ZM13.7829 12C13.7829 12.9845 12.9847 13.7826 12.0001 13.7826V14.7826C13.5369 14.7826 14.7829 13.5369 14.7829 12H13.7829ZM12.0001 10.2174C12.9847 10.2174 13.7829 11.0156 13.7829 12H14.7829C14.7829 10.4632 13.5369 9.21742 12.0001 9.21742V10.2174ZM10.2172 12C10.2172 11.0156 11.0154 10.2174 12.0001 10.2174V9.21742C10.4632 9.21742 9.21725 10.4632 9.21725 12H10.2172Z" fill="black"/>
</svg>
