<svg width="30" height="30" viewBox="0 0 30 30" fill="none" xmlns="http://www.w3.org/2000/svg">
<path d="M8 13.287V8.8C8 8.35817 8.35817 8 8.8 8H13.287C13.7288 8 14.087 8.35817 14.087 8.8V13.287C14.087 13.7288 13.7288 14.087 13.287 14.087H8.8C8.35817 14.087 8 13.7288 8 13.287Z" stroke="black"/>
<path d="M15.9132 13.287V8.8C15.9132 8.35817 16.2713 8 16.7132 8H21.2001C21.642 8 22.0001 8.35817 22.0001 8.8V13.287C22.0001 13.7288 21.642 14.087 21.2001 14.087H16.7132C16.2714 14.087 15.9132 13.7288 15.9132 13.287Z" stroke="black"/>
<path d="M15.9132 21.2V16.7131C15.9132 16.2713 16.2713 15.9131 16.7132 15.9131H21.2001C21.642 15.9131 22.0001 16.2713 22.0001 16.7131V21.2C22.0001 21.6419 21.642 22.0001 21.2001 22.0001H16.7132C16.2714 22.0001 15.9132 21.6419 15.9132 21.2Z" stroke="black"/>
<path d="M8 21.2V16.7131C8 16.2713 8.35817 15.9131 8.8 15.9131H13.287C13.7288 15.9131 14.087 16.2713 14.087 16.7131V21.2C14.087 21.6419 13.7288 22.0001 13.287 22.0001H8.8C8.35817 22.0001 8 21.6419 8 21.2Z" stroke="black"/>
</svg>
