<svg width="30" height="30" viewBox="0 0 30 30" fill="none" xmlns="http://www.w3.org/2000/svg">
<path d="M7 13.7217V8.8C7 8.35817 7.35817 8 7.8 8H12.7217C13.1636 8 13.5217 8.35817 13.5217 8.8V13.7217C13.5217 14.1636 13.1636 14.5217 12.7217 14.5217H7.8C7.35817 14.5217 7 14.1636 7 13.7217Z" stroke="black"/>
<path d="M15.4784 13.7217V8.8C15.4784 8.35817 15.8366 8 16.2784 8H21.2001C21.642 8 22.0001 8.35817 22.0001 8.8V13.7217C22.0001 14.1636 21.642 14.5217 21.2001 14.5217H16.2784C15.8366 14.5217 15.4784 14.1636 15.4784 13.7217Z" stroke="black"/>
<path d="M15.4784 22.2V17.2783C15.4784 16.8364 15.8366 16.4783 16.2784 16.4783H21.2001C21.642 16.4783 22.0001 16.8364 22.0001 17.2783V22.2C22.0001 22.6418 21.642 23 21.2001 23H16.2784C15.8366 23 15.4784 22.6418 15.4784 22.2Z" stroke="black"/>
<path d="M7 22.2V17.2783C7 16.8364 7.35817 16.4783 7.8 16.4783H12.7217C13.1636 16.4783 13.5217 16.8364 13.5217 17.2783V22.2C13.5217 22.6418 13.1636 23 12.7217 23H7.8C7.35817 23 7 22.6418 7 22.2Z" stroke="black"/>
</svg>
