<svg width="30" height="30" viewBox="0 0 30 30" fill="none" xmlns="http://www.w3.org/2000/svg">
<path fill-rule="evenodd" clip-rule="evenodd" d="M17.3307 10.1693C16.5873 10.0589 15.806 10 15 10C10.0294 10 6 12.2386 6 15C6 16.4401 7.09589 17.738 8.84963 18.6504L9.59563 17.9044C9.43117 17.8266 9.27305 17.7455 9.12168 17.6614C7.63388 16.8348 7 15.8526 7 15C7 14.1474 7.63388 13.1652 9.12168 12.3386C10.5756 11.5309 12.6519 11 15 11C15.4905 11 15.9692 11.0232 16.4328 11.0672L17.3307 10.1693ZM14.1787 18.9781C14.4483 18.9926 14.7222 19 15 19C17.3481 19 19.4244 18.4691 20.8783 17.6614C22.3661 16.8348 23 15.8526 23 15C23 14.1474 22.3661 13.1652 20.8783 12.3386C20.8655 12.3315 20.8526 12.3244 20.8396 12.3173L21.5726 11.5843C23.0782 12.4781 24 13.6792 24 15C24 17.7614 19.9706 20 15 20C14.4016 20 13.8169 19.9676 13.2512 19.9057L14.1787 18.9781Z" fill="black"/>
<rect x="22" y="7.5" width="1" height="20" rx="0.5" transform="rotate(45 22 7.5)" fill="black"/>
</svg>
