<svg width="24" height="24" viewBox="0 0 24 24" fill="none" xmlns="http://www.w3.org/2000/svg">
<path fill-rule="evenodd" clip-rule="evenodd" d="M13.8915 7.10835C13.2806 7.03723 12.6476 7 12 7C9.58789 7 7.37933 7.51653 5.75565 8.37613C4.15434 9.22388 3 10.4809 3 12C3 13.44 4.03724 14.6445 5.50921 15.4881L6.24575 14.7518C6.23833 14.7479 6.23092 14.744 6.22354 14.7401C4.74845 13.9592 4 12.9662 4 12C4 11.0338 4.74845 10.0408 6.22354 9.25991C7.67625 8.49083 9.71769 8 12 8C12.3286 8 12.6521 8.01017 12.9697 8.02988L13.8915 7.10835ZM11.0291 15.97C11.347 15.9898 11.671 16 12 16C14.2823 16 16.3237 15.5092 17.7765 14.7401C19.2516 13.9592 20 12.9662 20 12C20 11.0338 19.2516 10.0408 17.7765 9.25991C17.7683 9.25561 17.7602 9.25131 17.752 9.24702L18.4885 8.51054C19.9617 9.35424 21 10.5592 21 12C21 13.5191 19.8457 14.7761 18.2444 15.6239C16.6207 16.4835 14.4121 17 12 17C11.3521 17 10.7188 16.9627 10.1076 16.8915L11.0291 15.97Z" fill="black"/>
<path d="M19 5L5.00006 19" stroke="black" stroke-linecap="round" stroke-linejoin="round"/>
</svg>
