<svg width="24" height="24" viewBox="0 0 24 24" fill="none" xmlns="http://www.w3.org/2000/svg">
<path d="M19.2134 11.2083L19.5702 10.8579L19.2134 11.2083ZM4.75406 11.2155L4.38109 10.8825L4.75406 11.2155ZM5.12703 11.5485L11.3047 4.62954L10.5587 3.96353L4.38109 10.8825L5.12703 11.5485ZM5 19.5V11.8815H4V19.5H5ZM8.5 20H5.5V21H8.5V20ZM10 19.5V16H9V19.5H10ZM10.5 15.5H13.5V14.5H10.5V15.5ZM14 16V19.5H15V16H14ZM18.5 20H15.5V21H18.5V20ZM19 11.909V19.5H20V11.909H19ZM12.0343 4.6122L18.8567 11.5586L19.5702 10.8579L12.7478 3.91149L12.0343 4.6122ZM20 11.909C20 11.5158 19.8457 11.1384 19.5702 10.8579L18.8567 11.5586C18.9486 11.6521 19 11.7779 19 11.909H20ZM18.5 21C19.3284 21 20 20.3285 20 19.5H19C19 19.7762 18.7761 20 18.5 20V21ZM14 19.5C14 20.3285 14.6716 21 15.5 21V20C15.2239 20 15 19.7762 15 19.5H14ZM13.5 15.5C13.7761 15.5 14 15.7239 14 16H15C15 15.1716 14.3284 14.5 13.5 14.5V15.5ZM10 16C10 15.7239 10.2239 15.5 10.5 15.5V14.5C9.67157 14.5 9 15.1716 9 16H10ZM8.5 21C9.32843 21 10 20.3285 10 19.5H9C9 19.7762 8.77614 20 8.5 20V21ZM4 19.5C4 20.3285 4.67157 21 5.5 21V20C5.22386 20 5 19.7762 5 19.5H4ZM11.3047 4.62954C11.4972 4.41394 11.8318 4.40599 12.0343 4.6122L12.7478 3.91149C12.1402 3.29286 11.1362 3.31673 10.5587 3.96353L11.3047 4.62954ZM4.38109 10.8825C4.13566 11.1574 4 11.513 4 11.8815H5C5 11.7587 5.04522 11.6401 5.12703 11.5485L4.38109 10.8825Z" fill="black"/>
</svg>
