<svg width="24" height="24" viewBox="0 0 24 24" fill="none" xmlns="http://www.w3.org/2000/svg">
<path d="M13.4602 14.3131L13.4353 13.8137L13.1752 13.8267L13.0367 14.0472L13.4602 14.3131ZM10.025 19.7843L10.4485 20.0501L10.4485 20.0501L10.025 19.7843ZM5.43027 17.0917L5.00682 16.8258L5.00682 16.8258L5.43027 17.0917ZM8.5872 12.0637L9.01065 12.3295L9.19272 12.0396L8.98818 11.765L8.5872 12.0637ZM12.7406 6.48382L12.6196 5.99867L12.6196 5.99867L12.7406 6.48382ZM14.7365 14.6265C18.073 13.7946 20.161 10.5066 19.3498 7.25296L18.3795 7.49488C19.0482 10.1771 17.3315 12.9489 14.4946 13.6562L14.7365 14.6265ZM13.4851 14.8125C13.8996 14.7918 14.3185 14.7307 14.7365 14.6265L14.4946 13.6562C14.1398 13.7447 13.7853 13.7963 13.4353 13.8137L13.4851 14.8125ZM10.4485 20.0501L13.8836 14.579L13.0367 14.0472L9.60158 19.5184L10.4485 20.0501ZM8.93603 21.1465C9.56291 20.9902 10.1049 20.5973 10.4485 20.0501L9.60158 19.5184C9.39545 19.8467 9.07023 20.0824 8.6941 20.1762L8.93603 21.1465ZM6.96201 21.6387L8.93603 21.1465L8.6941 20.1762L6.72009 20.6684L6.96201 21.6387ZM5.14368 20.5461C5.3441 21.3499 6.15819 21.8391 6.96201 21.6387L6.72009 20.6684C6.45215 20.7352 6.18078 20.5721 6.11398 20.3042L5.14368 20.5461ZM4.69835 18.76L5.14368 20.5461L6.11398 20.3042L5.66864 18.5181L4.69835 18.76ZM5.00682 16.8258C4.64521 17.4018 4.53383 18.1001 4.69835 18.76L5.66864 18.5181C5.56993 18.1222 5.63676 17.7031 5.85373 17.3576L5.00682 16.8258ZM8.16375 11.7978L5.00682 16.8258L5.85373 17.3576L9.01065 12.3295L8.16375 11.7978ZM7.20165 10.2818C7.39453 11.0554 7.73456 11.756 8.18622 12.3624L8.98818 11.765C8.61382 11.2624 8.33208 10.6821 8.17195 10.0399L7.20165 10.2818ZM11.8149 2.9083C8.47837 3.74018 6.39043 7.02818 7.20165 10.2818L8.17195 10.0399C7.50319 7.35765 9.21995 4.5859 12.0568 3.87859L11.8149 2.9083ZM19.3498 7.25296C18.5385 3.99932 15.1514 2.07642 11.8149 2.9083L12.0568 3.87859C14.8936 3.17129 17.7107 4.81263 18.3795 7.49488L19.3498 7.25296ZM14.6799 8.06153C14.8803 8.86535 14.3911 9.67944 13.5873 9.87985L13.8292 10.8502C15.1689 10.5161 15.9842 9.15931 15.6502 7.81961L14.6799 8.06153ZM12.8616 6.96897C13.6654 6.76855 14.4795 7.25771 14.6799 8.06153L15.6502 7.81961C15.3162 6.47991 13.9593 5.66465 12.6196 5.99867L12.8616 6.96897ZM11.769 8.78729C11.5686 7.98347 12.0577 7.16938 12.8616 6.96897L12.6196 5.99867C11.2799 6.3327 10.4647 7.68952 10.7987 9.02922L11.769 8.78729ZM13.5873 9.87985C12.7835 10.0803 11.9694 9.59111 11.769 8.78729L10.7987 9.02922C11.1327 10.3689 12.4895 11.1842 13.8292 10.8502L13.5873 9.87985Z" fill="black"/>
</svg>
