<svg width="24" height="24" viewBox="0 0 24 24" fill="none" xmlns="http://www.w3.org/2000/svg">
<path d="M13.4602 14.3131L13.4353 13.8137L13.1752 13.8267L13.0367 14.0472L13.4602 14.3131ZM10.025 19.7843L10.4485 20.0502L10.4485 20.0502L10.025 19.7843ZM5.43027 17.0917L5.00682 16.8259L5.00682 16.8259L5.43027 17.0917ZM8.5872 12.0637L9.01065 12.3296L9.19272 12.0396L8.98818 11.765L8.5872 12.0637ZM12.7406 6.48385L12.6196 5.9987L12.6196 5.9987L12.7406 6.48385ZM14.7365 14.6265C18.073 13.7946 20.161 10.5066 19.3498 7.25299L18.3795 7.49491C19.0482 10.1772 17.3315 12.9489 14.4946 13.6562L14.7365 14.6265ZM13.4851 14.8125C13.8996 14.7918 14.3185 14.7308 14.7365 14.6265L14.4946 13.6562C14.1398 13.7447 13.7853 13.7963 13.4353 13.8137L13.4851 14.8125ZM10.4485 20.0502L13.8836 14.579L13.0367 14.0472L9.60158 19.5184L10.4485 20.0502ZM8.93603 21.1465C9.56291 20.9902 10.1049 20.5973 10.4485 20.0502L9.60158 19.5184C9.39545 19.8467 9.07023 20.0825 8.6941 20.1762L8.93603 21.1465ZM6.96201 21.6387L8.93603 21.1465L8.6941 20.1762L6.72009 20.6684L6.96201 21.6387ZM5.14368 20.5462C5.3441 21.35 6.15819 21.8391 6.96201 21.6387L6.72009 20.6684C6.45215 20.7352 6.18078 20.5722 6.11398 20.3042L5.14368 20.5462ZM4.69835 18.76L5.14368 20.5462L6.11398 20.3042L5.66864 18.5181L4.69835 18.76ZM5.00682 16.8259C4.64521 17.4018 4.53383 18.1002 4.69835 18.76L5.66864 18.5181C5.56993 18.1222 5.63676 17.7032 5.85373 17.3576L5.00682 16.8259ZM8.16375 11.7978L5.00682 16.8259L5.85373 17.3576L9.01065 12.3296L8.16375 11.7978ZM7.20165 10.2819C7.39453 11.0554 7.73456 11.7561 8.18622 12.3624L8.98818 11.765C8.61382 11.2624 8.33208 10.6822 8.17195 10.0399L7.20165 10.2819ZM11.8149 2.90833C8.47837 3.74021 6.39043 7.02821 7.20165 10.2819L8.17195 10.0399C7.50319 7.35768 9.21995 4.58593 12.0568 3.87863L11.8149 2.90833ZM19.3498 7.25299C18.5385 3.99935 15.1514 2.07645 11.8149 2.90833L12.0568 3.87863C14.8936 3.17132 17.7107 4.81266 18.3795 7.49491L19.3498 7.25299ZM14.6799 8.06156C14.8803 8.86538 14.3911 9.67947 13.5873 9.87989L13.8292 10.8502C15.1689 10.5162 15.9842 9.15934 15.6502 7.81964L14.6799 8.06156ZM12.8616 6.969C13.6654 6.76858 14.4795 7.25774 14.6799 8.06156L15.6502 7.81964C15.3162 6.47994 13.9593 5.66468 12.6196 5.9987L12.8616 6.969ZM11.769 8.78732C11.5686 7.98351 12.0577 7.16941 12.8616 6.969L12.6196 5.9987C11.2799 6.33273 10.4647 7.68955 10.7987 9.02925L11.769 8.78732ZM13.5873 9.87989C12.7835 10.0803 11.9694 9.59114 11.769 8.78732L10.7987 9.02925C11.1327 10.3689 12.4895 11.1842 13.8292 10.8502L13.5873 9.87989Z" fill="black"/>
</svg>
