<svg width="30" height="30" viewBox="0 0 30 30" fill="none" xmlns="http://www.w3.org/2000/svg">
<path d="M12.6163 14.9561L12.8499 14.7226L12.7267 14.4161C12.4938 13.8365 12.3654 13.2031 12.3654 12.5385C12.3654 9.7558 14.6212 7.5 17.4038 7.5C20.1865 7.5 22.4423 9.7558 22.4423 12.5385C22.4423 15.3211 20.1865 17.5769 17.4038 17.5769C17.0548 17.5769 16.7145 17.5415 16.3863 17.4742L16.1227 17.4202L15.9324 17.6105L11.4822 22.0607C11.2009 22.342 10.8194 22.5 10.4216 22.5H8.55768C8.28154 22.5 8.05768 22.2761 8.05768 22V20.1361C8.05768 19.7383 8.21571 19.3568 8.49702 19.0755L12.6163 14.9561Z" stroke="black"/>
<circle cx="17.5207" cy="12.1208" r="1.73077" stroke="black"/>
</svg>
