<svg width="24" height="24" viewBox="0 0 24 24" fill="none" xmlns="http://www.w3.org/2000/svg">
<path d="M3.5 8.5C3.5 7.94772 3.94772 7.5 4.5 7.5H19.5C20.0523 7.5 20.5 7.94772 20.5 8.5V16.5C20.5 17.0523 20.0523 17.5 19.5 17.5H4.5C3.94772 17.5 3.5 17.0523 3.5 16.5V8.5Z" stroke="black"/>
<path d="M5.5 14.5H6.5" stroke="black" stroke-linecap="round"/>
<path d="M8.5 14.5H15.5" stroke="black" stroke-linecap="round"/>
<path d="M17.5 14.5H18.5" stroke="black" stroke-linecap="round"/>
<path d="M6.5 12.5H7.5" stroke="black" stroke-linecap="round"/>
<path d="M9.5 12.5H10.5" stroke="black" stroke-linecap="round"/>
<path d="M12.5 12.5H13.5" stroke="black" stroke-linecap="round"/>
<path d="M15.5 12.5H16.5" stroke="black" stroke-linecap="round"/>
<path d="M5.5 10.5H6.5" stroke="black" stroke-linecap="round"/>
<path d="M8.5 10.5H9.5" stroke="black" stroke-linecap="round"/>
<path d="M11.5 10.5H12.5" stroke="black" stroke-linecap="round"/>
<path d="M14.5 10.5H15.5" stroke="black" stroke-linecap="round"/>
<path d="M17.5 10.5H18.5" stroke="black" stroke-linecap="round"/>
</svg>
