<svg width="24" height="24" viewBox="0 0 24 24" fill="none" xmlns="http://www.w3.org/2000/svg">
<path fill-rule="evenodd" clip-rule="evenodd" d="M7.05016 11.2929L4.92884 13.4142C3.36674 14.9763 3.36674 17.509 4.92884 19.0711C6.49094 20.6332 9.0236 20.6332 10.5857 19.0711L13.4141 16.2427C14.9762 14.6806 14.9762 12.1479 13.4141 10.5858C13.4141 10.5858 13.4141 10.5858 13.4141 10.5858L12.707 11.2929C12.707 11.2929 12.707 11.2929 12.707 11.2929C13.8786 12.4645 13.8786 14.364 12.707 15.5356L9.87859 18.364C8.70701 19.5356 6.80752 19.5356 5.63595 18.364C4.46437 17.1924 4.46437 15.2929 5.63595 14.1213L7.75727 12L7.05016 11.2929Z" fill="black"/>
<path fill-rule="evenodd" clip-rule="evenodd" d="M16.2426 12L18.3639 9.8787C19.5354 8.70713 19.5354 6.80763 18.3639 5.63606C17.1923 4.46449 15.2928 4.46449 14.1212 5.63606L11.2928 8.46449C10.1212 9.63606 10.1212 11.5356 11.2928 12.7071L10.5857 13.4142C9.0236 11.8521 9.0236 9.31948 10.5857 7.75738L13.4141 4.92895C14.9762 3.36685 17.5089 3.36685 19.071 4.92895C20.6331 6.49105 20.6331 9.02371 19.071 10.5858L16.9497 12.7071L16.2426 12Z" fill="black"/>
</svg>
