<svg width="24" height="24" viewBox="0 0 24 24" fill="none" xmlns="http://www.w3.org/2000/svg">
<path d="M5.57621 13.4811C4.91984 14.1375 4.55109 15.0278 4.55109 15.956C4.55109 16.8843 4.91984 17.7745 5.57621 18.4309C6.23259 19.0873 7.12283 19.456 8.05109 19.456C8.97935 19.456 9.86958 19.0873 10.526 18.4309M12.9987 11.0084C13.3237 11.3334 13.5815 11.7192 13.7574 12.1439C13.9333 12.5685 14.0238 13.0236 14.0238 13.4833C14.0238 13.9429 13.9333 14.398 13.7574 14.8227C13.5815 15.2473 13.3237 15.6331 12.9987 15.9581L10.5238 18.433M8.04896 11.0084L5.57409 13.4833" stroke="black" stroke-linecap="round" stroke-linejoin="round"/>
<path d="M18.431 10.526C19.0874 9.86965 19.4561 8.97941 19.4561 8.05115C19.4561 7.1229 19.0874 6.23266 18.431 5.57628C17.7746 4.9199 16.8844 4.55115 15.9561 4.55115C15.0279 4.55115 14.1376 4.9199 13.4813 5.57628M11.0085 12.9988C10.6835 12.6738 10.4257 12.2879 10.2498 11.8633C10.0739 11.4387 9.9834 10.9835 9.9834 10.5239C9.9834 10.0643 10.0739 9.60915 10.2498 9.18451C10.4257 8.75987 10.6835 8.37403 11.0085 8.04903L13.4834 5.57415M15.9583 12.9988L18.4331 10.5239" stroke="black" stroke-linecap="round" stroke-linejoin="round"/>
</svg>
