<svg width="30" height="30" viewBox="0 0 30 30" fill="none" xmlns="http://www.w3.org/2000/svg">
<path fill-rule="evenodd" clip-rule="evenodd" d="M10.0502 14.2929L7.92884 16.4142C6.36674 17.9763 6.36674 20.509 7.92884 22.0711C9.49094 23.6332 12.0236 23.6332 13.5857 22.0711L16.4141 19.2427C17.9762 17.6806 17.9762 15.1479 16.4141 13.5858C16.4141 13.5858 16.4141 13.5858 16.4141 13.5858L15.707 14.2929C15.707 14.2929 15.707 14.2929 15.707 14.2929C16.8786 15.4645 16.8786 17.364 15.707 18.5356L12.8786 21.364C11.707 22.5356 9.80752 22.5356 8.63595 21.364C7.46437 20.1924 7.46437 18.2929 8.63595 17.1213L10.7573 15L10.0502 14.2929Z" fill="black"/>
<path fill-rule="evenodd" clip-rule="evenodd" d="M19.2426 15L21.3639 12.8787C22.5354 11.7071 22.5354 9.80763 21.3639 8.63606C20.1923 7.46449 18.2928 7.46449 17.1212 8.63606L14.2928 11.4645C13.1212 12.6361 13.1212 14.5356 14.2928 15.7071L13.5857 16.4142C12.0236 14.8521 12.0236 12.3195 13.5857 10.7574L16.4141 7.92895C17.9762 6.36685 20.5089 6.36685 22.071 7.92895C23.6331 9.49105 23.6331 12.0237 22.071 13.5858L19.9497 15.7071L19.2426 15Z" fill="black"/>
</svg>
