<svg width="24" height="24" viewBox="0 0 24 24" fill="none" xmlns="http://www.w3.org/2000/svg">
<path d="M5 11.5C5 10.6716 5.67157 10 6.5 10V9C5.11929 9 4 10.1193 4 11.5H5ZM5 18.5V11.5H4V18.5H5ZM6.5 20C5.67157 20 5 19.3284 5 18.5H4C4 19.8807 5.11929 21 6.5 21V20ZM17.5 20H6.5V21H17.5V20ZM19 18.5C19 19.3284 18.3284 20 17.5 20V21C18.8807 21 20 19.8807 20 18.5H19ZM19 11.5V18.5H20V11.5H19ZM17.5 10C18.3284 10 19 10.6716 19 11.5H20C20 10.1193 18.8807 9 17.5 9V10ZM6.5 10H17.5V9H6.5V10ZM13 15C13 15.5523 12.5523 16 12 16V17C13.1046 17 14 16.1046 14 15H13ZM12 14C12.5523 14 13 14.4477 13 15H14C14 13.8954 13.1046 13 12 13V14ZM11 15C11 14.4477 11.4477 14 12 14V13C10.8954 13 10 13.8954 10 15H11ZM12 16C11.4477 16 11 15.5523 11 15H10C10 16.1046 10.8954 17 12 17V16Z" fill="black"/>
<path d="M7.75 9.5H16.25V5.5C16.25 4.39543 15.3546 3.5 14.25 3.5H9.75C8.64543 3.5 7.75 4.39543 7.75 5.5V9.5Z" stroke="black"/>
</svg>
