<svg width="30" height="30" viewBox="0 0 30 30" fill="none" xmlns="http://www.w3.org/2000/svg">
<rect x="16.0955" y="11.1441" width="4" height="15" rx="2" transform="rotate(45 16.0955 11.1441)" stroke="black"/>
<path d="M17.5097 15.3867L16.0955 16.8009L13.2671 13.9725L14.6813 12.5583C15.4624 11.7773 16.7287 11.7773 17.5097 12.5583C18.2908 13.3394 18.2908 14.6057 17.5097 15.3867Z" stroke="black"/>
<path d="M11.1994 6.11033C11.2658 5.86366 11.6158 5.86366 11.6822 6.11033L12.0398 7.43836C12.0629 7.5244 12.1301 7.59161 12.2162 7.61477L13.5442 7.97234C13.7909 8.03876 13.7909 8.38873 13.5442 8.45515L12.2162 8.81272C12.1301 8.83588 12.0629 8.90309 12.0398 8.98913L11.6822 10.3172C11.6158 10.5638 11.2658 10.5638 11.1994 10.3172L10.8418 8.98913C10.8186 8.90309 10.7514 8.83589 10.6654 8.81272L9.33736 8.45515C9.09069 8.38873 9.09069 8.03876 9.33736 7.97234L10.6654 7.61477C10.7514 7.59161 10.8186 7.5244 10.8418 7.43836L11.1994 6.11033Z" fill="black"/>
<path d="M21.1331 5.61033C21.1995 5.36366 21.5495 5.36366 21.6159 5.61033L21.9734 6.93836C21.9966 7.0244 22.0638 7.09161 22.1498 7.11477L23.4779 7.47234C23.7246 7.53876 23.7246 7.88873 23.4779 7.95515L22.1498 8.31272C22.0638 8.33588 21.9966 8.40309 21.9734 8.48913L21.6159 9.81716C21.5495 10.0638 21.1995 10.0638 21.1331 9.81716L20.7755 8.48913C20.7523 8.40309 20.6851 8.33589 20.5991 8.31272L19.271 7.95515C19.0244 7.88873 19.0244 7.53876 19.271 7.47234L20.5991 7.11477C20.6851 7.09161 20.7523 7.0244 20.7755 6.93836L21.1331 5.61033Z" fill="black"/>
<path d="M21.9768 15.162C22.0433 14.9153 22.3932 14.9153 22.4596 15.162L22.8172 16.49C22.8404 16.5761 22.9076 16.6433 22.9936 16.6664L24.3217 17.024C24.5683 17.0904 24.5683 17.4404 24.3217 17.5068L22.9936 17.8644C22.9076 17.8876 22.8404 17.9548 22.8172 18.0408L22.4596 19.3688C22.3932 19.6155 22.0433 19.6155 21.9768 19.3688L21.6193 18.0408C21.5961 17.9548 21.5289 17.8876 21.4429 17.8644L20.1148 17.5068C19.8682 17.4404 19.8682 17.0904 20.1148 17.024L21.4429 16.6664C21.5289 16.6433 21.5961 16.5761 21.6193 16.49L21.9768 15.162Z" fill="black"/>
</svg>
