<svg width="24" height="24" viewBox="0 0 24 24" fill="none" xmlns="http://www.w3.org/2000/svg">
<path d="M14.7505 12.7461L7.74983 19.7495C6.78348 20.7162 5.21637 20.7164 4.24983 19.7498C3.28343 18.7834 3.28343 17.2166 4.24983 16.2502L11.2519 9.24813C12.2175 8.2825 13.783 8.28204 14.7491 9.24711C15.716 10.2128 15.7166 11.7796 14.7505 12.7461Z" stroke="black"/>
<path d="M10.0334 10.5155L13.4841 13.9661" stroke="black"/>
<path d="M6.7586 4.89658C6.82501 4.64991 7.17499 4.64991 7.2414 4.89658L7.59897 6.22462C7.62214 6.31066 7.68934 6.37786 7.77538 6.40103L9.10342 6.7586C9.35009 6.82501 9.35009 7.17499 9.10342 7.2414L7.77538 7.59897C7.68934 7.62214 7.62214 7.68934 7.59897 7.77538L7.2414 9.10342C7.17499 9.35009 6.82501 9.35009 6.7586 9.10342L6.40103 7.77538C6.37786 7.68934 6.31066 7.62214 6.22462 7.59897L4.89658 7.2414C4.64991 7.17499 4.64991 6.82501 4.89658 6.7586L6.22462 6.40103C6.31066 6.37786 6.37786 6.31066 6.40103 6.22462L6.7586 4.89658Z" fill="black"/>
<path d="M16.7586 3.89658C16.825 3.64991 17.175 3.64991 17.2414 3.89658L17.599 5.22462C17.6221 5.31066 17.6893 5.37786 17.7754 5.40103L19.1034 5.7586C19.3501 5.82501 19.3501 6.17499 19.1034 6.2414L17.7754 6.59897C17.6893 6.62214 17.6221 6.68934 17.599 6.77538L17.2414 8.10342C17.175 8.35009 16.825 8.35009 16.7586 8.10342L16.401 6.77538C16.3779 6.68934 16.3107 6.62214 16.2246 6.59897L14.8966 6.2414C14.6499 6.17499 14.6499 5.82501 14.8966 5.7586L16.2246 5.40103C16.3107 5.37786 16.3779 5.31066 16.401 5.22462L16.7586 3.89658Z" fill="black"/>
<path d="M17.7586 12.8966C17.825 12.6499 18.175 12.6499 18.2414 12.8966L18.599 14.2246C18.6221 14.3107 18.6893 14.3779 18.7754 14.401L20.1034 14.7586C20.3501 14.825 20.3501 15.175 20.1034 15.2414L18.7754 15.599C18.6893 15.6221 18.6221 15.6893 18.599 15.7754L18.2414 17.1034C18.175 17.3501 17.825 17.3501 17.7586 17.1034L17.401 15.7754C17.3779 15.6893 17.3107 15.6221 17.2246 15.599L15.8966 15.2414C15.6499 15.175 15.6499 14.825 15.8966 14.7586L17.2246 14.401C17.3107 14.3779 17.3779 14.3107 17.401 14.2246L17.7586 12.8966Z" fill="black"/>
</svg>
