<svg width="24" height="24" viewBox="0 0 24 24" fill="none" xmlns="http://www.w3.org/2000/svg">
<path d="M8.00819 11.9962L8.50745 12.0232L8.00819 11.9962ZM15.9938 11.9971L15.4943 12.0178L15.9938 11.9971ZM10.8158 6H13.2182V5H10.8158V6ZM8.50745 12.0232C8.56013 11.0511 8.884 9.89758 9.27896 8.8241C9.67108 7.75835 10.1198 6.80704 10.3981 6.24936L9.50328 5.80286C9.21555 6.37945 8.74973 7.36645 8.34047 8.4788C7.93405 9.58343 7.56968 10.8478 7.50892 11.9691L8.50745 12.0232ZM8.5 12.29V12.0041H7.5V12.29H8.5ZM8.5 18.5V12.29H7.5V18.5H8.5ZM10 20C9.17157 20 8.5 19.3284 8.5 18.5H7.5C7.5 19.8807 8.61929 21 10 21V20ZM14 20H10V21H14V20ZM15.5 18.5C15.5 19.3284 14.8284 20 14 20V21C15.3807 21 16.5 19.8807 16.5 18.5H15.5ZM15.5 12.29V18.5H16.5V12.29H15.5ZM15.5 12.0031V12.29H16.5V12.0031H15.5ZM13.6155 6.22423C14.1845 7.26635 15.4004 9.75214 15.4943 12.0178L16.4934 11.9764C16.3892 9.46078 15.0682 6.79799 14.4931 5.74497L13.6155 6.22423ZM8.0041 11.5C7.72569 11.5 7.5 11.7257 7.5 12.0041H8.5C8.5 12.278 8.27798 12.5 8.0041 12.5V11.5ZM7.50892 11.9691C7.52359 11.6984 7.74836 11.5 8.0041 11.5V12.5C8.26418 12.5 8.49255 12.2983 8.50745 12.0232L7.50892 11.9691ZM13.2182 6C13.3946 6 13.5419 6.08953 13.6155 6.22423L14.4931 5.74497C14.2334 5.26932 13.7371 5 13.2182 5V6ZM16.5 12.0031C16.5 11.7252 16.2748 11.5 15.9969 11.5V12.5C15.7225 12.5 15.5 12.2775 15.5 12.0031H16.5ZM15.9969 11.5C16.2612 11.5 16.4823 11.708 16.4934 11.9764L15.4943 12.0178C15.5055 12.2894 15.7293 12.5 15.9969 12.5V11.5ZM10.8158 5C10.2691 5 9.75511 5.29818 9.50328 5.80286L10.3981 6.24936C10.473 6.09916 10.6307 6 10.8158 6V5Z" fill="black"/>
<rect x="9" y="3.5" width="6" height="2" rx="0.5" stroke="black"/>
<rect x="9.5" y="12" width="1" height="6.5" rx="0.5" fill="black"/>
</svg>
