<svg width="30" height="30" viewBox="0 0 30 30" fill="none" xmlns="http://www.w3.org/2000/svg">
<path d="M13.5884 8H16.4458C16.621 8 16.7674 8.08778 16.8422 8.22115C17.1605 8.78872 17.7032 9.82721 18.1654 11.0595C18.6296 12.2974 19 13.6985 19 15V23C19 23.8284 18.3284 24.5 17.5 24.5H12.5C11.6716 24.5 11 23.8284 11 23V15C11 13.8993 11.3689 12.5386 11.8392 11.2639C12.3053 10.0005 12.8524 8.87026 13.1718 8.24579C13.2477 8.09728 13.4042 8 13.5884 8Z" stroke="black"/>
<rect x="12" y="6" width="6" height="2" rx="0.5" stroke="black"/>
<rect x="12.5" y="15" width="1" height="7" rx="0.5" fill="black"/>
</svg>
