<svg width="24" height="24" viewBox="0 0 24 24" fill="none" xmlns="http://www.w3.org/2000/svg">
<path d="M17.5868 18.4062L17.2581 18.0295L17.5868 18.4062ZM6.4132 16.5938L6.08442 16.2171L6.4132 16.5938ZM6.74199 16.9705C8.14831 15.743 9.98677 15 12 15V14C9.73587 14 7.66594 14.8367 6.08442 16.2171L6.74199 16.9705ZM12 15C14.0133 15 15.8517 15.743 17.2581 16.9705L17.9156 16.2171C16.3341 14.8367 14.2642 14 12 14V15ZM17.2581 18.0295C15.8517 19.257 14.0133 20 12.0001 20V21C14.2642 21 16.3341 20.1633 17.9156 18.7829L17.2581 18.0295ZM12.0001 20C9.98679 20 8.14831 19.257 6.74198 18.0295L6.0844 18.7829C7.66593 20.1633 9.7359 21 12.0001 21V20ZM17.2581 16.9705C17.5834 17.2545 17.5834 17.7456 17.2581 18.0295L17.9156 18.7829C18.6975 18.1005 18.6975 16.8996 17.9156 16.2171L17.2581 16.9705ZM6.08442 16.2171C5.30253 16.8995 5.30253 18.1004 6.0844 18.7829L6.74198 18.0295C6.41667 17.7455 6.41667 17.2544 6.74199 16.9705L6.08442 16.2171Z" fill="black"/>
<path d="M8.52133 8.5V8H7.9765L8.02317 8.54283L8.52133 8.5ZM15.4786 8.5L15.9768 8.54283L16.0234 8H15.4786V8.5ZM12 12C10.5563 12 9.20027 10.5598 9.01949 8.45717L8.02317 8.54283C8.22929 10.9402 9.84055 13 12 13V12ZM14.9804 8.45717C14.7997 10.5598 13.4437 12 12 12V13C14.1594 13 15.7707 10.9402 15.9768 8.54283L14.9804 8.45717ZM15.4786 8H8.52133V9H15.4786V8Z" fill="black"/>
<path d="M15.9755 8.5V9H16.4288L16.4731 8.5489L15.9755 8.5ZM8.02432 8.5L7.52672 8.5489L7.57104 9H8.02432V8.5ZM16.4731 8.5489C16.4908 8.36849 16.4999 8.18534 16.4999 8H15.4999C15.4999 8.15267 15.4924 8.30318 15.4779 8.4511L16.4731 8.5489ZM8.02432 9H15.9755V8H8.02432V9ZM7.49991 8C7.49991 8.18534 7.50899 8.36849 7.52672 8.5489L8.52192 8.4511C8.50739 8.30318 8.49991 8.15267 8.49991 8H7.49991ZM11.9999 3C9.46089 3 7.49991 5.29557 7.49991 8H8.49991C8.49991 5.73387 10.1206 4 11.9999 4V3ZM16.4999 8C16.4999 5.29557 14.5389 3 11.9999 3V4C13.8792 4 15.4999 5.73387 15.4999 8H16.4999ZM12.4999 6C12.4999 6.27614 12.2761 6.5 11.9999 6.5V7.5C12.8283 7.5 13.4999 6.82843 13.4999 6H12.4999ZM11.9999 5.5C12.2761 5.5 12.4999 5.72386 12.4999 6H13.4999C13.4999 5.17157 12.8283 4.5 11.9999 4.5V5.5ZM11.4999 6C11.4999 5.72386 11.7238 5.5 11.9999 5.5V4.5C11.1715 4.5 10.4999 5.17157 10.4999 6H11.4999ZM11.9999 6.5C11.7238 6.5 11.4999 6.27614 11.4999 6H10.4999C10.4999 6.82843 11.1715 7.5 11.9999 7.5V6.5Z" fill="black"/>
<path d="M7.00003 8.5H17" stroke="black" stroke-linecap="round" stroke-linejoin="round"/>
</svg>
