<svg width="24" height="24" viewBox="0 0 24 24" fill="none" xmlns="http://www.w3.org/2000/svg">
<path d="M17.5869 18.4062L17.2581 18.0295L17.5869 18.4062ZM6.41325 16.5938L6.08446 16.2171L6.41325 16.5938ZM6.74203 16.9705C8.14836 15.743 9.98681 15 12 15V14C9.73592 14 7.66598 14.8367 6.08446 16.2171L6.74203 16.9705ZM12 15C14.0133 15 15.8518 15.743 17.2581 16.9705L17.9157 16.2171C16.3342 14.8367 14.2642 14 12 14V15ZM17.2581 18.0295C15.8518 19.257 14.0133 20 12.0001 20V21C14.2642 21 16.3342 20.1633 17.9157 18.7829L17.2581 18.0295ZM12.0001 20C9.98684 20 8.14836 19.257 6.74203 18.0295L6.08445 18.7829C7.66598 20.1633 9.73594 21 12.0001 21V20ZM17.2581 16.9705C17.5834 17.2545 17.5834 17.7456 17.2581 18.0295L17.9157 18.7829C18.6976 18.1005 18.6976 16.8996 17.9157 16.2171L17.2581 16.9705ZM6.08446 16.2171C5.30258 16.8995 5.30257 18.1004 6.08445 18.7829L6.74203 18.0295C6.41672 17.7455 6.41672 17.2544 6.74203 16.9705L6.08446 16.2171Z" fill="black"/>
<path d="M8.52139 8.5V8H7.97656L8.02323 8.54283L8.52139 8.5ZM15.4787 8.5L15.9768 8.54283L16.0235 8H15.4787V8.5ZM12 12C10.5563 12 9.20034 10.5598 9.01955 8.45717L8.02323 8.54283C8.22935 10.9402 9.84061 13 12 13V12ZM14.9805 8.45717C14.7997 10.5598 13.4437 12 12 12V13C14.1594 13 15.7707 10.9402 15.9768 8.54283L14.9805 8.45717ZM15.4787 8H8.52139V9H15.4787V8Z" fill="black"/>
<path d="M15.9755 8.5V9H16.4288L16.4731 8.5489L15.9755 8.5ZM8.02435 8.5L7.52675 8.5489L7.57107 9H8.02435V8.5ZM16.4731 8.5489C16.4909 8.36849 16.4999 8.18534 16.4999 8H15.4999C15.4999 8.15267 15.4925 8.30318 15.4779 8.4511L16.4731 8.5489ZM8.02435 9H15.9755V8H8.02435V9ZM7.49994 8C7.49994 8.18534 7.50902 8.36849 7.52675 8.5489L8.52196 8.4511C8.50742 8.30318 8.49994 8.15267 8.49994 8H7.49994ZM11.9999 3C9.46092 3 7.49994 5.29557 7.49994 8H8.49994C8.49994 5.73387 10.1207 4 11.9999 4V3ZM16.4999 8C16.4999 5.29557 14.539 3 11.9999 3V4C13.8792 4 15.4999 5.73387 15.4999 8H16.4999ZM12.4999 6C12.4999 6.27614 12.2761 6.5 11.9999 6.5V7.5C12.8284 7.5 13.4999 6.82843 13.4999 6H12.4999ZM11.9999 5.5C12.2761 5.5 12.4999 5.72386 12.4999 6H13.4999C13.4999 5.17157 12.8284 4.5 11.9999 4.5V5.5ZM11.4999 6C11.4999 5.72386 11.7238 5.5 11.9999 5.5V4.5C11.1715 4.5 10.4999 5.17157 10.4999 6H11.4999ZM11.9999 6.5C11.7238 6.5 11.4999 6.27614 11.4999 6H10.4999C10.4999 6.82843 11.1715 7.5 11.9999 7.5V6.5Z" fill="black"/>
<path d="M7.00006 8.5H17.0001" stroke="black" stroke-linecap="round" stroke-linejoin="round"/>
</svg>
