<svg width="24" height="24" viewBox="0 0 24 24" fill="none" xmlns="http://www.w3.org/2000/svg">
<path d="M5.84197 5.49235L5.51533 5.11379L5.51533 5.11379L5.84197 5.49235ZM12.2651 3.70313L12.7502 3.82409C12.7856 3.68227 12.7571 3.53207 12.6723 3.41302C12.5875 3.29397 12.4548 3.218 12.3092 3.20509L12.2651 3.70313ZM6.06757 5.87809L6.18356 6.36445L6.18356 6.36445L6.06757 5.87809ZM11.772 5.68072L11.6997 6.17547C11.954 6.21261 12.195 6.051 12.2572 5.80168L11.772 5.68072ZM20.1122 9.37982L19.7815 9.75479L19.7815 9.75479L20.1122 9.37982ZM15.1681 6.52743L14.6829 6.40647C14.6207 6.65579 14.7577 6.91164 14.9996 6.99821L15.1681 6.52743ZM20.4925 9.14514L20.9586 8.96424L20.9586 8.96424L20.4925 9.14514ZM15.6611 4.54984L15.8559 4.08936C15.7213 4.03241 15.5685 4.03721 15.4378 4.10251C15.307 4.1678 15.2113 4.28706 15.176 4.42888L15.6611 4.54984ZM6.16862 5.8709C7.5892 4.64513 9.79193 3.98581 12.2209 4.20118L12.3092 3.20509C9.66641 2.97076 7.1793 3.67801 5.51533 5.11379L6.16862 5.8709ZM5.95158 5.39173C6.04951 5.36837 6.16279 5.41497 6.22102 5.51259C6.24954 5.56041 6.26808 5.62618 6.25748 5.70061C6.2462 5.77985 6.20623 5.83845 6.16862 5.8709L5.51533 5.11379C5.22386 5.36529 5.19686 5.74768 5.36219 6.02486C5.51966 6.28885 5.84095 6.44616 6.18356 6.36445L5.95158 5.39173ZM11.8443 5.18597C9.75349 4.8805 7.73532 4.96632 5.95158 5.39173L6.18356 6.36445C7.83405 5.97082 9.72385 5.88678 11.6997 6.17547L11.8443 5.18597ZM12.2572 5.80168L12.7502 3.82409L11.7799 3.58217L11.2869 5.55976L12.2572 5.80168ZM20.443 9.00484C19.0677 7.79179 17.326 6.76852 15.3365 6.05666L14.9996 6.99821C16.8798 7.67094 18.509 8.63236 19.7815 9.75479L20.443 9.00484ZM20.0264 9.32603C20.0084 9.27972 20.0006 9.20921 20.0279 9.13395C20.0535 9.06326 20.1007 9.0139 20.1483 8.98506C20.2456 8.9262 20.3675 8.93824 20.443 9.00484L19.7815 9.75479C20.0456 9.98778 20.4032 9.99973 20.6661 9.84056C20.9422 9.67344 21.0979 9.32314 20.9586 8.96424L20.0264 9.32603ZM15.4663 5.01033C17.7121 5.9605 19.3475 7.57679 20.0264 9.32603L20.9586 8.96424C20.1635 6.9153 18.2995 5.12319 15.8559 4.08936L15.4663 5.01033ZM15.176 4.42888L14.6829 6.40647L15.6532 6.6484L16.1463 4.6708L15.176 4.42888Z" fill="black"/>
<rect x="12.4812" y="5.93631" width="2" height="5" transform="rotate(14 12.4812 5.93631)" stroke="black" stroke-linecap="round" stroke-linejoin="round"/>
<rect x="10.7865" y="10.6668" width="3" height="9.5" transform="rotate(14 10.7865 10.6668)" stroke="black" stroke-linecap="round" stroke-linejoin="round"/>
<rect x="12.3583" y="3.32913" width="3.5" height="2.75" transform="rotate(14 12.3583 3.32913)" stroke="black" stroke-linecap="round" stroke-linejoin="round"/>
</svg>
