<svg width="24" height="24" viewBox="0 0 24 24" fill="none" xmlns="http://www.w3.org/2000/svg">
<path d="M4.5 7.5L4.91593 7.94365C5.70607 8.78648 7.04393 8.78648 7.83407 7.94365L8.25 7.5L8.66593 7.94365C9.45607 8.78648 10.7939 8.78648 11.5841 7.94365L12 7.5L12.4159 7.94365C13.2061 8.78648 14.5439 8.78648 15.3341 7.94365L15.75 7.5L16.1659 7.94365C16.9561 8.78648 18.2939 8.78648 19.0841 7.94365L19.5 7.5" stroke="black" stroke-linecap="round" stroke-linejoin="round"/>
<path d="M8.5 14.5H14.5" stroke="black" stroke-linecap="round" stroke-linejoin="round"/>
<path d="M8.5 12.5H14.5" stroke="black" stroke-linecap="round" stroke-linejoin="round"/>
<path d="M12.5 16.5V10.5" stroke="black" stroke-linecap="round" stroke-linejoin="round"/>
<path d="M10.5 16.5V10.5" stroke="black" stroke-linecap="round" stroke-linejoin="round"/>
<path d="M4.49805 6.5V17.5C4.49805 18.0523 4.94576 18.5 5.49805 18.5H18.498C19.0503 18.5 19.498 18.0523 19.498 17.5V6.5" stroke="black" stroke-linecap="round" stroke-linejoin="round"/>
</svg>
