<svg width="24" height="24" viewBox="0 0 24 24" fill="none" xmlns="http://www.w3.org/2000/svg">
<path d="M5.84196 5.49229L5.51532 5.11373L5.51532 5.11373L5.84196 5.49229ZM12.2651 3.70307L12.7502 3.82403C12.7856 3.68221 12.7571 3.53201 12.6723 3.41296C12.5875 3.29391 12.4548 3.21794 12.3092 3.20503L12.2651 3.70307ZM6.06756 5.87803L6.18355 6.36439L6.18355 6.36439L6.06756 5.87803ZM11.772 5.68066L11.6997 6.17541C11.954 6.21255 12.195 6.05094 12.2571 5.80162L11.772 5.68066ZM20.1122 9.37976L19.7815 9.75473L19.7815 9.75473L20.1122 9.37976ZM15.168 6.52737L14.6829 6.40641C14.6207 6.65573 14.7577 6.91158 14.9996 6.99815L15.168 6.52737ZM20.4925 9.14508L20.9586 8.96418L20.9586 8.96418L20.4925 9.14508ZM15.6611 4.54978L15.8559 4.0893C15.7213 4.03235 15.5685 4.03715 15.4377 4.10245C15.307 4.16774 15.2113 4.28699 15.176 4.42882L15.6611 4.54978ZM6.1686 5.87084C7.58919 4.64507 9.79192 3.98575 12.2209 4.20112L12.3092 3.20503C9.66639 2.9707 7.17929 3.67795 5.51532 5.11373L6.1686 5.87084ZM5.95156 5.39167C6.0495 5.36831 6.16277 5.41491 6.221 5.51253C6.24953 5.56035 6.26806 5.62612 6.25747 5.70055C6.24619 5.77978 6.20621 5.83839 6.1686 5.87084L5.51532 5.11373C5.22385 5.36523 5.19684 5.74762 5.36217 6.0248C5.51964 6.28879 5.84094 6.4461 6.18355 6.36439L5.95156 5.39167ZM11.8443 5.18591C9.75347 4.88043 7.73531 4.96626 5.95156 5.39167L6.18355 6.36439C7.83404 5.97076 9.72383 5.88672 11.6997 6.17541L11.8443 5.18591ZM12.2571 5.80162L12.7502 3.82403L11.7799 3.58211L11.2869 5.5597L12.2571 5.80162ZM20.443 9.00478C19.0677 7.79172 17.326 6.76846 15.3365 6.0566L14.9996 6.99815C16.8798 7.67088 18.5089 8.63229 19.7815 9.75473L20.443 9.00478ZM20.0264 9.32597C20.0084 9.27966 20.0006 9.20915 20.0278 9.13389C20.0534 9.0632 20.1007 9.01383 20.1483 8.985C20.2456 8.92614 20.3675 8.93818 20.443 9.00478L19.7815 9.75473C20.0456 9.98772 20.4031 9.99967 20.6661 9.8405C20.9422 9.67338 21.0979 9.32307 20.9586 8.96418L20.0264 9.32597ZM15.4663 5.01026C17.7121 5.96044 19.3475 7.57673 20.0264 9.32597L20.9586 8.96418C20.1635 6.91524 18.2995 5.12313 15.8559 4.0893L15.4663 5.01026ZM15.176 4.42882L14.6829 6.40641L15.6532 6.64833L16.1463 4.67074L15.176 4.42882Z" fill="black"/>
<rect x="12.4812" y="5.93628" width="2" height="5" transform="rotate(14 12.4812 5.93628)" stroke="black" stroke-linecap="round" stroke-linejoin="round"/>
<rect x="10.7865" y="10.6668" width="3" height="9.5" transform="rotate(14 10.7865 10.6668)" stroke="black" stroke-linecap="round" stroke-linejoin="round"/>
<rect x="12.3583" y="3.3291" width="3.5" height="2.75" transform="rotate(14 12.3583 3.3291)" stroke="black" stroke-linecap="round" stroke-linejoin="round"/>
</svg>
