<svg width="30" height="30" viewBox="0 0 30 30" fill="none" xmlns="http://www.w3.org/2000/svg">
<path d="M15 16.0333C18.8249 16.0333 21.9817 18.897 22.4422 22.5971C22.4681 22.8052 22.2952 23.0333 22 23.0333H8C7.70485 23.0333 7.53192 22.8052 7.55782 22.5971C8.01827 18.897 11.1751 16.0333 15 16.0333Z" stroke="black"/>
<path d="M15 13.9667C13.5784 13.9667 12.3 12.5941 12.3 10.7333H17.7C17.7 12.5941 16.4216 13.9667 15 13.9667Z" stroke="black"/>
<path d="M18.2333 10.7333C18.2333 10.7445 18.2332 10.7556 18.2331 10.7667H11.7668C11.7667 10.7556 11.7666 10.7445 11.7666 10.7333C11.7666 8.94761 13.2142 7.5 14.9999 7.5C16.7857 7.5 18.2333 8.94761 18.2333 10.7333Z" stroke="black"/>
<line x1="11.2333" y1="10.7667" x2="18.7667" y2="10.7667" stroke="black" stroke-linecap="round" stroke-linejoin="round"/>
<circle cx="15" cy="8.6" r="1.1" stroke="black"/>
<line x1="15" y1="10.7333" x2="15" y2="9.66666" stroke="black"/>
</svg>
