<svg width="24" height="24" viewBox="0 0 24 24" fill="none" xmlns="http://www.w3.org/2000/svg">
<path d="M11.5981 18.2736H12.4019V17.1806C14.4605 17.0385 15.6171 15.823 15.6171 14.2938C15.6171 12.4117 13.8331 11.8039 12.794 11.5295L12.4019 11.4216V7.93684C13.441 8.03977 14.1958 8.59851 14.3036 9.49054H15.4799C15.4309 8.05937 14.1762 6.9713 12.4019 6.85367V5.72638H11.5981V6.86837C9.917 7.03992 8.65737 8.10839 8.65737 9.64738C8.65737 11.0001 9.63762 11.8039 11.206 12.2548L11.5981 12.3676V16.0778C10.5689 15.97 9.72585 15.4407 9.63762 14.431H8.3829C8.49563 15.9749 9.67193 17.0532 11.5981 17.1806V18.2736ZM12.4019 16.0778V12.5979L12.4411 12.6077C13.4998 12.9018 14.4408 13.2743 14.4408 14.2742C14.4408 15.2593 13.588 15.9455 12.4019 16.0778ZM11.5981 11.206C10.8531 10.9952 9.83367 10.5835 9.83367 9.58856C9.83367 8.74065 10.5198 8.09368 11.5981 7.95155V11.206Z" fill="black"/>
<circle cx="12.0001" cy="12" r="8.5" stroke="black"/>
<path d="M5.75009 5.75L18.2501 18.25" stroke="black" stroke-linejoin="round"/>
</svg>
