<svg width="30" height="30" viewBox="0 0 30 30" fill="none" xmlns="http://www.w3.org/2000/svg">
<path d="M14.5981 21.2736H15.4019V20.1806C17.4605 20.0385 18.6171 18.823 18.6171 17.2938C18.6171 15.4117 16.8331 14.8039 15.794 14.5295L15.4019 14.4216V10.9368C16.441 11.0398 17.1958 11.5985 17.3036 12.4905H18.4799C18.4309 11.0594 17.1762 9.9713 15.4019 9.85367V8.72638H14.5981V9.86837C12.917 10.0399 11.6574 11.1084 11.6574 12.6474C11.6574 14.0001 12.6376 14.8039 14.206 15.2548L14.5981 15.3676V19.0778C13.5689 18.97 12.7258 18.4407 12.6376 17.431H11.3829C11.4956 18.9749 12.6719 20.0532 14.5981 20.1806V21.2736ZM15.4019 19.0778V15.5979L15.4411 15.6077C16.4998 15.9018 17.4408 16.2743 17.4408 17.2742C17.4408 18.2593 16.588 18.9455 15.4019 19.0778ZM14.5981 14.206C13.8531 13.9952 12.8337 13.5835 12.8337 12.5886C12.8337 11.7406 13.5198 11.0937 14.5981 10.9515V14.206Z" fill="black"/>
<circle cx="15.0001" cy="15" r="8.5" stroke="black"/>
<line x1="9.43352" y1="8.72647" x2="21.2735" y2="20.5665" stroke="black" stroke-linecap="round" stroke-linejoin="round"/>
</svg>
