<svg width="30" height="30" viewBox="0 0 30 30" fill="none" xmlns="http://www.w3.org/2000/svg">
<path d="M24.7585 12.5811L24.7584 12.5811V12.5879V17.6297C24.7534 17.7422 24.6965 17.8469 24.5857 17.9095L16.0196 22.7428C15.4054 23.0893 14.655 23.0903 14.04 22.7453L5.41937 17.9099C5.30652 17.8466 5.24942 17.7394 5.24608 17.624L5.24158 17.4689V13.0879H5.25292L5.24596 12.5811C5.24433 12.4621 5.29998 12.3497 5.41447 12.283L14.0107 7.27138C14.6407 6.90413 15.4197 6.90513 16.0487 7.274L24.5906 12.2834C24.7047 12.3503 24.7601 12.4625 24.7585 12.5811Z" stroke="black"/>
<path d="M5.41447 12.283L14.0107 7.27138C14.6407 6.90413 15.4197 6.90513 16.0487 7.274L24.5906 12.2834C24.8165 12.4159 24.8138 12.7434 24.5857 12.8721L16.0196 17.7054C15.4054 18.0519 14.655 18.0528 14.04 17.7079L5.41937 12.8725C5.19031 12.744 5.18758 12.4152 5.41447 12.283Z" stroke="black"/>
</svg>
