<svg width="24" height="24" viewBox="0 0 24 24" fill="none" xmlns="http://www.w3.org/2000/svg">
<path d="M20.539 14.1072H20.039V14.1196L20.0396 14.1319L20.539 14.1072ZM20.539 9.98393L20.0396 9.95926L20.039 9.97159V9.98393H20.539ZM20.1844 14.7513L19.9387 14.3158L19.9387 14.3158L20.1844 14.7513ZM13.0531 18.7751L13.2988 19.2105L13.2988 19.2105L13.0531 18.7751ZM10.9969 18.7776L10.7523 19.2137L10.7523 19.2137L10.9969 18.7776ZM3.82012 14.7521L4.06473 14.316L4.06473 14.316L3.82012 14.7521ZM3.46481 14.0931L3.96362 14.1276L3.96481 14.1104V14.0931H3.46481ZM3.46481 9.99806H3.96481V9.98075L3.96362 9.96347L3.46481 9.99806ZM3.81002 9.345L3.5582 8.91305L3.5582 8.91305L3.81002 9.345ZM10.9665 5.17282L10.7147 4.74087L10.7147 4.74087L10.9665 5.17282ZM13.0833 5.17554L12.8304 5.60685L12.8304 5.60685L13.0833 5.17554ZM20.1945 9.34593L19.9416 9.77723L19.9416 9.77723L20.1945 9.34593ZM21.039 14.1072V9.98393H20.039V14.1072H21.039ZM20.4301 15.1867C20.8563 14.9463 21.0593 14.5054 21.0384 14.0825L20.0396 14.1319C20.0434 14.2074 20.0093 14.276 19.9387 14.3158L20.4301 15.1867ZM13.2988 19.2105L20.4301 15.1867L19.9387 14.3158L12.8074 18.3396L13.2988 19.2105ZM10.7523 19.2137C11.5434 19.6575 12.5087 19.6563 13.2988 19.2105L12.8074 18.3396C12.3216 18.6137 11.7279 18.6144 11.2415 18.3416L10.7523 19.2137ZM3.57552 15.1882L10.7523 19.2137L11.2415 18.3416L4.06473 14.316L3.57552 15.1882ZM2.96601 14.0585C2.93612 14.4895 3.13925 14.9435 3.57552 15.1882L4.06473 14.316C3.9927 14.2756 3.95825 14.205 3.96362 14.1276L2.96601 14.0585ZM2.96481 9.99806V14.0931H3.96481V9.99806H2.96481ZM3.96362 9.96347C3.95835 9.88758 3.99145 9.818 4.06185 9.77695L3.5582 8.91305C3.13295 9.16097 2.93657 9.60811 2.96601 10.0326L3.96362 9.96347ZM4.06185 9.77695L11.2183 5.60477L10.7147 4.74087L3.5582 8.91305L4.06185 9.77695ZM11.2183 5.60477C11.7166 5.31427 12.3328 5.31506 12.8304 5.60685L13.3362 4.74424C12.5271 4.26973 11.525 4.26844 10.7147 4.74087L11.2183 5.60477ZM12.8304 5.60685L19.9416 9.77723L20.4475 8.91462L13.3362 4.74424L12.8304 5.60685ZM19.9416 9.77723C20.0106 9.81768 20.0433 9.8852 20.0396 9.95926L21.0384 10.0086C21.059 9.59224 20.8627 9.15813 20.4475 8.91462L19.9416 9.77723Z" fill="black"/>
<path d="M3.82016 10.5584C3.34867 10.294 3.34304 9.6173 3.81006 9.34502L10.9665 5.17284C11.6208 4.79138 12.43 4.79242 13.0833 5.17557L20.1946 9.34595C20.6595 9.61862 20.6539 10.2927 20.1845 10.5576L13.0531 14.5814C12.4152 14.9413 11.6357 14.9423 10.9969 14.584L3.82016 10.5584Z" stroke="black"/>
</svg>
