<svg width="24" height="24" viewBox="0 0 24 24" fill="none" xmlns="http://www.w3.org/2000/svg">
<path d="M20.5391 14.1072H20.0391V14.1196L20.0397 14.1319L20.5391 14.1072ZM20.5391 9.98393L20.0397 9.95926L20.0391 9.97159V9.98393H20.5391ZM20.1844 14.7513L19.9387 14.3158L19.9387 14.3158L20.1844 14.7513ZM13.0531 18.7751L13.2988 19.2105L13.2988 19.2105L13.0531 18.7751ZM10.9969 18.7776L10.7523 19.2137L10.7523 19.2137L10.9969 18.7776ZM3.82014 14.7521L4.06474 14.316L4.06474 14.316L3.82014 14.7521ZM3.46483 14.0931L3.96363 14.1276L3.96483 14.1104V14.0931H3.46483ZM3.46483 9.99806H3.96483V9.98075L3.96363 9.96347L3.46483 9.99806ZM3.81004 9.345L3.55822 8.91305L3.55822 8.91305L3.81004 9.345ZM10.9665 5.17282L10.7147 4.74087L10.7147 4.74087L10.9665 5.17282ZM13.0833 5.17554L12.8304 5.60685L12.8304 5.60685L13.0833 5.17554ZM20.1946 9.34593L19.9416 9.77723L19.9416 9.77723L20.1946 9.34593ZM21.0391 14.1072V9.98393H20.0391V14.1072H21.0391ZM20.4301 15.1867C20.8563 14.9463 21.0593 14.5054 21.0384 14.0825L20.0397 14.1319C20.0434 14.2074 20.0093 14.276 19.9387 14.3158L20.4301 15.1867ZM13.2988 19.2105L20.4301 15.1867L19.9387 14.3158L12.8074 18.3396L13.2988 19.2105ZM10.7523 19.2137C11.5434 19.6575 12.5088 19.6563 13.2988 19.2105L12.8074 18.3396C12.3216 18.6137 11.728 18.6144 11.2415 18.3416L10.7523 19.2137ZM3.57554 15.1882L10.7523 19.2137L11.2415 18.3416L4.06474 14.316L3.57554 15.1882ZM2.96603 14.0585C2.93614 14.4895 3.13927 14.9435 3.57554 15.1882L4.06474 14.316C3.99272 14.2756 3.95827 14.205 3.96363 14.1276L2.96603 14.0585ZM2.96483 9.99806V14.0931H3.96483V9.99806H2.96483ZM3.96363 9.96347C3.95837 9.88758 3.99147 9.818 4.06187 9.77695L3.55822 8.91305C3.13296 9.16097 2.93659 9.60811 2.96603 10.0326L3.96363 9.96347ZM4.06187 9.77695L11.2183 5.60477L10.7147 4.74087L3.55822 8.91305L4.06187 9.77695ZM11.2183 5.60477C11.7166 5.31427 12.3328 5.31506 12.8304 5.60685L13.3363 4.74424C12.5271 4.26973 11.525 4.26844 10.7147 4.74087L11.2183 5.60477ZM12.8304 5.60685L19.9416 9.77723L20.4475 8.91462L13.3363 4.74424L12.8304 5.60685ZM19.9416 9.77723C20.0106 9.81768 20.0433 9.8852 20.0397 9.95926L21.0384 10.0086C21.059 9.59224 20.8627 9.15813 20.4475 8.91462L19.9416 9.77723Z" fill="black"/>
<path d="M3.82016 10.5584C3.34867 10.2939 3.34304 9.61727 3.81007 9.34499L10.9665 5.17281C11.6208 4.79135 12.43 4.79239 13.0833 5.17554L20.1946 9.34592C20.6595 9.61859 20.6539 10.2927 20.1845 10.5576L13.0531 14.5813C12.4152 14.9413 11.6357 14.9423 10.9969 14.5839L3.82016 10.5584Z" stroke="black"/>
</svg>
