<svg width="30" height="30" viewBox="0 0 30 30" fill="none" xmlns="http://www.w3.org/2000/svg">
<path fill-rule="evenodd" clip-rule="evenodd" d="M16.5879 10.931C16.8481 10.7169 17.0642 10.4512 17.2206 10.1495L19.8505 12.7794C19.5488 12.9358 19.2831 13.152 19.069 13.4121L16.5879 10.931ZM19.069 16.5879L16.5879 19.069C16.8481 19.2831 17.0642 19.5488 17.2206 19.8505L19.8505 17.2206C19.5488 17.0642 19.2831 16.8481 19.069 16.5879ZM13.4121 19.0689L10.9311 16.5879C10.7169 16.848 10.4512 17.0641 10.1496 17.2206L12.7794 19.8504C12.9359 19.5488 13.152 19.2831 13.4121 19.0689ZM13.4121 10.9311L10.9311 13.4121C10.7169 13.152 10.4512 12.9359 10.1496 12.7794L12.7794 10.1496C12.9359 10.4512 13.152 10.7169 13.4121 10.9311Z" fill="black"/>
<circle cx="15" cy="9" r="2.5" fill="black"/>
<circle cx="15" cy="21" r="2" stroke="black"/>
<circle cx="9" cy="15" r="2" stroke="black"/>
<circle cx="21" cy="15" r="2.5" fill="black"/>
</svg>
