<svg width="24" height="24" viewBox="0 0 24 24" fill="none" xmlns="http://www.w3.org/2000/svg">
<path fill-rule="evenodd" clip-rule="evenodd" d="M12.9745 7.24693C13.2702 7.08161 13.5196 6.8434 13.6984 6.55661L17.4434 10.3016C17.1566 10.4804 16.9184 10.7298 16.7531 11.0255L12.9745 7.24693ZM16.7531 12.9745L12.9745 16.7531C13.2702 16.9184 13.5196 17.1566 13.6984 17.4434L17.4434 13.6984C17.1566 13.5197 16.9184 13.2702 16.7531 12.9745ZM11.0255 16.7531L7.24694 12.9745C7.08164 13.2702 6.84344 13.5196 6.55666 13.6984L10.3016 17.4433C10.4804 17.1566 10.7298 16.9184 11.0255 16.7531ZM11.0255 7.24697L7.24695 11.0255C7.08165 10.7298 6.84344 10.4804 6.55666 10.3016L10.3016 6.55668C10.4804 6.84346 10.7298 7.08166 11.0255 7.24697Z" fill="black"/>
<circle cx="12" cy="5.5" r="2" stroke="black"/>
<circle cx="12" cy="18.5" r="2" stroke="black"/>
<circle cx="5.5" cy="12" r="2" stroke="black"/>
<circle cx="18.5" cy="12" r="2" stroke="black"/>
<circle cx="5.5" cy="12" r="0.75" fill="black"/>
<circle cx="12" cy="18.5" r="0.75" fill="black"/>
</svg>
