<svg width="30" height="30" viewBox="0 0 30 30" fill="none" xmlns="http://www.w3.org/2000/svg">
<mask id="path-1-inside-1" fill="white">
<path fill-rule="evenodd" clip-rule="evenodd" d="M25.2583 12.5879H25.2584V17.6385H25.258C25.25 17.9156 25.1074 18.1892 24.8314 18.345L16.2652 23.1783C15.499 23.6106 14.5627 23.6118 13.7954 23.1814L5.17474 18.346C4.89746 18.1905 4.75431 17.9162 4.74626 17.6385H4.74155V12.5879H4.74598C4.74206 12.3026 4.8806 12.0154 5.16262 11.851L13.7589 6.83942C14.5448 6.38121 15.5168 6.38247 16.3016 6.8427L24.8435 11.8521C25.1243 12.0168 25.2622 12.3033 25.2583 12.5879Z"/>
</mask>
<path d="M25.2584 12.5879H26.2584V11.5879H25.2584V12.5879ZM25.2583 12.5879L24.2584 12.5742L24.2445 13.5879H25.2583V12.5879ZM25.2584 17.6385V18.6385H26.2584V17.6385H25.2584ZM25.258 17.6385V16.6385H24.2866L24.2584 17.6095L25.258 17.6385ZM24.8314 18.345L24.3399 17.474L24.3399 17.474L24.8314 18.345ZM16.2652 23.1783L16.7567 24.0492L16.7567 24.0492L16.2652 23.1783ZM13.7954 23.1814L13.3061 24.0536L13.7954 23.1814ZM5.17474 18.346L4.68553 19.2181L4.68553 19.2181L5.17474 18.346ZM4.74626 17.6385L5.74584 17.6095L5.71767 16.6385H4.74626V17.6385ZM4.74155 17.6385H3.74155V18.6385H4.74155V17.6385ZM4.74155 12.5879V11.5879H3.74155V12.5879H4.74155ZM4.74598 12.5879V13.5879H5.7598L5.74589 12.5742L4.74598 12.5879ZM5.16262 11.851L5.66627 12.7149L5.66627 12.7149L5.16262 11.851ZM13.7589 6.83942L13.2552 5.97552L13.2552 5.97552L13.7589 6.83942ZM16.3016 6.8427L16.8075 5.98009L16.3016 6.8427ZM24.8435 11.8521L24.3376 12.7147L24.3376 12.7147L24.8435 11.8521ZM25.2584 11.5879H25.2583V13.5879H25.2584V11.5879ZM26.2584 17.6385V12.5879H24.2584V17.6385H26.2584ZM25.258 18.6385H25.2584V16.6385H25.258V18.6385ZM25.3228 19.2159C25.9263 18.8754 26.2401 18.2686 26.2576 17.6674L24.2584 17.6095C24.2591 17.5873 24.2651 17.5614 24.2804 17.535C24.2972 17.5061 24.3204 17.4851 24.3399 17.474L25.3228 19.2159ZM16.7567 24.0492L25.3228 19.2159L24.3399 17.474L15.7738 22.3073L16.7567 24.0492ZM13.3061 24.0536C14.3781 24.6549 15.6862 24.6532 16.7567 24.0492L15.7738 22.3073C15.3118 22.568 14.7472 22.5687 14.2846 22.3092L13.3061 24.0536ZM4.68553 19.2181L13.3061 24.0536L14.2846 22.3092L5.66395 17.4738L4.68553 19.2181ZM3.74668 17.6674C3.76415 18.27 4.0794 18.8782 4.68553 19.2181L5.66395 17.4738C5.68354 17.4848 5.70684 17.5059 5.72372 17.5349C5.73914 17.5614 5.74519 17.5872 5.74584 17.6095L3.74668 17.6674ZM4.74155 18.6385H4.74626V16.6385H4.74155V18.6385ZM3.74155 12.5879V17.6385H5.74155V12.5879H3.74155ZM4.74598 11.5879H4.74155V13.5879H4.74598V11.5879ZM5.74589 12.5742C5.7462 12.5969 5.74104 12.6233 5.72621 12.6507C5.70986 12.6809 5.68636 12.7032 5.66627 12.7149L4.65896 10.9871C4.0419 11.3468 3.73759 11.9837 3.74607 12.6017L5.74589 12.5742ZM5.66627 12.7149L14.2625 7.70333L13.2552 5.97552L4.65896 10.9871L5.66627 12.7149ZM14.2625 7.70333C14.7364 7.42704 15.3225 7.4278 15.7957 7.7053L16.8075 5.98009C15.7111 5.33713 14.3532 5.33539 13.2552 5.97552L14.2625 7.70333ZM15.7957 7.7053L24.3376 12.7147L25.3494 10.9895L16.8075 5.98009L15.7957 7.7053ZM24.3376 12.7147C24.3176 12.703 24.2942 12.6806 24.278 12.6506C24.2632 12.6233 24.2581 12.5969 24.2584 12.5742L26.2582 12.6016C26.2666 11.9851 25.9637 11.3498 25.3494 10.9895L24.3376 12.7147Z" fill="black" mask="url(#path-1-inside-1)"/>
<path d="M5.41444 12.2829L14.0107 7.27136C14.6406 6.90411 15.4197 6.90511 16.0486 7.27398L24.5906 12.2834C24.8165 12.4159 24.8137 12.7434 24.5857 12.8721L16.0195 17.7054C15.4054 18.0519 14.655 18.0528 14.04 17.7079L5.41935 12.8724C5.19029 12.744 5.18755 12.4152 5.41444 12.2829Z" stroke="black"/>
</svg>
