<svg width="24" height="24" viewBox="0 0 24 24" fill="none" xmlns="http://www.w3.org/2000/svg">
<path d="M17.5 11C17.5 10.4091 17.3836 9.82389 17.1575 9.27792C16.9313 8.73196 16.5998 8.23588 16.182 7.81802C15.7641 7.40016 15.268 7.06869 14.7221 6.84254C14.1761 6.6164 13.5909 6.5 13 6.5L13 11H17.5Z" stroke="black"/>
<path d="M11 8.5C10.11 8.5 9.23996 8.76392 8.49993 9.25839C7.75991 9.75285 7.18314 10.4557 6.84254 11.2779C6.50195 12.1002 6.41283 13.005 6.58647 13.8779C6.7601 14.7508 7.18868 15.5526 7.81802 16.182C8.44736 16.8113 9.24918 17.2399 10.1221 17.4135C10.995 17.5872 11.8998 17.4981 12.7221 17.1575C13.5443 16.8169 14.2471 16.2401 14.7416 15.5001C15.2361 14.76 15.5 13.89 15.5 13H11L11 8.5Z" stroke="black"/>
</svg>
