<svg width="30" height="30" viewBox="0 0 30 30" fill="none" xmlns="http://www.w3.org/2000/svg">
<rect x="15" y="14" width="1" height="1" fill="black"/>
<rect x="15" y="10.5" width="1" height="1" fill="black"/>
<rect x="11.5" y="14" width="1" height="1" fill="black"/>
<rect x="8" y="14" width="1" height="1" fill="black"/>
<rect x="15" y="7" width="1" height="1" fill="black"/>
<rect x="15" y="17.5" width="1" height="1" fill="black"/>
<rect x="15" y="21" width="1" height="1" fill="black"/>
<rect x="18.5" y="14" width="1" height="1" fill="black"/>
<rect x="18.5" y="17.5" width="1" height="1" fill="black"/>
<rect x="18.5" y="21" width="1" height="1" fill="black"/>
<rect x="21.9999" y="14" width="1" height="1" fill="black"/>
<rect x="22" y="17.5" width="1" height="1" fill="black"/>
<rect x="21.9999" y="21" width="1" height="1" fill="black"/>
<rect x="8.5" y="7.5" width="3.5" height="3.5" rx="0.5" stroke="black"/>
<rect x="8.5" y="18" width="3.5" height="3.5" rx="0.5" stroke="black"/>
<rect x="18.9886" y="7.4903" width="3.5" height="3.5" rx="0.5" stroke="black"/>
</svg>
