<svg width="24" height="24" viewBox="0 0 24 24" fill="none" xmlns="http://www.w3.org/2000/svg">
<rect x="5.5" y="15" width="3.5" height="3.5" stroke="black" stroke-linejoin="round"/>
<rect x="15" y="5.5" width="3.5" height="3.5" stroke="black" stroke-linejoin="round"/>
<rect x="5.5" y="5.5" width="3.5" height="3.5" stroke="black" stroke-linejoin="round"/>
<rect x="11.75" y="5.5" width="0.5" height="0.5" stroke="black" stroke-linejoin="round"/>
<rect x="11.75" y="8.625" width="0.5" height="0.5" stroke="black" stroke-linejoin="round"/>
<rect x="8.625" y="11.75" width="0.5" height="0.5" stroke="black" stroke-linejoin="round"/>
<rect x="11.75" y="14.875" width="0.5" height="0.5" stroke="black" stroke-linejoin="round"/>
<rect x="11.75" y="18" width="0.5" height="0.5" stroke="black" stroke-linejoin="round"/>
<rect x="5.5" y="11.75" width="0.5" height="0.5" stroke="black" stroke-linejoin="round"/>
<rect x="11.75" y="11.75" width="0.5" height="0.5" stroke="black" stroke-linejoin="round"/>
<rect x="14.875" y="11.75" width="0.5" height="0.5" stroke="black" stroke-linejoin="round"/>
<rect x="18" y="11.75" width="0.5" height="0.5" stroke="black" stroke-linejoin="round"/>
<rect x="14.875" y="14.875" width="0.5" height="0.5" stroke="black" stroke-linejoin="round"/>
<rect x="18" y="14.875" width="0.5" height="0.5" stroke="black" stroke-linejoin="round"/>
<rect x="14.875" y="18" width="0.5" height="0.5" stroke="black" stroke-linejoin="round"/>
<rect x="18" y="18" width="0.5" height="0.5" stroke="black" stroke-linejoin="round"/>
</svg>
