<svg width="24" height="24" viewBox="0 0 24 24" fill="none" xmlns="http://www.w3.org/2000/svg">
<path d="M13.833 17.583C13.833 18.5955 14.6545 19.417 15.667 19.417C16.6794 19.4168 17.5 18.5954 17.5 17.583C17.5 17.5552 17.4973 17.5275 17.4961 17.5H17.5V6C17.5 5.17157 16.8284 4.5 16 4.5H8C7.17157 4.5 6.5 5.17157 6.5 6V17.5H6.50391C6.50267 17.5275 6.5 17.5552 6.5 17.583C6.5 18.5954 7.32064 19.4168 8.33301 19.417C9.34553 19.417 10.167 18.5955 10.167 17.583M13.833 17.583C13.833 17.5552 13.8357 17.5275 13.8369 17.5H13.8291C13.8303 17.5276 13.833 17.5552 13.833 17.583ZM13.833 17.583C13.833 18.5955 13.0125 19.417 12 19.417C10.9875 19.417 10.167 18.5955 10.167 17.583M10.167 17.583C10.167 17.5552 10.1697 17.5276 10.1709 17.5H10.1631C10.1643 17.5275 10.167 17.5552 10.167 17.583Z" stroke="black" stroke-linejoin="round"/>
<path d="M9 7.5H15" stroke="black" stroke-linecap="round"/>
<path d="M9 9.5H15" stroke="black" stroke-linecap="round"/>
<path d="M9 11.5H15" stroke="black" stroke-linecap="round"/>
</svg>
