<svg width="24" height="24" viewBox="0 0 24 24" fill="none" xmlns="http://www.w3.org/2000/svg">
<path d="M6.44593 10.5118C6.15159 11.6103 6.1896 12.7714 6.55515 13.8483C6.92071 14.9252 7.59739 15.8695 8.49962 16.5618C9.40186 17.2541 10.4891 17.6633 11.6239 17.7377C12.7587 17.8121 13.8901 17.5483 14.875 16.9796" stroke="black" stroke-linecap="round"/>
<path d="M17.5541 13.4882C17.8484 12.3897 17.8104 11.2286 17.4448 10.1517C17.0793 9.07483 16.4026 8.13053 15.5004 7.43822C14.5981 6.74591 13.5109 6.33669 12.3761 6.26231C11.2413 6.18793 10.1099 6.45173 9.125 7.02035" stroke="black" stroke-linecap="round"/>
<path d="M3.75 12.5L6.25 10L8.75 12.5" stroke="black" stroke-linecap="round" stroke-linejoin="round"/>
<path d="M15.25 11.5L17.75 14L20.25 11.5" stroke="black" stroke-linecap="round" stroke-linejoin="round"/>
</svg>
