<svg width="24" height="24" viewBox="0 0 24 24" fill="none" xmlns="http://www.w3.org/2000/svg">
<path d="M10.6885 19.1304C12.5105 19.4655 14.3916 19.0905 15.9458 18.0822C17.5 17.0739 18.6092 15.509 19.0458 13.7086C19.4824 11.9082 19.2132 10.009 18.2936 8.40087C17.3739 6.79271 15.8735 5.59761 14.1004 5.06091" stroke="black" stroke-linecap="round"/>
<path d="M10.0024 5.03064C8.75657 5.38772 7.62925 6.07222 6.73777 7.01287C5.8463 7.95353 5.22326 9.11595 4.93351 10.3791C4.64377 11.6423 4.69792 12.96 5.09032 14.1952C5.48272 15.4303 6.19903 16.5377 7.16468 17.4021" stroke="black" stroke-linecap="round"/>
<path d="M16.3865 13.0042C16.6139 12.0111 16.4975 10.9703 16.0565 10.0519C15.6154 9.13352 14.8758 8.39198 13.9585 7.94857C13.0413 7.50515 12.0007 7.38611 11.0071 7.61092C10.0134 7.83572 9.12538 8.39105 8.48831 9.1861C7.85125 9.98114 7.50282 10.9688 7.50002 11.9876C7.49722 13.0064 7.8402 13.996 8.47289 14.7945C9.10557 15.5931 9.9905 16.1533 10.9829 16.3836C11.9754 16.6138 13.0166 16.5005 13.9362 16.0621" stroke="black" stroke-linecap="round"/>
<path d="M10.7944 10.7316C11.0202 10.5169 11.2992 10.3665 11.6026 10.2957C11.906 10.225 12.2228 10.2365 12.5202 10.3291C12.8177 10.4217 13.085 10.5921 13.2946 10.8225C13.5042 11.053 13.6485 11.3353 13.7126 11.6401C13.7767 11.945 13.7582 12.2615 13.6591 12.5568C13.5599 12.8522 13.3838 13.1157 13.1487 13.3202C12.9137 13.5247 12.6284 13.6627 12.3222 13.7201C12.0159 13.7774 11.7 13.752 11.4069 13.6464" stroke="black" stroke-linecap="round"/>
</svg>
