<svg width="30" height="30" viewBox="0 0 30 30" fill="none" xmlns="http://www.w3.org/2000/svg">
<rect x="5.5" y="5.5" width="19" height="19" rx="0.5" stroke="black"/>
<rect x="8.5" y="8.5" width="13" height="13" rx="0.5" stroke="black"/>
<path d="M8.5 24.5H10.5V25.45C10.5 25.4776 10.4776 25.5 10.45 25.5H8.55C8.52239 25.5 8.5 25.4776 8.5 25.45V24.5Z" stroke="black"/>
<path d="M19.5 24.5H21.5V25.45C21.5 25.4776 21.4776 25.5 21.45 25.5H19.55C19.5224 25.5 19.5 25.4776 19.5 25.45V24.5Z" stroke="black"/>
<circle cx="15" cy="15" r="2.5" stroke="black"/>
<rect x="10.4" y="18.8853" width="4" height="1" rx="0.5" transform="rotate(-45 10.4 18.8853)" fill="black"/>
<rect x="16.0569" y="13.2284" width="4" height="1" rx="0.5" transform="rotate(-45 16.0569 13.2284)" fill="black"/>
<rect x="11.1072" y="10.4" width="4" height="1" rx="0.5" transform="rotate(45 11.1072 10.4)" fill="black"/>
<rect x="16.764" y="16.0569" width="4" height="1" rx="0.5" transform="rotate(45 16.764 16.0569)" fill="black"/>
</svg>
