<svg width="24" height="24" viewBox="0 0 24 24" fill="none" xmlns="http://www.w3.org/2000/svg">
<path d="M10.0367 19.2593C11.5373 19.6676 13.1444 19.5981 14.6148 19.0408C16.0852 18.4834 17.3497 17.4881 18.2149 16.1795C19.08 14.8708 19.5262 13.3262 19.4738 11.7366C19.423 10.1936 18.8826 8.67536 17.9339 7.42903C16.9852 6.18269 15.6476 5.26871 14.1466 4.80702C13.4394 4.58949 12.6957 4.48447 11.9616 4.48447C9.52936 4.48447 7.87585 5.4039 6.59269 6.84636C5.48228 8.09462 5.05278 9.62876 5.05278 10.8106C5.05278 14.2734 8.36712 16.5154 11.7881 16.5154C13.3155 16.5154 14.7357 15.515 14.7357 14.336C14.7357 11.0758 9.10381 12.5228 9.10381 9.7079C9.10381 8.47444 10.2773 7.48567 11.7905 7.48567C13.3036 7.48567 14.3516 8.38672 14.5234 9.17188" stroke="black" stroke-linecap="round" stroke-linejoin="round"/>
</svg>
