<svg width="24" height="24" viewBox="0 0 24 24" fill="none" xmlns="http://www.w3.org/2000/svg">
<path d="M6.5 8.5L6.14645 8.14645L6 8.29289V8.5H6.5ZM10.5 4.5V4H10.2929L10.1464 4.14645L10.5 4.5ZM6.85355 8.85355L10.8536 4.85355L10.1464 4.14645L6.14645 8.14645L6.85355 8.85355ZM10.5 5H16V4H10.5V5ZM16 5C16.5523 5 17 5.44772 17 6H18C18 4.89543 17.1046 4 16 4V5ZM17 6V18H18V6H17ZM17 18C17 18.5523 16.5523 19 16 19V20C17.1046 20 18 19.1046 18 18H17ZM16 19H8V20H16V19ZM8 19C7.44772 19 7 18.5523 7 18H6C6 19.1046 6.89543 20 8 20V19ZM7 18V8.5H6V18H7Z" fill="black"/>
<path fill-rule="evenodd" clip-rule="evenodd" d="M11.5 6.5C11.2239 6.5 11 6.72386 11 7V10C11 10.2761 11.2239 10.5 11.5 10.5C11.7761 10.5 12 10.2761 12 10V7C12 6.72386 11.7761 6.5 11.5 6.5ZM13 7C13 6.72386 13.2239 6.5 13.5 6.5C13.7761 6.5 14 6.72386 14 7V10C14 10.2761 13.7761 10.5 13.5 10.5C13.2239 10.5 13 10.2761 13 10V7ZM15 7C15 6.72386 15.2239 6.5 15.5 6.5C15.7761 6.5 16 6.72386 16 7V10C16 10.2761 15.7761 10.5 15.5 10.5C15.2239 10.5 15 10.2761 15 10V7Z" fill="black"/>
</svg>
