<svg width="30" height="30" viewBox="0 0 30 30" fill="none" xmlns="http://www.w3.org/2000/svg">
<path d="M18.8182 8H13.9527C13.8276 8 13.707 8.04689 13.6148 8.13142L9.66214 11.7547C9.55882 11.8494 9.5 11.9831 9.5 12.1233V20.5C9.5 21.2884 10.2111 22 11.1818 22H18.8182C19.7889 22 20.5 21.2884 20.5 20.5V9.5C20.5 8.71164 19.7889 8 18.8182 8Z" stroke="black"/>
<path fill-rule="evenodd" clip-rule="evenodd" d="M14.5 9.5C14.2239 9.5 14 9.72386 14 10V13C14 13.2761 14.2239 13.5 14.5 13.5C14.7761 13.5 15 13.2761 15 13V10C15 9.72386 14.7761 9.5 14.5 9.5ZM16 10C16 9.72386 16.2239 9.5 16.5 9.5C16.7761 9.5 17 9.72386 17 10V13C17 13.2761 16.7761 13.5 16.5 13.5C16.2239 13.5 16 13.2761 16 13V10ZM18 10C18 9.72386 18.2239 9.5 18.5 9.5C18.7761 9.5 19 9.72386 19 10V13C19 13.2761 18.7761 13.5 18.5 13.5C18.2239 13.5 18 13.2761 18 13V10Z" fill="black"/>
</svg>
