<svg width="30" height="30" viewBox="0 0 30 30" fill="none" xmlns="http://www.w3.org/2000/svg">
<path fill-rule="evenodd" clip-rule="evenodd" d="M9 7H18V12H19V7C19 6.44772 18.5523 6 18 6H9C8.44772 6 8 6.44772 8 7V20C8 20.5523 8.44771 21 9 21H14V20H9L9 7Z" fill="black"/>
<path d="M8 18H14V21H9C8.44772 21 8 20.5523 8 20V18Z" fill="black"/>
<rect x="15.5" y="13.5" width="6" height="10" rx="0.5" stroke="black"/>
<path d="M15.5 21.5H21.5V23C21.5 23.2761 21.2761 23.5 21 23.5H16C15.7239 23.5 15.5 23.2761 15.5 23V21.5Z" fill="black" stroke="black"/>
</svg>
