<svg width="24" height="24" viewBox="0 0 24 24" fill="none" xmlns="http://www.w3.org/2000/svg">
<path d="M7.5 19.5H16.5" stroke="black" stroke-linecap="round"/>
<path d="M8.5 12C8.5 10.067 10.067 8.5 12 8.5V8.5C13.933 8.5 15.5 10.067 15.5 12V16.6818C15.5 17.1337 15.1337 17.5 14.6818 17.5H9.31818C8.86631 17.5 8.5 17.1337 8.5 16.6818V12Z" stroke="black"/>
<path d="M5.5 12H3.5" stroke="black" stroke-linecap="round"/>
<path d="M20.5 12H18.5" stroke="black" stroke-linecap="round"/>
<path d="M12 5.5V3.5" stroke="black" stroke-linecap="round"/>
<path d="M16.5 7.5L18 6" stroke="black" stroke-linecap="round"/>
<path d="M7.5 7.5L6 6" stroke="black" stroke-linecap="round"/>
<path d="M12.5 10.5C13.0523 10.5 13.5 10.9477 13.5 11.5V12.5" stroke="black" stroke-linecap="round"/>
</svg>
