<svg width="24" height="24" viewBox="0 0 24 24" fill="none" xmlns="http://www.w3.org/2000/svg">
<path d="M3.5 11.5C3.5 10.9477 3.94772 10.5 4.5 10.5C5.05228 10.5 5.5 10.9477 5.5 11.5V14.5H18.5V11.5C18.5 10.9477 18.9477 10.5 19.5 10.5C20.0523 10.5 20.5 10.9477 20.5 11.5V16.5C20.5 17.0523 20.0523 17.5 19.5 17.5H4.5C3.94772 17.5 3.5 17.0523 3.5 16.5V11.5Z" stroke="black"/>
<path d="M6 8C6 7.17157 6.67157 6.5 7.5 6.5H16.5C17.3284 6.5 18 7.17157 18 8V8.70802C17.117 9.0938 16.5 9.97484 16.5 11V12.5H7.5V11C7.5 9.97484 6.88295 9.0938 6 8.70802V8Z" stroke="black"/>
</svg>
