<svg width="30" height="30" viewBox="0 0 30 30" fill="none" xmlns="http://www.w3.org/2000/svg">
<path d="M22.5 13.5H22V14H22.5V13.5ZM7.5 13.5V14H8V13.5H7.5ZM20.625 8H9.375V9H20.625V8ZM23 10.5C23 9.76065 22.8693 9.10327 22.4432 8.63823C22.0073 8.16251 21.368 8 20.625 8V9C21.2474 9 21.5456 9.13883 21.7059 9.31377C21.8759 9.4994 22 9.84201 22 10.5H23ZM23 13.5V10.5H22V13.5H23ZM23.5909 13H22.5V14H23.5909V13ZM26 15.2778C26 14.6571 25.8671 14.0566 25.4359 13.6181C25.0038 13.1787 24.369 13 23.5909 13V14C24.2367 14 24.5564 14.1499 24.7229 14.3192C24.8903 14.4895 25 14.7778 25 15.2778H26ZM26 19.7222V15.2778H25V19.7222H26ZM23.5909 22C24.2894 22 24.9158 21.8584 25.3655 21.4482C25.825 21.029 26 20.4223 26 19.7222H25C25 20.2694 24.8645 20.5517 24.6915 20.7095C24.5086 20.8763 24.1805 21 23.5909 21V22ZM6.40909 22H23.5909V21H6.40909V22ZM4 19.7222C4 20.4554 4.1703 21.0727 4.64157 21.4867C5.09731 21.887 5.72861 22 6.40909 22V21C5.80155 21 5.47831 20.8907 5.30151 20.7354C5.14024 20.5937 5 20.3221 5 19.7222H4ZM4 15.2778V19.7222H5V15.2778H4ZM6.40909 13C5.71831 13 5.09142 13.134 4.63963 13.5408C4.1763 13.9581 4 14.5671 4 15.2778H5C5 14.7178 5.13781 14.4379 5.3088 14.2839C5.49135 14.1195 5.819 14 6.40909 14V13ZM7.5 13H6.40909V14H7.5V13ZM7 10.5V13.5H8V10.5H7ZM9.375 8C8.64961 8 8.01022 8.1491 7.56959 8.61788C7.1365 9.07863 7 9.73931 7 10.5H8C8 9.82155 8.12955 9.48223 8.29823 9.30277C8.45938 9.13133 8.75749 9 9.375 9V8Z" fill="black"/>
<path d="M7 13.5V13.5C7.82842 13.5 8.5 14.1716 8.5 15V18H21.5V15C21.5 14.1716 22.1716 13.5 23 13.5L23.5 13.5" stroke="black" stroke-linecap="round" stroke-linejoin="round"/>
</svg>
