<svg width="24" height="24" viewBox="0 0 24 24" fill="none" xmlns="http://www.w3.org/2000/svg">
<path d="M5.5 14.5H5V15H5.5V14.5ZM18.5 14.5V15H19V14.5H18.5ZM4.5 10C3.67157 10 3 10.6716 3 11.5H4C4 11.2239 4.22386 11 4.5 11V10ZM6 11.5C6 10.6716 5.32843 10 4.5 10V11C4.77614 11 5 11.2239 5 11.5H6ZM6 14.5V11.5H5V14.5H6ZM18.5 14H5.5V15H18.5V14ZM19 14.5V11.5H18V14.5H19ZM19 11.5C19 11.2239 19.2239 11 19.5 11V10C18.6716 10 18 10.6716 18 11.5H19ZM19.5 11C19.7761 11 20 11.2239 20 11.5H21C21 10.6716 20.3284 10 19.5 10V11ZM20 11.5V15.5H21V11.5H20ZM20 15.5V16.5H21V15.5H20ZM19.5 18C20.3284 18 21 17.3284 21 16.5H20C20 16.7761 19.7761 17 19.5 17V18ZM4.5 18H19.5V17H4.5V18ZM3 16.5C3 17.3284 3.67157 18 4.5 18V17C4.22386 17 4 16.7761 4 16.5H3ZM3 15.5V16.5H4V15.5H3ZM3 11.5V15.5H4V11.5H3Z" fill="black"/>
<path d="M18 8.70802L18.2002 9.1662L18.5 9.0352V8.70802H18ZM16.5 12.5V13H17V12.5H16.5ZM7.5 12.5H7V13H7.5V12.5ZM6 8.70802H5.5V9.0352L5.79981 9.1662L6 8.70802ZM7.5 6C6.39543 6 5.5 6.89543 5.5 8H6.5C6.5 7.44772 6.94772 7 7.5 7V6ZM16.5 6H7.5V7H16.5V6ZM18.5 8C18.5 6.89543 17.6046 6 16.5 6V7C17.0523 7 17.5 7.44772 17.5 8H18.5ZM18.5 8.70802V8H17.5V8.70802H18.5ZM17 11C17 10.1806 17.4928 9.47528 18.2002 9.1662L17.7998 8.24985C16.7413 8.71232 16 9.76903 16 11H17ZM17 12.5V11H16V12.5H17ZM7.5 13H16.5V12H7.5V13ZM7 11V12.5H8V11H7ZM5.79981 9.1662C6.50722 9.47528 7 10.1806 7 11H8C8 9.76903 7.25868 8.71232 6.20019 8.24985L5.79981 9.1662ZM5.5 8V8.70802H6.5V8H5.5Z" fill="black"/>
</svg>
