<svg width="24" height="24" viewBox="0 0 24 24" fill="none" xmlns="http://www.w3.org/2000/svg">
<path d="M11.7622 3.73176C11.8371 3.50144 12.1629 3.50144 12.2378 3.73176L13.9645 9.0461C13.998 9.14911 14.094 9.21885 14.2023 9.21885H19.7901C20.0323 9.21885 20.133 9.52875 19.937 9.6711L15.4164 12.9555C15.3288 13.0192 15.2921 13.132 15.3256 13.2351L17.0523 18.5494C17.1271 18.7797 16.8635 18.9712 16.6676 18.8289L12.1469 15.5445C12.0593 15.4808 11.9407 15.4808 11.8531 15.5445L7.33241 18.8289C7.13648 18.9712 6.87286 18.7797 6.9477 18.5494L8.67443 13.2351C8.7079 13.132 8.67123 13.0192 8.58361 12.9555L4.06297 9.6711C3.86704 9.52875 3.96773 9.21885 4.20991 9.21885H9.79774C9.90604 9.21885 10.002 9.14911 10.0355 9.0461L11.7622 3.73176Z" stroke="black"/>
</svg>
