<svg width="24" height="24" viewBox="0 0 24 24" fill="none" xmlns="http://www.w3.org/2000/svg">
<path d="M5.92674 13.1768L10.8233 18.0732C10.9209 18.1709 11.0792 18.1709 11.1769 18.0732L17.4267 11.8232C17.4736 11.7763 17.5 11.7128 17.5 11.6464V8.10355C17.5 8.09362 17.4994 8.08375 17.4982 8.07399C17.4994 8.04947 17.5 8.02481 17.5 8C17.5 7.17157 16.8284 6.5 16 6.5C15.9753 6.5 15.9507 6.5006 15.9263 6.50178C15.9165 6.5006 15.9065 6.5 15.8965 6.5H12.3535C12.2872 6.5 12.2236 6.52634 12.1767 6.57322L5.92674 12.8232C5.82911 12.9209 5.82911 13.0791 5.92674 13.1768Z" stroke="black"/>
<path d="M11.5 15V10.5" stroke="black" stroke-linecap="round"/>
<path d="M9.85355 12.3964C10.0488 12.5917 10.0488 12.9083 9.85355 13.1036C9.65829 13.2988 9.34171 13.2988 9.14645 13.1036C8.95118 12.9083 8.95118 12.5917 9.14645 12.3964C9.34171 12.2012 9.65829 12.2012 9.85355 12.3964Z" stroke="black"/>
<path d="M13.8536 12.3964C14.0488 12.5917 14.0488 12.9083 13.8536 13.1036C13.6583 13.2988 13.3417 13.2988 13.1464 13.1036C12.9512 12.9083 12.9512 12.5917 13.1464 12.3964C13.3417 12.2012 13.6583 12.2012 13.8536 12.3964Z" stroke="black"/>
</svg>
