<svg width="24" height="24" viewBox="0 0 24 24" fill="none" xmlns="http://www.w3.org/2000/svg">
<path d="M14.2568 5.97637C13.4076 4.27597 11.4251 3.33769 9.45519 3.82885C7.18558 4.39473 5.79206 6.64372 6.34267 8.85211C6.50046 9.48497 6.80079 10.0458 7.20241 10.5106L4.49434 14.8812C4.28106 15.2254 4.21601 15.6412 4.31397 16.0341L4.67313 17.4746C4.70653 17.6086 4.84221 17.6901 4.97618 17.6567L6.50368 17.2759C6.8828 17.1813 7.21007 16.9426 7.41587 16.6105L10.3003 11.9553" stroke="black" stroke-linecap="round"/>
<ellipse cx="10.8197" cy="7.26603" rx="1.05882" ry="1.03026" transform="rotate(-14 10.8197 7.26603)" stroke="black"/>
<path d="M12.7043 12.6361L12.2191 12.7571L12.2191 12.7571L12.7043 12.6361ZM13.564 14.2946L13.989 14.558L14.1825 14.2457L13.9423 13.9677L13.564 14.2946ZM10.8559 18.6652L11.281 18.9285L11.281 18.9285L10.8559 18.6652ZM10.6756 19.8181L10.1904 19.9391L10.6756 19.8181ZM11.0347 21.2586L11.5199 21.1376L11.0347 21.2586ZM13.7775 20.3945L14.2025 20.6578L14.2025 20.6578L13.7775 20.3945ZM16.6619 15.7393L16.6729 15.2394L16.3873 15.2331L16.2369 15.4759L16.6619 15.7393ZM20.4381 10.7078C20.9188 12.6359 19.704 14.6228 17.6898 15.125L17.9317 16.0953C20.4566 15.4657 22.0289 12.9547 21.4084 10.4659L20.4381 10.7078ZM15.9377 8.09799C17.952 7.59578 19.9574 8.77981 20.4381 10.7078L21.4084 10.4659C20.7879 7.97717 18.2208 6.49815 15.6958 7.12769L15.9377 8.09799ZM13.1894 12.5151C12.7087 10.5871 13.9235 8.6002 15.9377 8.09799L15.6958 7.12769C13.1709 7.75724 11.5986 10.2683 12.2191 12.7571L13.1894 12.5151ZM13.9423 13.9677C13.5905 13.5606 13.3277 13.0698 13.1894 12.5151L12.2191 12.7571C12.3964 13.4681 12.7342 14.099 13.1857 14.6215L13.9423 13.9677ZM11.281 18.9285L13.989 14.558L13.139 14.0313L10.4309 18.4018L11.281 18.9285ZM11.1607 19.6971C11.0954 19.4352 11.1388 19.158 11.281 18.9285L10.4309 18.4018C10.1465 18.8608 10.0598 19.4152 10.1904 19.9391L11.1607 19.6971ZM11.5199 21.1376L11.1607 19.6971L10.1904 19.9391L10.5496 21.3796L11.5199 21.1376ZM11.2168 20.9555C11.3508 20.9221 11.4865 21.0037 11.5199 21.1376L10.5496 21.3796C10.6498 21.7815 11.0568 22.026 11.4587 21.9258L11.2168 20.9555ZM12.7443 20.5747L11.2168 20.9555L11.4587 21.9258L12.9862 21.545L12.7443 20.5747ZM13.3524 20.1311C13.2152 20.3525 12.9971 20.5117 12.7443 20.5747L12.9862 21.545C13.4917 21.419 13.9281 21.1007 14.2025 20.6578L13.3524 20.1311ZM16.2369 15.4759L13.3524 20.1311L14.2025 20.6578L17.0869 16.0026L16.2369 15.4759ZM17.6898 15.125C17.3479 15.2102 17.0065 15.2467 16.6729 15.2394L16.6509 16.2392C17.0727 16.2484 17.5029 16.2022 17.9317 16.0953L17.6898 15.125Z" fill="black"/>
<ellipse cx="17.2028" cy="10.9836" rx="1.05882" ry="1.03026" transform="rotate(-14 17.2028 10.9836)" stroke="black"/>
</svg>
