<svg width="30" height="30" viewBox="0 0 30 30" fill="none" xmlns="http://www.w3.org/2000/svg">
<mask id="path-1-inside-1" fill="white">
<path fill-rule="evenodd" clip-rule="evenodd" d="M19.25 20C21.7353 20 23.75 17.9853 23.75 15.5C23.75 13.0147 21.7353 11 19.25 11C16.7647 11 14.75 13.0147 14.75 15.5C14.75 16.0928 14.8646 16.6588 15.0729 17.1771L11.8358 20.4142C11.4607 20.7893 11.25 21.298 11.25 21.8284V23C11.25 23.5523 11.6977 24 12.25 24H13.4216C13.952 24 14.4607 23.7893 14.8358 23.4142L18.3417 19.9083C18.6351 19.9684 18.9388 20 19.25 20Z"/>
</mask>
<path d="M15.0729 17.1771L15.78 17.8842L16.2471 17.4171L16.0008 16.8042L15.0729 17.1771ZM11.8358 20.4142L12.5429 21.1213L12.5429 21.1213L11.8358 20.4142ZM14.8358 23.4142L14.1287 22.7071L14.1287 22.7071L14.8358 23.4142ZM18.3417 19.9083L18.5425 18.9287L18.0152 18.8206L17.6346 19.2012L18.3417 19.9083ZM22.75 15.5C22.75 17.433 21.183 19 19.25 19V21C22.2876 21 24.75 18.5376 24.75 15.5H22.75ZM19.25 12C21.183 12 22.75 13.567 22.75 15.5H24.75C24.75 12.4624 22.2876 10 19.25 10V12ZM15.75 15.5C15.75 13.567 17.317 12 19.25 12V10C16.2124 10 13.75 12.4624 13.75 15.5H15.75ZM16.0008 16.8042C15.8393 16.4025 15.75 15.9629 15.75 15.5H13.75C13.75 16.2227 13.8899 16.9151 14.145 17.55L16.0008 16.8042ZM12.5429 21.1213L15.78 17.8842L14.3658 16.47L11.1287 19.7071L12.5429 21.1213ZM12.25 21.8284C12.25 21.5632 12.3554 21.3089 12.5429 21.1213L11.1287 19.7071C10.5661 20.2697 10.25 21.0328 10.25 21.8284H12.25ZM12.25 23V21.8284H10.25V23H12.25ZM12.25 23H10.25C10.25 24.1046 11.1454 25 12.25 25V23ZM13.4216 23H12.25V25H13.4216V23ZM14.1287 22.7071C13.9411 22.8946 13.6868 23 13.4216 23V25C14.2172 25 14.9803 24.6839 15.5429 24.1213L14.1287 22.7071ZM17.6346 19.2012L14.1287 22.7071L15.5429 24.1213L19.0488 20.6154L17.6346 19.2012ZM19.25 19C19.0067 19 18.7702 18.9753 18.5425 18.9287L18.1409 20.8879C18.5 20.9615 18.871 21 19.25 21V19Z" fill="black" mask="url(#path-1-inside-1)"/>
<circle cx="19.75" cy="15" r="1" stroke="black"/>
<path fill-rule="evenodd" clip-rule="evenodd" d="M10.78 12.8842L11.2471 12.4171L11.0008 11.8042C10.8393 11.4025 10.75 10.9629 10.75 10.5C10.75 8.567 12.317 7 14.25 7C15.9123 7 17.3039 8.1588 17.6611 9.71265C17.9793 9.62547 18.3082 9.56384 18.6452 9.5301C18.2017 7.51101 16.4023 6 14.25 6C11.7647 6 9.75 8.01472 9.75 10.5C9.75 11.0928 9.86462 11.6588 10.0729 12.1771L6.83579 15.4142C6.46071 15.7893 6.25 16.298 6.25 16.8284V18C6.25 18.5523 6.69772 19 7.25 19H8.42157C8.95201 19 9.46071 18.7893 9.83579 18.4142L13.2724 14.9776C13.304 14.6121 13.3682 14.256 13.4623 13.9122L13.0152 13.8206L12.6346 14.2012L9.12868 17.7071C8.94114 17.8946 8.68679 18 8.42157 18H7.25V16.8284C7.25 16.5632 7.35536 16.3089 7.54289 16.1213L10.78 12.8842Z" fill="black"/>
<circle cx="14.75" cy="10" r="1" stroke="black"/>
</svg>
