<svg width="24" height="24" viewBox="0 0 24 24" fill="none" xmlns="http://www.w3.org/2000/svg">
<path d="M12.9624 14.6048L13.3111 14.9631L13.5744 14.7069L13.4086 14.3791L12.9624 14.6048ZM9.27747 18.1903L9.62615 18.5487L9.62615 18.5487L9.27747 18.1903ZM11.6939 20.5751L11.3452 20.2167L11.3452 20.2167L11.6939 20.5751ZM15.6188 16.756L15.7504 16.2736L15.4748 16.1984L15.2701 16.3976L15.6188 16.756ZM20.5 12.7875C20.5 14.7746 18.8407 16.4086 16.7647 16.4086V17.4086C19.367 17.4086 21.5 15.3525 21.5 12.7875H20.5ZM16.7647 9.16646C18.8407 9.16646 20.5 10.8005 20.5 12.7875H21.5C21.5 10.2226 19.367 8.16646 16.7647 8.16646V9.16646ZM13.0295 12.7875C13.0295 10.8005 14.6888 9.16646 16.7647 9.16646V8.16646C14.1625 8.16646 12.0295 10.2226 12.0295 12.7875H13.0295ZM13.4086 14.3791C13.1658 13.8989 13.0295 13.3592 13.0295 12.7875H12.0295C12.0295 13.5203 12.2046 14.2143 12.5162 14.8304L13.4086 14.3791ZM9.62615 18.5487L13.3111 14.9631L12.6137 14.2464L8.92878 17.832L9.62615 18.5487ZM9.32353 19.2654C9.32353 18.9954 9.43267 18.737 9.62615 18.5487L8.92878 17.832C8.54182 18.2085 8.32353 18.7255 8.32353 19.2654H9.32353ZM9.32353 20.75V19.2654H8.32353V20.75H9.32353ZM9.07353 20.5C9.2116 20.5 9.32353 20.6119 9.32353 20.75H8.32353C8.32353 21.1642 8.65932 21.5 9.07353 21.5V20.5ZM10.6478 20.5H9.07353V21.5H10.6478V20.5ZM11.3452 20.2167C11.1585 20.3984 10.9083 20.5 10.6478 20.5V21.5C11.1688 21.5 11.6692 21.2967 12.0425 20.9334L11.3452 20.2167ZM15.2701 16.3976L11.3452 20.2167L12.0425 20.9334L15.9675 17.1143L15.2701 16.3976ZM16.7647 16.4086C16.4124 16.4086 16.0723 16.3614 15.7504 16.2736L15.4872 17.2383C15.8942 17.3494 16.3228 17.4086 16.7647 17.4086V16.4086Z" fill="black"/>
<ellipse cx="17.2941" cy="12.2724" rx="1.05882" ry="1.03026" stroke="black"/>
<path fill-rule="evenodd" clip-rule="evenodd" d="M7.74516 10.0807L8.23063 9.60837L7.97205 8.98231C7.80047 8.56686 7.70588 8.11323 7.70588 7.63619C7.70588 5.65358 9.36545 4 11.4706 4C13.275 4 14.7521 5.21493 15.1373 6.81063C15.4571 6.72839 15.7868 6.66981 16.1243 6.63694C15.6547 4.55674 13.7495 3 11.4706 3C8.83911 3 6.70588 5.07569 6.70588 7.63619C6.70588 8.24692 6.82724 8.83006 7.04778 9.36404L3.60525 12.7137C3.21829 13.0902 3 13.6072 3 14.1471V15.3934C3 15.9457 3.44772 16.3934 4 16.3934H5.36401C5.88498 16.3934 6.38538 16.1902 6.75876 15.8269L10.4355 12.2493C10.4679 11.8835 10.5331 11.5268 10.6281 11.182L10.1885 11.0943L9.81149 11.4612L6.06139 15.1101C5.8747 15.2918 5.6245 15.3934 5.36401 15.3934H4V14.1471C4 13.8772 4.10915 13.6187 4.30263 13.4304L7.74516 10.0807Z" fill="black"/>
<ellipse cx="12" cy="7.12105" rx="1.05882" ry="1.03026" stroke="black"/>
</svg>
