<svg width="30" height="30" viewBox="0 0 30 30" fill="none" xmlns="http://www.w3.org/2000/svg">
<path d="M15.6589 17.2639L16.0125 17.6175L16.2656 17.3643L16.1076 17.0431L15.6589 17.2639ZM12.1894 20.7335L12.5429 21.0871L12.5429 21.0871L12.1894 20.7335ZM14.4878 23.0319L14.8413 23.3855L14.8413 23.3855L14.4878 23.0319ZM18.1678 19.3519L18.3028 18.8704L18.0211 18.7915L17.8142 18.9983L18.1678 19.3519ZM22.75 15.5C22.75 17.433 21.183 19 19.25 19V20C21.7353 20 23.75 17.9853 23.75 15.5H22.75ZM19.25 12C21.183 12 22.75 13.567 22.75 15.5H23.75C23.75 13.0147 21.7353 11 19.25 11V12ZM15.75 15.5C15.75 13.567 17.317 12 19.25 12V11C16.7647 11 14.75 13.0147 14.75 15.5H15.75ZM16.1076 17.0431C15.8788 16.5782 15.75 16.0549 15.75 15.5H14.75C14.75 16.2113 14.9154 16.8854 15.2103 17.4847L16.1076 17.0431ZM12.5429 21.0871L16.0125 17.6175L15.3054 16.9104L11.8358 20.3799L12.5429 21.0871ZM12.25 21.7942C12.25 21.5289 12.3554 21.2746 12.5429 21.0871L11.8358 20.3799C11.4607 20.755 11.25 21.2637 11.25 21.7942H12.25ZM12.25 23.2212V21.7942H11.25V23.2212H12.25ZM12 22.9712C12.1381 22.9712 12.25 23.0832 12.25 23.2212H11.25C11.25 23.6355 11.5858 23.9712 12 23.9712V22.9712ZM13.4271 22.9712H12V23.9712H13.4271V22.9712ZM14.1342 22.6783C13.9467 22.8659 13.6923 22.9712 13.4271 22.9712V23.9712C13.9575 23.9712 14.4662 23.7605 14.8413 23.3855L14.1342 22.6783ZM17.8142 18.9983L14.1342 22.6783L14.8413 23.3855L18.5213 19.7054L17.8142 18.9983ZM19.25 19C18.921 19 18.6035 18.9548 18.3028 18.8704L18.0328 19.8333C18.4205 19.942 18.8289 20 19.25 20V19Z" fill="black"/>
<circle cx="19.75" cy="15" r="1" stroke="black"/>
<path fill-rule="evenodd" clip-rule="evenodd" d="M10.78 12.8842L11.2471 12.4171L11.0008 11.8042C10.8393 11.4025 10.75 10.9629 10.75 10.5C10.75 8.567 12.317 7 14.25 7C15.9123 7 17.3039 8.1588 17.6611 9.71265C17.9793 9.62547 18.3082 9.56384 18.6452 9.5301C18.2017 7.51101 16.4023 6 14.25 6C11.7647 6 9.75 8.01472 9.75 10.5C9.75 11.0928 9.86462 11.6588 10.0729 12.1771L6.83579 15.4142C6.46071 15.7893 6.25 16.298 6.25 16.8284V18C6.25 18.5523 6.69772 19 7.25 19H8.42157C8.95201 19 9.46071 18.7893 9.83579 18.4142L13.2724 14.9776C13.304 14.6121 13.3682 14.256 13.4623 13.9122L13.0152 13.8206L12.6346 14.2012L9.12868 17.7071C8.94114 17.8946 8.68679 18 8.42157 18H7.25V16.8284C7.25 16.5632 7.35536 16.3089 7.54289 16.1213L10.78 12.8842Z" fill="black"/>
<circle cx="14.75" cy="10" r="1" stroke="black"/>
</svg>
