<svg width="24" height="24" viewBox="0 0 24 24" fill="none" xmlns="http://www.w3.org/2000/svg">
<mask id="path-1-inside-1" fill="white">
<path fill-rule="evenodd" clip-rule="evenodd" d="M4.5 12.9893C4.5 11.6085 5.61929 10.4893 7 10.4893H17C18.3807 10.4893 19.5 11.6085 19.5 12.9893V18.9893C19.5 20.37 18.3807 21.4893 17 21.4893H7C5.61929 21.4893 4.5 20.37 4.5 18.9893V12.9893ZM7 11.4893C6.17157 11.4893 5.5 12.1608 5.5 12.9893V18.9893C5.5 19.8177 6.17157 20.4893 7 20.4893H17C17.8284 20.4893 18.5 19.8177 18.5 18.9893V12.9893C18.5 12.1608 17.8284 11.4893 17 11.4893H7Z"/>
</mask>
<path fill-rule="evenodd" clip-rule="evenodd" d="M4.5 12.9893C4.5 11.6085 5.61929 10.4893 7 10.4893H17C18.3807 10.4893 19.5 11.6085 19.5 12.9893V18.9893C19.5 20.37 18.3807 21.4893 17 21.4893H7C5.61929 21.4893 4.5 20.37 4.5 18.9893V12.9893ZM7 11.4893C6.17157 11.4893 5.5 12.1608 5.5 12.9893V18.9893C5.5 19.8177 6.17157 20.4893 7 20.4893H17C17.8284 20.4893 18.5 19.8177 18.5 18.9893V12.9893C18.5 12.1608 17.8284 11.4893 17 11.4893H7Z" fill="black"/>
<path d="M7 9.16993C4.89064 9.16993 3.18067 10.8799 3.18067 12.9893H5.81933C5.81933 12.3372 6.34793 11.8086 7 11.8086V9.16993ZM17 9.16993H7V11.8086H17V9.16993ZM20.8193 12.9893C20.8193 10.8799 19.1094 9.16993 17 9.16993V11.8086C17.6521 11.8086 18.1807 12.3372 18.1807 12.9893H20.8193ZM20.8193 18.9893V12.9893H18.1807V18.9893H20.8193ZM17 22.8086C19.1094 22.8086 20.8193 21.0986 20.8193 18.9893H18.1807C18.1807 19.6413 17.6521 20.1699 17 20.1699V22.8086ZM7 22.8086H17V20.1699H7V22.8086ZM3.18067 18.9893C3.18067 21.0986 4.89064 22.8086 7 22.8086V20.1699C6.34793 20.1699 5.81933 19.6413 5.81933 18.9893H3.18067ZM3.18067 12.9893V18.9893H5.81933V12.9893H3.18067ZM6.81933 12.9893C6.81933 12.8895 6.90022 12.8086 7 12.8086V10.1699C5.44293 10.1699 4.18067 11.4322 4.18067 12.9893H6.81933ZM6.81933 18.9893V12.9893H4.18067V18.9893H6.81933ZM7 19.1699C6.90022 19.1699 6.81933 19.089 6.81933 18.9893H4.18067C4.18067 20.5463 5.44293 21.8086 7 21.8086V19.1699ZM17 19.1699H7V21.8086H17V19.1699ZM17.1807 18.9893C17.1807 19.089 17.0998 19.1699 17 19.1699V21.8086C18.5571 21.8086 19.8193 20.5463 19.8193 18.9893H17.1807ZM17.1807 12.9893V18.9893H19.8193V12.9893H17.1807ZM17 12.8086C17.0998 12.8086 17.1807 12.8895 17.1807 12.9893H19.8193C19.8193 11.4322 18.5571 10.1699 17 10.1699V12.8086ZM7 12.8086H17V10.1699H7V12.8086Z" fill="black" mask="url(#path-1-inside-1)"/>
<path d="M15.5001 8L15.4925 6.25785C15.4889 5.43196 14.8184 4.76434 13.9925 4.76434H12H10.014C9.18555 4.76434 8.51398 5.43592 8.51398 6.26434V10.9942" stroke="black"/>
</svg>
