<svg width="24" height="24" viewBox="0 0 24 24" fill="none" xmlns="http://www.w3.org/2000/svg">
<path fill-rule="evenodd" clip-rule="evenodd" d="M4 12C4 11.0338 4.74845 10.0408 6.22354 9.25991C7.67625 8.49083 9.71769 8 12 8C14.2823 8 16.3237 8.49083 17.7765 9.25991C19.2516 10.0408 20 11.0338 20 12C20 12.9662 19.2516 13.9592 17.7765 14.7401C16.3237 15.5092 14.2823 16 12 16C9.71769 16 7.67625 15.5092 6.22354 14.7401C4.74845 13.9592 4 12.9662 4 12ZM12 7C9.58789 7 7.37933 7.51653 5.75565 8.37613C4.15434 9.22388 3 10.4809 3 12C3 13.5191 4.15434 14.7761 5.75565 15.6239C7.37933 16.4835 9.58789 17 12 17C14.4121 17 16.6207 16.4835 18.2444 15.6239C19.8457 14.7761 21 13.5191 21 12C21 10.4809 19.8457 9.22388 18.2444 8.37613C16.6207 7.51653 14.4121 7 12 7ZM12 14C13.1046 14 14 13.1046 14 12C14 10.8954 13.1046 10 12 10C10.8954 10 10 10.8954 10 12C10 13.1046 10.8954 14 12 14Z" fill="black"/>
</svg>
