<svg width="30" height="30" viewBox="0 0 30 30" fill="none" xmlns="http://www.w3.org/2000/svg">
<path fill-rule="evenodd" clip-rule="evenodd" d="M23 15C23 15.8526 22.3661 16.8348 20.8783 17.6614C19.4244 18.4691 17.3481 19 15 19C12.6519 19 10.5756 18.4691 9.12168 17.6614C7.63388 16.8348 7 15.8526 7 15C7 14.1474 7.63388 13.1652 9.12168 12.3386C10.5756 11.5309 12.6519 11 15 11C17.3481 11 19.4244 11.5309 20.8783 12.3386C22.3661 13.1652 23 14.1474 23 15ZM24 15C24 17.7614 19.9706 20 15 20C10.0294 20 6 17.7614 6 15C6 12.2386 10.0294 10 15 10C19.9706 10 24 12.2386 24 15ZM15 17C16.1046 17 17 16.1046 17 15C17 13.8954 16.1046 13 15 13C13.8954 13 13 13.8954 13 15C13 16.1046 13.8954 17 15 17Z" fill="black"/>
</svg>
