<svg width="24" height="24" viewBox="0 0 24 24" fill="none" xmlns="http://www.w3.org/2000/svg">
<path d="M10 8L7 10.5H4.5V13.5H7L10 16H11.5V8H10Z" stroke="black" stroke-linecap="round"/>
<path d="M15.7427 7.75732C16.2998 8.31448 16.7418 8.97591 17.0433 9.70386C17.3448 10.4318 17.5 11.212 17.5 12C17.5 12.7879 17.3448 13.5681 17.0433 14.2961C16.7418 15.024 16.2998 15.6855 15.7427 16.2426" stroke="black" stroke-linecap="round"/>
<path d="M17.1569 6.34326C17.8997 7.08613 18.489 7.96804 18.891 8.93865C19.2931 9.90925 19.5 10.9495 19.5 12.0001C19.5 13.0507 19.2931 14.091 18.891 15.0616C18.489 16.0322 17.8997 16.9141 17.1569 17.657" stroke="black" stroke-linecap="round"/>
<path d="M14.4749 9.52515C14.7999 9.85015 15.0577 10.236 15.2336 10.6606C15.4094 11.0853 15.5 11.5404 15.5 12C15.5 12.4596 15.4094 12.9148 15.2336 13.3394C15.0577 13.7641 14.7999 14.1499 14.4749 14.4749" stroke="black" stroke-linecap="round"/>
</svg>
