<svg width="24" height="24" viewBox="0 0 24 24" fill="none" xmlns="http://www.w3.org/2000/svg">
<path d="M18.0045 17H15V18H18.0045V17ZM19.0045 16C19.0045 16.5523 18.5568 17 18.0045 17V18C19.1091 18 20.0045 17.1046 20.0045 16H19.0045ZM19.0045 8V16H20.0045V8H19.0045ZM18.0045 7C18.5568 7 19.0045 7.44771 19.0045 8H20.0045C20.0045 6.89543 19.1091 6 18.0045 6V7ZM15 7H18.0045V6H15V7ZM15 7C15.5523 7 16 7.44771 16 8H17C17 6.89543 16.1046 6 15 6V7ZM16 8V16H17V8H16ZM16 16C16 16.5523 15.5523 17 15 17V18C16.1046 18 17 17.1046 17 16H16Z" fill="black"/>
<rect x="4.50003" y="6.50001" width="12" height="11" rx="1.5" stroke="black"/>
<circle cx="8.75003" cy="11.75" r="1.25" stroke="black"/>
</svg>
