<svg width="30" height="30" viewBox="0 0 30 30" fill="none" xmlns="http://www.w3.org/2000/svg">
<path d="M23.05 22H20.55V23H23.05V22ZM24.05 21C24.05 21.5523 23.6023 22 23.05 22V23C24.1546 23 25.05 22.1046 25.05 21H24.05ZM24.05 9V21H25.05V9H24.05ZM23.05 8C23.6023 8 24.05 8.44772 24.05 9H25.05C25.05 7.89543 24.1546 7 23.05 7V8ZM20.55 8H23.05V7H20.55V8ZM20.55 8C21.1023 8 21.55 8.44772 21.55 9H22.55C22.55 7.89543 21.6546 7 20.55 7V8ZM21.55 9V21H22.55V9H21.55ZM21.55 21C21.55 21.5523 21.1023 22 20.55 22V23C21.6546 23 22.55 22.1046 22.55 21H21.55Z" fill="black"/>
<rect x="5.44997" y="7.5" width="16.6" height="15" rx="1.5" stroke="black"/>
<circle cx="9.55003" cy="14.8" r="1.3" stroke="black" stroke-width="0.8"/>
</svg>
