<svg width="24" height="24" viewBox="0 0 24 24" fill="none" xmlns="http://www.w3.org/2000/svg">
<path d="M7.5 10.5H16.5L15.5 19.5H8.5L7.5 10.5Z" stroke="black" stroke-linejoin="round"/>
<path d="M12 13C12 13 13.2065 14.0546 13.4531 15.1338C13.4623 15.1701 13.4701 15.2068 13.4766 15.2441C13.4811 15.2715 13.4851 15.2988 13.4883 15.3262C13.4895 15.3369 13.4912 15.3476 13.4922 15.3584C13.4967 15.4058 13.5 15.4529 13.5 15.5C13.5 16.3284 12.8284 17 12 17C11.1716 17 10.5 16.3284 10.5 15.5C10.5 15.4627 10.502 15.4252 10.5049 15.3877L10.5078 15.3467C10.5094 15.3312 10.5126 15.3161 10.5146 15.3008C10.5165 15.2868 10.5183 15.2728 10.5205 15.2588C10.5277 15.2141 10.5368 15.1702 10.5479 15.127C10.7964 14.0567 11.9853 13.0128 12 13Z" stroke="black" stroke-linejoin="round"/>
<path d="M8.49902 10C8.49902 9.54037 8.58955 9.08525 8.76545 8.66061C8.94134 8.23597 9.19914 7.85013 9.52415 7.52513C9.84916 7.20012 10.235 6.94231 10.6596 6.76642C11.0843 6.59053 11.5394 6.5 11.999 6.5C12.4587 6.5 12.9138 6.59053 13.3384 6.76642C13.7631 6.94231 14.1489 7.20012 14.4739 7.52513C14.7989 7.85013 15.0567 8.23597 15.2326 8.66061C15.4085 9.08525 15.499 9.54037 15.499 10" stroke="black"/>
</svg>
